<svg width="512" height="512" viewBox="0 0 512 512" fill="none" xmlns="http://www.w3.org/2000/svg">
<path d="M49.5 512C38.454 512 29.5 503.046 29.5 492C29.5 391.645 111.145 310 211.5 310H241.5C262.037 310 282.203 313.4 301.437 320.105C311.867 323.741 317.375 335.145 313.738 345.574C310.102 356.004 298.698 361.512 288.269 357.875C273.278 352.65 257.543 350 241.5 350H211.5C133.201 350 69.5 413.701 69.5 492C69.5 503.046 60.546 512 49.5 512ZM359.5 135C359.5 60.561 298.939 0 224.5 0C150.061 0 89.5 60.561 89.5 135C89.5 209.439 150.061 270 224.5 270C298.939 270 359.5 209.439 359.5 135ZM319.5 135C319.5 187.383 276.883 230 224.5 230C172.117 230 129.5 187.383 129.5 135C129.5 82.617 172.117 40 224.5 40C276.883 40 319.5 82.617 319.5 135ZM462.5 392H402.5V332C402.5 320.954 393.546 312 382.5 312C371.454 312 362.5 320.954 362.5 332V392H302.5C291.454 392 282.5 400.954 282.5 412C282.5 423.046 291.454 432 302.5 432H362.5V492C362.5 503.046 371.454 512 382.5 512C393.546 512 402.5 503.046 402.5 492V432H462.5C473.546 432 482.5 423.046 482.5 412C482.5 400.954 473.546 392 462.5 392Z" fill="#E5E5E5"/>
</svg>
