<svg width="1" height="1" viewBox="0 0 1 1" fill="none" xmlns="http://www.w3.org/2000/svg">
<g clip-path="url(#clip0)">
<path d="M0.72786 0.0927523C0.675319 0.064365 0.618551 0.0465846 0.559106 0.0398601C0.497577 0.0329413 0.435936 0.0382313 0.375786 0.0556645C0.315757 0.0731628 0.260813 0.101563 0.212547 0.140404C0.165911 0.177874 0.127449 0.223254 0.0982314 0.275338C0.0690134 0.327421 0.0505101 0.383585 0.0431897 0.442297C0.0356546 0.503067 0.0404928 0.563844 0.0576514 0.623046C0.0747836 0.682157 0.103222 0.736193 0.142085 0.783516C0.179667 0.829213 0.225336 0.866779 0.277876 0.895165C0.330417 0.923553 0.387185 0.941333 0.44663 0.948057C0.508159 0.954977 0.5698 0.949686 0.62995 0.932253C0.690006 0.914847 0.745017 0.886327 0.793309 0.847579C0.839945 0.810109 0.878408 0.764729 0.907626 0.712644C0.936843 0.660562 0.955347 0.604397 0.962668 0.545686C0.970203 0.484915 0.965364 0.424139 0.948205 0.364936C0.931073 0.305826 0.902635 0.251789 0.863772 0.204467C0.826069 0.158705 0.780427 0.121232 0.72786 0.0927523ZM0.158074 0.226056C0.161216 0.221852 0.164211 0.21749 0.167499 0.213443C0.184785 0.192265 0.205237 0.173262 0.226651 0.156177C0.272284 0.119796 0.325343 0.092242 0.381657 0.0759203C0.419169 0.0650483 0.459057 0.0588769 0.498087 0.0581443C0.485429 0.068001 0.471085 0.0839355 0.448864 0.117124C0.4237 0.121622 0.398979 0.128688 0.374856 0.138174C0.343369 0.150594 0.312871 0.167118 0.284268 0.187385C0.258431 0.205652 0.238982 0.223565 0.226149 0.236666C0.200267 0.235185 0.16713 0.23421 0.150775 0.23376C0.153327 0.233819 0.156831 0.227714 0.158074 0.226056ZM0.595443 0.218062L0.578591 0.444715L0.405904 0.532192L0.210437 0.422468C0.200459 0.349906 0.231037 0.274174 0.231037 0.274174C0.231264 0.273909 0.256371 0.242279 0.30203 0.210183C0.328629 0.191395 0.356855 0.176128 0.386083 0.164663C0.409951 0.155349 0.434473 0.148641 0.459435 0.144501L0.595443 0.218062ZM0.0901718 0.597752C0.0941139 0.628846 0.102024 0.659989 0.11345 0.690312C0.10772 0.684189 0.103059 0.678953 0.0994931 0.674696C0.0911095 0.656266 0.0839954 0.636969 0.0781783 0.616898C0.0602992 0.55521 0.0568648 0.492629 0.0659896 0.432796C0.0712823 0.461203 0.0808911 0.489458 0.0891532 0.510618C0.0861744 0.539526 0.0865095 0.568672 0.0901718 0.597752ZM0.173315 0.746419C0.164502 0.732106 0.152886 0.710921 0.142488 0.684492C0.130795 0.654644 0.122804 0.623925 0.119022 0.593382C0.116092 0.569978 0.115501 0.546596 0.117301 0.523418C0.140659 0.488902 0.177095 0.462073 0.197639 0.448634L0.389472 0.556317L0.42179 0.725902L0.290778 0.815474C0.246182 0.799455 0.205813 0.772829 0.173315 0.746419ZM0.682628 0.8579C0.656385 0.888062 0.576254 0.916676 0.543486 0.92747C0.505055 0.931323 0.466266 0.93009 0.428279 0.923932C0.39509 0.91858 0.362437 0.90948 0.331363 0.896731C0.331591 0.895767 0.314465 0.853121 0.310009 0.837048L0.442384 0.746582L0.632075 0.769552L0.682826 0.857543C0.682695 0.857782 0.682628 0.8579 0.682628 0.8579ZM0.920928 0.63084C0.906118 0.673857 0.88563 0.715826 0.856739 0.751546C0.829614 0.784958 0.7865 0.806237 0.747982 0.824487C0.745028 0.825842 0.708208 0.843299 0.707554 0.842092L0.656777 0.754009L0.740368 0.597738L0.893668 0.537837C0.903253 0.561808 0.916867 0.596886 0.925116 0.61835C0.923697 0.622552 0.922373 0.626729 0.920928 0.63084ZM0.887442 0.506207C0.887147 0.50729 0.88688 0.508466 0.886639 0.509734L0.733965 0.569352L0.607478 0.448519L0.624384 0.221351L0.734096 0.196839C0.762485 0.209071 0.788869 0.22418 0.812646 0.241841C0.842407 0.264055 0.868198 0.290415 0.889191 0.32016C0.906891 0.426016 0.894078 0.48502 0.887442 0.506207ZM0.876896 0.259549C0.862539 0.244647 0.846777 0.230851 0.829853 0.21829C0.803097 0.198399 0.77328 0.18159 0.741123 0.168254C0.729601 0.146342 0.705884 0.113494 0.659556 0.0852019C0.660345 0.0854725 0.661159 0.0858351 0.661949 0.0861054C0.664554 0.0870471 0.667092 0.0881079 0.669697 0.0890495C0.699369 0.10081 0.72761 0.11568 0.75394 0.1334C0.802857 0.16643 0.844916 0.209034 0.876724 0.258601C0.876736 0.258996 0.876816 0.259273 0.876896 0.259549Z" fill="#00ECFF"/>
</g>
<defs>
<clipPath id="clip0">
<rect width="1" height="1" fill="white"/>
</clipPath>
</defs>
</svg>
