<svg width="218" height="219" viewBox="0 0 218 219" fill="none" xmlns="http://www.w3.org/2000/svg">
<path d="M116.374 51.848C108.343 51.8678 100.498 54.2715 93.8306 58.7553C87.1628 63.2391 81.9713 69.602 78.9117 77.04C75.8522 84.4781 75.062 92.6576 76.6409 100.545C78.2198 108.433 82.097 115.675 87.7827 121.356C93.4685 127.038 100.708 130.904 108.586 132.466C116.464 134.028 124.627 133.216 132.045 130.133C139.462 127.049 145.801 121.833 150.261 115.143C154.72 108.452 157.1 100.588 157.1 92.5433C157.074 81.7407 152.772 71.3895 145.137 63.7603C137.502 56.1312 127.158 51.8472 116.374 51.848V51.848ZM116.374 121.219C110.717 121.199 105.192 119.5 100.498 116.337C95.8032 113.175 92.1497 108.689 89.9984 103.448C87.8471 98.2062 87.2945 92.4437 88.4103 86.8878C89.5261 81.3319 92.2603 76.2318 96.2677 72.2315C100.275 68.2312 105.376 65.51 110.926 64.4117C116.476 63.3133 122.227 63.887 127.452 66.0603C132.677 68.2336 137.141 71.909 140.282 76.6225C143.424 81.3359 145.1 86.8761 145.1 92.5433C145.078 100.159 142.041 107.455 136.656 112.831C131.271 118.207 123.977 121.224 116.374 121.22V121.219Z" fill="#00ECFF"/>
<path d="M168.9 133.707C178.648 120.994 183.501 105.2 182.572 89.207C181.521 72.8472 174.567 57.4251 163.001 45.807C157.042 39.8435 149.967 35.1128 142.179 31.8851C134.391 28.6574 126.043 26.9961 117.612 26.9961C109.182 26.9961 100.834 28.6574 93.0464 31.8851C85.2584 35.1128 78.1828 39.8435 72.224 45.807C60.6602 57.4223 53.7061 72.8406 52.654 89.197C51.634 104.448 56.472 120.231 66.32 133.697L112.813 195.666C113.372 196.411 114.097 197.016 114.93 197.433C115.763 197.849 116.682 198.066 117.613 198.066C118.544 198.066 119.463 197.849 120.296 197.433C121.129 197.016 121.854 196.411 122.413 195.666L168.9 133.707ZM117.613 182.071L75.963 126.559C67.821 115.426 63.795 102.442 64.628 89.992C65.4894 76.5328 71.208 63.8441 80.721 54.284C85.5652 49.4384 91.3164 45.5947 97.6464 42.9722C103.976 40.3497 110.761 38.9999 117.612 38.9999C124.464 38.9999 131.249 40.3497 137.579 42.9722C143.909 45.5947 149.66 49.4384 154.504 54.284C164.022 63.8482 169.743 76.5432 170.604 90.009C171.339 103.134 167.33 116.085 159.31 126.5L117.613 182.071Z" fill="#00ECFF"/>
</svg>
