<?xml version="1.0" encoding="UTF-8" standalone="no"?>
<!-- Created with Inkscape (http://www.inkscape.org/) -->
<svg xmlns="http://www.w3.org/2000/svg" id="svg1" viewBox="150 1275 400 200" version="1.0">
  <g id="layer1" transform="translate(268.42 -809.51)">
    <defs>
    <linearGradient id="grad1" x1="0%" y1="0%" x2="90%" y2="0%">
      <stop offset="1%" style="stop-color:rgb(0,142,210);stop-opacity:1" />
      <stop offset="100%" style="stop-color:rgb(33,246,255);stop-opacity:0.9192051820728291" />
    </linearGradient>
  </defs>
    <path
        id="1"
        fill="url(#grad1)"
        d="m0 2010.37c-55.89 0-101.4 45.504-101.4 101.4 0 55.897 45.506 101.4 101.4 101.4 55.897 0 101.4-45.506 101.4-101.4 0-55.897-45.506-101.4-101.4-101.4zm152.43 11.748c-9.3982 0-16.969 7.5707-16.969 16.969v42.875c0 9.3983 7.5706 16.938 16.969 16.938 9.3982 0 16.969-7.5392 16.969-16.938v-42.875c0-9.3981-7.5705-16.969-16.969-16.969zm-152.43 6.0821c46.261 0 83.57 37.31 83.57 83.57 0 46.261-37.31 83.572-83.57 83.572-46.261 0-83.57-37.312-83.57-83.572s37.31-83.57 83.57-83.57zm0 7.1894a7.1412 7.1412 0 0 0 -0.60938 0.031 7.1412 7.1412 0 0 0 -0.36523 0.045 7.1412 7.1412 0 0 0 -0.33398 0.049 7.1412 7.1412 0 0 0 -0.36719 0.084 7.1412 7.1412 0 0 0 -0.33399 0.084 7.1412 7.1412 0 0 0 -0.33203 0.1113 7.1412 7.1412 0 0 0 -0.3457 0.125 7.1412 7.1412 0 0 0 -0.31836 0.1446 7.1412 7.1412 0 0 0 -0.32422 0.1562 7.1412 7.1412 0 0 0 -0.30469 0.1738 7.1412 7.1412 0 0 0 -0.31445 0.1934 7.1412 7.1412 0 0 0 -0.27734 0.1973 7.1412 7.1412 0 0 0 -0.28906 0.2207 7.1412 7.1412 0 0 0 -0.28321 0.248 7.1412 7.1412 0 0 0 -0.24219 0.2266 7.1412 7.1412 0 0 0 -0.26367 0.2832 7.1412 7.1412 0 0 0 -0.21679 0.2461 7.1412 7.1412 0 0 0 -0.23047 0.3027 7.1412 7.1412 0 0 0 -0.19336 0.2695 7.1412 7.1412 0 0 0 -0.19922 0.3262 7.1412 7.1412 0 0 0 -0.16602 0.2891 7.1412 7.1412 0 0 0 -0.16211 0.3379 7.1412 7.1412 0 0 0 -0.13867 0.3105 7.1412 7.1412 0 0 0 -0.125 0.3418 7.1412 7.1412 0 0 0 -0.11133 0.3359 7.1412 7.1412 0 0 0 -0.0898 0.3497 7.1412 7.1412 0 0 0 -0.0762 0.3378 7.1412 7.1412 0 0 0 -0.0566 0.3711 7.1412 7.1412 0 0 0 -0.041 0.3399 7.1412 7.1412 0 0 0 -0.0312 0.6094 7.1412 7.1412 0 0 0 0.0312 0.6113 7.1412 7.1412 0 0 0 0.041 0.3418 7.1412 7.1412 0 0 0 0.0566 0.3672 7.1412 7.1412 0 0 0 0.0801 0.3574 7.1412 7.1412 0 0 0 0.082 0.3203 7.1412 7.1412 0 0 0 0.12304 0.375 7.1412 7.1412 0 0 0 0.11133 0.3027 7.1412 7.1412 0 0 0 0.15625 0.3516 7.1412 7.1412 0 0 0 0.14453 0.2969 7.1412 7.1412 0 0 0 0.19336 0.3359 7.1412 7.1412 0 0 0 0.16797 0.2754 7.1412 7.1412 0 0 0 0.22266 0.3125 7.1412 7.1412 0 0 0 0.20312 0.2656 7.1412 7.1412 0 0 0 0.25196 0.2891 7.1412 7.1412 0 0 0 0.22461 0.2383 7.1412 7.1412 0 0 0 0.26953 0.2539 7.1412 7.1412 0 0 0 0.26758 0.2324 7.1412 7.1412 0 0 0 0.28515 0.2168 7.1412 7.1412 0 0 0 0.28125 0.2012 7.1412 7.1412 0 0 0 0.32031 0.1972 7.1412 7.1412 0 0 0 0.29493 0.168 7.1412 7.1412 0 0 0 0.33593 0.1641 7.1412 7.1412 0 0 0 0.31055 0.1386 7.1412 7.1412 0 0 0 0.34961 0.127 7.1412 7.1412 0 0 0 0.32227 0.1074 7.1412 7.1412 0 0 0 0.36718 0.096 7.1412 7.1412 0 0 0 0.32617 0.072 7.1412 7.1412 0 0 0 0.36524 0.057 7.1412 7.1412 0 0 0 0.3457 0.041 7.1412 7.1412 0 0 0 0.61133 0.031 7.1412 7.1412 0 0 0 0.60742 -0.031 7.1412 7.1412 0 0 0 0.36524 -0.045 7.1412 7.1412 0 0 0 0.33398 -0.051 7.1412 7.1412 0 0 0 0.36914 -0.082 7.1412 7.1412 0 0 0 0.33203 -0.086 7.1412 7.1412 0 0 0 0.33399 -0.1114 7.1412 7.1412 0 0 0 0.34375 -0.125 7.1412 7.1412 0 0 0 0.3125 -0.1386 7.1412 7.1412 0 0 0 0.33593 -0.1641 7.1412 7.1412 0 0 0 0.29493 -0.168 7.1412 7.1412 0 0 0 0.31836 -0.1972 7.1412 7.1412 0 0 0 0.28125 -0.2012 7.1412 7.1412 0 0 0 0.28515 -0.2149 7.1412 7.1412 0 0 0 0.28516 -0.25 7.1412 7.1412 0 0 0 0.24219 -0.2265 7.1412 7.1412 0 0 0 0.25195 -0.2695 7.1412 7.1412 0 0 0 0.23437 -0.2676 7.1412 7.1412 0 0 0 0.20704 -0.2715 7.1412 7.1412 0 0 0 0.21679 -0.3027 7.1412 7.1412 0 0 0 0.17774 -0.2911 7.1412 7.1412 0 0 0 0.18554 -0.3242 7.1412 7.1412 0 0 0 0.14453 -0.2988 7.1412 7.1412 0 0 0 0.15625 -0.3516 7.1412 7.1412 0 0 0 0.11329 -0.3066 7.1412 7.1412 0 0 0 0.12109 -0.3672 7.1412 7.1412 0 0 0 0.0859 -0.332 7.1412 7.1412 0 0 0 0.0781 -0.3457 7.1412 7.1412 0 0 0 0.0547 -0.3731 7.1412 7.1412 0 0 0 0.041 -0.3379 7.1412 7.1412 0 0 0 0.0312 -0.6132 7.1412 7.1412 0 0 0 -0.0312 -0.6094 7.1412 7.1412 0 0 0 -0.041 -0.3457 7.1412 7.1412 0 0 0 -0.0547 -0.3633 7.1412 7.1412 0 0 0 -0.0742 -0.332 7.1412 7.1412 0 0 0 -0.0937 -0.3672 7.1412 7.1412 0 0 0 -0.10156 -0.3028 7.1412 7.1412 0 0 0 -0.13476 -0.3711 7.1412 7.1412 0 0 0 -0.13868 -0.3085 7.1412 7.1412 0 0 0 -0.1582 -0.3282 7.1412 7.1412 0 0 0 -0.18164 -0.3144 7.1412 7.1412 0 0 0 -0.18359 -0.2989 7.1412 7.1412 0 0 0 -0.20508 -0.289 7.1412 7.1412 0 0 0 -0.2168 -0.2852 7.1412 7.1412 0 0 0 -0.23828 -0.2695 7.1412 7.1412 0 0 0 -0.24023 -0.2598 7.1412 7.1412 0 0 0 -0.26172 -0.2422 7.1412 7.1412 0 0 0 -0.26954 -0.2382 7.1412 7.1412 0 0 0 -0.27929 -0.211 7.1412 7.1412 0 0 0 -0.29297 -0.2109 7.1412 7.1412 0 0 0 -0.30469 -0.1875 7.1412 7.1412 0 0 0 -0.31055 -0.1758 7.1412 7.1412 0 0 0 -0.31835 -0.1543 7.1412 7.1412 0 0 0 -0.32813 -0.1465 7.1412 7.1412 0 0 0 -0.33398 -0.123 7.1412 7.1412 0 0 0 -0.33985 -0.1114 7.1412 7.1412 0 0 0 -0.34375 -0.09 7.1412 7.1412 0 0 0 -0.3457 -0.078 7.1412 7.1412 0 0 0 -0.36524 -0.055 7.1412 7.1412 0 0 0 -0.34374 -0.043 7.1412 7.1412 0 0 0 -0.60938 -0.029zm96.5 4.6035c14.958 20.054 23.824 44.903 23.824 71.777 0 4.6465-0.27535 9.229-0.79102 13.74 52.249 0.7939 96.863 3.3872 96.863 7.7012v149.62c0 15.392-11.749 27.156-27.125 27.156h-205.72c-15.376 0-27.156-11.78-27.156-27.156v-58.928c-6.9966-2.7313-13.676-6.1017-19.969-10.035v68.963c0 26.117 21.008 47.156 47.125 47.156h205.72c26.117 0 47.156-21.039 47.156-47.156v-195.72c0-26.117-21.039-47.125-47.156-47.125h-7.6875v44.406c0 16.148-13.008 29.156-29.156 29.156s-29.156-13.008-29.156-29.156v-44.406h-26.771zm-61.711 4.6739a7.1412 7.1412 0 0 0 -6.3535 3.5683 7.1412 7.1412 0 0 0 2.6133 9.7559 7.1412 7.1412 0 0 0 9.7559 -2.6133 7.1412 7.1412 0 0 0 -2.6152 -9.7558 7.1412 7.1412 0 0 0 -3.4004 -0.9551zm-69.072 0.012a7.1412 7.1412 0 0 0 -3.9082 0.9473 7.1412 7.1412 0 0 0 -2.6133 9.7558 7.1412 7.1412 0 0 0 9.7559 2.6133 7.1412 7.1412 0 0 0 2.6133 -9.7559 7.1412 7.1412 0 0 0 -5.8476 -3.5605zm26.631 11.482 0.01 0.033v40.898a16.559 16.559 0 0 0 -0.0742 0.043 16.559 16.559 0 0 0 -0.14062 0.082 16.559 16.559 0 0 0 -0.006 0.01 16.559 16.559 0 0 0 -0.41992 0.2149 16.559 16.559 0 0 0 -0.35547 0.2304 16.559 16.559 0 0 0 -0.4961 0.3106 16.559 16.559 0 0 0 -0.01 0.01 16.559 16.559 0 0 0 -0.14453 0.1055 16.559 16.559 0 0 0 -0.17578 0.1133 16.559 16.559 0 0 0 -0.34766 0.2598 16.559 16.559 0 0 0 -0.006 0 16.559 16.559 0 0 0 -0.0156 0.012 16.559 16.559 0 0 0 -0.64258 0.4883 16.559 16.559 0 0 0 -0.006 0.012 16.559 16.559 0 0 0 -0.125 0.1094 16.559 16.559 0 0 0 -0.16797 0.1347 16.559 16.559 0 0 0 -0.32031 0.2969 16.559 16.559 0 0 0 -0.60938 0.5664 16.559 16.559 0 0 0 -0.0957 0.1016 16.559 16.559 0 0 0 -0.006 0.01 16.559 16.559 0 0 0 -0.16797 0.1641 16.559 16.559 0 0 0 -0.29101 0.3281 16.559 16.559 0 0 0 -0.62305 0.7227 16.559 16.559 0 0 0 -0.16992 0.2031 16.559 16.559 0 0 0 -0.29688 0.4121 16.559 16.559 0 0 0 -0.4375 0.6133 16.559 16.559 0 0 0 -0.006 0.01 16.559 16.559 0 0 0 -0.0664 0.1113 16.559 16.559 0 0 0 -0.14649 0.2129 16.559 16.559 0 0 0 -0.11719 0.205 16.559 16.559 0 0 0 -0.21679 0.336 16.559 16.559 0 0 0 -0.0957 0.1836 16.559 16.559 0 0 0 -0.19726 0.3691 16.559 16.559 0 0 0 -0.0723 0.1504 16.559 16.559 0 0 0 -0.006 0.01 16.559 16.559 0 0 0 -0.10547 0.1953 16.559 16.559 0 0 0 -0.0801 0.1758 16.559 16.559 0 0 0 -0.0879 0.1718 16.559 16.559 0 0 0 -0.0801 0.1895 16.559 16.559 0 0 0 -0.32617 0.7676 16.559 16.559 0 0 0 -0.004 0.01 16.559 16.559 0 0 0 -0.082 0.1954 16.559 16.559 0 0 0 -0.0625 0.1836 16.559 16.559 0 0 0 -0.0723 0.1835 16.559 16.559 0 0 0 -0.0644 0.2051 16.559 16.559 0 0 0 -0.20313 0.6289 16.559 16.559 0 0 0 0 0.01 16.559 16.559 0 0 0 -0.041 0.1621 16.559 16.559 0 0 0 -0.0605 0.1953 16.559 16.559 0 0 0 -0.043 0.1856 16.559 16.559 0 0 0 -0.0566 0.2011 16.559 16.559 0 0 0 -0.043 0.2168 16.559 16.559 0 0 0 -0.14257 0.6524 16.559 16.559 0 0 0 -0.0254 0.1738 16.559 16.559 0 0 0 0 0.01 16.559 16.559 0 0 0 -0.0371 0.1797 16.559 16.559 0 0 0 -0.0195 0.166 16.559 16.559 0 0 0 -0.041 0.2304 16.559 16.559 0 0 0 -0.0254 0.2383 16.559 16.559 0 0 0 -0.0703 0.6406 16.559 16.559 0 0 0 -0.008 0.1329 16.559 16.559 0 0 0 0 0.01 16.559 16.559 0 0 0 -0.0234 0.2442 16.559 16.559 0 0 0 -0.006 0.1933 16.559 16.559 0 0 0 -0.0137 0.1973 16.559 16.559 0 0 0 0 0.2363 16.559 16.559 0 0 0 -0.006 0.055 16.559 16.559 0 0 0 -0.0156 0.3398 16.559 16.559 0 0 0 0 0.01 16.559 16.559 0 0 0 0.0176 0.5078 16.559 16.559 0 0 0 0 0.1211 16.559 16.559 0 0 0 0.008 0.1074 16.559 16.559 0 0 0 0.0449 0.6739 16.559 16.559 0 0 0 0.0274 0.2226 16.559 16.559 0 0 0 0.0644 0.6289 16.559 16.559 0 0 0 0.0371 0.2149 16.559 16.559 0 0 0 0.0937 0.5683 16.559 16.559 0 0 0 0.0469 0.211 16.559 16.559 0 0 0 0.13282 0.6328 16.559 16.559 0 0 0 0.0547 0.1992 16.559 16.559 0 0 0 0.21485 0.752 16.559 16.559 0 0 0 0.006 0.019 16.559 16.559 0 0 0 0.1914 0.6133 16.559 16.559 0 0 0 0.082 0.2109 16.559 16.559 0 0 0 0.31055 0.7695 16.559 16.559 0 0 0 0.23438 0.5528 16.559 16.559 0 0 0 0.0976 0.1914 16.559 16.559 0 0 0 0.25977 0.5195 16.559 16.559 0 0 0 0.0664 0.1152 16.559 16.559 0 0 0 0.22461 0.4375h0.004a16.559 16.559 0 0 0 0 0.01 16.559 16.559 0 0 0 0.20898 0.3242 16.559 16.559 0 0 0 0.12305 0.2149 16.559 16.559 0 0 0 0.2168 0.3281 16.559 16.559 0 0 0 0.0976 0.1367 16.559 16.559 0 0 0 0.11524 0.1778 16.559 16.559 0 0 0 0.14258 0.1875 16.559 16.559 0 0 0 0.37109 0.5117 16.559 16.559 0 0 0 0.25977 0.3222 16.559 16.559 0 0 0 0.10937 0.125 16.559 16.559 0 0 0 0.12695 0.1582 16.559 16.559 0 0 0 0.16016 0.1719 16.559 16.559 0 0 0 0.42188 0.4766 16.559 16.559 0 0 0 0.29492 0.2949 16.559 16.559 0 0 0 0.10937 0.1016 16.559 16.559 0 0 0 0.006 0.01 16.559 16.559 0 0 0 0.14649 0.1504 16.559 16.559 0 0 0 0.19726 0.1758 16.559 16.559 0 0 0 0.44531 0.4102 16.559 16.559 0 0 0 0.44141 0.3554 16.559 16.559 0 0 0 0.16992 0.1426 16.559 16.559 0 0 0 0.27735 0.2012 16.559 16.559 0 0 0 0.41992 0.3164 16.559 16.559 0 0 0 0.006 0.01 16.559 16.559 0 0 0 0.33008 0.2188 16.559 16.559 0 0 0 0.11914 0.074 16.559 16.559 0 0 0 0.20312 0.1367 16.559 16.559 0 0 0 0.13281 0.078 16.559 16.559 0 0 0 0.40235 0.2597 16.559 16.559 0 0 0 0.006 0.01 16.559 16.559 0 0 0 0.18945 0.1 16.559 16.559 0 0 0 0.36523 0.1953 16.559 16.559 0 0 0 0.16016 0.076 16.559 16.559 0 0 0 0.18555 0.1015 16.559 16.559 0 0 0 0.16601 0.076 16.559 16.559 0 0 0 0.18164 0.092 16.559 16.559 0 0 0 0.19727 0.084 16.559 16.559 0 0 0 0.60547 0.2656 16.559 16.559 0 0 0 0.17773 0.066 16.559 16.559 0 0 0 0.006 0 16.559 16.559 0 0 0 0.17774 0.074 16.559 16.559 0 0 0 0.16406 0.057 16.559 16.559 0 0 0 0.20312 0.08 16.559 16.559 0 0 0 0.21485 0.068 16.559 16.559 0 0 0 0.61914 0.1992 16.559 16.559 0 0 0 0.006 0 16.559 16.559 0 0 0 0.16992 0.045 16.559 16.559 0 0 0 0.18555 0.057 16.559 16.559 0 0 0 0.14257 0.033 16.559 16.559 0 0 0 0.2461 0.068 16.559 16.559 0 0 0 0.24219 0.051 16.559 16.559 0 0 0 0.62304 0.1328 16.559 16.559 0 0 0 0.004 0 16.559 16.559 0 0 0 0.16601 0.025 16.559 16.559 0 0 0 0.19727 0.039 16.559 16.559 0 0 0 0.13672 0.016 16.559 16.559 0 0 0 0.25976 0.047 16.559 16.559 0 0 0 0.26758 0.027 16.559 16.559 0 0 0 0.60352 0.066 16.559 16.559 0 0 0 0.006 0 16.559 16.559 0 0 0 0.17383 0.012 16.559 16.559 0 0 0 0.20898 0.019 16.559 16.559 0 0 0 0.13477 0.01 16.559 16.559 0 0 0 0.25586 0.02 16.559 16.559 0 0 0 0.26953 0 16.559 16.559 0 0 0 0.01 0 16.559 16.559 0 0 0 0.35156 0.018 16.559 16.559 0 0 0 0.54297 -0.019 16.559 16.559 0 0 0 0.0937 0 16.559 16.559 0 0 0 0.0801 -0.01 16.559 16.559 0 0 0 0.93164 -0.074 16.559 16.559 0 0 0 0.62305 -0.064 16.559 16.559 0 0 0 0.20898 -0.037 16.559 16.559 0 0 0 0.0312 -0.01 16.559 16.559 0 0 0 0.53711 -0.09 16.559 16.559 0 0 0 0.0117 0 16.559 16.559 0 0 0 0.16992 -0.039 16.559 16.559 0 0 0 0.66992 -0.1386 16.559 16.559 0 0 0 0.1836 -0.053 16.559 16.559 0 0 0 0.1875 -0.043 16.559 16.559 0 0 0 0.38281 -0.1094 16.559 16.559 0 0 0 0.0117 -0.01 16.559 16.559 0 0 0 0.20703 -0.07 16.559 16.559 0 0 0 0.60938 -0.1894 16.559 16.559 0 0 0 0.19922 -0.078 16.559 16.559 0 0 0 0.16406 -0.057 16.559 16.559 0 0 0 0.35547 -0.1426 16.559 16.559 0 0 0 0.0176 -0.01 16.559 16.559 0 0 0 0.26368 -0.1172 16.559 16.559 0 0 0 0.16015 -0.068 16.559 16.559 0 0 0 0.0156 -0.01 16.559 16.559 0 0 0 0.35742 -0.1523 16.559 16.559 0 0 0 0.17578 -0.09 16.559 16.559 0 0 0 0.18164 -0.084 16.559 16.559 0 0 0 0.32422 -0.168 16.559 16.559 0 0 0 0.0254 -0.012 16.559 16.559 0 0 0 0.12109 -0.07 16.559 16.559 0 0 0 0.4375 -0.2246v-0.01a16.559 16.559 0 0 0 0.30469 -0.1973 16.559 16.559 0 0 0 0.23633 -0.1367 16.559 16.559 0 0 0 0.29688 -0.1953 16.559 16.559 0 0 0 0.0312 -0.018 16.559 16.559 0 0 0 0.1875 -0.1347 16.559 16.559 0 0 0 0.13282 -0.088 16.559 16.559 0 0 0 0.19726 -0.1465 16.559 16.559 0 0 0 0.49805 -0.3613 16.559 16.559 0 0 0 0.006 -0.01 16.559 16.559 0 0 0 0.27148 -0.2188 16.559 16.559 0 0 0 0.0312 -0.023 16.559 16.559 0 0 0 0.20118 -0.1777 16.559 16.559 0 0 0 0.10156 -0.08 16.559 16.559 0 0 0 0.14453 -0.1348 16.559 16.559 0 0 0 0.49805 -0.4433 16.559 16.559 0 0 0 0.24609 -0.2422 16.559 16.559 0 0 0 0.0254 -0.023 16.559 16.559 0 0 0 0.18164 -0.1933 16.559 16.559 0 0 0 0.0918 -0.092 16.559 16.559 0 0 0 0.004 -0.01 16.559 16.559 0 0 0 0.10938 -0.1211 16.559 16.559 0 0 0 0.21875 -0.2363 16.559 16.559 0 0 0 0.004 -0.01 16.559 16.559 0 0 0 0.25586 -0.2773 16.559 16.559 0 0 0 0.006 -0.01 16.559 16.559 0 0 0 0.22266 -0.2676 16.559 16.559 0 0 0 0.0195 -0.023 16.559 16.559 0 0 0 0.15625 -0.2051 16.559 16.559 0 0 0 0.0937 -0.1113 16.559 16.559 0 0 0 0.13281 -0.1836 16.559 16.559 0 0 0 0.38477 -0.5098 16.559 16.559 0 0 0 0.004 -0.012 16.559 16.559 0 0 0 0.19531 -0.2871 16.559 16.559 0 0 0 0.0234 -0.035 16.559 16.559 0 0 0 0.14843 -0.2421 16.559 16.559 0 0 0 0.0586 -0.086 16.559 16.559 0 0 0 0.006 -0.01 16.559 16.559 0 0 0 0.0117 -0.018 16.559 16.559 0 0 0 0.0352 -0.062 16.559 16.559 0 0 0 0.29102 -0.4492l-0.006-0.01a16.559 16.559 0 0 0 0.0937 -0.1816 16.559 16.559 0 0 0 0.17773 -0.3282 16.559 16.559 0 0 0 0.0312 -0.051 16.559 16.559 0 0 0 0.0352 -0.078h24.039v-15.283h-24.035a16.559 16.559 0 0 0 -0.043 -0.076 16.559 16.559 0 0 0 -0.0977 -0.1699 16.559 16.559 0 0 0 -0.19922 -0.3906 16.559 16.559 0 0 0 -0.24023 -0.3711 16.559 16.559 0 0 0 -0.29883 -0.4785 16.559 16.559 0 0 0 -0.01 -0.016 16.559 16.559 0 0 0 -0.10156 -0.1426 16.559 16.559 0 0 0 -0.11914 -0.1817 16.559 16.559 0 0 0 -0.25781 -0.3457 16.559 16.559 0 0 0 -0.006 -0.01 16.559 16.559 0 0 0 -0.006 -0.01 16.559 16.559 0 0 0 -0.48828 -0.6426 16.559 16.559 0 0 0 -0.006 -0.012 16.559 16.559 0 0 0 -0.12695 -0.1426 16.559 16.559 0 0 0 -0.1211 -0.1523 16.559 16.559 0 0 0 -0.29297 -0.3184 16.559 16.559 0 0 0 -0.006 -0.01 16.559 16.559 0 0 0 -0.0176 -0.023 16.559 16.559 0 0 0 -0.68555 -0.7129 16.559 16.559 0 0 0 -0.13281 -0.1367 16.559 16.559 0 0 0 -0.29688 -0.2656 16.559 16.559 0 0 0 -0.0293 -0.027 16.559 16.559 0 0 0 -0.0117 -0.01 16.559 16.559 0 0 0 -0.008 -0.01 16.559 16.559 0 0 0 -0.0137 -0.014 16.559 16.559 0 0 0 -0.006 -0.01 16.559 16.559 0 0 0 -0.57422 -0.5039 16.559 16.559 0 0 0 -0.0137 -0.012 16.559 16.559 0 0 0 -0.1543 -0.1153 16.559 16.559 0 0 0 -0.14648 -0.123 16.559 16.559 0 0 0 -0.29688 -0.2149 16.559 16.559 0 0 0 -0.0508 -0.039 16.559 16.559 0 0 0 -0.0254 -0.02 16.559 16.559 0 0 0 -0.65429 -0.4668 16.559 16.559 0 0 0 -0.004 -0.01 16.559 16.559 0 0 0 -0.18359 -0.1133 16.559 16.559 0 0 0 -0.14649 -0.098 16.559 16.559 0 0 0 -0.1582 -0.092 16.559 16.559 0 0 0 -0.37305 -0.2421 16.559 16.559 0 0 0 -0.17187 -0.088 16.559 16.559 0 0 0 -0.38477 -0.209 16.559 16.559 0 0 0 -0.006 -0.01 16.559 16.559 0 0 0 -0.0762 -0.037v-40.904h-15.283zm-52.143 13.854a7.1412 7.1412 0 0 0 -6.3535 3.5684 7.1412 7.1412 0 0 0 2.6152 9.7558 7.1412 7.1412 0 0 0 9.7559 -2.6132 7.1412 7.1412 0 0 0 -2.6152 -9.7559 7.1412 7.1412 0 0 0 -3.4023 -0.9551zm120.1 0.012a7.1412 7.1412 0 0 0 -3.9062 0.9473 7.1412 7.1412 0 0 0 -2.6152 9.7559 7.1412 7.1412 0 0 0 9.7559 2.6133 7.1412 7.1412 0 0 0 2.6133 -9.7559 7.1412 7.1412 0 0 0 -5.8477 -3.5606zm-129.54 34.611a7.1412 7.1412 0 0 0 -7.1406 7.1406 7.1412 7.1412 0 0 0 7.1406 7.1406 7.1412 7.1412 0 0 0 7.1426 -7.1406 7.1412 7.1412 0 0 0 -7.1426 -7.1406zm138.48 0a7.1412 7.1412 0 0 0 -7.1426 7.1406 7.1412 7.1412 0 0 0 7.1426 7.1406 7.1412 7.1412 0 0 0 7.1406 -7.1406 7.1412 7.1412 0 0 0 -7.1406 -7.1406zm-9.1074 34.621a7.1412 7.1412 0 0 0 -6.3535 3.5683 7.1412 7.1412 0 0 0 2.6152 9.7559 7.1412 7.1412 0 0 0 9.7539 -2.6133 7.1412 7.1412 0 0 0 -2.6133 -9.7559 7.1412 7.1412 0 0 0 -3.4023 -0.955zm-119.76 0.01a7.1412 7.1412 0 0 0 -3.9082 0.9493 7.1412 7.1412 0 0 0 -2.6152 9.7558 7.1412 7.1412 0 0 0 9.7559 2.6133 7.1412 7.1412 0 0 0 2.6152 -9.7559 7.1412 7.1412 0 0 0 -5.8477 -3.5625zm185.96 13.85c-5.2205-0.01-10.418 0.1199-13.484 0.3887-0.8531 2.2981-1.7784 4.5612-2.7656 6.791v12.477c0 1.919 1.4874 3.375 3.4062 3.375h25.656c1.919 0 3.4062-1.4541 3.4062-3.375v-18.688c0-0.65-8.1066-0.9626-16.219-0.9688zm39.875 0c-8.112-0.01-16.219 0.2943-16.219 0.9688v18.688c0 1.919 1.4562 3.375 3.375 3.375h25.688c1.919 0 3.375-1.4541 3.375-3.375v-18.688c0-0.65-8.1066-0.9626-16.219-0.9688zm-200.66 11.487a7.1412 7.1412 0 0 0 -6.3535 3.5703 7.1412 7.1412 0 0 0 2.6133 9.7539 7.1412 7.1412 0 0 0 9.7559 -2.6132 7.1412 7.1412 0 0 0 -2.6133 -9.7559 7.1412 7.1412 0 0 0 -3.4023 -0.9551zm69.408 0.01a7.1412 7.1412 0 0 0 -3.9082 0.9492 7.1412 7.1412 0 0 0 -2.6133 9.7559 7.1412 7.1412 0 0 0 9.7539 2.6132 7.1412 7.1412 0 0 0 2.6152 -9.7539 7.1412 7.1412 0 0 0 -5.8477 -3.5644zm-34.957 9.2695a7.1412 7.1412 0 0 0 -7.1426 7.1406 7.1412 7.1412 0 0 0 7.1426 7.1426 7.1412 7.1412 0 0 0 7.1406 -7.1426 7.1412 7.1412 0 0 0 -7.1406 -7.1406zm126.33 15.482c-8.112-0.01-16.25 0.3255-16.25 1v18.656c0 1.9189 1.4874 3.4062 3.4062 3.4062h25.656c1.919 0 3.4062-1.4853 3.4062-3.4062v-18.656c0-0.65-8.1066-0.9939-16.219-1zm39.875 0c-8.112-0.01-16.219 0.3255-16.219 1v18.656c0 1.9189 1.4562 3.4062 3.375 3.4062h25.688c1.919 0 3.375-1.4853 3.375-3.4062v-18.656c0-0.65-8.1066-0.9939-16.219-1zm-74.396 0.062c-6.348 7.4925-13.592 14.202-21.568 19.959 0.17424 1.7362 1.5467 3.041 3.3398 3.041h25.688c1.919 0 3.375-1.4853 3.375-3.4062v-18.656c0-0.5031-4.8772-0.8158-10.834-0.9375zm-45.291 36.188c-2.8064 0-5.4795 0.05-7.9492 0.129-2.7145 0.9215-5.4726 1.7477-8.2695 2.4765v17.082c0 1.919 1.4874 3.375 3.4062 3.375h25.656c1.919 0 3.4062-1.454 3.4062-3.375v-18.688c0-0.65-8.138-0.9939-16.25-1zm39.906 0c-8.112-0.01-16.219 0.3256-16.219 1v18.688c0 1.919 1.4562 3.375 3.375 3.375h25.688c1.919 0 3.375-1.454 3.375-3.375v-18.688c0-0.65-8.1068-0.9939-16.219-1zm39.906 0c-8.112-0.01-16.25 0.3256-16.25 1v18.688c0 1.919 1.4874 3.375 3.4062 3.375h25.656c1.919 0 3.4062-1.454 3.4062-3.375v-18.688c0-0.65-8.1066-0.9939-16.219-1zm39.875 0c-8.112-0.01-16.219 0.3256-16.219 1v18.688c0 1.919 1.4562 3.375 3.375 3.375h25.688c1.919 0 3.375-1.454 3.375-3.375v-18.688c0-0.65-8.1066-0.9939-16.219-1zm-143.34 4.2852c-7.4062 1.4318-15.048 2.1914-22.865 2.1914-3.2216 0-6.4136-0.1328-9.5723-0.3828v13.594c0 1.919 1.4561 3.375 3.375 3.375h25.688c1.9189 0 3.375-1.454 3.375-3.375v-15.402zm-16.219 31.996c-8.1121-0.01-16.219 0.3256-16.219 1v18.656c0 1.9189 1.4561 3.4063 3.375 3.4063h25.688c1.9189 0 3.375-1.4853 3.375-3.4063v-18.656c0-0.65-8.1068-0.994-16.219-1zm39.875 0c-8.1121-0.01-16.219 0.3256-16.219 1v18.656c0 1.9189 1.4874 3.4063 3.4062 3.4063h25.656c1.919 0 3.4062-1.4853 3.4062-3.4063v-18.656c0-0.65-8.138-0.994-16.25-1zm39.906 0c-8.112-0.01-16.219 0.3256-16.219 1v18.656c0 1.9189 1.4562 3.4063 3.375 3.4063h25.688c1.919 0 3.375-1.4853 3.375-3.4063v-18.656c0-0.65-8.1068-0.994-16.219-1zm39.906 0c-8.112-0.01-16.25 0.3256-16.25 1v18.656c0 1.9189 1.4874 3.4063 3.4062 3.4063h25.656c1.919 0 3.4062-1.4853 3.4062-3.4063v-18.656c0-0.65-8.1066-0.994-16.219-1zm39.875 0c-8.112-0.01-16.219 0.3256-16.219 1v18.656c0 1.9189 1.4562 3.4063 3.375 3.4063h25.688c1.919 0 3.375-1.4853 3.375-3.4063v-18.656c0-0.65-8.1066-0.994-16.219-1z"
    />
  </g>
</svg>
