<?xml version="1.0" encoding="UTF-8" standalone="no"?>
<!DOCTYPE svg PUBLIC "-//W3C//DTD SVG 1.1//EN" "http://www.w3.org/Graphics/SVG/1.1/DTD/svg11.dtd">
<svg width="100%" height="100%" viewBox="0 0 512 512" version="1.1" xmlns="http://www.w3.org/2000/svg" xmlns:xlink="http://www.w3.org/1999/xlink" xml:space="preserve" xmlns:serif="http://www.serif.com/" style="fill-rule:evenodd;clip-rule:evenodd;stroke-linejoin:round;stroke-miterlimit:2;">
    <g id="Communicate">
        <path d="M215.2,170.512L175.608,130.912C172.505,127.81 167.399,127.81 164.296,130.912L147.32,147.88C142.821,152.38 136.711,154.911 130.348,154.911C123.985,154.911 117.875,152.38 113.376,147.88L111.44,145.944C106.94,141.445 104.409,135.335 104.409,128.972C104.409,122.609 106.94,116.499 111.44,112L128.408,95.024C131.51,91.921 131.51,86.815 128.408,83.712L88.8,44.12C85.697,41.018 80.591,41.018 77.488,44.12L60.52,61.088C32.633,89.037 32.633,134.963 60.52,162.912L96.4,198.792C124.349,226.679 170.275,226.679 198.224,198.792L215.2,181.824C218.302,178.721 218.302,173.615 215.2,170.512ZM169.952,147.88L198.232,176.168L192.576,181.824L164.296,153.536L169.952,147.88ZM83.152,61.088L111.432,89.368L105.776,95.032L77.488,66.744L83.152,61.088ZM107.712,187.488L71.832,151.6C52.272,131.986 50.022,100.673 66.576,78.464L95.024,106.912C84.612,122.72 86.751,143.855 100.12,157.256L102.056,159.192C115.461,172.552 136.589,174.691 152.4,164.288L180.848,192.736C158.638,209.287 127.327,207.037 107.712,187.48L107.712,187.488Z" style="fill:white;fill-rule:nonzero;"/>
        <path d="M216,256L40,256C26.834,256 16,245.166 16,232L16,40C16,26.834 26.834,16 40,16L216,16C229.166,16 240,26.834 240,40L240,232C240,245.166 229.166,256 216,256ZM40,32C35.611,32 32,35.611 32,40L32,232C32,236.389 35.611,240 40,240L216,240C220.389,240 224,236.389 224,232L224,40C224,35.611 220.389,32 216,32L40,32Z" style="fill:white;fill-rule:nonzero;"/>
        <path d="M216,496L40,496C26.834,496 16,485.166 16,472L16,296C16,282.834 26.834,272 40,272L216,272C229.166,272 240,282.834 240,296L240,472C240,485.166 229.166,496 216,496ZM40,288C35.611,288 32,291.611 32,296L32,472C32,476.389 35.611,480 40,480L216,480C220.389,480 224,476.389 224,472L224,296C224,291.611 220.389,288 216,288L40,288Z" style="fill:white;fill-rule:nonzero;"/>
        <path d="M200,328L56,328C51.611,328 48,331.611 48,336L48,432C48,436.389 51.611,440 56,440L200,440C204.389,440 208,436.389 208,432L208,336C208,331.611 204.389,328 200,328ZM128,389.2L77.056,344L178.928,344L128,389.2ZM98.128,384.072L64,414.24L64,353.8L98.128,384.072ZM110.176,394.768L117.376,401.168C123.404,406.631 132.695,406.648 138.744,401.208L145.944,394.808L178.888,424L77.112,424L110.176,394.768ZM157.952,384.072L192,353.8L192,414.24L157.952,384.072Z" style="fill:white;fill-rule:nonzero;"/>
        <path d="M472,16L296,16C282.834,16 272,26.834 272,40L272,232C272,245.166 282.834,256 296,256L336,256L336,356.304L326.64,336.472C324.91,330.62 320.984,325.656 315.688,322.624C310.166,319.438 303.598,318.574 297.44,320.224L290.072,322.208C283.11,324.085 278.236,330.446 278.236,337.657C278.236,339.366 278.51,341.065 279.048,342.688L312.44,439.68C312.761,440.617 313.255,441.485 313.896,442.24L335.568,467.84L336,488.168C336.091,492.493 339.674,496.001 344,496L456,496C460.389,496 464,492.389 464,488L464,466.4L478.656,444.416C479.525,443.107 479.993,441.571 480,440L480,336C480.048,329.667 477.523,323.578 473.008,319.136C466.212,312.437 456.092,310.3 447.168,313.68C446.105,309.674 443.976,306.029 441.008,303.136C434.21,296.441 424.092,294.304 415.168,297.68C414.105,293.674 411.976,290.029 409.008,287.136C402.446,280.646 392.742,278.408 384,281.368L384,256L472,256C485.166,256 496,245.166 496,232L496,40C496,26.834 485.166,16 472,16ZM392,296C394.155,295.993 396.218,296.88 397.696,298.448C399.188,299.907 400.021,301.914 400,304L400,360C400,364.389 403.611,368 408,368C412.389,368 416,364.389 416,360L416,320C416,315.611 419.611,312 424,312C426.155,311.993 428.218,312.88 429.696,314.448C431.188,315.907 432.021,317.914 432,320L432,360C432,364.389 435.611,368 440,368C444.389,368 448,364.389 448,360L448,336C448,331.611 451.611,328 456,328C458.155,327.993 460.218,328.88 461.696,330.448C463.188,331.907 464.021,333.914 464,336L464,437.6L449.344,459.584C448.475,460.893 448.007,462.429 448,464L448,480L351.832,480L351.504,464.632C351.468,462.796 350.801,461.027 349.616,459.624L327.072,433.016L294.232,337.6L301.544,335.632C303.617,335.079 305.826,335.367 307.688,336.432C309.513,337.472 310.845,339.202 311.384,341.232C311.504,341.704 336.768,395.336 336.768,395.336C338.088,398.128 340.912,399.917 344,399.917C348.358,399.917 351.955,396.357 352,392L352,232.896C351.822,228.544 354.957,224.701 359.256,224C361.657,223.759 364.038,224.647 365.696,226.4C367.2,227.87 368.034,229.897 368,232L368,360C368,364.389 371.611,368 376,368C380.389,368 384,364.389 384,360L384,304C384,299.611 387.611,296 392,296ZM480,232C480,236.389 476.389,240 472,240L384,240L384,232C384.048,225.667 381.523,219.578 377.008,215.136C372.028,210.04 365.008,207.45 357.912,208.088C345.373,209.472 335.825,220.282 336,232.896L336,240L296,240C291.611,240 288,236.389 288,232L288,40C288,35.611 291.611,32 296,32L472,32C476.389,32 480,35.611 480,40L480,232Z" style="fill:white;fill-rule:nonzero;"/>
        <path d="M384,64C348.891,64 320,92.891 320,128C320,163.109 348.891,192 384,192L416,192C420.389,192 424,188.389 424,184C424,179.611 420.389,176 416,176L384,176C357.668,176 336,154.332 336,128C336,101.668 357.668,80 384,80C410.332,80 432,101.668 432,128L432,136C432,140.389 428.389,144 424,144C419.611,144 416,140.389 416,136L416,128C416.001,127.912 416.001,127.824 416.001,127.737C416.001,110.037 401.437,95.473 383.737,95.473C366.038,95.473 351.473,110.037 351.473,127.737C351.473,145.436 366.038,160.001 383.737,160.001C391.888,160.001 399.744,156.912 405.712,151.36C410.249,156.83 416.998,160 424.104,160C437.213,160 448,149.213 448,136.104C448,136.069 448,136.035 448,136L448,128C447.961,92.906 419.094,64.039 384,64ZM384,144C375.223,144 368,136.777 368,128C368,119.223 375.223,112 384,112C392.777,112 400,119.223 400,128C400,136.777 392.777,144 384,144Z" style="fill:white;fill-rule:nonzero;"/>
    </g>
</svg>
