<svg width="512" height="512" viewBox="0 0 512 512" fill="none" xmlns="http://www.w3.org/2000/svg">
<g clip-path="url(#clip0)">
<path d="M405.333 263.467C402.005 263.467 398.677 262.315 395.968 260.011C392.427 256.981 309.333 185.045 309.333 111.061C309.333 57.472 352.405 13.8667 405.333 13.8667C458.261 13.8667 501.333 57.472 501.333 111.061C501.333 185.024 418.24 256.981 414.699 260.011C411.989 262.315 408.661 263.467 405.333 263.467Z" fill="#2BF2FF"/>
<path d="M405.333 141.227C386.283 141.227 370.773 125.717 370.773 106.667C370.773 87.616 386.283 72.1067 405.333 72.1067C424.384 72.1067 439.893 87.616 439.893 106.667C439.893 125.717 424.384 141.227 405.333 141.227Z" fill="black"/>
<path d="M122.667 245.333H16C7.168 245.333 0 238.165 0 229.333C0 220.501 7.168 213.333 16 213.333H106.667V16C106.667 7.168 113.835 0 122.667 0C131.499 0 138.667 7.168 138.667 16V229.333C138.667 238.165 131.499 245.333 122.667 245.333Z" fill="white"/>
<path d="M496 330.667H176C167.168 330.667 160 323.499 160 314.667V16C160 7.168 167.168 0 176 0C184.832 0 192 7.168 192 16V298.667H496C504.832 298.667 512 305.835 512 314.667C512 323.499 504.832 330.667 496 330.667Z" fill="white"/>
<path d="M122.667 512C113.835 512 106.667 504.832 106.667 496V298.667H16C7.168 298.667 0 291.499 0 282.667C0 273.835 7.168 266.667 16 266.667H122.667C131.499 266.667 138.667 273.835 138.667 282.667V496C138.667 504.832 131.499 512 122.667 512Z" fill="white"/>
<path d="M176 512C167.168 512 160 504.832 160 496V368C160 359.168 167.168 352 176 352H496C504.832 352 512 359.168 512 368C512 376.832 504.832 384 496 384H192V496C192 504.832 184.832 512 176 512Z" fill="white"/>
<path d="M122.667 117.333H58.6667C49.8347 117.333 42.6667 110.165 42.6667 101.333C42.6667 92.5013 49.8347 85.3333 58.6667 85.3333H122.667C131.499 85.3333 138.667 92.5013 138.667 101.333C138.667 110.165 131.499 117.333 122.667 117.333Z" fill="white"/>
<path d="M346.667 469.333H293.333C284.501 469.333 277.333 462.165 277.333 453.333V368C277.333 359.168 284.501 352 293.333 352C302.165 352 309.333 359.168 309.333 368V437.333H346.667C355.499 437.333 362.667 444.501 362.667 453.333C362.667 462.165 355.499 469.333 346.667 469.333Z" fill="white"/>
<path d="M288 213.333H176C167.168 213.333 160 206.165 160 197.333C160 188.501 167.168 181.333 176 181.333H288C296.832 181.333 304 188.501 304 197.333C304 206.165 296.832 213.333 288 213.333Z" fill="white"/>
<path d="M58.6667 362.667C49.8347 362.667 42.6667 355.499 42.6667 346.667V282.667C42.6667 273.835 49.8347 266.667 58.6667 266.667C67.4987 266.667 74.6667 273.835 74.6667 282.667V346.667C74.6667 355.499 67.4987 362.667 58.6667 362.667Z" fill="white"/>
<path d="M405.333 277.333C401.621 277.333 397.931 276.053 394.944 273.493C390.997 270.123 298.667 190.187 298.667 107.989C298.667 48.448 346.517 0 405.333 0C464.149 0 512 48.448 512 107.989C512 190.187 419.669 270.123 415.723 273.493C412.736 276.053 409.045 277.333 405.333 277.333ZM405.333 32C364.16 32 330.667 66.0907 330.667 107.989C330.667 160.939 382.635 217.365 405.333 239.488C428.032 217.365 480 160.939 480 107.989C480 66.0907 446.507 32 405.333 32Z" fill="#2BF2FF"/>
<path d="M405.333 149.333C381.803 149.333 362.667 130.197 362.667 106.667C362.667 83.136 381.803 64 405.333 64C428.864 64 448 83.136 448 106.667C448 130.197 428.864 149.333 405.333 149.333ZM405.333 96C399.445 96 394.667 100.8 394.667 106.667C394.667 112.533 399.445 117.333 405.333 117.333C411.221 117.333 416 112.533 416 106.667C416 100.8 411.221 96 405.333 96Z" fill="black"/>
</g>
<defs>
<clipPath id="clip0">
<rect width="512" height="512" fill="white"/>
</clipPath>
</defs>
</svg>
