<svg width="512" height="512" viewBox="0 0 512 512" fill="none" xmlns="http://www.w3.org/2000/svg">
<path d="M439.669 481.888L238.293 375.264C233.045 372.48 226.645 372.864 221.685 376.224L67.701 482.848C61.941 486.848 59.445 494.112 61.557 500.8C63.605 507.424 69.813 512 76.789 512H432.149C439.477 512 445.909 507.008 447.669 499.84C449.461 492.704 446.133 485.312 439.669 481.888Z" fill="white"/>
<path d="M507.061 451.488L459.701 238.272C458.549 233.056 454.869 228.8 449.909 226.848C444.917 224.896 439.317 225.568 434.965 228.576L280.949 335.2C276.341 338.4 273.749 343.744 274.101 349.28C274.421 354.88 277.653 359.872 282.581 362.464L483.925 469.088C486.293 470.336 488.853 470.976 491.413 470.976C494.837 470.976 498.261 469.888 501.109 467.68C506.069 463.904 508.405 457.6 507.061 451.488Z" fill="white"/>
<path d="M395.637 203.232C393.525 196.544 387.349 192 380.341 192H234.293C207.733 240.096 168.437 286.08 152.277 304.064C143.189 314.176 130.165 320 116.565 320C102.965 320 89.941 314.176 80.853 304.064C74.613 297.12 64.949 286.016 53.877 272.256L15.157 446.528C13.749 452.96 16.405 459.584 21.845 463.264C24.533 465.088 27.669 465.984 30.773 465.984C33.973 465.984 37.141 465.056 39.893 463.136L389.429 221.12C395.221 217.184 397.685 209.92 395.637 203.232Z" fill="white"/>
<path d="M116.565 0C54.805 0 4.565 50.24 4.565 112C4.565 169.472 94.421 271.264 104.661 282.688C107.701 286.048 112.021 288 116.565 288C121.109 288 125.429 286.048 128.469 282.688C138.709 271.264 228.565 169.472 228.565 112C228.565 50.24 178.325 0 116.565 0ZM116.565 160C90.069 160 68.565 138.496 68.565 112C68.565 85.504 90.069 64 116.565 64C143.061 64 164.565 85.504 164.565 112C164.565 138.496 143.061 160 116.565 160Z" fill="#00ECFF"/>
</svg>
