<svg width="224" height="208" viewBox="0 0 224 208" fill="none" xmlns="http://www.w3.org/2000/svg">
<ellipse cx="112" cy="104" rx="112" ry="104" fill="#F8F8F8"/>
<g clip-path="url(#clip0)">
<path d="M178.76 148.209C176.797 140.376 170.915 134.219 163.339 132.066C164.178 131.543 164.928 130.882 165.56 130.11C166.079 129.398 166.163 128.445 165.776 127.649C165.389 126.853 164.598 126.35 163.734 126.35C159.042 126.35 154.083 122.238 152.317 120.624V112.621C156.099 108.435 159.035 103.515 160.952 98.1495H168.3C170.82 98.1463 172.864 96.0443 172.867 93.4496V69.9499C172.864 67.3552 170.82 65.2532 168.3 65.25H161.111C154.249 44.1912 135.081 30 113.5 30C91.9192 30 72.7508 44.1912 65.8888 65.25H58.6998C56.1797 65.2532 54.1363 67.3552 54.1332 69.9499V93.4496C54.1363 96.0443 56.1797 98.1463 58.6998 98.1495H66.0477C67.9647 103.515 70.9007 108.435 74.6834 112.621V120.624C72.9169 122.238 67.9584 126.35 63.2664 126.35C62.402 126.35 61.6107 126.853 61.224 127.649C60.8373 128.445 60.9209 129.398 61.4404 130.11C62.0717 130.882 62.8221 131.544 63.6615 132.067C56.0846 134.22 50.2042 140.376 48.2391 148.208L46.1163 157.064C45.3721 160.17 44.9979 163.359 45 166.558V168.649C45 169.948 46.0222 171 47.2838 171H179.716C180.978 171 182 169.948 182 168.649V166.558C182.002 163.359 181.627 160.17 180.883 157.065L178.76 148.209ZM168.3 69.9499V93.4496H162.335C163.265 89.607 163.735 85.6601 163.734 81.7003C163.73 77.7437 163.286 73.8011 162.409 69.9499H168.3ZM58.6998 93.4496V69.9499H64.5907C63.7137 73.8011 63.2695 77.7437 63.2664 81.7003C63.2653 85.6601 63.7346 89.607 64.6649 93.4496H58.6998ZM78.581 123.311C79.0096 122.871 79.25 122.273 79.25 121.65V111.686C79.25 111.075 79.019 110.488 78.6061 110.049C71.5101 102.44 67.6365 92.2447 67.833 81.7003C67.833 55.7426 88.2787 34.6999 113.5 34.6999C138.721 34.6999 159.167 55.7426 159.167 81.7003C159.364 92.2447 155.49 102.44 148.394 110.049C147.981 110.488 147.75 111.075 147.75 111.686V121.65C147.75 122.273 147.99 122.871 148.419 123.311C151.149 126.019 154.329 128.202 157.806 129.753C152.183 132.269 139.669 135.75 113.5 135.75C87.2846 135.75 74.7743 132.257 69.1803 129.76C72.664 128.208 75.8488 126.024 78.581 123.311V123.311ZM113.497 160.036L118.063 166.3H108.933L113.497 160.036ZM118.067 147.5H108.933C104.238 147.496 100.029 144.522 98.339 140.013C102.841 140.29 107.865 140.45 113.5 140.45C119.135 140.45 124.16 140.29 128.661 140.013C126.971 144.522 122.762 147.496 118.067 147.5ZM50.5501 158.19L52.674 149.33C54.7906 141.372 61.802 135.841 69.8189 135.805L63.6907 166.3H49.5666C49.5843 163.567 49.9146 160.844 50.5501 158.19ZM68.3524 166.3L74.3405 136.512C80.6025 138.118 86.9878 139.167 93.4243 139.647C94.4789 144.141 97.3324 147.965 101.277 150.176L89.5267 166.3H68.3524ZM95.2336 166.3L105.508 152.2H113.5L103.225 166.3H95.2336ZM123.775 166.3L116.351 156.119L119.207 152.2H121.492L131.766 166.3H123.775ZM154.6 166.3H137.475L125.725 150.176C129.67 147.966 132.523 144.141 133.578 139.647C140.022 139.167 146.412 138.116 152.679 136.506L158.648 166.3H154.6ZM163.311 166.3L157.203 135.806C165.213 135.85 172.214 141.379 174.328 149.331L176.452 158.191C177.087 160.845 177.417 163.567 177.433 166.3H163.311Z" fill="black"/>
<path d="M102.083 81.7002C103.345 81.7002 104.367 80.6482 104.367 79.3497V74.6498C104.367 73.3525 103.345 72.2993 102.083 72.2993C100.822 72.2993 99.8002 73.3525 99.8002 74.6498V79.3497C99.8002 80.6482 100.822 81.7002 102.083 81.7002Z" fill="black"/>
<path d="M124.917 81.7002C126.178 81.7002 127.2 80.6482 127.2 79.3497V74.6498C127.2 73.3525 126.178 72.2993 124.917 72.2993C123.655 72.2993 122.633 73.3525 122.633 74.6498V79.3497C122.633 80.6482 123.655 81.7002 124.917 81.7002Z" fill="black"/>
<path d="M102.083 91.1001C102.083 91.3862 102.213 98.1494 113.5 98.1494C124.787 98.1494 124.917 91.3862 124.917 91.1001C124.923 89.7898 123.908 88.7152 122.635 88.6861C122.037 88.6711 121.458 88.9045 121.029 89.3337C120.6 89.764 120.357 90.3524 120.355 90.9688C120.243 91.8284 118.667 93.4495 113.5 93.4495C108.333 93.4495 106.757 91.8284 106.65 91.1001C106.65 89.8017 105.627 88.7496 104.367 88.7496C103.105 88.7496 102.083 89.8017 102.083 91.1001V91.1001Z" fill="black"/>
<path d="M113.5 107.549C127.371 107.549 138.617 95.9764 138.617 81.7002C138.617 67.423 127.371 55.8501 113.5 55.8501C99.6288 55.8501 88.3832 67.423 88.3832 81.7002C88.3989 95.97 99.6351 107.533 113.5 107.549ZM113.5 60.55C124.849 60.55 134.05 70.0187 134.05 81.7002C134.05 93.3807 124.849 102.849 113.5 102.849C102.151 102.849 92.9498 93.3807 92.9498 81.7002C92.9623 70.0241 102.156 60.5629 113.5 60.55V60.55Z" fill="black"/>
<path d="M113.5 116.95C132.415 116.95 147.75 101.168 147.75 81.7003C147.75 62.2315 132.415 46.4503 113.5 46.4503C94.5845 46.4503 79.25 62.2315 79.25 81.7003C79.2709 101.159 94.5929 116.929 113.5 116.95ZM113.5 51.1502C129.893 51.1502 143.183 64.8273 143.183 81.7003C143.183 98.5723 129.893 112.25 113.5 112.25C97.1067 112.25 83.8166 98.5723 83.8166 81.7003C83.8354 64.8359 97.114 51.1696 113.5 51.1502V51.1502Z" fill="black"/>
<path d="M139.339 126.229C140.134 125.98 140.737 125.308 140.911 124.471C141.085 123.634 140.803 122.767 140.176 122.205C139.549 121.644 138.675 121.478 137.895 121.772C131.475 123.973 113.679 124 113.5 124C113.321 124 95.5305 123.975 89.1054 121.772C87.9233 121.404 86.6701 122.071 86.2792 123.277C85.8882 124.484 86.5007 125.792 87.6609 126.229C94.781 128.673 112.74 128.7 113.5 128.7C114.26 128.7 132.219 128.673 139.339 126.229Z" fill="black"/>
</g>
<defs>
<clipPath id="clip0">
<rect width="137" height="141" fill="white" transform="translate(45 30)"/>
</clipPath>
</defs>
</svg>
