<svg width="224" height="208" viewBox="0 0 224 208" fill="none" xmlns="http://www.w3.org/2000/svg">
<ellipse cx="112" cy="104" rx="112" ry="104" fill="#F8F8F8"/>
<path d="M163.131 126.834L152.68 123.503V122.839C152.68 120.119 151.056 117.779 148.705 116.582C149.682 112.836 150.2 108.98 150.2 105.123V36.7655L144.087 28H135.32V35.158C128.917 30.5346 121.182 28 113 28C92.4879 28 75.8 43.9542 75.8 63.5645V82.5323C75.8 88.4004 80.2962 93.2538 86.1614 94.1903C87.3122 100.407 90.747 105.879 95.64 109.749V115.726H80.76C76.6581 115.726 73.32 118.917 73.32 122.839V123.503L62.8718 126.834C55.769 129.093 51 135.421 51 142.575V175H175V142.575C175 135.421 170.231 129.093 163.131 126.834ZM147.72 122.839V127.981C147.72 136.088 149.694 144.066 153.456 151.29H115.48V145.057L123.304 136.33C127.312 131.858 129.73 126.298 130.248 120.47H132.302C131.798 121.72 131.248 122.953 130.62 124.152L128.827 127.581H144.293L144.977 126.269C145.803 124.69 146.53 123.064 147.164 121.407C147.492 121.81 147.72 122.291 147.72 122.839ZM70.84 156.032H110.52V160.774H70.84V156.032ZM70.84 165.516H110.52V170.258H70.84V165.516ZM115.48 165.516H132.84V160.774H115.48V156.032H155.16V160.774H137.8V165.516H155.16V170.258H115.48V165.516ZM135.32 104.594V105.125C135.32 108.696 134.824 112.264 133.892 115.728H130.36V109.751C132.247 108.255 133.909 106.515 135.32 104.594ZM138.356 118.092H143.09C142.552 119.707 141.934 121.298 141.198 122.839H136.674C137.329 121.288 137.874 119.7 138.356 118.092ZM144.355 113.35H139.486C139.923 111 140.163 108.625 140.223 106.242H145.176C145.109 108.627 144.841 111.005 144.355 113.35ZM140.28 32.7419H141.433L145.24 38.2023V101.5H140.28V89.6452V73.0484V32.7419ZM135.32 56.4516H90.68V51.7097H113H135.32V56.4516ZM90.68 61.1935H111.973L107.013 65.9355H90.68V61.1935ZM135.32 61.1935V65.9355H118.987L114.027 61.1935H135.32ZM113 32.7419C121.412 32.7419 129.286 35.8147 135.32 41.3675V46.9677H113H90.68C87.9446 46.9677 85.72 49.0945 85.72 51.7097V70.9169C83.8774 71.2773 82.2083 72.0597 80.76 73.1077V63.5645C80.76 46.5694 95.2234 32.7419 113 32.7419ZM80.76 82.5323C80.76 79.4453 82.8407 76.8372 85.72 75.8556V89.2065C82.8407 88.2273 80.76 85.6193 80.76 82.5323ZM90.68 89.6452V73.0484V70.6774H107.013C108.338 70.6774 109.583 70.1843 110.52 69.288L113 66.9171L115.48 69.288C116.417 70.1843 117.662 70.6774 118.987 70.6774H135.32V73.0484V89.6452C135.32 101.41 125.306 110.984 113 110.984C100.694 110.984 90.68 101.41 90.68 89.6452ZM113 115.726C117.466 115.726 121.675 114.673 125.4 112.847V118.097C125.4 123.647 123.319 129.025 119.54 133.243L113 140.533L106.46 133.245C102.681 129.025 100.6 123.647 100.6 118.097V112.847C104.325 114.673 108.534 115.726 113 115.726ZM78.28 122.839C78.28 121.53 79.3935 120.468 80.76 120.468H95.7516C96.2699 126.296 98.6879 131.855 102.696 136.33L110.52 145.057V151.29H72.5438C76.3059 144.066 78.28 136.088 78.28 127.981V122.839ZM55.96 142.575C55.96 137.465 59.3675 132.944 64.4391 131.329L73.3026 128.505C73.2059 136.939 70.7755 145.206 66.2346 152.443L65.88 153.005V170.258H55.96V142.575ZM170.04 170.258H160.12V153.005L159.765 152.443C155.224 145.206 152.794 136.939 152.697 128.505L161.561 131.329C166.632 132.946 170.04 137.465 170.04 142.575V170.258Z" fill="url(#paint0_linear)"/>
<path d="M125.4 80.1612C126.77 80.1612 127.88 79.0997 127.88 77.7903C127.88 76.4808 126.77 75.4193 125.4 75.4193C124.03 75.4193 122.92 76.4808 122.92 77.7903C122.92 79.0997 124.03 80.1612 125.4 80.1612Z" fill="url(#paint1_linear)"/>
<path d="M100.6 80.1612C101.97 80.1612 103.08 79.0997 103.08 77.7903C103.08 76.4808 101.97 75.4193 100.6 75.4193C99.2303 75.4193 98.12 76.4808 98.12 77.7903C98.12 79.0997 99.2303 80.1612 100.6 80.1612Z" fill="url(#paint2_linear)"/>
<path d="M113 103.871C118.471 103.871 122.92 99.6175 122.92 94.3871H117.96C117.96 97.0023 115.735 99.1291 113 99.1291C110.265 99.1291 108.04 97.0023 108.04 94.3871H103.08C103.08 99.6175 107.529 103.871 113 103.871Z" fill="url(#paint3_linear)"/>
<defs>
<linearGradient id="paint0_linear" x1="113" y1="28" x2="113" y2="175" gradientUnits="userSpaceOnUse">
<stop stop-color="#02F0FF"/>
<stop offset="1" stop-color="#3CC4FF"/>
</linearGradient>
<linearGradient id="paint1_linear" x1="125.4" y1="75.4193" x2="125.4" y2="80.1612" gradientUnits="userSpaceOnUse">
<stop stop-color="#02F0FF"/>
<stop offset="1" stop-color="#3CC4FF"/>
</linearGradient>
<linearGradient id="paint2_linear" x1="100.6" y1="75.4193" x2="100.6" y2="80.1612" gradientUnits="userSpaceOnUse">
<stop stop-color="#02F0FF"/>
<stop offset="1" stop-color="#3CC4FF"/>
</linearGradient>
<linearGradient id="paint3_linear" x1="113" y1="94.3871" x2="113" y2="103.871" gradientUnits="userSpaceOnUse">
<stop stop-color="#02F0FF"/>
<stop offset="1" stop-color="#3CC4FF"/>
</linearGradient>
</defs>
</svg>
