<svg width="224" height="208" viewBox="0 0 224 208" fill="none" xmlns="http://www.w3.org/2000/svg">
<ellipse cx="112" cy="104" rx="112" ry="104" fill="#F8F8F8"/>
<path d="M112.5 51.3511C100.697 51.3511 89.6992 56.1121 82.0691 64.3171C81.2512 63.3013 79.956 62.6439 78.5 62.6439H70.4999C68.0319 62.6439 66.0244 64.5332 66.0244 66.8555V112.028C66.0244 114.351 68.0322 116.24 70.4999 116.24H78.5C79.9556 116.24 81.2512 115.583 82.0691 114.567C89.6992 122.772 100.697 127.533 112.5 127.533C134.819 127.533 152.976 110.446 152.976 89.4422C152.976 68.4387 134.819 51.3511 112.5 51.3511ZM112.5 122.875C100.581 122.875 89.5989 117.338 82.9758 108.034V103.523C82.9758 102.236 81.8674 101.194 80.5003 101.194C79.1331 101.194 78.0247 102.236 78.0247 103.523V108.736V109.642V111.581H70.9759V67.3024H78.0247V70.1476V76.2666C78.0247 77.5532 79.1331 78.5957 80.5003 78.5957C81.8674 78.5957 82.9758 77.5532 82.9758 76.2666V70.8501C89.5992 61.5458 100.581 56.009 112.5 56.009C132.089 56.0093 148.025 71.0069 148.025 89.4422C148.025 107.877 132.089 122.875 112.5 122.875Z" fill="black"/>
<path d="M185.301 51.3511H171.701C168.642 51.3511 166.153 53.6051 166.034 56.4671C166.029 56.5413 166.025 56.6158 166.025 56.6919V121.632C164.386 124.042 162.554 126.353 160.563 128.522H136.501C135.133 128.522 134.025 129.565 134.025 130.851C134.025 132.138 135.133 133.18 136.501 133.18H161.662C161.67 133.18 161.677 133.181 161.684 133.181C161.691 133.181 161.697 133.18 161.703 133.18H162.025V141.697H62.9754V133.18H63.2738C63.2886 133.181 63.3032 133.182 63.318 133.182C63.3352 133.182 63.352 133.181 63.3688 133.18H88.5003C89.8675 133.18 90.9759 132.138 90.9759 130.851C90.9759 129.565 89.8675 128.522 88.5003 128.522H64.438C62.4479 126.354 60.6163 124.043 58.9755 121.633V57.2509C70.7326 39.9628 90.6845 29.6582 112.5 29.6582C128.775 29.6582 144.255 35.4462 156.087 45.9557C156.796 46.5855 157.5 47.2398 158.177 47.8991C158.353 48.0708 158.528 48.2438 158.703 48.4177C159.642 49.3522 161.209 49.3925 162.203 48.509C163.196 47.6249 163.24 46.151 162.3 45.2163C162.114 45.0309 161.927 44.8464 161.738 44.6623C161.008 43.9514 160.25 43.2471 159.487 42.5689C146.731 31.2395 130.044 25 112.5 25C100.675 25 89.0179 27.8837 78.7894 33.3397C69.9975 38.0296 62.3723 44.5452 56.5418 52.3086C55.6226 51.7064 54.5072 51.3511 53.2998 51.3511H39.6999C36.5705 51.3511 34.0242 53.747 34.0242 56.6916V122.192C34.0242 125.137 36.5701 127.533 39.6999 127.533H53.3001C54.5092 127.533 55.6252 127.177 56.5445 126.575C57.3938 127.707 58.282 128.813 59.2066 129.891C58.4751 130.641 58.0245 131.637 58.0245 132.733V142.144C58.0245 144.466 60.0324 146.355 62.5001 146.355H69.9942C68.8405 147.578 67.7397 148.852 66.7043 150.174C66.4138 150.546 66.159 150.879 65.9213 151.195C63.1361 150.812 60.277 151.75 58.349 153.807C55.2572 157.105 55.5925 162.155 59.0966 165.064C65.6754 170.527 73.121 174.915 81.2271 178.106C81.233 178.108 81.2389 178.11 81.2452 178.113C91.1733 182.019 101.687 183.999 112.494 183.999L112.607 183.999C112.632 184 112.657 184 112.678 184L114.103 183.995C114.226 183.995 114.349 183.986 114.47 183.969C119.841 183.846 125.185 183.228 130.362 182.131C143.529 179.339 155.818 173.438 165.903 165.064C169.407 162.155 169.742 157.104 166.65 153.808C164.663 151.687 161.653 150.763 158.79 151.246C157.522 149.54 156.151 147.906 154.686 146.355H162.5C164.968 146.355 166.976 144.466 166.976 142.144V132.732C166.976 131.637 166.525 130.641 165.794 129.891C166.718 128.813 167.607 127.706 168.456 126.575C169.375 127.177 170.491 127.533 171.7 127.533H185.3C188.43 127.533 190.976 125.137 190.976 122.192V56.6916C190.976 53.7467 188.431 51.3511 185.301 51.3511ZM54.0247 122.136C54.023 122.164 54.0214 122.192 54.02 122.219C54.0055 122.587 53.6893 122.875 53.2998 122.875H39.6999C39.3005 122.875 38.9754 122.569 38.9754 122.192V56.6916C38.9754 56.3152 39.3002 56.0093 39.6999 56.0093H53.3001C53.6886 56.0093 54.0049 56.2969 54.02 56.6621C54.021 56.6898 54.0227 56.7171 54.0247 56.7466V122.136ZM157.964 156.595C158.194 156.405 158.462 156.239 158.761 156.102C160.179 155.455 161.897 155.778 162.938 156.889C164.224 158.261 164.085 160.361 162.627 161.572C153.165 169.429 141.632 174.966 129.275 177.586C124.331 178.634 119.222 179.216 114.089 179.317C113.995 179.319 113.901 179.325 113.808 179.337L112.705 179.341C112.68 179.34 112.654 179.34 112.631 179.34L112.494 179.341C102.34 179.341 92.4639 177.479 83.1395 173.808C83.1333 173.806 83.127 173.804 83.1207 173.801C75.521 170.808 68.5405 166.693 62.3723 161.57C60.9147 160.361 60.7754 158.26 62.0617 156.888C63.0678 155.814 64.6852 155.471 66.0857 156.034C66.4369 156.175 66.7564 156.364 67.0353 156.596C72.6295 161.241 78.9621 164.973 85.8574 167.688C85.866 167.691 85.8746 167.694 85.8831 167.698C86.4235 167.91 86.9876 168.123 87.6068 168.348C88.8829 168.811 90.3158 168.215 90.8086 167.015C91.3014 165.815 90.6673 164.467 89.3919 164.003C88.806 163.79 88.2755 163.59 87.7699 163.391C87.7643 163.388 87.7586 163.386 87.753 163.384C81.4251 160.891 75.6101 157.474 70.4639 153.227C70.5378 153.132 70.6114 153.037 70.6903 152.935C72.55 150.56 74.6318 148.351 76.8836 146.355H147.791C150.199 148.487 152.395 150.844 154.339 153.387C148.814 157.908 142.515 161.477 135.607 163.993C134.332 164.457 133.699 165.806 134.192 167.005C134.686 168.205 136.119 168.802 137.394 168.337C144.995 165.568 151.916 161.618 157.964 156.595ZM186.026 122.192H186.025C186.025 122.569 185.7 122.875 185.301 122.875H171.701C171.311 122.875 170.995 122.586 170.981 122.229C170.981 122.224 170.98 122.219 170.98 122.214C170.979 122.189 170.978 122.165 170.977 122.139V56.7376L170.981 56.664C170.996 56.2966 171.313 56.0093 171.701 56.0093H185.301C185.701 56.0093 186.026 56.3152 186.026 56.6916V122.192Z" fill="black"/>
<path d="M142.199 87.1131H136.851C135.689 76.2682 126.5 67.6204 114.976 66.5263V61.493C114.976 60.2064 113.868 59.1639 112.5 59.1639C111.133 59.1639 110.025 60.2064 110.025 61.493V66.5263C98.5011 67.6204 89.312 76.2685 88.1495 87.1131H82.8019C81.4347 87.1131 80.3263 88.1556 80.3263 89.4422C80.3263 90.7288 81.4347 91.7713 82.8019 91.7713H88.1495C89.312 102.616 98.5014 111.264 110.025 112.358V117.391C110.025 118.678 111.133 119.721 112.5 119.721C113.868 119.721 114.976 118.678 114.976 117.391V112.358C126.5 111.264 135.689 102.616 136.851 91.7713H142.199C143.566 91.7713 144.674 90.7288 144.674 89.4422C144.674 88.1556 143.566 87.1131 142.199 87.1131ZM110.025 107.664C101.235 106.612 94.2556 100.043 93.1379 91.7713H110.025V107.664ZM110.025 87.1131H93.1379C94.2556 78.8411 101.235 72.2717 110.025 71.2196V87.1131ZM114.976 107.664V91.771H131.863C130.745 100.043 123.765 106.612 114.976 107.664ZM114.976 87.1131V71.2196C123.765 72.2717 130.745 78.8411 131.863 87.1131H114.976Z" fill="black"/>
<path d="M135.933 108.751C135.903 108.602 135.853 108.453 135.794 108.313C135.731 108.174 135.655 108.037 135.566 107.913C135.474 107.786 135.371 107.664 135.256 107.559C135.144 107.45 135.015 107.354 134.88 107.267C134.748 107.183 134.602 107.112 134.454 107.053C134.305 106.997 134.147 106.95 133.988 106.922C133.672 106.86 133.341 106.86 133.021 106.922C132.866 106.95 132.708 106.997 132.559 107.053C132.411 107.112 132.265 107.183 132.133 107.267C131.998 107.354 131.869 107.45 131.757 107.559C131.642 107.664 131.539 107.785 131.447 107.913C131.358 108.037 131.282 108.174 131.219 108.313C131.16 108.453 131.11 108.602 131.08 108.751C131.047 108.9 131.031 109.053 131.031 109.204C131.031 109.357 131.047 109.509 131.08 109.661C131.11 109.807 131.16 109.956 131.219 110.096C131.282 110.235 131.358 110.372 131.447 110.496C131.539 110.624 131.642 110.745 131.757 110.851C131.869 110.959 131.998 111.055 132.133 111.142C132.265 111.226 132.411 111.298 132.559 111.357C132.708 111.412 132.866 111.459 133.021 111.487C133.183 111.518 133.345 111.533 133.507 111.533C133.668 111.533 133.83 111.518 133.988 111.487C134.147 111.459 134.305 111.412 134.454 111.357C134.602 111.298 134.748 111.226 134.88 111.142C135.015 111.055 135.144 110.959 135.256 110.851C135.371 110.745 135.474 110.624 135.566 110.496C135.655 110.372 135.731 110.235 135.794 110.096C135.853 109.956 135.903 109.807 135.933 109.661C135.966 109.509 135.982 109.357 135.982 109.204C135.982 109.053 135.966 108.9 135.933 108.751Z" fill="black"/>
<path d="M93.9202 69.225C93.8905 69.0759 93.841 68.93 93.7816 68.7871C93.7189 68.6474 93.643 68.5104 93.5538 68.3865C93.4614 68.2592 93.3591 68.1381 93.2436 68.0322C93.1313 67.9235 93.0026 67.8275 92.8673 67.7434C92.7352 67.6595 92.59 67.585 92.4415 67.5294C92.2929 67.4704 92.1345 67.4269 91.9794 67.3956C91.6592 67.3334 91.3291 67.3334 91.0089 67.3956C90.8538 67.4269 90.6954 67.4701 90.5468 67.5294C90.3983 67.5853 90.2531 67.6598 90.121 67.7434C89.9857 67.8275 89.857 67.9235 89.7447 68.0322C89.6292 68.1381 89.5269 68.2589 89.4345 68.3865C89.3453 68.5104 89.2694 68.6474 89.21 68.7871C89.1473 68.93 89.0978 69.0759 89.0681 69.225C89.0351 69.3737 89.0186 69.5262 89.0186 69.6784C89.0186 69.8302 89.0351 69.9824 89.0681 70.1349C89.0978 70.2808 89.1473 70.4299 89.21 70.5697C89.2694 70.7091 89.3453 70.846 89.4345 70.9703C89.5269 71.1007 89.6292 71.2187 89.7447 71.3271C89.857 71.4327 89.9857 71.5289 90.121 71.6159C90.2531 71.7 90.3983 71.7712 90.5468 71.8302C90.6954 71.8861 90.8538 71.9326 91.0089 71.9637C91.1707 71.9917 91.3324 72.0075 91.4941 72.0075C91.6559 72.0075 91.8176 71.9917 91.9794 71.9637C92.1345 71.9326 92.2929 71.8861 92.4415 71.8302C92.59 71.7712 92.7352 71.6997 92.8673 71.6159C93.0026 71.5292 93.1313 71.4327 93.2436 71.3271C93.3591 71.2184 93.4614 71.1007 93.5538 70.9703C93.643 70.846 93.7189 70.7091 93.7816 70.5697C93.841 70.4299 93.8905 70.2805 93.9202 70.1349C93.9532 69.9827 93.9697 69.8306 93.9697 69.6784C93.9697 69.5262 93.9532 69.374 93.9202 69.225Z" fill="black"/>
<path d="M135.932 69.2247C135.903 69.0756 135.853 68.9265 135.794 68.7868C135.731 68.6471 135.655 68.5104 135.566 68.3862C135.473 68.2589 135.371 68.1378 135.256 68.0322C135.143 67.9235 135.015 67.8272 134.879 67.7403C134.748 67.6564 134.602 67.585 134.454 67.526C134.305 67.4701 134.147 67.4235 133.992 67.3955C133.83 67.3645 133.668 67.349 133.506 67.349C133.345 67.349 133.183 67.3645 133.024 67.3955C132.866 67.4235 132.707 67.4701 132.559 67.526C132.411 67.585 132.265 67.6564 132.133 67.7403C131.998 67.8272 131.869 67.9235 131.757 68.0322C131.641 68.1378 131.539 68.2589 131.447 68.3862C131.357 68.5104 131.282 68.6471 131.219 68.7868C131.16 68.9265 131.11 69.0756 131.08 69.2247C131.014 69.5228 131.014 69.8333 131.08 70.1346C131.11 70.2808 131.16 70.4299 131.219 70.5693C131.282 70.7091 131.358 70.8457 131.447 70.9699C131.539 71.0973 131.642 71.2184 131.757 71.324C131.869 71.4327 131.998 71.5289 132.133 71.6159C132.265 71.6997 132.411 71.7712 132.559 71.8302C132.707 71.8861 132.866 71.9326 133.024 71.9606C133.183 71.9916 133.345 72.0072 133.506 72.0072C133.668 72.0072 133.83 71.9916 133.992 71.9606C134.147 71.9326 134.305 71.8861 134.454 71.8302C134.602 71.7712 134.748 71.6997 134.879 71.6159C135.015 71.5289 135.143 71.4327 135.256 71.324C135.371 71.2184 135.473 71.0973 135.566 70.9699C135.655 70.8457 135.731 70.7091 135.794 70.5693C135.853 70.4296 135.903 70.2805 135.932 70.1346C135.965 69.9824 135.981 69.8302 135.981 69.6781C135.981 69.5259 135.965 69.3737 135.932 69.2247Z" fill="black"/>
<path d="M93.9235 108.748C93.8905 108.602 93.841 108.453 93.7816 108.313C93.7189 108.173 93.643 108.037 93.5538 107.913C93.4617 107.785 93.3591 107.664 93.2469 107.559C93.1313 107.45 93.0062 107.354 92.8676 107.267C92.7356 107.183 92.59 107.111 92.4418 107.052C92.2933 106.996 92.1345 106.95 91.9797 106.922C91.818 106.891 91.6562 106.875 91.4945 106.875C91.3327 106.875 91.171 106.891 91.0126 106.922C90.8541 106.95 90.699 106.996 90.5472 107.052C90.3986 107.111 90.253 107.183 90.1213 107.267C89.986 107.354 89.8573 107.45 89.7447 107.559C89.6292 107.664 89.5272 107.785 89.4378 107.913C89.3486 108.037 89.2694 108.173 89.2103 108.313C89.1476 108.453 89.1014 108.602 89.0681 108.748C89.0021 109.049 89.0021 109.36 89.0681 109.661C89.1014 109.807 89.1473 109.956 89.2103 110.096C89.2697 110.235 89.349 110.372 89.4378 110.496C89.5272 110.624 89.6292 110.745 89.7447 110.85C89.8573 110.959 89.9857 111.055 90.1213 111.142C90.253 111.226 90.3986 111.298 90.5472 111.353C90.699 111.412 90.8541 111.459 91.0126 111.487C91.1707 111.518 91.3327 111.534 91.4945 111.534C91.6559 111.534 91.8176 111.518 91.9797 111.487C92.1348 111.459 92.2933 111.412 92.4418 111.353C92.59 111.298 92.7356 111.226 92.8676 111.142C93.0062 111.055 93.1317 110.959 93.2469 110.85C93.3591 110.745 93.4614 110.624 93.5538 110.496C93.6433 110.372 93.7189 110.235 93.7816 110.096C93.841 109.956 93.8905 109.807 93.9235 109.661C93.9532 109.509 93.9701 109.357 93.9701 109.204C93.9701 109.052 93.9532 108.9 93.9235 108.748Z" fill="black"/>
</svg>
