<svg width="208" height="208" viewBox="0 0 208 208" fill="none" xmlns="http://www.w3.org/2000/svg">
<circle cx="104" cy="104" r="104" fill="#F8F8F8"/>
<path d="M104.5 92.9032C99.832 92.9032 96.0322 96.6378 96.0322 101.226C96.0322 105.814 99.832 109.548 104.5 109.548C109.168 109.548 112.968 105.814 112.968 101.226C112.968 96.6378 109.168 92.9032 104.5 92.9032ZM104.5 104C102.945 104 101.677 102.756 101.677 101.226C101.677 99.6951 102.945 98.4516 104.5 98.4516C106.055 98.4516 107.323 99.6951 107.323 101.226C107.323 102.756 106.055 104 104.5 104Z" fill="black"/>
<path d="M104.5 18C56.2543 18 17 56.5773 17 104C17 151.423 56.2543 190 104.5 190C152.746 190 192 151.423 192 104C192 56.5773 152.746 18 104.5 18ZM186.355 104C186.355 122.393 180.026 139.355 169.419 152.92V148.162C169.419 144.567 168.38 141.174 166.597 138.241V123.419C166.597 112.714 157.733 104 146.839 104H138.102C141.431 99.6531 143.836 94.7062 145.218 89.4138C149.761 83.9115 152.484 76.9069 152.484 69.2833V51.2903C152.484 46.7023 148.684 42.9677 144.016 42.9677H143.286C140.759 37.2812 137.078 32.3532 132.556 28.4168C163.912 39.6964 186.355 69.3226 186.355 104ZM56.5161 104V98.4516C56.5161 96.9209 57.7841 95.6774 59.3387 95.6774C60.8933 95.6774 62.1613 96.9209 62.1613 98.4516V104C62.1613 105.531 60.8933 106.774 59.3387 106.774C57.7841 106.774 56.5161 105.531 56.5161 104ZM137.041 42.9677H113.76L118.057 26.0733C126.154 29.216 132.915 35.1504 137.041 42.9677ZM112.655 24.4384L107.941 42.9677H101.059L96.3534 24.4668C98.9954 23.8681 101.726 23.5484 104.5 23.5484C107.288 23.5484 110.021 23.8559 112.655 24.4384ZM90.9577 26.1262L95.2398 42.9677H71.9728C76.0771 35.2615 82.8813 29.3054 90.9577 26.1262ZM64.9839 48.5161H144.016C145.571 48.5161 146.839 49.7596 146.839 51.2903V69.2833C146.839 75.9858 144.285 82.1004 140.087 86.7642V86.7669C135.885 91.4362 130.027 94.629 123.366 95.4471C122.75 93.5141 121.828 91.7193 120.668 90.0952C132.042 89.7376 141.194 80.5521 141.194 69.2833V54.0645H67.8064V69.2833C67.8064 80.5494 76.9578 89.7376 88.3349 90.0925C87.1745 91.7153 86.2497 93.5114 85.6364 95.4444C72.3201 93.8081 62.1613 82.6964 62.1613 69.2833V51.2903C62.1613 49.7596 63.4292 48.5161 64.9839 48.5161ZM124.032 104C124.164 103.09 124.258 102.169 124.258 101.226C124.258 101.126 124.244 101.032 124.244 100.932C128.481 100.389 132.449 99.0531 135.998 97.0808C134.527 99.5746 132.745 101.895 130.685 104H124.032ZM104.5 115.097C96.7186 115.097 90.3871 108.874 90.3871 101.226C90.3871 93.5778 96.7186 87.3548 104.5 87.3548C112.281 87.3548 118.613 93.5778 118.613 101.226C118.613 108.874 112.281 115.097 104.5 115.097ZM121.435 125.045L104.5 141.69L87.5645 125.045V117.211C92.7301 119.408 98.3725 120.645 104.238 120.645V120.632C104.325 120.634 104.413 120.645 104.5 120.645H121.435V125.045ZM114.624 84.5806C111.658 82.8305 108.203 81.8064 104.5 81.8064C100.797 81.8064 97.3416 82.8305 94.3756 84.5806H89.013C80.435 84.5806 73.4516 77.717 73.4516 69.2833V59.6129H135.548V69.2833C135.548 77.717 128.565 84.5806 119.984 84.5806H114.624ZM87.4777 111.036C81.1407 107.809 75.8221 102.822 72.2774 96.6676C76.0054 98.8702 80.2283 100.352 84.7585 100.932C84.7557 101.032 84.7419 101.126 84.7419 101.226C84.7419 104.807 85.7494 108.153 87.4777 111.036ZM67.8064 100.143C71.303 105.919 76.1694 110.761 81.9193 114.289V123.922L76.2742 125.031V123.419C76.2742 116.764 72.2719 111.028 66.5164 108.364C67.3213 107.094 67.8064 105.607 67.8064 104V100.143ZM50.9867 105.135L38.7992 112.323H36.7581V92.9032H38.7992L50.871 100.022V104C50.871 104.389 50.9357 104.76 50.9867 105.135ZM48.0484 123.419C48.0484 117.299 53.1119 112.323 59.3387 112.323C65.5655 112.323 70.629 117.299 70.629 123.419V126.138L55.4632 129.118C52.7164 129.659 50.2356 130.802 48.0484 132.316V123.419ZM83.813 129.203L104.5 149.536L125.187 129.203L135.249 131.181L104.5 163.728L73.7507 131.181L83.813 129.203ZM127.081 123.922V120.645H146.839C148.393 120.645 149.661 121.889 149.661 123.419V128.357L127.081 123.922ZM146.839 115.097H118.3C119.957 113.504 121.314 111.626 122.322 109.548H146.839C154.62 109.548 160.952 115.771 160.952 123.419V132.319C159.252 131.143 157.359 130.238 155.306 129.63V123.419C155.306 118.831 151.507 115.097 146.839 115.097ZM76.6725 28.3423C72.0348 32.3126 68.2557 37.2717 65.7171 42.9677H64.9839C60.3159 42.9677 56.5161 46.7023 56.5161 51.2903V69.2833C56.5161 76.4491 58.9349 83.0635 62.9965 88.4033C63.2335 89.4192 63.4968 90.4284 63.8069 91.4132C62.5058 90.6113 60.9843 90.129 59.3387 90.129C56.2308 90.129 53.5406 91.7992 52.0673 94.2565L40.3621 87.3548H31.1129V117.871H40.3621L44.4802 115.444C43.1599 117.813 42.4032 120.531 42.4032 123.419V138.241C40.6198 141.174 39.5806 144.567 39.5806 148.162V152.92C28.9739 139.355 22.6452 122.393 22.6452 104C22.6452 69.24 45.1941 39.561 76.6725 28.3423ZM146.839 172.831V148.387H141.194V175.882C130.149 181.35 117.689 184.452 104.5 184.452C91.3105 184.452 78.8514 181.35 67.8064 175.882V151.161H62.1613V172.831C55.918 169.108 50.2329 164.572 45.2258 159.399V148.165C45.2258 145.166 46.2526 142.373 47.9492 140.067H48.0484V139.929C50.0785 137.243 53.0499 135.257 56.5726 134.564L67.2538 132.463L104.5 171.885L141.746 132.46L152.427 134.561C159.004 135.853 163.774 141.574 163.774 148.162V159.394C158.767 164.569 153.082 169.104 146.839 172.831Z" fill="black"/>
</svg>
