<svg width="186" height="186" viewBox="0 0 186 186" fill="none" xmlns="http://www.w3.org/2000/svg">
<path d="M186 24.333C186 10.894 175.106 0 161.667 0H24.333C10.894 0 0 10.894 0 24.333V161.666C0 175.106 10.894 186 24.333 186H161.666C175.106 186 186 175.106 186 161.667V24.333ZM41.751 151.882C37.721 152.963 34.033 149.275 35.114 145.245L41.797 120.335L66.66 145.198L41.751 151.882ZM149.126 61.293L75.542 134.878L50.793 110.129L124.377 36.545C127.867 33.055 133.524 33.055 137.014 36.545L149.126 48.657C152.615 52.146 152.615 57.803 149.126 61.293Z" fill="black" fill-opacity="0.6"/>
</svg>
