<svg width="512" height="512" viewBox="0 0 512 512" fill="none" xmlns="http://www.w3.org/2000/svg">
<g clip-path="url(#clip0)">
<path d="M218.668 240H16C7.16797 240 0 232.832 0 224C0 215.168 7.16797 208 16 208H218.668C227.5 208 234.668 215.168 234.668 224C234.668 232.832 227.5 240 218.668 240Z" fill="#00ECFF"/>
<path d="M138.668 320C134.57 320 130.477 318.441 127.359 315.309C121.109 309.055 121.109 298.922 127.359 292.672L196.055 223.98L127.359 155.309C121.109 149.055 121.109 138.922 127.359 132.672C133.609 126.422 143.742 126.422 149.996 132.672L229.996 212.672C236.246 218.922 236.246 229.055 229.996 235.309L149.996 315.309C146.859 318.441 142.762 320 138.668 320V320Z" fill="#00ECFF"/>
<path d="M186.668 106.668C177.836 106.668 170.668 99.5 170.668 90.668V58.668C170.668 26.3047 196.969 0 229.332 0H469.332C478.164 0 485.332 7.16797 485.332 16C485.332 24.832 478.164 32 469.332 32H229.332C214.633 32 202.668 43.9688 202.668 58.668V90.668C202.668 99.5 195.5 106.668 186.668 106.668V106.668Z" fill="#E5E5E5"/>
<path d="M314.668 448H229.332C196.969 448 170.668 421.695 170.668 389.332V357.332C170.668 348.5 177.836 341.332 186.668 341.332C195.5 341.332 202.668 348.5 202.668 357.332V389.332C202.668 404.031 214.633 416 229.332 416H314.668C323.5 416 330.668 423.168 330.668 432C330.668 440.832 323.5 448 314.668 448Z" fill="#E5E5E5"/>
<path d="M341.332 512C317.801 512 298.668 492.863 298.668 469.332V85.3322C298.668 67.0939 310.273 50.8165 327.551 44.8204L455.723 2.08998C484.395 -6.69908 512 14.5704 512 42.6681V426.668C512 444.887 500.395 461.141 483.137 467.156L354.922 509.91C350.25 511.359 345.922 512 341.332 512V512ZM469.332 32.0001C467.945 32.0001 466.773 32.172 465.516 32.5548L337.879 75.1134C333.695 76.5665 330.668 80.7892 330.668 85.3322V469.332C330.668 476.609 338.559 481.516 345.152 479.445L472.789 436.887C476.949 435.434 480 431.211 480 426.668V42.6681C480 36.8009 475.223 32.0001 469.332 32.0001V32.0001Z" fill="#E5E5E5"/>
</g>
<defs>
<clipPath id="clip0">
<rect width="512" height="512" fill="white"/>
</clipPath>
</defs>
</svg>
