<svg width="512" height="512" viewBox="0 0 512 512" fill="none" xmlns="http://www.w3.org/2000/svg">
<g clip-path="url(#clip0)">
<path d="M256.152 448.946C193.934 448.946 136.797 426.567 86.332 382.434C45.2539 346.512 18.9297 304.543 6.89452 282.723C-2.3711 265.926 -2.29298 245.911 7.10546 229.176C19.3437 207.387 46.0156 165.469 87.1445 129.567C137.754 85.3949 194.617 63.0004 256.152 63.0004C317.711 63.0004 374.555 85.4144 425.094 129.618C466.164 165.532 492.75 207.457 504.941 229.25C514.277 245.938 514.359 265.899 505.152 282.649C499.594 292.766 490.281 308.469 477.48 325.828C470.93 334.719 458.41 336.61 449.52 330.059C440.629 323.504 438.738 310.985 445.289 302.094C456.785 286.504 465.125 272.442 470.102 263.387C472.617 258.805 472.594 253.344 470.039 248.778C445.516 204.946 375.586 102.993 256.152 102.993C136.73 102.993 66.5898 204.93 41.9766 248.758C39.4062 253.336 39.3828 258.813 41.9141 263.403C66.0508 307.164 135.25 408.946 256.152 408.946C300.668 408.946 342.473 395.032 380.406 367.586C389.355 361.114 401.855 363.121 408.328 372.067C414.805 381.016 412.797 393.516 403.852 399.993C358.953 432.473 309.258 448.946 256.152 448.946V448.946ZM373.984 255.973C373.984 190.918 321.059 137.993 256.004 137.993C190.949 137.993 138.027 190.918 138.027 255.973C138.027 321.028 190.953 373.95 256.004 373.95C321.059 373.95 373.984 321.028 373.984 255.973V255.973ZM333.992 255.973C333.992 298.973 299.008 333.957 256.004 333.957C213.004 333.957 178.02 298.973 178.02 255.973C178.02 212.973 213.004 177.989 256.004 177.989C299.008 177.989 333.992 212.973 333.992 255.973V255.973ZM278.434 261.403C263.098 260.375 250.871 247.555 250.516 232.188C250.512 232.063 250.508 231.934 250.508 231.809C250.414 223.078 240.75 217.985 233.531 222.895C222.152 230.637 214.977 244.09 216.133 259.133C217.633 278.606 233.371 294.348 252.844 295.844C267.887 297 281.34 289.825 289.082 278.45C293.988 271.235 288.906 261.563 280.18 261.469C279.602 261.465 279.02 261.442 278.434 261.403Z" fill="#E5E5E5"/>
</g>
<defs>
<clipPath id="clip0">
<rect width="512" height="512" fill="white"/>
</clipPath>
</defs>
</svg>
