<svg width="2632" height="2631" viewBox="0 0 2632 2631" fill="none" xmlns="http://www.w3.org/2000/svg">
<ellipse cx="1315.55" cy="1315.39" rx="932.861" ry="930.884" transform="rotate(-41.5438 1315.55 1315.39)" fill="url(#paint0_linear)"/>
<path d="M820.331 1191.93C820.959 1191.93 821.603 1191.9 822.231 1191.81L853.296 1187.76L866.461 1283.86C867.534 1291.73 874.001 1297.58 881.633 1297.58H1310.75C1391.44 1297.58 1463.64 1247.37 1494.66 1169.66L1522.28 1100.52L1557.86 1095.88C1565.52 1094.89 1571.29 1088.08 1571.29 1080.02V1016.06C1571.29 1011.47 1569.4 1007.1 1566.11 1004.06C1562.81 1001.03 1558.43 999.634 1554.06 1000.18L1326.08 1029.9V1009.76H1387.38C1404.28 1009.76 1418.03 995.413 1418.03 977.776V945.795C1418.03 936.968 1411.18 929.805 1402.71 929.805H1326.08V897.824C1326.08 853.739 1291.7 817.873 1249.45 817.873H1218.8C1176.54 817.873 1142.17 853.739 1142.17 897.824V1053.89L1034.02 1067.99C1029.74 1023.24 1004.32 983.916 965.128 963.464C960.346 960.986 954.691 961.258 950.139 964.2L933.909 974.785L909.71 936.92C905.174 929.821 896.116 927.646 889.066 932.075L812.438 980.046C808.852 982.301 806.293 985.979 805.373 990.248C804.454 994.517 805.25 998.979 807.58 1002.62L832.178 1041.13L827.534 1044.17C823.059 1047.09 820.331 1052.21 820.331 1057.73V1095.86L818.431 1096.12C810.768 1097.11 805.005 1103.92 805.005 1111.98V1175.94C805.005 1180.53 806.89 1184.9 810.185 1187.94C812.99 1190.53 816.622 1191.93 820.331 1191.93V1191.93ZM1466.37 1157.35C1440.1 1223.11 1379.03 1265.6 1310.75 1265.6H894.921L883.718 1183.79L1487.24 1105.09L1466.37 1157.35ZM1540.64 1065.88L835.657 1157.83V1126.1L1540.64 1034.16V1065.88ZM1249.45 961.785H1341.4V977.776H1234.12C1225.66 977.776 1218.8 970.596 1218.8 961.785V897.824H1234.12V945.795C1234.12 954.622 1240.97 961.785 1249.45 961.785ZM1387.38 977.776H1372.05V961.785H1387.38V977.776ZM1172.82 897.824C1172.82 871.376 1193.45 849.854 1218.8 849.854H1249.45C1274.8 849.854 1295.43 871.376 1295.43 897.824V929.805H1264.77V881.834C1264.77 873.007 1257.92 865.844 1249.45 865.844H1203.47C1195 865.844 1188.15 873.007 1188.15 881.834V961.785C1188.15 988.233 1208.77 1009.76 1234.12 1009.76H1295.43V1033.9L1172.82 1049.89V897.824ZM842.001 998.851L892.315 967.35L907.902 991.751L858.185 1024.18L842.001 998.851ZM850.982 1066.59L958.737 996.308C984.453 1012.76 1000.9 1040.62 1003.67 1071.94L850.982 1091.87V1066.59Z" fill="url(#paint1_linear)"/>
<path d="M881.633 1409.51C906.782 1409.51 928.959 1396.62 942.936 1377.04C956.913 1396.62 979.089 1409.51 1004.24 1409.51C1029.39 1409.51 1051.56 1396.62 1065.54 1377.04C1079.52 1396.62 1101.69 1409.51 1126.84 1409.51C1151.99 1409.51 1174.17 1396.62 1188.15 1377.04C1202.12 1396.62 1224.3 1409.51 1249.45 1409.51C1291.7 1409.51 1326.08 1373.65 1326.08 1329.56H1295.43C1295.43 1356.01 1274.8 1377.53 1249.45 1377.53C1224.1 1377.53 1203.47 1356.01 1203.47 1329.56H1172.82C1172.82 1356.01 1152.19 1377.53 1126.84 1377.53C1101.49 1377.53 1080.87 1356.01 1080.87 1329.56H1050.22C1050.22 1356.01 1029.59 1377.53 1004.24 1377.53C978.89 1377.53 958.261 1356.01 958.261 1329.56H927.61C927.61 1356.01 906.982 1377.53 881.633 1377.53C856.284 1377.53 835.656 1356.01 835.656 1329.56H805.005C805.005 1373.65 839.38 1409.51 881.633 1409.51Z" fill="url(#paint2_linear)"/>
<path d="M1861.35 1330.31C1861.35 1356.76 1840.72 1378.28 1815.37 1378.28C1790.02 1378.28 1769.39 1356.76 1769.39 1330.31H1738.74C1738.74 1356.76 1718.12 1378.28 1692.77 1378.28C1667.42 1378.28 1646.79 1356.76 1646.79 1330.31H1616.14C1616.14 1356.76 1595.51 1378.28 1570.16 1378.28C1544.81 1378.28 1524.18 1356.76 1524.18 1330.31H1493.53C1493.53 1356.76 1472.91 1378.28 1447.56 1378.28C1422.21 1378.28 1401.58 1356.76 1401.58 1330.31H1370.93C1370.93 1374.4 1405.3 1410.27 1447.56 1410.27C1472.71 1410.27 1494.88 1397.38 1508.86 1377.79C1522.84 1397.38 1545.01 1410.27 1570.16 1410.27C1595.31 1410.27 1617.49 1397.38 1631.46 1377.79C1645.44 1397.38 1667.62 1410.27 1692.77 1410.27C1717.92 1410.27 1740.09 1397.38 1754.07 1377.79C1768.05 1397.38 1790.22 1410.27 1815.37 1410.27C1857.62 1410.27 1892 1374.4 1892 1330.31H1861.35Z" fill="url(#paint3_linear)"/>
<path d="M1647.51 1715.21C1622.16 1715.21 1601.54 1693.69 1601.54 1667.24H1570.88C1570.88 1693.69 1550.26 1715.21 1524.91 1715.21C1499.56 1715.21 1478.93 1693.69 1478.93 1667.24H1448.28C1448.28 1693.69 1427.65 1715.21 1402.3 1715.21C1376.95 1715.21 1356.33 1693.69 1356.33 1667.24H1325.67C1325.67 1711.32 1360.05 1747.19 1402.3 1747.19C1427.45 1747.19 1449.63 1734.3 1463.6 1714.71C1477.58 1734.3 1499.76 1747.19 1524.91 1747.19C1550.06 1747.19 1572.23 1734.3 1586.21 1714.71C1600.19 1734.3 1622.36 1747.19 1647.51 1747.19C1689.77 1747.19 1724.14 1711.32 1724.14 1667.24H1693.49C1693.49 1693.69 1672.86 1715.21 1647.51 1715.21Z" fill="url(#paint4_linear)"/>
<path d="M1183.7 1734.63L1150.55 1700.25C1129.39 1678.28 1101.28 1666.22 1071.43 1666.31C1044.01 1666.39 1017.66 1676.93 997.239 1696L965.946 1725.18L907.025 1670.84C902.508 1666.67 896.053 1665.66 890.558 1668.25C885.063 1670.84 881.523 1676.56 881.54 1682.86L881.886 1810.78C881.903 1817.08 885.459 1822.78 890.967 1825.34C896.476 1827.9 902.926 1826.86 907.42 1822.65L966.062 1767.97L997.512 1796.96C1018.04 1815.92 1044.44 1826.3 1071.86 1826.21C1101.71 1826.13 1129.76 1813.91 1150.8 1791.81L1183.76 1757.24C1189.5 1751.23 1189.47 1740.61 1183.7 1734.63ZM912.441 1775.08L912.288 1718.37L942.939 1746.64L912.441 1775.08ZM1017.81 1773.01L989.069 1746.51L1017.67 1719.83C1032.5 1706 1051.62 1698.35 1071.51 1698.29C1073.72 1698.29 1075.84 1698.76 1078.01 1698.93C1070.02 1713.22 1065.57 1729.62 1065.62 1746.28C1065.67 1762.94 1070.2 1779.32 1078.28 1793.56C1076.09 1793.74 1073.98 1794.23 1071.77 1794.23C1051.88 1794.29 1032.72 1786.75 1017.81 1773.01ZM1109.35 1784.07C1101.16 1773.33 1096.31 1759.97 1096.27 1746.19C1096.23 1732.41 1101.01 1719.03 1109.15 1708.24C1116.29 1712.14 1123.07 1716.82 1128.96 1722.93L1151.21 1746.03L1129.07 1769.26C1123.23 1775.41 1116.47 1780.13 1109.35 1784.07Z" fill="url(#paint5_linear)"/>
<path d="M1658.73 1914.85L1625.58 1880.48C1604.41 1858.5 1576.3 1846.45 1546.45 1846.54C1519.03 1846.62 1492.69 1857.15 1472.26 1876.23L1440.97 1905.41L1382.05 1851.07C1377.53 1846.89 1371.08 1845.89 1365.58 1848.48C1360.09 1851.07 1356.55 1856.79 1356.56 1863.09L1356.91 1991.01C1356.93 1997.31 1360.48 2003.01 1365.99 2005.57C1371.5 2008.12 1377.95 2007.08 1382.44 2002.88L1441.08 1948.2L1472.53 1977.19C1493.06 1996.14 1519.46 2006.52 1546.88 2006.44C1576.74 2006.35 1604.78 1994.13 1625.82 1972.04L1658.79 1937.46C1664.52 1931.45 1664.49 1920.83 1658.73 1914.85ZM1387.46 1955.31L1387.31 1898.59L1417.96 1926.87L1387.46 1955.31ZM1492.84 1953.24L1464.09 1926.73L1492.69 1900.06C1507.52 1886.23 1526.64 1878.58 1546.54 1878.52C1548.74 1878.51 1550.86 1878.99 1553.04 1879.16C1545.04 1893.44 1540.6 1909.85 1540.64 1926.51C1540.69 1943.17 1545.22 1959.55 1553.31 1973.79C1551.12 1973.97 1549 1974.45 1546.8 1974.46C1526.9 1974.52 1507.74 1966.98 1492.84 1953.24ZM1584.38 1964.29C1576.18 1953.55 1571.33 1940.2 1571.29 1926.42C1571.26 1912.63 1576.03 1899.25 1584.17 1888.47C1591.31 1892.36 1598.1 1897.04 1603.98 1903.15L1626.24 1926.26L1604.09 1949.49C1598.25 1955.63 1591.49 1960.35 1584.38 1964.29Z" fill="url(#paint6_linear)"/>
<path d="M1427.38 899.999C1474.51 809.878 1564.87 753.912 1663.24 753.912V721.932C1553.65 721.932 1452.96 784.294 1400.47 884.68L1389.25 906.155L1416.16 921.458L1427.38 899.999Z" fill="url(#paint7_linear)"/>
<path d="M1647.92 785.893H1678.57V817.873H1647.92V785.893Z" fill="url(#paint8_linear)"/>
<path d="M1647.92 1130.5H1678.57V1162.48H1647.92V1130.5Z" fill="url(#paint9_linear)"/>
<path d="M1647.92 1199.57H1678.57V1231.55H1647.92V1199.57Z" fill="url(#paint10_linear)"/>
<path d="M1647.92 1266.18H1678.57V1298.16H1647.92V1266.18Z" fill="url(#paint11_linear)"/>
<path d="M1647.92 854.787H1678.57V886.768H1647.92V854.787Z" fill="url(#paint12_linear)"/>
<path d="M1647.92 923.682H1678.57V955.663H1647.92V923.682Z" fill="url(#paint13_linear)"/>
<path d="M1647.92 992.577H1678.57V1024.56H1647.92V992.577Z" fill="url(#paint14_linear)"/>
<path d="M1647.92 1059H1678.57V1090.98H1647.92V1059Z" fill="url(#paint15_linear)"/>
<path d="M1234.12 801.883C1284.84 801.883 1326.08 758.853 1326.08 705.941H1372.05V673.961H1320.71C1308.05 636.752 1274.08 610 1234.12 610C1183.41 610 1142.17 653.03 1142.17 705.941C1142.17 758.853 1183.41 801.883 1234.12 801.883ZM1234.12 769.902C1217.65 769.902 1202.75 763.011 1191.73 751.945C1207.35 746.908 1218.8 731.862 1218.8 713.937C1218.8 709.523 1222.25 705.941 1226.46 705.941H1295.43C1295.43 741.216 1267.93 769.902 1234.12 769.902ZM1234.12 641.98C1256.71 641.98 1276.27 654.933 1286.91 673.961H1226.46C1205.33 673.961 1188.15 691.902 1188.15 713.937C1188.15 718.35 1184.7 721.932 1180.48 721.932H1175C1173.71 716.783 1172.82 711.49 1172.82 705.941C1172.82 670.667 1200.32 641.98 1234.12 641.98V641.98Z" fill="url(#paint16_linear)"/>
<g filter="url(#filter0_d)">
<path d="M805.866 1509.27H790.561V1555.01H789.922L758.53 1509.27H745.036V1582H760.412V1536.23H760.945L792.585 1582H805.866V1509.27ZM884.303 1545.64C884.303 1521.84 869.53 1508.28 850.248 1508.28C830.858 1508.28 816.192 1521.84 816.192 1545.64C816.192 1569.32 830.858 1582.99 850.248 1582.99C869.53 1582.99 884.303 1569.43 884.303 1545.64ZM868.714 1545.64C868.714 1561.05 861.398 1569.39 850.248 1569.39C839.062 1569.39 831.782 1561.05 831.782 1545.64C831.782 1530.22 839.062 1521.88 850.248 1521.88C861.398 1521.88 868.714 1530.22 868.714 1545.64ZM916.638 1582H932.014V1558.42H944.94C961.666 1558.42 971.396 1548.44 971.396 1533.92C971.396 1519.46 961.844 1509.27 945.331 1509.27H916.638V1582ZM932.014 1546.1V1521.84H942.384C951.261 1521.84 955.558 1526.67 955.558 1533.92C955.558 1541.13 951.261 1546.1 942.455 1546.1H932.014ZM984.421 1582L989.819 1565.42H1016.06L1021.46 1582H1037.94L1012.87 1509.27H993.05L967.944 1582H984.421ZM993.725 1553.41L1002.67 1525.89H1003.24L1012.19 1553.41H993.725ZM1045.59 1582H1060.97V1556.22H1072.19L1085.97 1582H1102.94L1087.49 1553.73C1095.77 1550.18 1100.35 1542.97 1100.35 1533.03C1100.35 1518.58 1090.8 1509.27 1074.28 1509.27H1045.59V1582ZM1060.97 1543.86V1521.84H1071.34C1080.21 1521.84 1084.51 1525.79 1084.51 1533.03C1084.51 1540.24 1080.21 1543.86 1071.41 1543.86H1060.97ZM1107.35 1521.95H1129.61V1582H1144.81V1521.95H1167.08V1509.27H1107.35V1521.95ZM1191.19 1509.27H1175.81V1582H1191.19V1509.27ZM1266.91 1534.73C1264.88 1517.94 1252.17 1508.28 1235.34 1508.28C1216.13 1508.28 1201.46 1521.84 1201.46 1545.64C1201.46 1569.36 1215.88 1582.99 1235.34 1582.99C1253.98 1582.99 1265.24 1570.6 1266.91 1557.21L1251.35 1557.14C1249.9 1564.92 1243.79 1569.39 1235.59 1569.39C1224.54 1569.39 1217.05 1561.19 1217.05 1545.64C1217.05 1530.51 1224.44 1521.88 1235.69 1521.88C1244.11 1521.88 1250.18 1526.74 1251.35 1534.73H1266.91ZM1292.21 1509.27H1276.83V1582H1292.21V1509.27ZM1303.76 1582H1319.14V1558.42H1332.06C1348.79 1558.42 1358.52 1548.44 1358.52 1533.92C1358.52 1519.46 1348.97 1509.27 1332.46 1509.27H1303.76V1582ZM1319.14 1546.1V1521.84H1329.51C1338.39 1521.84 1342.68 1526.67 1342.68 1533.92C1342.68 1541.13 1338.39 1546.1 1329.58 1546.1H1319.14ZM1371.55 1582L1376.94 1565.42H1403.19L1408.58 1582H1425.06L1399.99 1509.27H1380.17L1355.07 1582H1371.55ZM1380.85 1553.41L1389.8 1525.89H1390.37L1399.32 1553.41H1380.85ZM1493.55 1509.27H1478.24V1555.01H1477.6L1446.21 1509.27H1432.71V1582H1448.09V1536.23H1448.62L1480.26 1582H1493.55V1509.27ZM1502.38 1521.95H1524.65V1582H1539.84V1521.95H1562.11V1509.27H1502.38V1521.95ZM1610.3 1530.19H1625.04C1624.82 1517.23 1614.17 1508.28 1597.98 1508.28C1582.03 1508.28 1570.35 1517.09 1570.42 1530.3C1570.38 1541.02 1577.95 1547.16 1590.24 1550.11L1598.15 1552.1C1606.07 1554.02 1610.48 1556.29 1610.51 1561.19C1610.48 1566.52 1605.43 1570.14 1597.62 1570.14C1589.63 1570.14 1583.88 1566.45 1583.38 1559.17H1568.5C1568.89 1574.9 1580.15 1583.03 1597.8 1583.03C1615.56 1583.03 1626 1574.54 1626.03 1561.23C1626 1549.12 1616.87 1542.69 1604.23 1539.85L1597.69 1538.29C1591.37 1536.83 1586.08 1534.49 1586.19 1529.27C1586.19 1524.58 1590.34 1521.13 1597.87 1521.13C1605.22 1521.13 1609.73 1524.47 1610.3 1530.19ZM1653.06 1509.27L1679.58 1556.29V1582H1694.85V1556.29L1721.38 1509.27H1704.16L1687.57 1540.59H1686.86L1670.28 1509.27H1653.06ZM1728.68 1582H1777.83V1569.32H1744.06V1551.96H1775.16V1539.28H1744.06V1521.95H1777.68V1509.27H1728.68V1582ZM1786.04 1521.95H1808.31V1582H1823.5V1521.95H1845.77V1509.27H1786.04V1521.95Z" fill="white"/>
</g>
<defs>
<filter id="filter0_d" x="741.036" y="1508.28" width="1108.73" height="82.7514" filterUnits="userSpaceOnUse" color-interpolation-filters="sRGB">
<feFlood flood-opacity="0" result="BackgroundImageFix"/>
<feColorMatrix in="SourceAlpha" type="matrix" values="0 0 0 0 0 0 0 0 0 0 0 0 0 0 0 0 0 0 127 0" result="hardAlpha"/>
<feOffset dy="4"/>
<feGaussianBlur stdDeviation="2"/>
<feColorMatrix type="matrix" values="0 0 0 0 0 0 0 0 0 0 0 0 0 0 0 0 0 0 0.25 0"/>
<feBlend mode="normal" in2="BackgroundImageFix" result="effect1_dropShadow"/>
<feBlend mode="normal" in="SourceGraphic" in2="effect1_dropShadow" result="shape"/>
</filter>
<linearGradient id="paint0_linear" x1="1315.55" y1="384.502" x2="1315.55" y2="2246.27" gradientUnits="userSpaceOnUse">
<stop offset="0.197917" stop-color="#2F2E2E" stop-opacity="0.92"/>
<stop offset="0.557292"/>
</linearGradient>
<linearGradient id="paint1_linear" x1="1188.14" y1="817.873" x2="1188.14" y2="1297.58" gradientUnits="userSpaceOnUse">
<stop stop-color="#00B6F0"/>
<stop offset="1" stop-color="#2DF2FF"/>
</linearGradient>
<linearGradient id="paint2_linear" x1="1065.54" y1="1329.56" x2="1065.54" y2="1409.51" gradientUnits="userSpaceOnUse">
<stop stop-color="#00B6F0"/>
<stop offset="1" stop-color="#2DF2FF"/>
</linearGradient>
<linearGradient id="paint3_linear" x1="1631.46" y1="1330.31" x2="1631.46" y2="1410.27" gradientUnits="userSpaceOnUse">
<stop stop-color="#00B6F0"/>
<stop offset="1" stop-color="#2DF2FF"/>
</linearGradient>
<linearGradient id="paint4_linear" x1="1524.91" y1="1667.24" x2="1524.91" y2="1747.19" gradientUnits="userSpaceOnUse">
<stop stop-color="#00B6F0"/>
<stop offset="1" stop-color="#2DF2FF"/>
</linearGradient>
<linearGradient id="paint5_linear" x1="1188.04" y1="1745.92" x2="881.713" y2="1746.75" gradientUnits="userSpaceOnUse">
<stop stop-color="#00B6F0"/>
<stop offset="1" stop-color="#2DF2FF"/>
</linearGradient>
<linearGradient id="paint6_linear" x1="1663.07" y1="1926.15" x2="1356.74" y2="1926.98" gradientUnits="userSpaceOnUse">
<stop stop-color="#00C2FF"/>
<stop offset="1" stop-color="#00DDF0"/>
</linearGradient>
<linearGradient id="paint7_linear" x1="1526.24" y1="721.932" x2="1526.24" y2="921.458" gradientUnits="userSpaceOnUse">
<stop stop-color="#00B6F0"/>
<stop offset="1" stop-color="#2DF2FF"/>
</linearGradient>
<linearGradient id="paint8_linear" x1="1663.24" y1="785.893" x2="1663.24" y2="817.873" gradientUnits="userSpaceOnUse">
<stop stop-color="#00B6F0"/>
<stop offset="1" stop-color="#2DF2FF"/>
</linearGradient>
<linearGradient id="paint9_linear" x1="1663.25" y1="1130.5" x2="1663.25" y2="1162.48" gradientUnits="userSpaceOnUse">
<stop stop-color="#00B6F0"/>
<stop offset="1" stop-color="#2DF2FF"/>
</linearGradient>
<linearGradient id="paint10_linear" x1="1663.25" y1="1199.57" x2="1663.25" y2="1231.55" gradientUnits="userSpaceOnUse">
<stop stop-color="#00B6F0"/>
<stop offset="1" stop-color="#2DF2FF"/>
</linearGradient>
<linearGradient id="paint11_linear" x1="1663.25" y1="1266.18" x2="1663.25" y2="1298.16" gradientUnits="userSpaceOnUse">
<stop stop-color="#00B6F0"/>
<stop offset="1" stop-color="#2DF2FF"/>
</linearGradient>
<linearGradient id="paint12_linear" x1="1663.24" y1="854.787" x2="1663.24" y2="886.768" gradientUnits="userSpaceOnUse">
<stop stop-color="#00B6F0"/>
<stop offset="1" stop-color="#2DF2FF"/>
</linearGradient>
<linearGradient id="paint13_linear" x1="1663.24" y1="923.682" x2="1663.24" y2="955.663" gradientUnits="userSpaceOnUse">
<stop stop-color="#00B6F0"/>
<stop offset="1" stop-color="#2DF2FF"/>
</linearGradient>
<linearGradient id="paint14_linear" x1="1663.24" y1="992.577" x2="1663.24" y2="1024.56" gradientUnits="userSpaceOnUse">
<stop stop-color="#00B6F0"/>
<stop offset="1" stop-color="#2DF2FF"/>
</linearGradient>
<linearGradient id="paint15_linear" x1="1663.24" y1="1059" x2="1663.24" y2="1090.98" gradientUnits="userSpaceOnUse">
<stop stop-color="#00B6F0"/>
<stop offset="1" stop-color="#2DF2FF"/>
</linearGradient>
<linearGradient id="paint16_linear" x1="1257.11" y1="610" x2="1257.11" y2="801.883" gradientUnits="userSpaceOnUse">
<stop stop-color="#00B6F0"/>
<stop offset="1" stop-color="#2DF2FF"/>
</linearGradient>
</defs>
</svg>
