<svg width="2632" height="2631" viewBox="0 0 2632 2631" fill="none" xmlns="http://www.w3.org/2000/svg">
<path d="M820.331 1191.93C820.959 1191.93 821.603 1191.9 822.231 1191.81L853.296 1187.76L866.461 1283.86C867.534 1291.73 874.001 1297.58 881.633 1297.58H1310.75C1391.44 1297.58 1463.64 1247.37 1494.66 1169.66L1522.28 1100.52L1557.86 1095.88C1565.52 1094.89 1571.29 1088.08 1571.29 1080.02V1016.06C1571.29 1011.47 1569.4 1007.1 1566.11 1004.06C1562.81 1001.03 1558.43 999.634 1554.06 1000.18L1326.08 1029.9V1009.76H1387.38C1404.28 1009.76 1418.03 995.413 1418.03 977.776V945.795C1418.03 936.969 1411.18 929.805 1402.71 929.805H1326.08V897.824C1326.08 853.739 1291.7 817.873 1249.45 817.873H1218.8C1176.54 817.873 1142.17 853.739 1142.17 897.824V1053.89L1034.02 1067.99C1029.74 1023.24 1004.32 983.916 965.128 963.464C960.346 960.986 954.691 961.258 950.139 964.2L933.909 974.785L909.71 936.921C905.174 929.821 896.116 927.646 889.066 932.076L812.438 980.046C808.852 982.301 806.293 985.979 805.373 990.248C804.454 994.517 805.25 998.979 807.58 1002.62L832.178 1041.13L827.534 1044.17C823.059 1047.09 820.331 1052.21 820.331 1057.73V1095.86L818.431 1096.12C810.768 1097.11 805.005 1103.92 805.005 1111.98V1175.94C805.005 1180.53 806.89 1184.9 810.185 1187.94C812.99 1190.53 816.622 1191.93 820.331 1191.93V1191.93ZM1466.37 1157.35C1440.1 1223.11 1379.03 1265.6 1310.75 1265.6H894.921L883.718 1183.79L1487.24 1105.09L1466.37 1157.35ZM1540.64 1065.88L835.657 1157.83V1126.1L1540.64 1034.16V1065.88ZM1249.45 961.785H1341.4V977.776H1234.12C1225.66 977.776 1218.8 970.596 1218.8 961.785V897.824H1234.12V945.795C1234.12 954.622 1240.97 961.785 1249.45 961.785ZM1387.38 977.776H1372.05V961.785H1387.38V977.776ZM1172.82 897.824C1172.82 871.377 1193.45 849.854 1218.8 849.854H1249.45C1274.8 849.854 1295.43 871.377 1295.43 897.824V929.805H1264.77V881.834C1264.77 873.008 1257.92 865.844 1249.45 865.844H1203.47C1195 865.844 1188.15 873.008 1188.15 881.834V961.785C1188.15 988.233 1208.77 1009.76 1234.12 1009.76H1295.43V1033.9L1172.82 1049.89V897.824ZM842.001 998.851L892.315 967.35L907.902 991.751L858.185 1024.18L842.001 998.851ZM850.982 1066.59L958.737 996.308C984.453 1012.76 1000.9 1040.62 1003.67 1071.94L850.982 1091.87V1066.59Z" fill="white"/>
<path d="M881.633 1409.51C906.782 1409.51 928.959 1396.62 942.936 1377.04C956.913 1396.62 979.089 1409.51 1004.24 1409.51C1029.39 1409.51 1051.56 1396.62 1065.54 1377.04C1079.52 1396.62 1101.69 1409.51 1126.84 1409.51C1151.99 1409.51 1174.17 1396.62 1188.15 1377.04C1202.12 1396.62 1224.3 1409.51 1249.45 1409.51C1291.7 1409.51 1326.08 1373.65 1326.08 1329.56H1295.43C1295.43 1356.01 1274.8 1377.53 1249.45 1377.53C1224.1 1377.53 1203.47 1356.01 1203.47 1329.56H1172.82C1172.82 1356.01 1152.19 1377.53 1126.84 1377.53C1101.49 1377.53 1080.87 1356.01 1080.87 1329.56H1050.22C1050.22 1356.01 1029.59 1377.53 1004.24 1377.53C978.89 1377.53 958.261 1356.01 958.261 1329.56H927.61C927.61 1356.01 906.982 1377.53 881.633 1377.53C856.284 1377.53 835.656 1356.01 835.656 1329.56H805.005C805.005 1373.65 839.38 1409.51 881.633 1409.51Z" fill="white"/>
<path d="M1861.35 1330.31C1861.35 1356.76 1840.72 1378.28 1815.37 1378.28C1790.02 1378.28 1769.39 1356.76 1769.39 1330.31H1738.74C1738.74 1356.76 1718.12 1378.28 1692.77 1378.28C1667.42 1378.28 1646.79 1356.76 1646.79 1330.31H1616.14C1616.14 1356.76 1595.51 1378.28 1570.16 1378.28C1544.81 1378.28 1524.18 1356.76 1524.18 1330.31H1493.53C1493.53 1356.76 1472.91 1378.28 1447.56 1378.28C1422.21 1378.28 1401.58 1356.76 1401.58 1330.31H1370.93C1370.93 1374.4 1405.3 1410.27 1447.56 1410.27C1472.71 1410.27 1494.88 1397.38 1508.86 1377.79C1522.84 1397.38 1545.01 1410.27 1570.16 1410.27C1595.31 1410.27 1617.49 1397.38 1631.46 1377.79C1645.44 1397.38 1667.62 1410.27 1692.77 1410.27C1717.92 1410.27 1740.09 1397.38 1754.07 1377.79C1768.05 1397.38 1790.22 1410.27 1815.37 1410.27C1857.62 1410.27 1892 1374.4 1892 1330.31H1861.35Z" fill="white"/>
<path d="M1647.51 1715.21C1622.16 1715.21 1601.54 1693.69 1601.54 1667.24H1570.88C1570.88 1693.69 1550.26 1715.21 1524.91 1715.21C1499.56 1715.21 1478.93 1693.69 1478.93 1667.24H1448.28C1448.28 1693.69 1427.65 1715.21 1402.3 1715.21C1376.95 1715.21 1356.33 1693.69 1356.33 1667.24H1325.67C1325.67 1711.32 1360.05 1747.19 1402.3 1747.19C1427.45 1747.19 1449.63 1734.3 1463.6 1714.71C1477.58 1734.3 1499.76 1747.19 1524.91 1747.19C1550.06 1747.19 1572.23 1734.3 1586.21 1714.71C1600.19 1734.3 1622.36 1747.19 1647.51 1747.19C1689.77 1747.19 1724.14 1711.32 1724.14 1667.24H1693.49C1693.49 1693.69 1672.86 1715.21 1647.51 1715.21Z" fill="white"/>
<path d="M1183.7 1734.63L1150.55 1700.25C1129.39 1678.28 1101.28 1666.22 1071.43 1666.31C1044.01 1666.39 1017.66 1676.93 997.239 1696L965.946 1725.18L907.025 1670.84C902.508 1666.67 896.053 1665.66 890.558 1668.25C885.063 1670.84 881.523 1676.56 881.54 1682.86L881.886 1810.78C881.903 1817.08 885.459 1822.78 890.968 1825.34C896.476 1827.9 902.926 1826.86 907.42 1822.65L966.062 1767.97L997.512 1796.96C1018.04 1815.92 1044.44 1826.3 1071.86 1826.21C1101.71 1826.13 1129.76 1813.91 1150.8 1791.81L1183.76 1757.24C1189.5 1751.23 1189.47 1740.61 1183.7 1734.63ZM912.441 1775.08L912.287 1718.37L942.939 1746.64L912.441 1775.08ZM1017.81 1773.01L989.069 1746.51L1017.67 1719.83C1032.5 1706 1051.62 1698.35 1071.51 1698.29C1073.72 1698.29 1075.84 1698.76 1078.01 1698.93C1070.02 1713.22 1065.57 1729.62 1065.62 1746.28C1065.67 1762.94 1070.2 1779.32 1078.28 1793.56C1076.09 1793.74 1073.98 1794.23 1071.77 1794.23C1051.88 1794.29 1032.72 1786.75 1017.81 1773.01ZM1109.35 1784.07C1101.16 1773.33 1096.31 1759.97 1096.27 1746.19C1096.23 1732.41 1101.01 1719.03 1109.15 1708.24C1116.29 1712.14 1123.07 1716.82 1128.96 1722.93L1151.21 1746.03L1129.07 1769.26C1123.23 1775.41 1116.47 1780.13 1109.35 1784.07Z" fill="url(#paint0_linear)"/>
<path d="M1658.73 1914.85L1625.58 1880.48C1604.41 1858.5 1576.3 1846.45 1546.45 1846.54C1519.03 1846.62 1492.69 1857.15 1472.26 1876.23L1440.97 1905.41L1382.05 1851.07C1377.53 1846.89 1371.08 1845.89 1365.58 1848.48C1360.09 1851.07 1356.55 1856.79 1356.56 1863.09L1356.91 1991.01C1356.93 1997.31 1360.48 2003.01 1365.99 2005.57C1371.5 2008.12 1377.95 2007.08 1382.44 2002.88L1441.08 1948.2L1472.53 1977.19C1493.06 1996.14 1519.46 2006.52 1546.88 2006.44C1576.74 2006.35 1604.78 1994.13 1625.82 1972.04L1658.79 1937.46C1664.52 1931.45 1664.49 1920.83 1658.73 1914.85ZM1387.46 1955.31L1387.31 1898.59L1417.96 1926.87L1387.46 1955.31ZM1492.84 1953.24L1464.09 1926.73L1492.69 1900.06C1507.52 1886.23 1526.64 1878.58 1546.54 1878.52C1548.74 1878.51 1550.86 1878.99 1553.04 1879.16C1545.04 1893.44 1540.6 1909.85 1540.64 1926.51C1540.69 1943.17 1545.22 1959.55 1553.31 1973.79C1551.12 1973.97 1549 1974.45 1546.8 1974.46C1526.9 1974.52 1507.74 1966.98 1492.84 1953.24ZM1584.38 1964.29C1576.18 1953.55 1571.33 1940.2 1571.29 1926.42C1571.26 1912.63 1576.03 1899.25 1584.17 1888.47C1591.31 1892.36 1598.1 1897.04 1603.98 1903.15L1626.24 1926.26L1604.09 1949.49C1598.25 1955.63 1591.49 1960.35 1584.38 1964.29Z" fill="url(#paint1_linear)"/>
<path d="M1427.38 899.999C1474.51 809.878 1564.87 753.912 1663.24 753.912V721.932C1553.65 721.932 1452.96 784.294 1400.47 884.68L1389.25 906.155L1416.16 921.458L1427.38 899.999Z" fill="white"/>
<path d="M1647.92 785.893H1678.57V817.873H1647.92V785.893Z" fill="white"/>
<path d="M1647.92 1130.5H1678.57V1162.48H1647.92V1130.5Z" fill="white"/>
<path d="M1647.92 1199.57H1678.57V1231.55H1647.92V1199.57Z" fill="white"/>
<path d="M1647.92 1266.18H1678.57V1298.16H1647.92V1266.18Z" fill="white"/>
<path d="M1647.92 854.787H1678.57V886.768H1647.92V854.787Z" fill="white"/>
<path d="M1647.92 923.682H1678.57V955.663H1647.92V923.682Z" fill="white"/>
<path d="M1647.92 992.577H1678.57V1024.56H1647.92V992.577Z" fill="white"/>
<path d="M1647.92 1059H1678.57V1090.98H1647.92V1059Z" fill="white"/>
<path d="M1234.12 801.883C1284.84 801.883 1326.08 758.853 1326.08 705.941H1372.05V673.961H1320.71C1308.05 636.752 1274.08 610 1234.12 610C1183.41 610 1142.17 653.03 1142.17 705.941C1142.17 758.853 1183.41 801.883 1234.12 801.883ZM1234.12 769.902C1217.65 769.902 1202.75 763.011 1191.73 751.945C1207.35 746.908 1218.8 731.862 1218.8 713.937C1218.8 709.523 1222.25 705.941 1226.46 705.941H1295.43C1295.43 741.216 1267.93 769.902 1234.12 769.902ZM1234.12 641.98C1256.71 641.98 1276.27 654.933 1286.91 673.961H1226.46C1205.33 673.961 1188.15 691.902 1188.15 713.937C1188.15 718.35 1184.7 721.932 1180.48 721.932H1175C1173.71 716.783 1172.82 711.49 1172.82 705.941C1172.82 670.667 1200.32 641.98 1234.12 641.98V641.98Z" fill="white"/>
<path d="M729.427 1488.73H705.733V1534.41H705.052L674.029 1488.73H653.915V1576H677.608V1530.15H678.12L709.654 1576H729.427V1488.73ZM823.859 1532.36C823.859 1503.22 805.109 1487.53 781.416 1487.53C757.553 1487.53 738.973 1503.22 738.973 1532.36C738.973 1561.34 757.553 1577.19 781.416 1577.19C805.109 1577.19 823.859 1561.51 823.859 1532.36ZM799.484 1532.36C799.484 1548.05 793.178 1556.57 781.416 1556.57C769.655 1556.57 763.348 1548.05 763.348 1532.36C763.348 1516.68 769.655 1508.16 781.416 1508.16C793.178 1508.16 799.484 1516.68 799.484 1532.36ZM856.088 1576H879.781V1550.09H892.906C912.807 1550.09 926.145 1538.37 926.145 1519.58C926.145 1501 913.148 1488.73 893.758 1488.73H856.088V1576ZM879.781 1531.68V1507.65H888.133C896.443 1507.65 901.429 1512.08 901.429 1519.58C901.429 1527.04 896.443 1531.68 888.133 1531.68H879.781ZM945.29 1576L950.318 1559.3H979.125L984.154 1576H1009.72L980.915 1488.73H948.529L919.722 1576H945.29ZM955.688 1541.57L964.381 1512.76H965.063L973.756 1541.57H955.688ZM1016.81 1576H1040.5V1547.19H1048.68L1064.02 1576H1089.76L1072.03 1543.44C1081.32 1538.97 1086.86 1530.49 1086.86 1518.39C1086.86 1499.81 1073.87 1488.73 1054.48 1488.73H1016.81V1576ZM1040.5 1528.78V1507.65H1048.85C1057.16 1507.65 1062.15 1510.89 1062.15 1518.39C1062.15 1525.84 1057.16 1528.78 1048.85 1528.78H1040.5ZM1093.26 1507.82H1119.51V1576H1142.86V1507.82H1169.11V1488.73H1093.26V1507.82ZM1200.4 1488.73H1176.71V1576H1200.4V1488.73ZM1291.79 1521.45C1289.91 1499.81 1274.06 1487.53 1252.07 1487.53C1228.55 1487.53 1209.97 1503.22 1209.97 1532.36C1209.97 1561.38 1228.04 1577.19 1252.07 1577.19C1277.64 1577.19 1290.59 1559.47 1291.79 1544.64L1267.75 1544.47C1266.56 1551.92 1261.27 1556.57 1252.58 1556.57C1241.03 1556.57 1234.34 1548.39 1234.34 1532.36C1234.34 1517.19 1240.82 1508.16 1252.75 1508.16C1261.87 1508.16 1267.07 1513.53 1267.75 1521.45H1291.79ZM1324.91 1488.73H1301.21V1576H1324.91V1488.73ZM1334.82 1576H1358.51V1550.09H1371.63C1391.54 1550.09 1404.87 1538.37 1404.87 1519.58C1404.87 1501 1391.88 1488.73 1372.49 1488.73H1334.82V1576ZM1358.51 1531.68V1507.65H1366.86C1375.17 1507.65 1380.16 1512.08 1380.16 1519.58C1380.16 1527.04 1375.17 1531.68 1366.86 1531.68H1358.51ZM1424.02 1576L1429.05 1559.3H1457.85L1462.88 1576H1488.45L1459.64 1488.73H1427.26L1398.45 1576H1424.02ZM1434.42 1541.57L1443.11 1512.76H1443.79L1452.48 1541.57H1434.42ZM1571.05 1488.73H1547.35V1534.41H1546.67L1515.65 1488.73H1495.54V1576H1519.23V1530.15H1519.74L1551.27 1576H1571.05V1488.73ZM1578.55 1507.82H1604.8V1576H1628.15V1507.82H1654.4V1488.73H1578.55V1507.82ZM1709.04 1516H1731.71C1731.63 1498.87 1718.42 1487.53 1697.28 1487.53C1676.53 1487.53 1661.87 1498.7 1662 1515.32C1661.96 1528.95 1671.42 1536.54 1686.88 1539.86L1695.58 1541.74C1705.29 1543.87 1708.62 1546.3 1708.7 1550.26C1708.62 1554.57 1704.7 1557.59 1697.11 1557.59C1688.03 1557.59 1682.67 1553.33 1682.28 1545.32H1659.78C1659.87 1567.22 1674.7 1577.02 1697.45 1577.02C1719.57 1577.02 1732.82 1567.48 1732.91 1550.26C1732.82 1536.97 1724.9 1527.63 1705.63 1523.5L1698.47 1521.97C1690.21 1520.22 1686.5 1517.79 1686.71 1513.61C1686.76 1509.78 1689.95 1506.97 1697.28 1506.97C1704.95 1506.97 1708.57 1510.33 1709.04 1516ZM1759.61 1488.73L1791.65 1548.56V1576H1815.17V1548.56L1847.22 1488.73H1820.8L1803.75 1524.18H1803.07L1786.03 1488.73H1759.61ZM1853.62 1576H1916.35V1556.91H1877.32V1541.91H1913.28V1522.82H1877.32V1507.82H1916.52V1488.73H1853.62V1576ZM1924.57 1507.82H1950.82V1576H1974.17V1507.82H2000.42V1488.73H1924.57V1507.82Z" fill="url(#paint2_linear)"/>
<defs>
<linearGradient id="paint0_linear" x1="1188.04" y1="1745.92" x2="881.713" y2="1746.75" gradientUnits="userSpaceOnUse">
<stop stop-color="#3FD1FF"/>
<stop offset="0.963542" stop-color="#45BCFF"/>
</linearGradient>
<linearGradient id="paint1_linear" x1="1663.07" y1="1926.15" x2="1356.74" y2="1926.98" gradientUnits="userSpaceOnUse">
<stop stop-color="#3FD1FF"/>
<stop offset="0.963542" stop-color="#45BCFF"/>
</linearGradient>
<linearGradient id="paint2_linear" x1="1326" y1="1520" x2="1326" y2="1622" gradientUnits="userSpaceOnUse">
<stop stop-color="#3FD1FF"/>
<stop offset="1" stop-color="#459BFF"/>
</linearGradient>
</defs>
</svg>
