<svg width="224" height="208" viewBox="0 0 224 208" fill="none" xmlns="http://www.w3.org/2000/svg">
<ellipse cx="112" cy="104" rx="112" ry="104" fill="#F8F8F8"/>
<path d="M170.714 37.7754C165.968 33.2856 156.548 33.6077 149.48 34.6682C139.779 36.1243 128.864 39.8477 118.746 45.1527C117.173 45.9778 116.304 47.7283 116.592 49.4918C117.969 57.913 122.44 66.7986 129.229 74.1955L123.604 79.8634L103.533 59.6373C101.932 58.023 99.3341 58.023 97.7321 59.6373C96.1301 61.2517 96.1301 63.8689 97.7321 65.4833L117.803 85.7094L110.478 93.0914L92.5944 75.07C90.9927 73.4556 88.3953 73.4556 86.7933 75.07C85.1913 76.6843 85.1913 79.3015 86.7933 80.9159L104.677 98.9373L97.3512 106.319L83.8434 92.7073C82.2417 91.0929 79.6443 91.0929 78.0423 92.7073C76.4403 94.3216 76.4403 96.9388 78.0423 98.5532L91.5501 112.165L84.2246 119.547L77.2801 112.549C75.6784 110.935 73.081 110.935 71.479 112.549C69.877 114.164 69.877 116.781 71.479 118.395L78.4235 125.393L76.6358 127.195C72.4684 128.123 57.1609 130.329 39.9066 126.851C37.3767 126.34 35 128.292 35 130.905C35 143.742 40.6764 154.881 53.0589 156.8C54.9644 169.285 66.0263 174.998 78.7552 174.998C81.3387 174.998 83.2855 172.614 82.7777 170.054C79.3259 152.665 81.5153 137.239 82.4369 133.041L84.2246 131.239L91.1691 138.237C91.9701 139.044 93.02 139.448 94.0695 139.448C97.6908 139.448 99.5622 135.003 96.97 132.391L90.0255 125.393L97.3512 118.011L110.859 131.623C111.66 132.43 112.71 132.834 113.759 132.834C117.381 132.834 119.252 128.389 116.66 125.777L103.152 112.165L110.478 104.783L128.361 122.804C129.162 123.612 130.212 124.015 131.261 124.015C134.883 124.015 136.754 119.57 134.162 116.959L116.279 98.9373L123.604 91.555L143.675 111.781C144.476 112.588 145.526 112.992 146.576 112.992C150.197 112.992 152.068 108.547 149.476 105.935L129.405 85.7094L135.234 79.8351C142.444 85.6545 151.372 89.8307 161.452 90.9218C163.257 91.118 164.986 90.0903 165.683 88.3858C169.765 78.3968 172.768 68.3626 174.137 60.132C175.988 49.0172 174.868 41.7043 170.714 37.7754V37.7754ZM66.0287 163.455C62.6311 161.116 60.9797 157.68 60.9797 152.952C60.9797 150.669 59.143 148.818 56.8776 148.818C52.1854 148.818 48.7758 147.154 46.4543 143.73C45.0621 141.676 44.0852 138.977 43.5864 135.878C53.4242 137.322 63.9547 137.403 73.6276 136.072C72.312 145.781 72.3831 156.396 73.821 166.346C70.7453 165.843 68.0661 164.858 66.0287 163.455V163.455ZM166.047 58.7646C164.91 65.5957 162.532 73.8367 159.284 82.2503C141.972 78.9865 128.899 64.4948 125.32 51.0791C133.831 46.9374 142.737 44.0394 150.689 42.8458C159.834 41.4726 164.115 42.872 165.099 43.8035C166.535 45.1615 167.538 49.8048 166.047 58.7646V58.7646Z" fill="black"/>
<path d="M146.22 55.1415C145.787 52.8321 143.408 51.2728 141.008 51.9943C138.685 52.7571 137.663 55.0717 138.276 57.1505C139.053 59.5466 141.382 60.5076 143.392 59.9035C145.612 59.1749 146.608 57.0223 146.22 55.1415V55.1415Z" fill="black"/>
</svg>
