<svg width="512" height="512" viewBox="0 0 512 512" fill="none" xmlns="http://www.w3.org/2000/svg">
<path d="M370.045 267C364.526 267 360.047 262.523 360.047 257C360.047 251.477 364.517 247 370.036 247H370.046C375.566 247 380.039 251.477 380.039 257C380.039 262.523 375.564 267 370.045 267Z" fill="#E5E5E5"/>
<path d="M502.007 297H402.073C396.554 297 392.08 292.523 392.08 287V227C392.08 221.477 396.555 217 402.073 217H502.007C507.526 217 512 221.477 512 227V287C512 292.523 507.525 297 502.007 297ZM412.066 277H492.013V237H412.066V277Z" fill="#E5E5E5"/>
<path d="M340.406 102.63H308.827V83.02C308.827 77.5 304.35 73.02 298.834 73.02H198.9C193.384 73.02 188.907 77.5 188.907 83.02V103.02H161.575V41.02C161.575 35.5 157.098 31.02 151.582 31.02H119.923V11C119.923 5.48 115.456 1 109.93 1H9.993C4.477 1 0 5.48 0 11V71C0 76.52 4.477 81 9.993 81H109.927C115.453 81 119.92 76.52 119.92 71V51.02H141.586V175.02H119.92V155C119.92 149.48 115.453 145 109.927 145H9.993C4.477 145 0 149.48 0 155V215C0 220.52 4.477 225 9.993 225H109.927C115.453 225 119.92 220.52 119.92 215V195.02H151.579C157.095 195.02 161.572 190.54 161.572 185.02V123.02H188.904V143.02C188.904 148.54 193.381 153.02 198.897 153.02H298.831C304.347 153.02 308.824 148.54 308.824 143.02V122.63H330.41V390.63H308.824V369.02C308.824 363.5 304.347 359.02 298.831 359.02H198.897C193.381 359.02 188.904 363.5 188.904 369.02V389.02H161.572V327.02C161.572 321.5 157.095 317.02 151.579 317.02H119.92V297C119.92 291.48 115.453 287 109.927 287H9.993C4.477 287 0 291.48 0 297V357C0 362.52 4.477 367 9.993 367H109.927C115.453 367 119.92 362.52 119.92 357V337.02H141.586V461.02H119.92V441C119.92 435.48 115.453 431 109.927 431H9.993C4.477 431 0 435.48 0 441V501C0 506.52 4.477 511 9.993 511H109.927C115.453 511 119.92 506.52 119.92 501V481.02H151.579C157.095 481.02 161.572 476.54 161.572 471.02V409.02H188.904V429.02C188.904 434.54 193.381 439.02 198.897 439.02H298.831C304.347 439.02 308.824 434.54 308.824 429.02V410.63H340.403C345.919 410.63 350.396 406.15 350.396 400.63V112.63C350.399 107.11 345.922 102.63 340.406 102.63ZM99.934 61H19.987V21H99.934V61ZM99.934 205H19.987V165H99.934V205ZM288.84 133.02H208.893V93.02H288.84V133.02ZM99.934 347H19.987V307H99.934V347ZM99.934 491H19.987V451H99.934V491ZM288.84 419.02H208.893V379.02H288.84V419.02Z" fill="#E5E5E5"/>
</svg>
