<svg width="512" height="512" viewBox="0 0 512 512" fill="none" xmlns="http://www.w3.org/2000/svg">
<path d="M464.291 397.558C471.643 387.599 476 375.301 476 362C476 328.916 449.084 302 416 302C382.916 302 356 328.916 356 362C356 375.301 360.357 387.599 367.709 397.558C355.049 402.735 344.103 411.263 336 422.052C327.897 411.263 316.951 402.735 304.291 397.558C311.643 387.599 316 375.301 316 362C316 328.916 289.084 302 256 302C222.916 302 196 328.916 196 362C196 375.301 200.357 387.599 207.709 397.558C195.049 402.735 184.103 411.263 176 422.052C167.897 411.263 156.951 402.735 144.291 397.558C151.643 387.599 156 375.301 156 362C156 328.916 129.084 302 96 302C62.916 302 36 328.916 36 362C36 375.301 40.357 387.599 47.709 397.558C20.34 408.749 1 435.651 1 467V497C1 505.284 7.716 512 16 512H496C504.284 512 511 505.284 511 497V467C511 435.651 491.66 408.749 464.291 397.558ZM96 332C112.542 332 126 345.458 126 362C126 378.542 112.542 392 96 392C79.458 392 66 378.542 66 362C66 345.458 79.458 332 96 332ZM161 482H31V467C31 442.187 51.187 422 76 422H116C140.813 422 161 442.187 161 467V482ZM256 332C272.542 332 286 345.458 286 362C286 378.542 272.542 392 256 392C239.458 392 226 378.542 226 362C226 345.458 239.458 332 256 332ZM321 482H191V467C191 442.187 211.187 422 236 422H276C300.813 422 321 442.187 321 467V482ZM416 332C432.542 332 446 345.458 446 362C446 378.542 432.542 392 416 392C399.458 392 386 378.542 386 362C386 345.458 399.458 332 416 332ZM481 482H351V467C351 442.187 371.187 422 396 422H436C460.813 422 481 442.187 481 467V482Z" fill="#E5E5E5"/>
<path d="M466 0H46C21.147 0 1 20.147 1 45V185C1 209.853 21.147 230 46 230H58.281L83.794 265.718C89.776 274.093 102.224 274.093 108.206 265.718L133.719 230H218.281L243.794 265.719C249.776 274.094 262.224 274.094 268.206 265.719L293.72 230H378.281L403.795 265.719C409.777 274.094 422.225 274.094 428.207 265.719L453.72 230H466C490.853 230 511 209.853 511 185V45C511 20.147 490.853 0 466 0ZM481 185C481 193.284 474.284 200 466 200H446C441.156 200 436.609 202.34 433.794 206.282L416 231.193L398.206 206.281C395.391 202.34 390.845 200 386 200H286C281.156 200 276.609 202.34 273.794 206.282L256 231.193L238.206 206.281C235.39 202.339 230.844 200 226 200H126C121.156 200 116.61 202.339 113.794 206.281L96 231.193L78.206 206.281C75.39 202.339 70.844 200 66 200H46C37.716 200 31 193.284 31 185V45C31 36.716 37.716 30 46 30H466C474.284 30 481 36.716 481 45V185Z" fill="#E5E5E5"/>
<path d="M291 100C299.284 100 306 93.2843 306 85C306 76.7157 299.284 70 291 70C282.716 70 276 76.7157 276 85C276 93.2843 282.716 100 291 100Z" fill="#E5E5E5"/>
<path d="M221 100C229.284 100 236 93.2843 236 85C236 76.7157 229.284 70 221 70C212.716 70 206 76.7157 206 85C206 93.2843 212.716 100 221 100Z" fill="#E5E5E5"/>
<path d="M301.424 129.214C295.467 123.457 285.972 123.619 280.215 129.575C273.717 136.298 265.118 140 256 140C246.882 140 238.283 136.298 231.786 129.575C226.029 123.618 216.533 123.457 210.576 129.214C204.619 134.971 204.457 144.467 210.214 150.424C222.415 163.048 238.675 170 256 170C273.324 170 289.585 163.048 301.786 150.425C307.543 144.468 307.381 134.972 301.424 129.214V129.214Z" fill="#E5E5E5"/>
</svg>
