<svg width="512" height="512" viewBox="0 0 512 512" fill="none" xmlns="http://www.w3.org/2000/svg">
<g clip-path="url(#clip0)">
<path d="M506.188 236.413L297.798 26.6501C297.531 26.3801 297.254 26.1181 296.972 25.8641C274.217 5.43307 239.832 5.36007 216.99 25.6951C216.706 25.9481 216.43 26.2091 216.161 26.4771L5.87201 236.352C-1.94599 244.156 -1.95899 256.819 5.84401 264.637C13.648 272.455 26.311 272.467 34.128 264.665L50 248.824V421.508C50 465.62 85.888 501.508 130 501.508H202C213.046 501.508 222 492.554 222 481.508V318.508H292V481.508C292 492.554 300.954 501.508 312 501.508H382C426.112 501.508 462 465.62 462 421.508C462 410.462 453.046 401.508 442 401.508C430.954 401.508 422 410.462 422 421.508C422 443.564 404.056 461.508 382 461.508H332V298.508C332 287.462 323.046 278.508 312 278.508H202C190.954 278.508 182 287.462 182 298.508V461.508H130C107.944 461.508 90 443.564 90 421.508V209.508C90 209.308 89.997 209.109 89.991 208.911L243.946 55.2601C251.439 48.8971 262.429 48.9211 269.893 55.3151L422 208.425V321.508C422 332.554 430.954 341.508 442 341.508C453.046 341.508 462 332.554 462 321.508V248.688L477.812 264.605C481.721 268.54 486.859 270.509 492 270.509C497.097 270.509 502.195 268.572 506.096 264.697C513.932 256.912 513.974 244.249 506.188 236.413Z" fill="#E5E5E5"/>
</g>
<defs>
<clipPath id="clip0">
<rect width="512" height="512" fill="white"/>
</clipPath>
</defs>
</svg>
