<svg width="46" height="46" viewBox="0 0 46 46" fill="none" xmlns="http://www.w3.org/2000/svg">
<g clip-path="url(#clip0)">
<path d="M39.264 6.73612C30.282 -2.24487 15.719 -2.24588 6.736 6.73612C-2.246 15.7181 -2.245 30.2811 6.736 39.2641C15.718 48.2441 30.281 48.2451 39.264 39.2641C48.245 30.2811 48.244 15.7191 39.264 6.73612ZM25.999 33.0001C25.999 34.6571 24.656 36.0001 22.999 36.0001C21.342 36.0001 19.999 34.6571 19.999 33.0001V21.0001C19.999 19.3431 21.342 18.0001 22.999 18.0001C24.656 18.0001 25.999 19.3431 25.999 21.0001V33.0001ZM22.946 15.8721C21.218 15.8721 20.066 14.6481 20.102 13.1371C20.066 11.5531 21.218 10.3661 22.981 10.3661C24.745 10.3661 25.861 11.5541 25.898 13.1371C25.897 14.6481 24.746 15.8721 22.946 15.8721Z" fill="black" fill-opacity="0.6"/>
</g>
<defs>
<clipPath id="clip0">
<rect width="45.999" height="45.999" fill="white"/>
</clipPath>
</defs>
</svg>
