<svg width="512" height="512" viewBox="0 0 512 512" fill="none" xmlns="http://www.w3.org/2000/svg">
<path d="M261.48 188.866C258.321 186.186 253.588 186.575 250.91 189.733C248.23 192.892 248.618 197.625 251.777 200.304C258.487 205.996 267.392 209.132 276.852 209.132C286.312 209.132 295.217 205.997 301.927 200.304C305.086 197.624 305.474 192.891 302.794 189.733C300.116 186.576 295.382 186.187 292.224 188.866C288.279 192.213 282.676 194.132 276.852 194.132C271.028 194.132 265.426 192.213 261.48 188.866Z" fill="#00ECFF"/>
<path d="M239.076 153.817C239.066 153.817 239.056 153.817 239.046 153.817C234.918 153.817 231.564 157.155 231.547 161.288C231.53 165.43 234.875 168.801 239.018 168.817H239.142H239.172C243.3 168.817 246.654 165.479 246.671 161.346C246.688 157.204 243.343 153.833 239.2 153.817H239.076Z" fill="#00ECFF"/>
<path d="M317.366 168.817H317.396H317.406H317.41C321.538 168.817 324.892 165.478 324.909 161.346C324.926 157.204 321.581 153.833 317.438 153.817H317.313C317.303 153.817 317.293 153.817 317.283 153.817C317.28 153.817 317.277 153.817 317.273 153.817C317.272 153.817 317.271 153.817 317.27 153.817C313.142 153.817 309.788 157.155 309.771 161.288C309.754 165.43 313.099 168.801 317.242 168.817H317.366Z" fill="#00ECFF"/>
<path d="M171.158 252.076C167.213 255.423 161.609 257.343 155.786 257.343C149.963 257.343 144.359 255.424 140.414 252.076C137.255 249.396 132.523 249.785 129.844 252.943C127.164 256.102 127.552 260.835 130.711 263.514C137.421 269.207 146.326 272.342 155.786 272.342C165.246 272.342 174.151 269.207 180.861 263.514C184.02 260.834 184.408 256.101 181.728 252.943C179.05 249.786 174.316 249.397 171.158 252.076V252.076Z" fill="#00ECFF"/>
<path d="M196.42 217.03C196.399 217.03 196.379 217.027 196.358 217.027H196.353C196.35 217.027 196.347 217.027 196.344 217.027H196.235H196.218C196.213 217.027 196.209 217.027 196.204 217.027C192.076 217.027 188.722 220.365 188.705 224.498C188.689 228.392 191.646 231.603 195.442 231.987C195.512 231.994 195.584 231.993 195.654 231.999C195.827 232.012 195.999 232.027 196.175 232.027H196.299H196.329H196.339H196.343C200.486 232.027 203.843 228.669 203.843 224.527C203.844 220.41 200.527 217.071 196.42 217.03V217.03Z" fill="#00ECFF"/>
<path d="M118.134 217.027H118.01C118 217.027 117.99 217.027 117.98 217.027C113.852 217.027 110.498 220.365 110.481 224.498C110.464 228.64 113.809 232.011 117.952 232.027H118.076H118.106C122.234 232.027 125.588 228.689 125.605 224.556C125.621 220.414 122.276 217.043 118.134 217.027Z" fill="#00ECFF"/>
<path d="M184.096 374.946C172.789 374.946 163.591 384.145 163.591 395.452V433.856C163.591 445.164 172.789 454.363 184.096 454.363C195.403 454.363 204.602 445.164 204.602 433.856V395.452C204.602 384.144 195.402 374.946 184.096 374.946ZM189.602 433.855C189.602 436.892 187.132 439.362 184.096 439.362C181.061 439.362 178.591 436.892 178.591 433.855V395.451C178.591 392.415 181.061 389.945 184.096 389.945C187.132 389.945 189.602 392.415 189.602 395.451V433.855Z" fill="#00ECFF"/>
<path d="M485.047 237.229C470.185 237.229 458.094 249.32 458.094 264.182V301.52C458.094 305.662 461.451 309.02 465.594 309.02C469.737 309.02 473.094 305.662 473.094 301.52V264.182C473.094 257.591 478.456 252.229 485.047 252.229C491.638 252.229 497 257.592 497 264.182V400.878C497 407.469 491.638 412.832 485.047 412.832C478.456 412.832 473.094 407.47 473.094 400.878V338.547C473.094 334.405 469.737 331.047 465.594 331.047C461.451 331.047 458.094 334.405 458.094 338.547V400.878C458.094 415.74 470.185 427.832 485.047 427.832C499.909 427.832 512 415.741 512 400.879V264.182C512 249.321 499.909 237.229 485.047 237.229V237.229Z" fill="#00ECFF"/>
<path d="M485.047 439.937C470.185 439.937 458.094 452.066 458.094 466.974C458.094 481.836 470.185 493.928 485.047 493.928C499.909 493.928 512 481.836 512 466.974V466.805C512 451.99 499.909 439.937 485.047 439.937ZM497 466.974C497 473.565 491.638 478.928 485.047 478.928C478.456 478.928 473.094 473.566 473.094 466.974C473.094 460.337 478.456 454.937 485.047 454.937C491.638 454.937 497 460.26 497 466.804V466.974Z" fill="#00ECFF"/>
<path d="M427.055 207.021H407.181V183.203C407.181 171.817 397.918 162.554 386.533 162.554H366.529C363.526 131.794 344.843 104.872 316.644 91.3088C312.911 89.5138 308.429 91.0828 306.634 94.8168C304.838 98.5498 306.409 103.031 310.142 104.827C334.106 116.353 349.793 139.486 351.742 165.762C345.958 169.425 342.098 175.865 342.098 183.203V207.021H322.224C310.838 207.021 301.576 216.284 301.576 227.67V241.254C294.077 243.758 286.244 245.037 278.229 245.037C266.989 245.037 255.859 242.451 245.837 237.55C245.872 236.54 245.89 235.529 245.89 234.518C245.89 207.666 233.899 183.564 214.992 167.28C219.525 163.489 222.417 157.798 222.417 151.44V127.622H242.291C253.677 127.622 262.939 118.359 262.939 106.973V99.1868C267.705 98.1828 272.583 97.6488 277.495 97.6008C281.637 97.5598 284.962 94.1698 284.922 90.0278C284.881 85.9108 281.531 82.6008 277.424 82.6008C277.399 82.6008 277.373 82.6008 277.349 82.6008C272.504 82.6478 267.683 83.0878 262.94 83.9108V83.1868C262.94 71.8008 253.677 62.5378 242.292 62.5378H222.418V38.7208C222.418 27.3348 213.155 18.0718 201.77 18.0718H177.984C166.598 18.0718 157.336 27.3348 157.336 38.7208V62.5398H137.462C126.076 62.5398 116.814 71.8028 116.814 83.1888V106.974C116.814 118.36 126.077 127.623 137.462 127.623H157.336V145.794C157.279 145.794 157.222 145.792 157.165 145.792C150.379 145.792 143.77 146.561 137.417 148.01C134.917 140.239 127.626 134.597 119.034 134.597H101.945V113.965C101.945 103.317 93.282 94.6528 82.633 94.6528H61.266C50.618 94.6528 41.954 103.316 41.954 113.965V134.597H24.865C14.217 134.597 5.553 143.26 5.553 153.909V175.274C5.553 185.922 14.216 194.586 24.865 194.586H41.954V215.219C41.954 225.867 50.617 234.53 61.266 234.53H68.434C68.437 259.996 79.227 282.986 96.47 299.181C91.533 300.108 85.571 301.881 79.258 305.201C65.48 312.425 54.286 324.569 45.941 341.289C37.123 345.296 30.972 354.181 30.972 364.482C30.972 368.873 32.089 373.009 34.055 376.618C31.964 386.438 30.467 397.194 29.584 408.729C28.243 408.51 26.869 408.391 25.467 408.391C11.424 408.389 0 419.813 0 433.855C0 464.975 25.317 490.293 56.438 490.293C73.546 490.293 88.888 482.631 99.247 470.57C113.628 473.356 129.347 475.02 146.073 475.522C156.112 484.691 169.461 490.293 184.096 490.293C202.715 490.293 219.25 481.225 229.536 467.279C238.869 464.811 247.496 461.828 255.318 458.365V464.827C255.318 478.869 266.742 490.293 280.784 490.293C294.826 490.293 306.25 478.869 306.25 464.827V411.384C311.287 410.975 316.228 410.455 321.035 409.819V464.828C321.035 478.87 332.459 490.294 346.501 490.294C360.543 490.294 371.967 478.87 371.967 464.828V454.218L386.774 478.206C391.45 485.776 399.55 490.295 408.444 490.295C410.796 490.295 413.135 489.969 415.397 489.326C426.297 486.232 433.91 476.158 433.91 464.828V364.48C433.91 350.438 422.486 339.014 408.444 339.014C407.365 339.014 406.304 339.089 405.26 339.22C404.259 329.084 402.762 319.577 400.777 310.836C404.715 307.074 407.183 301.786 407.183 295.923V272.104H427.057C438.443 272.104 447.705 262.841 447.705 251.455V227.67C447.703 216.284 438.44 207.021 427.055 207.021ZM164.833 112.623H137.459C134.345 112.623 131.811 110.089 131.811 106.974V83.1888C131.811 80.0738 134.345 77.5398 137.459 77.5398H164.833C168.976 77.5398 172.333 74.1818 172.333 70.0398V38.7208C172.333 35.6058 174.867 33.0718 177.981 33.0718H201.767C204.881 33.0718 207.415 35.6058 207.415 38.7208V70.0398C207.415 74.1818 210.772 77.5398 214.915 77.5398H242.289C245.403 77.5398 247.937 80.0738 247.937 83.1888V106.974C247.937 110.089 245.403 112.623 242.289 112.623H214.915C210.772 112.623 207.415 115.981 207.415 120.123V151.441C207.415 154.556 204.881 157.09 201.767 157.09H200.445C191.851 152.267 182.379 148.832 172.332 147.094V120.123C172.333 115.981 168.976 112.623 164.833 112.623ZM56.954 215.217V187.084C56.954 182.942 53.597 179.584 49.454 179.584H24.865C22.488 179.584 20.553 177.65 20.553 175.272V153.907C20.553 151.53 22.488 149.595 24.865 149.595H49.454C53.597 149.595 56.954 146.237 56.954 142.095V113.963C56.954 111.586 58.889 109.651 61.266 109.651H82.631C85.008 109.651 86.943 111.585 86.943 113.963V142.095C86.943 146.237 90.3 149.595 94.443 149.595H119.032C120.946 149.595 122.554 150.857 123.115 152.587C95.484 164.112 74.886 189.222 69.707 219.527H61.266C58.889 219.528 56.954 217.594 56.954 215.217ZM56.438 389.946H61.943V433.856C61.943 436.893 59.473 439.363 56.438 439.363C53.402 439.363 50.932 436.893 50.932 433.856C50.932 427.168 48.337 421.078 44.106 416.53C44.649 406.437 45.658 396.946 47.124 388.175C50.011 389.313 53.151 389.946 56.438 389.946ZM56.438 475.294C33.589 475.294 15 456.704 15 433.855C15 428.084 19.695 423.389 25.466 423.389C31.237 423.389 35.932 428.084 35.932 433.855C35.932 445.163 45.131 454.362 56.438 454.362C67.745 454.362 76.943 445.163 76.943 433.855V382.445C76.943 378.303 73.586 374.945 69.443 374.945H56.438C50.667 374.945 45.972 370.25 45.972 364.479C45.972 358.708 50.667 354.013 56.438 354.013H87.409C93.18 354.013 97.875 358.708 97.875 364.479V433.854C97.874 456.704 79.286 475.294 56.438 475.294ZM184.096 475.294C161.247 475.294 142.659 456.705 142.659 433.856V395.452C142.659 372.603 161.247 354.014 184.096 354.014C206.945 354.014 225.534 372.603 225.534 395.452V433.856C225.533 456.704 206.944 475.294 184.096 475.294ZM238.482 448.895C239.809 444.103 240.533 439.063 240.533 433.855V395.451C240.533 364.331 215.216 339.013 184.095 339.013C152.976 339.013 127.658 364.331 127.658 395.451V433.855C127.658 443.255 129.981 452.119 134.063 459.923C124.944 459.296 116.218 458.282 107.935 456.898C111.098 449.856 112.873 442.062 112.873 433.855V364.48C112.873 350.438 101.449 339.014 87.407 339.014H64.486C70.545 329.776 77.824 322.887 86.231 318.479C97.879 312.353 107.718 313.255 107.758 313.26C108.047 313.294 108.338 313.311 108.629 313.311H116.397C128.611 319.655 142.474 323.247 157.162 323.247C171.465 323.247 185.427 319.762 197.904 313.311H205.69C205.981 313.311 206.212 313.301 206.503 313.267C206.599 313.256 216.441 312.352 228.102 318.48C240.556 325.022 250.486 336.916 257.658 353.835C256.16 357.076 255.318 360.68 255.318 364.479V441.768C250.179 444.395 244.558 446.777 238.482 448.895ZM291.249 464.828C291.249 470.599 286.554 475.294 280.783 475.294C275.012 475.294 270.317 470.599 270.317 464.828V364.48C270.317 358.709 275.012 354.014 280.783 354.014C286.554 354.014 291.249 358.709 291.249 364.48V464.828ZM418.908 364.48V464.828C418.908 469.484 415.779 473.624 411.297 474.897C410.367 475.161 409.406 475.295 408.443 475.295C404.788 475.295 401.458 473.436 399.536 470.325L370.848 423.848C369.457 421.595 367.019 420.287 364.466 420.287C363.786 420.287 363.097 420.38 362.418 420.572C359.192 421.488 356.966 424.434 356.966 427.787V464.828C356.966 470.599 352.271 475.294 346.5 475.294C340.729 475.294 336.034 470.599 336.034 464.828V364.48C336.034 359.824 339.163 355.684 343.646 354.411C348.119 353.14 352.957 355.019 355.406 358.983L384.094 405.461C385.855 408.315 389.296 409.652 392.524 408.737C395.75 407.821 397.976 404.875 397.976 401.522V364.48C397.976 358.709 402.671 354.014 408.442 354.014C414.213 354.014 418.908 358.709 418.908 364.48ZM390.813 346.129C385.989 350.766 382.977 357.276 382.977 364.48V375.091L368.169 351.101C362.21 341.456 350.44 336.885 339.547 339.982C328.647 343.076 321.034 353.149 321.034 364.48V394.679C316.241 395.351 311.308 395.914 306.249 396.345V364.48C306.249 350.438 294.825 339.014 280.783 339.014C276.435 339.014 272.339 340.112 268.754 342.041C260.397 324.95 249.105 312.57 235.079 305.202C228.778 301.891 222.829 300.117 217.899 299.187C219.657 297.537 221.355 295.813 222.984 294.012C225.762 290.94 225.524 286.197 222.452 283.419C219.382 280.642 214.638 280.879 211.859 283.951C197.895 299.392 177.959 308.247 157.162 308.247C116.508 308.247 83.433 275.173 83.433 234.519C83.433 193.866 116.507 160.791 157.162 160.791C197.815 160.791 230.89 193.865 230.89 234.519C230.89 241.33 229.94 248.125 228.067 254.715C226.934 258.699 229.246 262.847 233.23 263.98C237.213 265.112 241.362 262.8 242.495 258.816C243.029 256.936 243.496 255.042 243.905 253.137C254.718 257.664 266.427 260.036 278.229 260.036C286.439 260.036 294.494 258.914 302.282 256.722C304.62 265.56 312.661 272.103 322.224 272.103H342.098V295.922C342.098 307.308 351.362 316.571 362.747 316.571H386.532C386.578 316.571 386.623 316.564 386.669 316.564C388.589 325.594 389.978 335.496 390.813 346.129ZM432.703 251.455C432.703 254.57 430.169 257.104 427.055 257.104H399.681C395.538 257.104 392.181 260.462 392.181 264.604V295.923C392.181 299.038 389.647 301.572 386.533 301.572H362.748C359.633 301.572 357.099 299.038 357.099 295.923V264.604C357.099 260.462 353.742 257.104 349.599 257.104H322.225C319.111 257.104 316.577 254.57 316.577 251.455V227.67C316.577 224.555 319.111 222.021 322.225 222.021H349.599C353.742 222.021 357.099 218.663 357.099 214.521V183.203C357.099 180.088 359.633 177.554 362.748 177.554H386.533C389.647 177.554 392.181 180.088 392.181 183.203V214.521C392.181 218.663 395.538 222.021 399.681 222.021H427.055C430.169 222.021 432.703 224.555 432.703 227.67V251.455Z" fill="#00ECFF"/>
</svg>
