<svg width="512" height="512" viewBox="0 0 512 512" fill="none" xmlns="http://www.w3.org/2000/svg">
<g clip-path="url(#clip0)">
<path d="M181.718 133.843H330.282C338.566 133.843 345.282 127.127 345.282 118.843C345.282 110.559 338.566 103.843 330.282 103.843H181.718C173.434 103.843 166.718 110.559 166.718 118.843C166.718 127.127 173.434 133.843 181.718 133.843Z" fill="#2BF2FF"/>
<path d="M181.718 205.396H330.282C338.566 205.396 345.282 198.68 345.282 190.396C345.282 182.112 338.566 175.396 330.282 175.396H181.718C173.434 175.396 166.718 182.112 166.718 190.396C166.718 198.68 173.434 205.396 181.718 205.396Z" fill="#2BF2FF"/>
<path d="M502.749 146.393L434.747 118.176V26.949C434.747 18.665 428.031 11.949 419.747 11.949H92.253C83.969 11.949 77.253 18.665 77.253 26.949V118.175L9.251 146.393C3.65 148.717 0 154.184 0 160.247V485.051C0 493.335 6.716 500.051 15 500.051H497C505.284 500.051 512 493.335 512 485.051V160.247C512 154.184 508.35 148.717 502.749 146.393V146.393ZM30 196.255L169.423 334.56L30 452.683V196.255ZM256 300.528L456.091 470.05H55.909L256 300.528ZM342.577 334.56L482 196.255V452.683L342.577 334.56ZM470.439 165.466L434.747 200.872V150.656L470.439 165.466ZM404.747 41.949V230.631L319.601 315.094L265.696 269.424C260.101 264.684 251.898 264.684 246.303 269.424L192.398 315.094L107.252 230.631V41.949H404.747ZM77.253 200.872L41.561 165.466L77.253 150.656V200.872Z" fill="white"/>
</g>
<defs>
<clipPath id="clip0">
<rect width="512" height="512" fill="white"/>
</clipPath>
</defs>
</svg>
