<svg width="512" height="512" viewBox="0 0 512 512" fill="none" xmlns="http://www.w3.org/2000/svg">
<path d="M51.27 311.89H81.27L111.94 222.23H81.94L51.27 311.89Z" fill="#E5E5E5"/>
<path d="M51.27 311.89L16 415H46L81.206 312.077L51.27 311.89Z" fill="#E5E5E5"/>
<path d="M126.963 257.344C121.404 257.357 115.973 259.021 111.357 262.124C106.741 265.227 103.147 269.632 101.029 274.78C98.9103 279.929 98.3629 285.591 99.4555 291.051C100.548 296.512 103.232 301.525 107.167 305.458C111.103 309.391 116.114 312.068 121.568 313.149C127.021 314.231 132.672 313.669 137.807 311.534C142.941 309.4 147.33 305.789 150.417 301.158C153.504 296.527 155.151 291.083 155.151 285.514C155.134 278.036 152.156 270.871 146.872 265.59C141.587 260.309 134.427 257.344 126.963 257.344ZM126.963 301.664C123.777 301.651 120.667 300.692 118.024 298.91C115.382 297.127 113.325 294.601 112.115 291.648C110.905 288.696 110.595 285.451 111.225 282.323C111.854 279.194 113.395 276.323 115.652 274.071C117.91 271.819 120.782 270.287 123.908 269.67C127.033 269.052 130.272 269.375 133.214 270.6C136.156 271.824 138.67 273.894 140.438 276.548C142.207 279.203 143.151 282.323 143.151 285.514C143.138 289.805 141.427 293.916 138.392 296.944C135.357 299.973 131.247 301.671 126.963 301.668V301.664Z" fill="white"/>
<path d="M305.041 309.717C300.277 309.727 295.623 311.152 291.666 313.812C287.71 316.471 284.63 320.245 282.814 324.657C280.998 329.069 280.529 333.922 281.465 338.601C282.401 343.281 284.7 347.577 288.073 350.948C291.445 354.319 295.74 356.613 300.413 357.54C305.087 358.467 309.93 357.986 314.33 356.157C318.731 354.328 322.491 351.234 325.137 347.265C327.783 343.296 329.195 338.631 329.195 333.858C329.181 327.451 326.63 321.31 322.101 316.784C317.573 312.258 311.438 309.717 305.041 309.717ZM305.041 345.979C302.65 345.969 300.316 345.249 298.333 343.91C296.351 342.572 294.808 340.675 293.901 338.459C292.993 336.244 292.761 333.808 293.234 331.461C293.707 329.113 294.864 326.958 296.558 325.269C298.252 323.579 300.409 322.43 302.754 321.967C305.1 321.503 307.53 321.746 309.738 322.665C311.946 323.584 313.832 325.138 315.159 327.13C316.487 329.122 317.195 331.463 317.195 333.858C317.184 337.079 315.898 340.164 313.62 342.436C311.341 344.708 308.256 345.982 305.041 345.978V345.979Z" fill="white"/>
<path d="M433.349 179.224C428.585 179.235 423.93 180.66 419.974 183.319C416.018 185.978 412.937 189.752 411.121 194.164C409.305 198.576 408.836 203.429 409.772 208.108C410.707 212.788 413.007 217.084 416.379 220.455C419.752 223.826 424.046 226.12 428.72 227.048C433.393 227.975 438.236 227.494 442.637 225.665C447.037 223.836 450.798 220.742 453.444 216.773C456.09 212.804 457.502 208.139 457.502 203.366C457.487 196.959 454.936 190.818 450.408 186.293C445.881 181.767 439.745 179.225 433.349 179.224ZM433.349 215.487C430.958 215.476 428.624 214.757 426.641 213.418C424.658 212.08 423.116 210.184 422.208 207.968C421.3 205.752 421.068 203.317 421.541 200.969C422.014 198.621 423.17 196.466 424.865 194.777C426.559 193.087 428.715 191.938 431.061 191.474C433.407 191.011 435.837 191.254 438.045 192.173C440.253 193.092 442.139 194.645 443.466 196.638C444.794 198.63 445.502 200.971 445.502 203.366C445.491 206.587 444.206 209.672 441.928 211.944C439.649 214.216 436.564 215.49 433.349 215.487Z" fill="white"/>
<path d="M449.931 247.638L438.478 251.22L448.789 284.181L355.759 284.202L349.018 229.111L404.794 228.088L404.574 216.088L284.232 218.3L284.452 230.3L336.952 229.337L344.488 290.937C344.666 292.391 345.37 293.73 346.467 294.701C347.564 295.672 348.979 296.208 350.444 296.208L452.538 296.185L467.6 344.307L337.031 344.528L337.051 356.528L471.351 356.3L487.836 409H261.836L261.807 356.463L275.207 356.663L275.385 344.663L255.891 344.373C255.094 344.352 254.302 344.494 253.562 344.791C252.823 345.088 252.152 345.534 251.591 346.1C251.024 346.658 250.575 347.324 250.268 348.058C249.961 348.792 249.803 349.579 249.803 350.375L249.833 409H171.377L170.991 308.576L158.991 308.623L159.377 409H24.394L55.564 317.875L94 317.758L93.964 305.758L59.674 305.858L86.237 228.201L234.606 227.227L234.527 215.227L81.899 216.227C80.6543 216.235 79.443 216.63 78.4328 217.357C77.4226 218.085 76.6636 219.108 76.261 220.286L10.323 413.059C10.0142 413.962 9.92536 414.926 10.0639 415.871C10.2024 416.815 10.5642 417.713 11.1194 418.489C11.6745 419.266 12.4069 419.899 13.2558 420.335C14.1046 420.772 15.0454 421 16 421H496C496.941 421 497.869 420.778 498.709 420.353C499.549 419.928 500.277 419.312 500.834 418.553C501.392 417.795 501.763 416.916 501.918 415.988C502.073 415.059 502.007 414.107 501.726 413.209L449.931 247.638Z" fill="white"/>
<path d="M128.357 236.993C102.892 236.993 81.617 257.354 79.922 283.335C79.161 294.707 82.758 306.459 90.092 316.487L123.558 361.093C124.117 361.838 124.842 362.443 125.675 362.86C126.508 363.276 127.427 363.493 128.358 363.493C129.289 363.493 130.208 363.276 131.041 362.86C131.874 362.443 132.599 361.838 133.158 361.093L166.62 316.493C173.878 307.022 177.49 295.257 176.795 283.345C175.1 257.354 153.822 236.993 128.357 236.993ZM157.024 309.286L128.357 347.494L99.734 309.345C94.107 301.645 91.322 292.696 91.896 284.126C93.022 266.856 106.969 248.993 128.357 248.993C149.745 248.993 163.692 266.856 164.82 284.143C165.321 293.188 162.554 302.111 157.024 309.286Z" fill="white"/>
<path d="M306.182 292.928C284.773 292.928 266.888 310.034 265.464 331.862C264.953 341.86 267.974 351.72 274 359.715L301.381 396.215C301.94 396.96 302.665 397.565 303.498 397.982C304.331 398.398 305.25 398.615 306.181 398.615C307.112 398.615 308.031 398.398 308.864 397.982C309.697 397.565 310.422 396.96 310.981 396.215L338.358 359.726C344.454 351.768 347.485 341.884 346.9 331.877C345.476 310.034 327.59 292.928 306.182 292.928ZM328.764 352.514L306.182 382.614L283.644 352.575C279.306 346.867 277.11 339.818 277.438 332.656C278.327 319.027 289.322 304.931 306.182 304.931C323.042 304.931 334.037 319.031 334.927 332.673C335.318 339.812 333.131 346.853 328.764 352.514Z" fill="white"/>
<path d="M434.49 162.662C413.081 162.662 395.196 179.769 393.772 201.596C393.26 211.594 396.282 221.454 402.309 229.448L429.69 265.948C430.249 266.693 430.974 267.298 431.807 267.715C432.64 268.131 433.559 268.348 434.49 268.348C435.421 268.348 436.34 268.131 437.173 267.715C438.006 267.298 438.731 266.693 439.29 265.948L466.667 229.459C472.762 221.501 475.794 211.616 475.209 201.609C473.783 179.769 455.9 162.662 434.49 162.662ZM457.072 222.247L434.49 252.347L411.951 222.307C407.614 216.599 405.418 209.549 405.746 202.388C406.635 188.76 417.629 174.663 434.49 174.663C451.351 174.663 462.344 188.763 463.234 202.404C463.627 209.543 461.44 216.586 457.072 222.247Z" fill="white"/>
</svg>
