<svg width="512" height="512" viewBox="0 0 512 512" fill="none" xmlns="http://www.w3.org/2000/svg">
<path d="M259.374 115.848C251.343 115.868 243.498 118.271 236.831 122.755C230.163 127.239 224.971 133.602 221.912 141.04C218.852 148.478 218.062 156.658 219.641 164.545C221.22 172.433 225.097 179.675 230.783 185.356C236.468 191.038 243.708 194.904 251.586 196.466C259.464 198.028 267.627 197.216 275.045 194.133C282.462 191.049 288.801 185.833 293.261 179.143C297.72 172.452 300.1 164.588 300.1 156.543C300.074 145.741 295.772 135.389 288.137 127.76C280.502 120.131 270.158 115.847 259.374 115.848ZM259.374 185.219C253.717 185.199 248.192 183.5 243.498 180.337C238.803 177.175 235.15 172.689 232.998 167.448C230.847 162.206 230.294 156.444 231.41 150.888C232.526 145.332 235.26 140.232 239.268 136.231C243.275 132.231 248.376 129.51 253.926 128.412C259.476 127.313 265.227 127.887 270.452 130.06C275.677 132.234 280.141 135.909 283.282 140.622C286.424 145.336 288.1 150.876 288.1 156.543C288.078 164.159 285.041 171.455 279.656 176.831C274.271 182.207 266.977 185.224 259.374 185.22V185.219Z" fill="#00ECFF"/>
<path d="M311.9 197.707C321.648 184.994 326.501 169.2 325.572 153.207C324.521 136.847 317.567 121.425 306.001 109.807C300.042 103.844 292.967 99.1128 285.179 95.8851C277.391 92.6574 269.043 90.9961 260.612 90.9961C252.182 90.9961 243.834 92.6574 236.046 95.8851C228.258 99.1128 221.183 103.844 215.224 109.807C203.66 121.422 196.706 136.841 195.654 153.197C194.634 168.448 199.472 184.231 209.32 197.697L255.813 259.666C256.372 260.411 257.097 261.016 257.93 261.433C258.763 261.849 259.682 262.066 260.613 262.066C261.544 262.066 262.463 261.849 263.296 261.433C264.129 261.016 264.854 260.411 265.413 259.666L311.9 197.707ZM260.613 246.071L218.963 190.559C210.821 179.426 206.795 166.442 207.628 153.992C208.489 140.533 214.208 127.844 223.721 118.284C228.565 113.438 234.316 109.595 240.646 106.972C246.976 104.35 253.761 103 260.612 103C267.464 103 274.249 104.35 280.579 106.972C286.909 109.595 292.66 113.438 297.504 118.284C307.022 127.848 312.743 140.543 313.604 154.009C314.339 167.134 310.33 180.085 302.31 190.5L260.613 246.071Z" fill="#00ECFF"/>
</svg>
