<svg width="512" height="421" viewBox="0 0 512 421" fill="none" xmlns="http://www.w3.org/2000/svg">
<g clip-path="url(#clip0)">
<path d="M211.996 392.535C209.735 392.54 207.484 392.252 205.298 391.68C194.38 388.772 187.184 378.985 180.84 370.35C177.339 364.736 172.812 359.827 167.493 355.877C161.295 353.185 154.642 351.684 147.885 351.452C136.815 350.218 125.322 348.95 117.483 341.114C109.644 333.278 108.364 321.879 107.105 310.831C106.873 304.102 105.371 297.476 102.677 291.3C98.7067 286.006 93.779 281.497 88.147 278.005C79.4707 271.685 69.6458 264.511 66.733 253.642C63.9308 243.201 68.4973 232.794 72.9254 222.732C76.1575 216.632 78.2178 209.985 79.0002 203.132C78.2178 196.278 76.1575 189.631 72.9254 183.531C68.4973 173.469 63.9308 163.069 66.733 152.628C69.6458 141.752 79.4707 134.585 88.1401 128.265C93.7721 124.773 98.6998 120.264 102.67 114.971C105.365 108.795 106.87 102.169 107.105 95.439C108.343 84.4119 109.623 72.9714 117.483 65.1629C125.343 57.3544 136.801 56.0794 147.885 54.825C154.642 54.5933 161.295 53.0922 167.493 50.4004C172.814 46.4504 177.343 41.5412 180.847 35.9275C187.191 27.2919 194.387 17.5054 205.298 14.604C215.773 11.8059 226.228 16.3614 236.33 20.7722C242.447 24.0101 249.119 26.081 256 26.8784C262.88 26.099 269.554 24.0468 275.677 20.8273C285.779 16.4234 296.247 11.8679 306.702 14.6591C317.62 17.5606 324.816 27.354 331.16 36.024C334.664 41.6348 339.191 46.5435 344.507 50.4969C350.705 53.1861 357.358 54.685 364.115 54.9146C375.185 56.1483 386.678 57.4233 394.517 65.2525C402.356 73.0817 403.636 84.4877 404.895 95.5355C405.129 102.265 406.631 108.891 409.323 115.067C413.295 120.357 418.223 124.864 423.853 128.355C432.529 134.681 442.354 141.849 445.267 152.724C448.069 163.166 443.503 173.572 439.075 183.635C435.842 189.732 433.781 196.377 433 203.228C433.782 210.081 435.842 216.729 439.075 222.829C443.503 232.891 448.069 243.291 445.267 253.732C442.354 264.607 432.529 271.775 423.86 278.102C418.226 281.591 413.298 286.1 409.33 291.396C406.634 297.572 405.129 304.198 404.895 310.928C403.657 321.955 402.377 333.395 394.517 341.204C386.657 349.012 375.199 350.287 364.115 351.542C357.358 351.771 350.705 353.27 344.507 355.959C339.186 359.909 334.657 364.819 331.153 370.432C324.809 379.068 317.613 388.854 306.702 391.756C296.213 394.513 285.772 389.998 275.67 385.595C269.555 382.347 262.883 380.267 256 379.461C249.12 380.24 242.446 382.292 236.323 385.512C228.772 389.462 220.497 391.851 211.996 392.535V392.535ZM256 365.656C264.813 366.319 273.397 368.767 281.226 372.851C289.529 376.463 297.313 379.874 303.132 378.365C309.359 376.711 314.513 369.667 320 362.21C324.547 354.979 330.53 348.75 337.581 343.905C345.406 340.166 353.914 338.055 362.586 337.703C371.712 336.69 380.326 335.732 384.726 331.342C389.127 326.951 390.102 318.364 391.113 309.287C391.462 300.649 393.581 292.173 397.34 284.38C402.193 277.363 408.432 271.404 415.675 266.868C423.161 261.41 430.205 256.247 431.9 250.065C433.443 244.29 430.018 236.495 426.365 228.246C422.26 220.448 419.797 211.897 419.127 203.118C419.793 194.34 422.256 185.791 426.365 177.997C429.99 169.727 433.415 161.953 431.865 156.17C430.211 149.968 423.133 144.826 415.64 139.368C408.398 134.832 402.159 128.873 397.305 121.856C393.547 114.065 391.428 105.591 391.078 96.9552C390.061 87.8648 389.099 79.2844 384.685 74.9011C380.271 70.5179 371.664 69.553 362.544 68.5399C353.873 68.1876 345.364 66.077 337.539 62.3372C330.513 57.5081 324.545 51.3061 320 44.1082C314.513 36.6511 309.338 29.6352 303.132 27.9536C297.354 26.4167 289.508 29.8213 281.226 33.4671C273.397 37.5519 264.813 40.0004 256 40.6622C247.184 39.9875 238.6 37.5249 230.774 33.4257C222.471 29.8144 214.659 26.4029 208.868 27.9467C202.641 29.5938 197.487 36.6442 192 44.1013C187.448 51.3206 181.466 57.5397 174.419 62.3786C166.594 66.1184 158.086 68.229 149.414 68.5813C140.288 69.5944 131.674 70.5454 127.274 74.9425C122.873 79.3395 121.904 87.913 120.887 96.9965C120.538 105.637 118.419 114.115 114.66 121.911C109.807 128.928 103.568 134.887 96.3252 139.423C88.832 144.881 81.7609 150.043 80.1003 156.219C78.5574 161.994 81.9823 169.789 85.6355 178.038C89.7402 185.836 92.203 194.387 92.8727 203.166C92.2062 211.946 89.7433 220.497 85.6355 228.294C82.0099 236.564 78.5851 244.338 80.1349 250.121C81.7885 256.323 88.8666 261.458 96.3598 266.923C103.601 271.458 109.84 277.414 114.695 284.428C118.453 292.221 120.572 300.697 120.922 309.336C121.939 318.426 122.901 327.007 127.315 331.39C131.729 335.773 140.336 336.738 149.456 337.751C158.127 338.107 166.635 340.217 174.461 343.954C181.503 348.793 187.482 355.009 192.035 362.224C197.521 369.681 202.697 376.697 208.903 378.379C214.701 379.929 222.519 376.511 230.808 372.865C238.628 368.788 247.199 366.342 256 365.677V365.656Z" fill="#F8F8F8"/>
<path d="M256 335.456C229.726 335.456 204.042 327.695 182.196 313.155C160.35 298.615 143.323 277.949 133.269 253.77C123.214 229.591 120.583 202.985 125.709 177.316C130.835 151.648 143.487 128.07 162.066 109.564C180.644 91.0583 204.314 78.4556 230.084 73.3499C255.853 68.2441 282.563 70.8646 306.837 80.8799C331.111 90.8952 351.858 107.856 366.455 129.616C381.052 151.377 388.843 176.96 388.843 203.132C388.808 238.216 374.801 271.853 349.896 296.661C324.991 321.469 291.222 335.421 256 335.456V335.456ZM256 84.6324C232.463 84.6324 209.454 91.5847 189.884 104.61C170.314 117.636 155.061 136.149 146.053 157.809C137.046 179.47 134.689 203.304 139.281 226.299C143.873 249.294 155.207 270.416 171.85 286.994C188.494 303.572 209.698 314.862 232.783 319.436C255.868 324.01 279.796 321.662 301.541 312.69C323.287 303.718 341.873 288.524 354.949 269.031C368.026 249.537 375.005 226.618 375.005 203.173C374.974 171.744 362.426 141.61 340.115 119.386C317.804 97.1625 287.553 84.6635 256 84.6324V84.6324Z" fill="#F8F8F8"/>
<path d="M298.102 177.331C298.102 156.747 279.113 140 255.774 140C235.592 140 218.125 152.662 214.24 170.107C212.892 176.157 217.361 182.023 224.219 183.212C231.078 184.399 237.731 180.459 239.077 174.41C240.637 167.407 247.659 162.324 255.774 162.324C265.156 162.324 272.789 169.056 272.789 177.331C272.789 185.606 265.156 192.338 255.774 192.338C248.784 192.338 243.117 197.335 243.117 203.5C243.117 209.665 248.784 214.662 255.774 214.662C265.156 214.662 272.789 221.394 272.789 229.669C272.789 237.944 265.156 244.676 255.774 244.676C247.659 244.676 240.637 239.593 239.078 232.59C237.731 226.541 231.079 222.6 224.22 223.788C217.361 224.977 212.893 230.843 214.24 236.893C218.125 254.338 235.592 267 255.774 267C279.113 267 298.102 250.253 298.102 229.669C298.102 219.485 293.452 210.242 285.929 203.5C293.452 196.758 298.102 187.515 298.102 177.331Z" fill="#F8F8F8"/>
</g>
<defs>
<clipPath id="clip0">
<rect width="512" height="421" fill="white"/>
</clipPath>
</defs>
</svg>
