<svg width="632" height="638" viewBox="0 0 632 638" fill="none" xmlns="http://www.w3.org/2000/svg">
<g clip-path="url(#clip0)">
<path d="M390.062 280.371H371.547V149.531C371.547 139.209 363.257 130.84 353.031 130.84H278.969C268.743 130.84 260.453 139.209 260.453 149.531C260.453 159.838 252.147 168.223 241.937 168.223C231.712 168.223 223.422 176.591 223.422 186.914V224.297C223.422 234.62 231.712 242.988 241.937 242.988H260.453V280.371H241.937C231.712 280.371 223.422 288.74 223.422 299.062V373.828C223.422 384.151 231.712 392.52 241.937 392.52H390.062C400.288 392.52 408.578 384.151 408.578 373.828V299.062C408.578 288.74 400.288 280.371 390.062 280.371ZM371.547 355.137H260.453V317.754H278.969C289.194 317.754 297.484 309.385 297.484 299.062V224.297C297.484 213.974 289.194 205.605 278.969 205.605H260.453V202.403C276.214 196.762 288.724 184.133 294.312 168.223H334.516V299.062C334.516 309.385 342.806 317.754 353.031 317.754H371.547V355.137ZM604.072 524.936L502.468 423.46C499.522 412.374 501.386 400.75 507.802 391.055C514.912 380.312 526.325 373.857 539.115 373.343C546.331 373.054 552.721 368.555 555.486 361.82C558.25 355.084 556.881 347.341 551.982 341.985C543.298 332.494 539.75 319.783 542.247 307.111C544.745 294.438 552.842 284.066 564.462 278.651C571.019 275.595 575.219 268.971 575.219 261.68C575.219 254.389 571.019 247.763 564.462 244.709C552.842 239.295 544.745 228.922 542.247 216.25C539.75 203.577 543.299 190.867 551.982 181.374C556.881 176.018 558.25 168.275 555.486 161.54C552.722 154.805 546.331 150.305 539.115 150.016C526.326 149.503 514.913 143.048 507.802 132.304C500.691 121.561 499.152 108.446 503.576 96.3231C506.071 89.482 504.4 81.7998 499.294 76.6447C494.188 71.4896 486.577 69.8024 479.8 72.322C467.792 76.7893 454.801 75.2342 444.158 68.0554C433.516 60.8767 427.121 49.3565 426.614 36.447C426.327 29.1623 421.87 22.7101 415.198 19.9201C408.525 17.1301 400.855 18.5107 395.551 23.4577C386.148 32.224 373.556 35.8065 361.003 33.2844C348.45 30.7636 338.174 22.5892 332.811 10.8585C329.785 4.23921 323.222 0 316 0C308.778 0 302.214 4.23921 299.188 10.8585C293.824 22.5892 283.55 30.7636 270.997 33.2844C258.446 35.8053 245.852 32.224 236.451 23.4577C231.145 18.512 223.476 17.1301 216.803 19.9201C210.131 22.7101 205.674 29.1611 205.388 36.4457C204.879 49.3553 198.485 60.8767 187.842 68.0542C177.199 75.2329 164.209 76.788 152.2 72.3208C145.424 69.8012 137.813 71.4872 132.706 76.6435C127.6 81.7986 125.928 89.4808 128.424 96.3218C132.848 108.445 131.308 121.56 124.198 132.303C117.088 143.047 105.675 149.501 92.8855 150.015C85.6693 150.304 79.279 154.803 76.514 161.539C73.7502 168.274 75.1191 176.017 80.0183 181.373C88.7022 190.864 92.2498 203.576 89.7526 216.247C87.2555 228.92 79.158 239.292 67.5376 244.707C60.9806 247.765 56.7812 254.389 56.7812 261.68C56.7812 268.971 60.9806 275.596 67.5376 278.65C79.158 284.065 87.2555 294.437 89.7526 307.11C92.2498 319.783 88.7009 332.493 80.0183 341.985C75.1191 347.341 73.7502 355.084 76.514 361.82C79.2777 368.555 85.6693 373.054 92.8855 373.343C105.674 373.857 117.087 380.312 124.198 391.055C130.615 400.751 132.478 412.376 129.532 423.463L27.929 524.937C22.8544 530.005 21.1177 537.569 23.4667 544.375C25.8157 551.18 31.8308 556.017 38.9272 556.805L112.033 564.917L149.468 628.824C152.812 634.533 158.885 638.002 165.403 638.001C172.677 638.001 179.342 633.693 182.332 626.887L239.096 497.659C248.148 490.552 259.585 487.786 270.996 490.076C283.548 492.597 293.824 500.771 299.188 512.502C302.214 519.123 308.778 523.361 316 523.361C323.222 523.361 329.784 519.121 332.812 512.502C338.176 500.771 348.45 492.597 361.003 490.076C372.416 487.783 383.854 490.552 392.904 497.66L449.668 626.887C452.479 633.285 458.594 637.561 465.515 637.97C472.435 638.376 479.002 634.851 482.532 628.824L519.967 564.917L593.073 556.805C600.169 556.017 606.186 551.181 608.533 544.375C610.884 537.567 609.147 530.005 604.072 524.936ZM163.05 578.564L139.197 537.843C136.231 532.779 131.075 529.419 125.283 528.777L81.5909 523.929L155.679 449.935C166.679 446.936 178.22 448.813 187.842 455.303C197.393 461.745 203.506 471.689 205.031 482.991L163.05 578.564ZM396.122 456.948C382.872 451.797 368.312 450.493 353.779 453.41C339.246 456.328 326.29 463.159 316.001 473.036C305.711 463.158 292.755 456.328 278.223 453.41C263.358 450.424 248.813 451.921 235.88 456.948C230.118 443.846 220.737 432.532 208.417 424.22C196.096 415.91 182.151 411.491 167.955 411.131C167.598 396.801 163.223 382.724 154.989 370.287C146.757 357.849 135.548 348.379 122.57 342.562C127.671 329.186 128.965 314.488 126.073 299.816C123.182 285.147 116.415 272.067 106.631 261.68C116.416 251.292 123.183 238.213 126.073 223.542C128.964 208.87 127.67 194.174 122.57 180.797C135.547 174.98 146.756 165.51 154.989 153.071C163.22 140.635 167.597 126.555 167.955 112.227C182.149 111.866 196.097 107.447 208.416 99.138C220.736 90.8278 230.117 79.512 235.879 66.4118C249.129 71.5619 263.69 72.8666 278.223 69.9495C292.754 67.0311 305.713 60.1988 316.001 50.3235C326.29 60.2 339.248 67.0311 353.779 69.9495C368.312 72.8678 382.872 71.5632 396.123 66.4118C401.885 79.512 411.267 90.8278 423.587 99.1392C435.907 107.451 449.853 111.868 464.048 112.228C464.405 126.558 468.781 140.635 477.014 153.073C485.246 165.51 496.456 174.98 509.434 180.797C504.332 194.174 503.039 208.871 505.931 223.543C508.822 238.212 515.589 251.292 525.372 261.68C515.587 272.067 508.82 285.146 505.931 299.818C503.04 314.489 504.334 329.186 509.434 342.562C496.457 348.379 485.248 357.849 477.014 370.288C468.783 382.724 464.406 396.805 464.048 411.132C449.854 411.494 435.907 415.912 423.588 424.221C411.264 432.532 401.884 443.847 396.122 456.948ZM506.717 528.777C500.924 529.42 495.769 532.779 492.803 537.843L468.95 578.564L426.969 482.99C428.494 471.689 434.609 461.745 444.158 455.304C453.78 448.814 465.321 446.939 476.323 449.936L550.41 523.929L506.717 528.777Z" fill="url(#paint0_linear)"/>
</g>
<defs>
<linearGradient id="paint0_linear" x1="316" y1="638" x2="316" y2="0" gradientUnits="userSpaceOnUse">
<stop stop-color="#00ECFF"/>
<stop offset="0.442708" stop-color="#00D9FF"/>
<stop offset="0.796875" stop-color="#00D2FF"/>
<stop offset="1" stop-color="#00C2FF"/>
</linearGradient>
<clipPath id="clip0">
<rect width="632" height="638" fill="white"/>
</clipPath>
</defs>
</svg>
