<svg width="512" height="512" viewBox="0 0 512 512" fill="none" xmlns="http://www.w3.org/2000/svg">
<path d="M211.996 394.074C209.735 394.079 207.484 393.791 205.298 393.216C194.38 390.296 187.184 380.471 180.84 371.802C177.339 366.166 172.812 361.238 167.493 357.272C161.295 354.57 154.642 353.063 147.885 352.83C136.815 351.592 125.322 350.319 117.483 342.452C109.644 334.585 108.364 323.141 107.105 312.05C106.873 305.294 105.371 298.642 102.677 292.442C98.7067 287.127 93.779 282.601 88.147 279.095C79.4707 272.751 69.6458 265.548 66.733 254.637C63.9308 244.155 68.4973 233.707 72.9254 223.606C76.1575 217.482 78.2178 210.808 79.0002 203.928C78.2178 197.048 76.1575 190.375 72.9254 184.251C68.4973 174.149 63.9308 163.709 66.733 153.226C69.6458 142.308 79.4707 135.113 88.1401 128.768C93.7721 125.263 98.6998 120.736 102.67 115.421C105.365 109.221 106.87 102.57 107.105 95.8132C108.343 84.7429 109.623 73.2575 117.483 65.4184C125.343 57.5792 136.801 56.2992 147.885 55.04C154.642 54.8074 161.295 53.3003 167.493 50.598C172.814 46.6325 177.343 41.704 180.847 36.0683C187.191 27.3989 194.387 17.574 205.298 14.6612C215.773 11.8521 226.228 16.4255 236.33 20.8536C242.447 24.1042 249.119 26.1832 256 26.9838C262.88 26.2013 269.554 24.1411 275.677 20.9089C285.779 16.4878 296.247 11.9144 306.702 14.7165C317.62 17.6294 324.816 27.4612 331.16 36.1652C334.664 41.798 339.191 46.7259 344.507 50.6949C350.705 53.3946 357.358 54.8993 364.115 55.1299C375.185 56.3684 386.678 57.6484 394.517 65.5083C402.356 73.3682 403.636 84.819 404.895 95.91C405.129 102.666 406.631 109.318 409.323 115.518C413.295 120.829 418.223 125.353 423.853 128.858C432.529 135.209 442.354 142.405 445.267 153.323C448.069 163.805 443.503 174.253 439.075 184.355C435.842 190.476 433.781 197.147 433 204.025C433.782 210.905 435.842 217.579 439.075 223.702C443.503 233.804 448.069 244.245 445.267 254.727C442.354 265.645 432.529 272.841 423.86 279.192C418.226 282.695 413.298 287.222 409.33 292.539C406.634 298.738 405.129 305.39 404.895 312.147C403.657 323.217 402.377 334.703 394.517 342.542C386.657 350.381 375.199 351.661 364.115 352.92C357.358 353.151 350.705 354.655 344.507 357.355C339.186 361.321 334.657 366.249 331.153 371.885C324.809 380.554 317.613 390.379 306.702 393.292C296.213 396.06 285.772 391.528 275.67 387.107C269.555 383.846 262.883 381.758 256 380.949C249.12 381.731 242.446 383.791 236.323 387.024C228.772 390.989 220.497 393.388 211.996 394.074V394.074ZM256 367.09C264.813 367.755 273.397 370.213 281.226 374.313C289.529 377.939 297.313 381.364 303.132 379.849C309.359 378.188 314.513 371.117 320 363.631C324.547 356.371 330.53 350.118 337.581 345.254C345.406 341.5 353.914 339.381 362.586 339.027C371.712 338.01 380.326 337.048 384.726 332.641C389.127 328.233 390.102 319.613 391.113 310.5C391.462 301.828 393.581 293.319 397.34 285.495C402.193 278.45 408.432 272.468 415.675 267.914C423.161 262.435 430.205 257.252 431.9 251.046C433.443 245.248 430.018 237.423 426.365 229.141C422.26 221.312 419.797 212.728 419.127 203.914C419.793 195.102 422.256 186.519 426.365 178.695C429.99 170.392 433.415 162.588 431.865 156.783C430.211 150.556 423.133 145.394 415.64 139.914C408.398 135.361 402.159 129.379 397.305 122.333C393.547 114.512 391.428 106.005 391.078 97.3353C390.061 88.2093 389.099 79.5952 384.685 75.1948C380.271 70.7944 371.664 69.8257 362.544 68.8086C353.873 68.4549 345.364 66.3361 337.539 62.5816C330.513 57.7336 324.545 51.5072 320 44.2811C314.513 36.7948 309.338 29.7513 303.132 28.0631C297.354 26.5202 289.508 29.9381 281.226 33.5982C273.397 37.6991 264.813 40.1572 256 40.8216C247.184 40.1443 238.6 37.672 230.774 33.5567C222.471 29.9312 214.659 26.5064 208.868 28.0562C202.641 29.7098 197.487 36.7879 192 44.2741C187.448 51.5218 181.466 57.7653 174.419 62.6231C166.594 66.3776 158.086 68.4965 149.414 68.8501C140.288 69.8672 131.674 70.822 127.274 75.2363C122.873 79.6506 121.904 88.2577 120.887 97.3768C120.538 106.051 118.419 114.563 114.66 122.389C109.807 129.434 103.568 135.416 96.3252 139.97C88.832 145.449 81.7609 150.632 80.1003 156.831C78.5574 162.629 81.9823 170.454 85.6355 178.736C89.7402 186.565 92.203 195.149 92.8727 203.963C92.2062 212.777 89.7433 221.362 85.6355 229.189C82.0099 237.492 78.5851 245.296 80.1349 251.101C81.7885 257.328 88.8666 262.483 96.3598 267.97C103.601 272.522 109.84 278.502 114.695 285.544C118.453 293.367 120.572 301.877 120.922 310.549C121.939 319.675 122.901 328.289 127.315 332.689C131.729 337.09 140.336 338.058 149.456 339.075C158.127 339.432 166.635 341.551 174.461 345.302C181.503 350.16 187.482 356.401 192.035 363.645C197.521 371.131 202.697 378.174 208.903 379.862C214.701 381.419 222.519 377.987 230.808 374.327C238.628 370.234 247.199 367.779 256 367.111V367.09Z" fill="#F8F8F8"/>
<path d="M256 336.772C229.726 336.772 204.042 328.98 182.196 314.383C160.35 299.786 143.323 279.039 133.269 254.765C123.214 230.491 120.583 203.781 125.709 178.012C130.835 152.243 143.487 128.572 162.066 109.994C180.644 91.4154 204.314 78.7634 230.084 73.6376C255.853 68.5118 282.563 71.1425 306.837 81.1971C331.111 91.2517 351.858 108.279 366.455 130.125C381.052 151.97 388.843 177.654 388.843 203.928C388.808 239.15 374.801 272.919 349.896 297.824C324.991 322.73 291.222 336.737 256 336.772V336.772ZM256 84.9644C232.463 84.9644 209.454 91.9439 189.884 105.02C170.314 118.097 155.061 136.683 146.053 158.428C137.046 180.174 134.689 204.102 139.281 227.187C143.873 250.271 155.207 271.476 171.85 288.119C188.494 304.763 209.698 316.097 232.783 320.689C255.868 325.28 279.796 322.924 301.541 313.916C323.287 304.909 341.873 289.656 354.949 270.086C368.026 250.515 375.005 227.507 375.005 203.97C374.974 172.417 362.426 142.166 340.115 119.855C317.804 97.5436 287.553 84.9955 256 84.9644V84.9644Z" fill="black"/>
<path d="M309.622 498.162C309.414 498.162 309.2 498.162 308.992 498.162C307.694 498.044 306.457 497.562 305.421 496.771C304.386 495.98 303.594 494.913 303.139 493.693L260.151 378.465C259.86 377.693 259.71 376.875 259.709 376.05C259.687 374.366 260.28 372.731 261.377 371.453C262.474 370.175 264 369.341 265.668 369.108C267.336 368.874 269.032 369.257 270.438 370.185C271.844 371.113 272.863 372.522 273.304 374.147L311.075 475.33L338.667 429.167C339.473 427.819 340.714 426.785 342.185 426.236C343.656 425.686 345.27 425.654 346.762 426.143L397.962 442.928L362.337 347.669C361.74 345.961 361.836 344.087 362.605 342.449C363.373 340.811 364.752 339.54 366.447 338.906C368.141 338.273 370.017 338.328 371.671 339.061C373.325 339.794 374.626 341.145 375.296 342.826L415.945 451.577C416.4 452.797 416.502 454.122 416.238 455.397C415.974 456.673 415.356 457.848 414.454 458.788C413.552 459.727 412.403 460.393 411.139 460.709C409.875 461.024 408.548 460.977 407.31 460.572L347.71 441.026L315.558 494.8C314.943 495.825 314.074 496.674 313.033 497.263C311.993 497.853 310.817 498.162 309.622 498.162Z" fill="#F8F8F8"/>
<path d="M202.378 498.162C201.182 498.162 200.006 497.851 198.966 497.26C197.925 496.67 197.056 495.82 196.442 494.793L164.29 441.019L104.69 460.565C103.452 460.97 102.125 461.018 100.861 460.702C99.5975 460.386 98.4485 459.72 97.5464 458.781C96.6443 457.841 96.0258 456.666 95.762 455.39C95.4983 454.115 95.5999 452.79 96.0553 451.57L136.704 342.819C137.374 341.138 138.675 339.787 140.329 339.054C141.983 338.322 143.859 338.266 145.553 338.899C147.248 339.533 148.627 340.804 149.395 342.442C150.164 344.08 150.26 345.954 149.663 347.662L114.051 442.935L165.251 426.15C166.744 425.66 168.358 425.693 169.829 426.243C171.3 426.792 172.541 427.826 173.347 429.174L200.925 475.33L238.883 373.622C239.186 372.752 239.661 371.952 240.278 371.268C240.895 370.584 241.643 370.03 242.477 369.639C243.311 369.248 244.214 369.027 245.135 368.99C246.055 368.953 246.974 369.099 247.837 369.422C248.7 369.744 249.489 370.236 250.16 370.868C250.83 371.5 251.368 372.259 251.741 373.101C252.114 373.943 252.315 374.852 252.332 375.773C252.35 376.694 252.183 377.609 251.842 378.465L208.861 493.665C208.406 494.885 207.614 495.952 206.579 496.743C205.543 497.534 204.306 498.016 203.008 498.134C202.8 498.162 202.586 498.162 202.378 498.162Z" fill="#F8F8F8"/>
<path d="M257.997 71C181.783 71 120 130.546 120 204C120 277.455 181.783 337 257.997 337C334.214 337 396 277.454 396 204C396 130.546 334.215 71 257.997 71ZM285.702 276.013C285.702 281.453 281.126 285.863 275.482 285.863H256.656C251.012 285.863 246.436 281.453 246.436 276.013V165.462L234.785 171.523C232.012 172.966 228.704 173.095 225.821 171.875C222.937 170.655 220.798 168.221 220.023 165.278L216.303 151.148C215.148 146.759 217.246 142.178 221.387 140.042L253.838 123.302C255.321 122.537 256.977 122.137 258.66 122.137H275.482C281.126 122.137 285.702 126.547 285.702 131.987V276.013V276.013Z" fill="#00ECFF"/>
</svg>
