<svg width="512" height="512" viewBox="0 0 512 512" fill="none" xmlns="http://www.w3.org/2000/svg">
<path d="M508.818 430.161L451.853 331.495C469.926 298.816 479.546 261.922 479.546 223.547C479.546 172.059 461.615 121.801 429.058 82.0308C396.954 42.8139 352.129 15.429 302.842 4.917C297.441 3.769 292.127 7.21 290.976 12.611C289.825 18.012 293.269 23.325 298.67 24.477C343.533 34.0439 384.343 58.9839 413.582 94.6998C443.223 130.905 459.546 176.664 459.546 223.547C459.546 335.781 368.235 427.092 255.999 427.092C143.765 427.092 52.4539 335.781 52.4539 223.547C52.4539 176.664 68.7768 130.905 98.4178 94.6998C127.657 58.9839 168.467 34.0449 213.33 24.477C218.731 23.325 222.176 18.012 221.024 12.611C219.873 7.211 214.566 3.769 209.158 4.917C159.871 15.429 115.047 42.8139 82.9418 82.0308C50.3839 121.801 32.4539 172.058 32.4539 223.547C32.4539 261.922 42.0739 298.816 60.1469 331.495L3.18198 430.161C-1.34601 438.004 -1.01801 447.542 4.03898 455.056C9.09597 462.57 17.818 466.464 26.7809 465.219L64.3719 460.007C65.9759 459.789 67.5088 460.675 68.1168 462.169L82.3968 497.328C85.8038 505.719 93.5338 511.318 102.569 511.942C103.127 511.98 103.681 512 104.233 512C112.629 512 120.309 507.597 124.558 500.237L166.074 428.33C194.047 440.623 224.525 447.091 255.999 447.091C287.474 447.091 317.951 440.623 345.925 428.33L387.44 500.237C391.689 507.596 399.369 512 407.765 512C408.317 512 408.872 511.98 409.429 511.942C418.464 511.318 426.194 505.718 429.601 497.328L443.881 462.169C444.489 460.675 446.022 459.785 447.628 460.007L485.216 465.219C494.18 466.46 502.902 462.569 507.959 455.056C513.018 447.542 513.346 438.004 508.818 430.161V430.161ZM107.239 490.237C106.283 491.892 104.767 492.046 103.947 491.989C103.129 491.932 101.647 491.574 100.927 489.802L86.6468 454.643C82.5908 444.655 72.2958 438.716 61.6259 440.196L24.0349 445.408C22.1339 445.678 21.0889 444.568 20.6309 443.887C20.1729 443.206 19.5469 441.817 20.5029 440.161L72.1208 350.755C79.7118 361.679 88.3238 372.012 97.9288 381.617C113.033 396.721 129.925 409.382 148.117 419.435L107.239 490.237ZM491.37 443.887C490.912 444.569 489.859 445.674 487.965 445.408L450.377 440.196C439.696 438.716 429.409 444.655 425.354 454.643L411.074 489.802C410.354 491.573 408.873 491.932 408.054 491.989C407.231 492.049 405.718 491.892 404.762 490.237L363.884 419.435C382.076 409.382 398.967 396.721 414.071 381.617C423.676 372.012 432.288 361.679 439.88 350.756L491.498 440.161C492.454 441.816 491.828 443.206 491.37 443.887V443.887Z" fill="#F8F8F8"/>
<path d="M256 396.726C300.368 396.726 344.736 379.837 378.514 346.061C382.419 342.156 382.419 335.824 378.514 331.918C374.608 328.014 368.278 328.014 364.371 331.918C304.615 391.674 207.385 391.674 147.629 331.918C143.723 328.014 137.393 328.014 133.486 331.918C129.581 335.823 129.581 342.155 133.486 346.061C167.264 379.837 211.632 396.726 256 396.726V396.726Z" fill="#F8F8F8"/>
<path d="M133.487 101.032C129.582 104.937 129.582 111.269 133.487 115.175C137.393 119.079 143.723 119.079 147.63 115.175C207.386 55.4189 304.616 55.4189 364.372 115.175C366.325 117.127 368.884 118.104 371.443 118.104C374.002 118.104 376.561 117.127 378.514 115.175C382.419 111.27 382.419 104.938 378.514 101.032C310.959 33.4789 201.042 33.4789 133.487 101.032V101.032Z" fill="#F8F8F8"/>
<path d="M256 20C261.523 20 266 15.5228 266 10C266 4.47715 261.523 0 256 0C250.477 0 246 4.47715 246 10C246 15.5228 250.477 20 256 20Z" fill="#F8F8F8"/>
<path d="M256.497 50C160.125 50 82 127.679 82 223.5C82 319.322 160.125 397 256.497 397C352.872 397 431 319.321 431 223.5C431 127.679 352.873 50 256.497 50ZM291.529 317.442C291.529 324.538 285.743 330.292 278.606 330.292H254.801C247.664 330.292 241.877 324.538 241.877 317.442V173.226L227.144 181.134C223.638 183.016 219.456 183.184 215.81 181.593C212.163 180.001 209.458 176.826 208.478 172.987L203.775 154.554C202.314 148.829 204.966 142.852 210.203 140.066L251.237 118.229C253.112 117.23 255.207 116.708 257.335 116.708H278.606C285.743 116.708 291.529 122.462 291.529 129.558V317.442V317.442Z" fill="#00ECFF"/>
</svg>
