<svg width="297" height="297" viewBox="0 0 297 297" fill="none" xmlns="http://www.w3.org/2000/svg">
<path d="M107.883 0H22.613C10.144 0 0.0010004 10.143 0.0010004 22.612V107.882C0.0010004 120.351 10.144 130.494 22.613 130.494H107.883C120.352 130.494 130.495 120.351 130.495 107.882V22.612C130.493 10.143 120.352 0 107.883 0Z" fill="black" fill-opacity="0.6"/>
<path d="M274.388 0H189.118C176.649 0 166.506 10.143 166.506 22.612V107.882C166.506 120.351 176.649 130.494 189.118 130.494H274.388C286.857 130.494 297 120.351 297 107.882V22.612C297 10.143 286.857 0 274.388 0Z" fill="black" fill-opacity="0.6"/>
<path d="M107.883 166.507H22.613C10.144 166.507 0.0010004 176.649 0.0010004 189.118V274.388C0.0010004 286.857 10.144 297 22.613 297H107.883C120.352 297 130.495 286.857 130.495 274.388V189.118C130.493 176.649 120.352 166.507 107.883 166.507Z" fill="black" fill-opacity="0.6"/>
<path d="M274.388 166.507H189.118C176.649 166.507 166.506 176.65 166.506 189.119V274.389C166.506 286.858 176.649 297.001 189.118 297.001H274.388C286.857 297 297 286.857 297 274.388V189.118C297 176.649 286.857 166.507 274.388 166.507Z" fill="black" fill-opacity="0.6"/>
</svg>
