<svg width="512" height="512" viewBox="0 0 512 512" fill="none" xmlns="http://www.w3.org/2000/svg">
<path d="M374.999 271.999H74.9998C66.8828 271.999 59.9998 278.614 59.9998 286.999V430.786L4.39394 486.393C0.103952 490.683 -1.17905 497.135 1.14195 502.74C3.46394 508.345 8.93293 511.999 14.9999 511.999H344.999C369.812 511.999 389.999 491.812 389.999 466.999V286.999C389.999 278.621 383.117 271.999 374.999 271.999ZM332.238 301.999L225 387.79L117.762 301.999H332.238ZM359.999 466.999C359.999 475.27 353.27 481.999 344.999 481.999H51.2129L85.6068 447.605C88.4198 444.793 89.9998 440.977 89.9998 436.999V318.208L215.63 418.712C218.369 420.903 221.685 421.999 225 421.999C228.315 421.999 231.63 420.903 234.369 418.712L359.999 318.208V466.999ZM507.606 214.394L451.999 158.787V44.9999C451.999 20.187 431.812 0 406.999 0H167C142.187 0 122 20.187 122 44.9999V195C122 219.813 142.187 240 167 240H496.999C503.066 240 508.535 236.345 510.857 230.74C513.179 225.136 511.896 218.683 507.606 214.394V214.394ZM167 210C158.729 210 152 203.271 152 195V44.9999C152 36.7289 158.729 29.9999 167 29.9999H406.999C415.27 29.9999 421.999 36.7289 421.999 44.9999V165C421.999 168.978 423.579 172.793 426.393 175.606L460.786 210H167Z" fill="url(#paint0_linear)"/>
<defs>
<linearGradient id="paint0_linear" x1="255.999" y1="511.999" x2="255.999" y2="0" gradientUnits="userSpaceOnUse">
<stop stop-color="#28C3F4"/>
<stop offset="1" stop-color="#8EEEFF"/>
</linearGradient>
</defs>
</svg>
