<svg width="512" height="512" viewBox="0 0 512 512" fill="none" xmlns="http://www.w3.org/2000/svg">
<g clip-path="url(#clip0)">
<path d="M377.628 362.842C389.046 368.194 401.987 374.26 426.663 374.26C451.338 374.26 464.28 368.194 475.698 362.842C485.523 358.237 494.007 354.26 512 354.26V324.26C487.325 324.26 474.383 330.326 462.965 335.678C453.141 340.283 444.656 344.26 426.663 344.26C408.669 344.26 400.185 340.283 390.361 335.678C388.264 334.695 386.076 333.671 383.744 332.656L392.087 314.443C403.621 289.259 399.236 259.562 380.916 238.785L363.86 219.444L392.883 156.06L406.788 162.429L419.282 135.155L387.57 120.629L427.858 61.9349L331.37 17.7319L313.243 86.5779L281.533 72.0549L269.039 99.3299L282.948 105.701L253.925 169.084L228.141 168.804C200.411 168.477 175.092 184.581 163.526 209.834L103.93 341.692C96.737 343.374 90.388 344.26 85.331 344.26C67.34 344.26 58.856 340.283 49.033 335.678C37.615 330.326 24.674 324.26 0 324.26V354.26C17.992 354.26 26.476 358.237 36.299 362.842C47.716 368.194 60.657 374.26 85.331 374.26C86.605 374.26 87.919 374.22 89.258 374.154L75.843 403.834C63.998 402.69 56.945 399.392 49.032 395.682C37.615 390.33 24.674 384.264 0 384.264V414.264C17.992 414.264 26.476 418.241 36.299 422.846C47.716 428.198 60.657 434.264 85.331 434.264C110.005 434.264 122.946 428.198 134.364 422.846C144.188 418.241 152.672 414.264 170.663 414.264C188.654 414.264 197.138 418.241 206.961 422.846C218.378 428.198 231.319 434.264 255.993 434.264C280.667 434.264 293.608 428.198 305.026 422.846C314.85 418.241 323.334 414.264 341.326 414.264C359.319 414.264 367.804 418.241 377.628 422.846C389.046 428.198 401.987 434.264 426.663 434.264C451.339 434.264 464.28 428.198 475.698 422.846C485.522 418.241 494.007 414.264 512 414.264V384.264C487.325 384.264 474.383 390.33 462.965 395.682C453.141 400.287 444.656 404.264 426.663 404.264C408.67 404.264 400.185 400.287 390.361 395.682C382.14 391.829 373.129 387.606 359.517 385.542L371.247 359.935C373.349 360.837 375.433 361.813 377.628 362.842V362.842ZM351.3 59.8599L382.945 74.3569L359.888 107.946L340.926 99.2599L351.3 59.8599ZM186.011 385.155L220.449 309.941L268.013 331.75C272.537 333.824 277.231 335.064 281.926 335.542L250.483 404.119C236.166 403.385 228.452 399.787 219.694 395.681C210.916 391.567 201.231 387.033 186.011 385.155ZM299.38 297.477L299.376 297.485C296.102 304.611 287.643 307.749 280.517 304.481L255.272 292.906L267.132 267.039L292.377 278.614C299.508 281.883 302.649 290.346 299.38 297.477V297.477ZM286.056 398.517L326.651 309.98C336.815 287.812 327.048 261.508 304.881 251.343L252.366 227.265L228.003 280.402L205.67 270.162L152.867 385.486C139.039 387.527 129.93 391.792 121.632 395.682C117.852 397.454 114.265 399.13 110.263 400.526L190.834 222.259C197.439 207.838 211.98 198.654 227.816 198.803L273.088 199.295L310.223 118.197L365.61 143.567L328.473 224.671L358.416 258.628C368.907 270.525 371.418 287.531 364.813 301.951L326.741 385.061C307.848 386.589 288.143 397.622 286.056 398.517V398.517Z" fill="url(#paint0_linear)"/>
<path d="M426.663 464.268C408.67 464.268 400.185 460.291 390.361 455.686C378.943 450.334 366.002 444.268 341.326 444.268C316.652 444.268 303.711 450.334 292.293 455.686C282.469 460.291 273.985 464.268 255.993 464.268C238.001 464.268 229.517 460.291 219.694 455.686C208.277 450.334 195.336 444.268 170.662 444.268C145.988 444.268 133.047 450.334 121.629 455.686C111.805 460.291 103.321 464.268 85.33 464.268C67.339 464.268 58.855 460.291 49.032 455.686C37.615 450.334 24.674 444.268 0 444.268V474.268C17.992 474.268 26.476 478.245 36.299 482.85C47.716 488.202 60.657 494.268 85.331 494.268C110.005 494.268 122.946 488.202 134.364 482.85C144.188 478.245 152.672 474.268 170.663 474.268C188.654 474.268 197.138 478.245 206.961 482.85C218.378 488.202 231.319 494.268 255.993 494.268C280.667 494.268 293.608 488.202 305.026 482.85C314.85 478.245 323.334 474.268 341.326 474.268C359.319 474.268 367.804 478.245 377.628 482.85C389.046 488.202 401.987 494.268 426.663 494.268C451.339 494.268 464.28 488.202 475.698 482.85C485.522 478.245 494.007 474.268 512 474.268V444.268C487.325 444.268 474.383 450.334 462.965 455.686C453.141 460.291 444.656 464.268 426.663 464.268Z" fill="url(#paint1_linear)"/>
</g>
<defs>
<linearGradient id="paint0_linear" x1="256" y1="17.7319" x2="256" y2="434.264" gradientUnits="userSpaceOnUse">
<stop stop-color="#8EEEFF"/>
<stop offset="1" stop-color="#28C3F4"/>
</linearGradient>
<linearGradient id="paint1_linear" x1="256" y1="444.268" x2="256" y2="494.268" gradientUnits="userSpaceOnUse">
<stop stop-color="#8EEEFF"/>
<stop offset="1" stop-color="#28C3F4"/>
</linearGradient>
<clipPath id="clip0">
<rect width="512" height="512" fill="white"/>
</clipPath>
</defs>
</svg>
