<?xml version="1.0" encoding="UTF-8" standalone="no"?>
<!DOCTYPE svg PUBLIC "-//W3C//DTD SVG 1.1//EN" "http://www.w3.org/Graphics/SVG/1.1/DTD/svg11.dtd">
<svg width="100%" height="100%" viewBox="0 0 512 512" version="1.1" xmlns="http://www.w3.org/2000/svg" xmlns:xlink="http://www.w3.org/1999/xlink" xml:space="preserve" xmlns:serif="http://www.serif.com/" style="fill-rule:evenodd;clip-rule:evenodd;stroke-linejoin:round;stroke-miterlimit:2;">
    <g id="Outline">
        <path d="M416,144C416.28,132.922 416.384,117.386 414.127,106.373C408.351,78.186 389.013,53.645 363.095,41.147C349.174,34.434 334.201,31.818 318.934,30.838C295.431,29.329 270.381,31.718 249.184,42.862C242.559,46.344 236.362,50.737 230.778,55.722C225.401,60.522 222.045,69.047 214.364,71.547C208.763,73.371 200.18,68.461 202.965,62.298C203.941,60.139 210.343,53.678 210.762,53.274C223.036,41.423 235.373,29.626 252.061,24.137C308.874,5.448 380.292,12.788 414.843,66.579C426.197,84.255 430.05,102.16 431.846,122.857C432.388,129.096 437.184,148.089 424.624,146.158C421.695,145.708 418.818,144.918 416,144ZM216,124.73C218.694,125.283 221.415,125.743 224.154,125.994C225.499,126.117 226.871,126.065 228.204,125.85C234.736,124.798 232.088,122.132 232.546,116.832C232.77,114.233 233.253,111.632 234.086,109.161C235.733,104.272 237.411,99.329 239.955,94.841C242.942,89.569 249.372,81.261 255.014,77.185C255.686,76.699 261.996,75.106 261.509,72.658C260.907,69.632 258.324,59.647 253.255,58.951C252.139,58.798 251.161,59.826 250.236,60.469C248.434,61.724 246.775,63.175 245.117,64.615C237.951,70.837 234.098,74.344 228.546,82.881C225.871,86.996 223.586,91.389 221.736,95.934C218.018,105.067 216.038,114.865 216,124.73ZM292.73,64C293.203,61.315 293.594,58.611 293.806,55.893C293.911,54.551 293.862,53.19 293.68,51.857C293.268,48.831 293.22,46.723 290.133,47.342C288.929,47.583 287.772,48.039 286.561,48.244C284.535,48.587 282.47,48.655 280.442,48.983C275.574,49.772 275.647,49.875 270.727,50.486C270.163,50.556 269.083,50.656 268.675,51.286C267.833,52.587 268.471,54.405 268.717,55.935C269.146,58.606 270.161,61.261 271.412,63.645C272.173,65.095 272.809,67.535 274.447,67.509C275.838,67.486 276.888,66.111 278.232,65.749C282.558,64.583 288.262,63.996 292.73,64ZM304,232C300.244,232 295.009,231.143 291.594,229.469C285.169,226.317 281.044,223.335 277.227,217.215C274.05,212.122 272.438,205.977 272.438,200C272.438,194.023 274.05,187.878 277.227,182.785C289.274,163.472 317.927,163.424 330.504,182.161C334.058,187.456 336,193.609 336,200C335.98,217.547 321.547,231.98 304,232ZM304,216C316.333,216 323.89,201.818 317.387,191.392C315.478,188.333 313.416,186.841 310.203,185.266C308.496,184.428 305.878,184 304,184C302.122,184 299.504,184.428 297.797,185.266C294.584,186.841 292.521,188.332 290.613,191.392C284.11,201.817 291.678,215.985 304,216ZM58.679,183.855L63.91,187.081C90.281,194.687 96.125,230.296 74.089,246.059C74.089,246.059 62.694,259.542 59.063,255.283C58.072,254.12 50.223,250.23 49.536,249.009C48.055,246.375 53.589,244.519 55.547,242.218L64.792,233.037C73.164,227.048 71.323,215.568 65.806,208.15C57.337,196.765 35.977,195.893 31.805,180.664C29.098,170.782 30.089,152.443 44.346,152.443L64.62,152C116.992,152.017 150.915,209.865 128.075,256.042C123.187,265.924 115.047,275.08 106.113,281.467L92.919,290.89C85.963,295.871 81.378,303.524 80.268,312.007C103.35,312.144 124.093,326.518 132.326,348.082C144.376,341.947 151.996,329.522 152,316L152,248C151.98,234.07 159.261,221.103 171.164,213.868C163.945,198.872 169.582,180.619 184,172.305L184,124.73C183.957,108.407 187.626,92.285 194.727,77.587L209.141,84.533C203.088,97.066 199.962,110.812 200,124.73L200,168C204.231,167.996 208.532,168.905 212.437,170.531C216.219,172.106 219.718,174.521 222.615,177.417C225.511,180.313 227.826,183.856 229.5,187.594C242.18,215.917 206.618,243.529 181.782,226.286C173.462,230.204 167.973,238.761 168,248L168,316C167.988,337.009 155.26,356.04 135.847,364.073C135.938,365.373 136,366.678 136,368L136,400C136.01,423.962 162.685,439.402 183.388,428.066L191.097,442.086C159.653,459.329 120.009,435.708 120,400L120,368C119.975,346.066 101.934,328.025 80,328L33.4,328C35.993,335.221 41.906,340.77 49.277,342.9L70.597,348.991C80.849,351.957 87.968,361.396 88,372.069L88,400C88,409.995 90.142,421.874 94.328,431.015C100.267,443.982 107.046,453.435 118.303,462.259C159.055,494.202 221.478,478.882 241.672,431.015C245.858,421.09 248,410.779 248,400L248,264L264,264L264,400C263.988,412.926 261.41,425.291 256.381,437.19C233.616,491.049 167.368,511.633 117.791,480.872C105.186,473.052 94.123,462.254 86.269,449.638C78.004,436.361 73.158,421.43 72.187,405.9C57.203,398.597 44.175,387.518 34.5,373.95L47.531,364.668C54.076,373.856 62.397,381.641 72,387.561L72,372.069C71.989,368.512 69.617,365.366 66.2,364.377L44.88,358.286C27.869,353.367 16.056,337.708 16,320C16,315.611 18.179,312.33 22.568,312.33L37.683,314.623L64.099,314.118C65.275,300.456 72.474,285.855 83.621,277.869L96.811,268.45C100.424,265.861 103.763,262.84 106.691,259.496C132.055,230.524 115.912,188.313 84.768,171.556C77.868,167.844 70.366,164.065 62.531,163.936C55.733,163.824 55.136,168.557 55.005,174.125C54.928,177.437 54.389,182.616 58.679,183.855ZM184,200C184,212.333 198.182,219.89 208.608,213.387C211.667,211.478 213.159,209.416 214.734,206.203C215.572,204.496 216,201.878 216,200C216,198.122 215.572,195.504 214.734,193.797C213.159,190.584 211.668,188.521 208.608,186.613C198.183,180.11 184.015,187.678 184,200ZM193.6,419.2C195.303,421.6 197.128,423.934 199.192,426.031C201.94,428.822 206.392,430.266 209.405,426.941C214.148,421.706 215.708,405.173 216,400C216.781,386.17 219.136,321.853 218.338,297.87C218.169,292.809 224.988,260.012 208.354,260.102C192.411,260.188 199.844,282.037 199.86,291.792C199.889,309.281 201.245,326.505 195.43,343.358C190.369,358.025 181.375,370.57 169.669,380.654C166.552,383.34 163.208,385.81 159.618,387.82C151.108,392.582 146.676,391.513 149.204,402.071C151.894,413.313 162.794,404.964 167.975,401.466C176.195,395.917 184.606,390.15 190.908,382.306C193.062,379.623 194.129,376.223 195.84,373.238C196.681,371.77 199.401,368.746 200,370.329C201.195,373.487 201.829,376.882 202.036,380.252C202.322,384.893 202.036,389.574 201.468,394.189C200.588,401.321 198.286,412.99 193.6,419.2ZM447.206,233.027L456.852,239.921C481.394,257.462 495.993,285.834 496,316C495.989,346.236 482.275,374.894 458.735,393.871L448.69,381.417C456.836,374.854 463.681,366.823 468.869,357.739C468.293,357.933 467.711,358.117 467.122,358.286L445.8,364.377C442.383,365.366 440.011,368.512 440,372.069L440,400C440.004,423.111 431.659,445.463 416.51,462.917L404.43,452.426C417.052,437.882 424.005,419.257 424,400L424,372.069C424.033,361.396 431.153,351.956 441.407,348.992L462.726,342.901C470.095,340.77 476.008,335.22 478.6,328L432,328C410.066,328.025 392.025,346.066 392,368L392,400C392,437 349.453,459.67 318.177,440.16C308.998,434.434 304.524,428.247 299.797,418.609C297.285,413.487 296,405.634 296,400L296,264L312,264L312,316C312.113,354.522 338.613,388.301 376,397.581L376,368C376,366.678 376.062,365.372 376.153,364.073C356.74,356.04 344.012,337.009 344,316L344,264C344,251.526 347.072,239.241 352.942,228.235L367.06,235.765C362.426,244.454 360.001,254.152 360,264L360,316C360.002,329.522 367.622,341.949 379.674,348.081C387.908,326.517 408.65,312.144 431.732,312.007C430.622,303.524 426.037,295.872 419.082,290.891L405.891,281.47C396.954,275.089 388.794,265.923 383.906,256.041C361.125,209.982 395.034,151.878 447.38,152L482.578,152.679C486.967,152.679 496.045,147.275 496.03,151.816C495.974,169.524 484.129,193.367 467.116,198.282L452.488,202.462C439.022,206.281 435.555,224.693 447.206,233.027ZM373.068,413.345C347.89,407.353 325.991,391.828 312,370.055L312,400C311.994,428.589 349.282,442.676 368.089,421.047C370.096,418.739 371.798,416.125 373.073,413.345L373.068,413.345ZM448.09,187.083L462.725,182.9C470.095,180.77 476.008,175.221 478.6,168L447.38,168C406.762,167.898 380.495,212.996 398.15,248.72C401.938,256.387 408.264,263.5 415.193,268.454L428.38,277.871C439.526,285.857 446.632,298.339 447.808,312L479.888,312C478.672,288.43 466.753,266.662 447.551,252.94L437.908,246.049C415.879,230.287 421.726,194.687 448.09,187.083ZM273.574,437.986C268.312,438.861 259.806,440.275 259.5,445.6C259.081,452.899 267.251,458.082 272.105,463.548C281.472,474.094 293.365,482.358 306.334,487.822C332.214,498.726 362.772,498.189 387.882,485.328C394.415,481.982 403.934,480.1 406.21,473.122C407.864,468.052 401.152,461.376 395.837,460.941C389.785,460.446 386.077,468.266 380.672,471.032C370.221,476.381 358.49,479.2 346.782,479.531C316.894,480.374 287.856,464.462 273.574,437.986Z" style="fill:none;fill-rule:nonzero;stroke:rgb(0,236,255);stroke-width:2.5px;"/>
        <circle cx="200.002" cy="199.998" r="7.998" style="fill:rgb(0,236,255);"/>
        <circle cx="304.002" cy="199.998" r="7.998" style="fill:rgb(0,236,255);"/>
        <g transform="matrix(1.45532,-0.963869,0.963869,1.45532,-18.1875,98.2797)">
            <path d="M53.698,5.89C46.933,-0.875 35.432,-1.903 25.503,3.278C23.69,1.714 21.408,0.854 18.99,0.854C16.319,0.854 13.807,1.894 11.919,3.784C8.05,7.652 8.025,13.926 11.834,17.831C11.034,19.809 10.563,21.819 10.425,23.837C10.407,23.909 10.384,23.98 10.38,24.056C10.318,25.14 10.359,26.223 10.489,27.302C10.49,27.307 10.49,27.312 10.49,27.316C10.568,27.961 10.683,28.604 10.829,29.245C10.844,29.311 10.859,29.377 10.875,29.443C11.022,30.058 11.197,30.67 11.406,31.279C11.432,31.356 11.463,31.433 11.49,31.51C11.71,32.128 11.954,32.743 12.238,33.354C13.016,35.026 13.23,36.81 12.842,38.378C12.802,38.54 12.747,38.692 12.7,38.85C12.639,39.057 12.585,39.269 12.513,39.469C12.445,39.66 12.359,39.839 12.28,40.023C12.213,40.181 12.155,40.344 12.08,40.498C11.979,40.707 11.858,40.905 11.742,41.106C11.673,41.225 11.614,41.35 11.541,41.467C11.405,41.683 11.248,41.888 11.094,42.095C11.025,42.188 10.965,42.286 10.893,42.378C10.716,42.601 10.517,42.813 10.318,43.026C10.254,43.095 10.199,43.167 10.132,43.235C9.918,43.452 9.28,44.683 9.197,44.379C9.13,44.135 14.1,46.788 17.953,49.092C17.995,49.117 18.766,48.435 18.807,48.408C19.023,48.264 19.249,48.14 19.474,48.015C19.563,47.965 19.648,47.906 19.739,47.859C19.938,47.756 20.147,47.672 20.354,47.582C20.48,47.527 20.6,47.463 20.729,47.414C20.91,47.344 21.101,47.291 21.288,47.231C21.453,47.178 21.613,47.116 21.782,47.07C23.365,46.64 24.871,46.895 26.024,47.283C26.29,47.373 26.544,47.467 26.769,47.565C26.779,47.569 26.788,47.572 26.798,47.576C27.244,47.768 27.693,47.938 28.142,48.097C28.257,48.138 28.372,48.176 28.488,48.214C28.906,48.354 29.325,48.48 29.746,48.591C29.785,48.601 29.824,48.614 29.864,48.624C31.738,49.104 33.63,49.3 35.512,49.194C35.568,49.191 35.62,49.172 35.674,49.161C40.94,48.821 46.155,46.235 50.908,41.483C61.31,31.079 62.589,14.78 53.698,5.89ZM13.333,5.199C14.844,3.687 16.854,2.855 18.99,2.855C21.126,2.855 23.136,3.687 24.647,5.199C27.766,8.318 27.766,13.393 24.647,16.512C24.456,16.703 24.257,16.882 24.052,17.049C23.979,17.109 23.901,17.16 23.827,17.216C23.692,17.318 23.559,17.423 23.419,17.516C23.325,17.579 23.227,17.632 23.131,17.69C23.006,17.766 22.882,17.844 22.754,17.913C22.646,17.97 22.535,18.018 22.425,18.07C22.304,18.127 22.184,18.188 22.061,18.239C21.943,18.288 21.823,18.328 21.703,18.371C21.584,18.414 21.466,18.459 21.346,18.496C21.22,18.535 21.093,18.565 20.965,18.597C20.848,18.627 20.732,18.658 20.615,18.682C20.481,18.71 20.345,18.729 20.21,18.75C20.099,18.767 19.988,18.786 19.877,18.798C19.732,18.814 19.586,18.822 19.44,18.83C19.339,18.836 19.238,18.843 19.136,18.845C18.978,18.848 18.821,18.843 18.664,18.836C18.575,18.832 18.487,18.83 18.399,18.823C18.228,18.81 18.057,18.79 17.886,18.766C17.814,18.756 17.742,18.747 17.671,18.735C17.485,18.704 17.3,18.665 17.116,18.621C17.063,18.608 17.01,18.596 16.957,18.582C16.756,18.529 16.556,18.468 16.359,18.399C16.327,18.388 16.294,18.377 16.262,18.365C16.047,18.287 15.835,18.2 15.626,18.103C15.613,18.097 15.6,18.091 15.587,18.085C14.907,17.764 14.262,17.342 13.674,16.818L13.457,16.624C13.417,16.585 13.373,16.552 13.333,16.512C10.215,13.393 10.215,8.318 13.333,5.199ZM16.339,47.644C16.309,47.668 11.29,44.905 11.607,44.579C11.635,44.55 11.657,44.519 11.685,44.491C11.971,44.191 12.245,43.885 12.495,43.567C12.535,43.517 12.566,43.462 12.605,43.411C12.835,43.111 13.056,42.806 13.255,42.49C13.303,42.413 13.341,42.329 13.388,42.251C13.565,41.954 13.739,41.656 13.89,41.345C13.936,41.251 13.969,41.151 14.012,41.055C14.15,40.752 14.286,40.448 14.4,40.131C14.437,40.026 14.463,39.914 14.498,39.808C14.6,39.498 14.703,39.188 14.784,38.865C14.786,38.858 14.786,38.851 14.788,38.845C14.788,38.843 14.789,38.841 14.79,38.839C15.29,36.809 15.035,34.621 14.053,32.511C13.939,32.266 13.852,32.02 13.749,31.774C12.954,29.867 12.481,27.929 12.375,25.982L33.582,47.191L33.569,47.191C33.095,47.163 32.621,47.112 32.147,47.043C32.112,47.038 32.077,47.035 32.042,47.029C31.592,46.961 31.143,46.869 30.694,46.764C30.639,46.751 30.584,46.742 30.528,46.728C30.094,46.621 29.661,46.492 29.229,46.351C29.164,46.33 29.099,46.314 29.034,46.292C28.543,46.125 28.053,45.938 27.565,45.727C26.854,45.42 26.14,45.2 25.429,45.052C25.336,45.033 25.243,45.007 25.151,44.991C25.061,44.975 24.972,44.968 24.882,44.954C24.704,44.927 24.526,44.898 24.35,44.882C24.317,44.879 24.283,44.88 24.25,44.877C24.018,44.858 23.787,44.844 23.557,44.842C23.55,44.842 23.543,44.843 23.536,44.843C23.281,44.842 23.028,44.851 22.776,44.871C22.704,44.877 22.634,44.89 22.563,44.898C22.377,44.918 22.192,44.937 22.009,44.969C21.801,45.005 21.596,45.054 21.391,45.106C21.348,45.117 21.305,45.123 21.262,45.135L21.261,45.135C21.257,45.136 21.253,45.137 21.249,45.138C20.853,45.246 20.471,45.374 20.098,45.514C20.07,45.524 20.039,45.532 20.011,45.542C19.64,45.684 19.283,45.846 18.934,46.021C18.903,46.037 18.869,46.048 18.839,46.064C18.508,46.233 18.191,46.423 17.878,46.623C17.833,46.652 17.784,46.675 17.738,46.704C17.415,46.917 16.645,47.397 16.339,47.644ZM36.335,47.124C36.326,47.115 36.322,47.103 36.313,47.094L12.479,23.26C12.476,23.257 12.471,23.255 12.468,23.252C12.625,21.89 12.933,20.528 13.435,19.169C13.909,19.486 14.407,19.751 14.918,19.978C14.939,19.987 14.959,19.998 14.98,20.007C15.202,20.104 15.427,20.19 15.654,20.271C15.716,20.293 15.778,20.315 15.841,20.336C16.047,20.404 16.254,20.465 16.464,20.519C16.551,20.542 16.638,20.562 16.725,20.583C16.92,20.628 17.116,20.67 17.313,20.703C17.417,20.721 17.522,20.734 17.627,20.748C17.813,20.774 17.999,20.799 18.187,20.814C18.306,20.824 18.425,20.826 18.544,20.831C18.693,20.838 18.842,20.852 18.992,20.852C19.02,20.852 19.047,20.848 19.074,20.848C19.229,20.847 19.384,20.834 19.539,20.826C19.787,20.813 20.033,20.791 20.28,20.759C20.462,20.736 20.644,20.714 20.824,20.681C20.952,20.657 21.078,20.625 21.205,20.596C21.376,20.558 21.546,20.519 21.715,20.472C21.842,20.436 21.968,20.394 22.094,20.353C22.26,20.299 22.425,20.243 22.588,20.18C22.712,20.132 22.835,20.081 22.957,20.028C23.12,19.958 23.281,19.883 23.44,19.804C23.558,19.746 23.674,19.686 23.79,19.623C23.953,19.534 24.113,19.437 24.273,19.338C24.379,19.272 24.485,19.208 24.589,19.138C24.762,19.021 24.93,18.894 25.097,18.765C25.181,18.7 25.267,18.64 25.349,18.572C25.595,18.369 25.834,18.156 26.064,17.926C26.298,17.692 26.516,17.448 26.722,17.198C26.794,17.11 26.856,17.018 26.925,16.929C27.053,16.762 27.18,16.596 27.296,16.424C27.37,16.313 27.436,16.199 27.505,16.086C27.602,15.929 27.699,15.772 27.786,15.611C27.853,15.487 27.913,15.36 27.974,15.233C28.049,15.078 28.124,14.923 28.191,14.765C28.248,14.631 28.298,14.495 28.349,14.359C28.407,14.204 28.462,14.049 28.512,13.892C28.557,13.75 28.598,13.607 28.636,13.463C28.677,13.309 28.715,13.155 28.749,13C28.781,12.851 28.811,12.702 28.837,12.552C28.863,12.4 28.884,12.248 28.903,12.096C28.922,11.941 28.94,11.786 28.952,11.631C28.963,11.483 28.968,11.336 28.973,11.188C28.978,11.027 28.984,10.866 28.982,10.706C28.98,10.565 28.97,10.425 28.962,10.284C28.952,10.117 28.945,9.95 28.927,9.783C28.913,9.655 28.891,9.527 28.872,9.399C28.846,9.221 28.823,9.043 28.788,8.867C28.769,8.774 28.742,8.683 28.721,8.591C28.561,7.901 28.327,7.226 28.02,6.576C27.976,6.483 27.937,6.388 27.89,6.295C27.805,6.129 27.708,5.968 27.613,5.806C27.544,5.694 27.482,5.581 27.412,5.472C27.317,5.324 27.213,5.181 27.11,5.037C27.049,4.951 26.995,4.862 26.93,4.778C32.929,1.796 39.475,1.225 44.964,2.944C47.745,3.815 50.254,5.273 52.284,7.304C60.407,15.427 59.13,30.431 49.494,40.067C45.292,44.269 40.844,46.629 36.335,47.124Z" style="fill:rgb(0,236,255);fill-rule:nonzero;"/>
            <path d="M14.991,10.855C14.991,8.649 16.785,6.855 18.991,6.855C19.544,6.855 19.991,6.408 19.991,5.855C19.991,5.302 19.544,4.855 18.991,4.855C15.682,4.855 12.991,7.546 12.991,10.855C12.991,11.408 13.438,11.855 13.991,11.855C14.544,11.855 14.991,11.408 14.991,10.855Z" style="fill:rgb(0,236,255);fill-rule:nonzero;"/>
        </g>
        <g transform="matrix(0.0943585,-0.15811,0.15811,0.0943585,412.103,117.337)">
            <path d="M138.024,398.879C139.738,398.879 141.128,397.489 141.128,395.775C141.128,394.061 139.738,392.67 138.024,392.67C136.31,392.67 134.92,394.06 134.92,395.775C134.92,397.49 136.31,398.879 138.024,398.879Z" style="fill:rgb(0,236,255);fill-rule:nonzero;"/>
            <path d="M128.394,388.496C130.108,388.496 131.498,387.106 131.498,385.391C131.498,383.677 130.108,382.286 128.394,382.286C128.003,382.286 127.631,382.367 127.286,382.499L125.483,384.343C125.365,384.672 125.289,385.022 125.289,385.391C125.289,387.106 126.679,388.496 128.394,388.496Z" style="fill:rgb(0,236,255);fill-rule:nonzero;"/>
            <path d="M118.01,398.879C119.724,398.879 121.114,397.489 121.114,395.775C121.114,394.061 119.724,392.67 118.01,392.67C117.74,392.67 117.484,392.715 117.236,392.779L114.991,395.074C114.939,395.299 114.905,395.532 114.905,395.774C114.905,397.49 116.295,398.879 118.01,398.879Z" style="fill:rgb(0,236,255);fill-rule:nonzero;"/>
            <path d="M128.394,408.51C130.108,408.51 131.498,407.12 131.498,405.406C131.498,403.692 130.108,402.301 128.394,402.301C126.68,402.301 125.29,403.691 125.29,405.406C125.289,407.12 126.679,408.51 128.394,408.51Z" style="fill:rgb(0,236,255);fill-rule:nonzero;"/>
            <path d="M118.01,418.894C119.724,418.894 121.114,417.504 121.114,415.789C121.114,414.075 119.724,412.684 118.01,412.684C116.295,412.684 114.905,414.074 114.905,415.789C114.905,417.505 116.295,418.894 118.01,418.894Z" style="fill:rgb(0,236,255);fill-rule:nonzero;"/>
            <path d="M108.38,408.51C110.094,408.51 111.484,407.12 111.484,405.406C111.484,403.692 110.094,402.301 108.38,402.301C108.207,402.301 108.042,402.325 107.878,402.352L105.318,404.969C105.298,405.114 105.274,405.256 105.274,405.406C105.274,407.12 106.664,408.51 108.38,408.51Z" style="fill:rgb(0,236,255);fill-rule:nonzero;"/>
            <path d="M97.995,438.908C99.709,438.908 101.099,437.518 101.099,435.804C101.099,434.09 99.709,432.699 97.995,432.699C96.281,432.699 94.891,434.089 94.891,435.804C94.891,437.519 96.281,438.908 97.995,438.908Z" style="fill:rgb(0,236,255);fill-rule:nonzero;"/>
            <path d="M88.365,428.525C90.079,428.525 91.469,427.135 91.469,425.42C91.469,423.706 90.079,422.315 88.365,422.315L88.361,422.315L85.267,425.48C85.3,427.168 86.671,428.525 88.365,428.525Z" style="fill:rgb(0,236,255);fill-rule:nonzero;"/>
            <path d="M77.981,438.908C79.695,438.908 81.085,437.518 81.085,435.804C81.085,434.161 79.804,432.83 78.189,432.72L74.903,436.08C75.046,437.663 76.361,438.908 77.981,438.908Z" style="fill:rgb(0,236,255);fill-rule:nonzero;"/>
            <path d="M88.365,448.539C90.079,448.539 91.469,447.149 91.469,445.435C91.469,443.721 90.079,442.33 88.365,442.33C86.651,442.33 85.261,443.72 85.261,445.435C85.26,447.149 86.65,448.539 88.365,448.539Z" style="fill:rgb(0,236,255);fill-rule:nonzero;"/>
            <path d="M77.981,458.923C79.695,458.923 81.085,457.533 81.085,455.818C81.085,454.104 79.695,452.713 77.981,452.713C76.266,452.713 74.876,454.103 74.876,455.818C74.876,457.534 76.266,458.923 77.981,458.923Z" style="fill:rgb(0,236,255);fill-rule:nonzero;"/>
            <path d="M68.755,442.371L65.293,445.911C65.524,447.398 66.798,448.539 68.35,448.539C70.064,448.539 71.454,447.149 71.454,445.435C71.455,443.859 70.276,442.572 68.755,442.371Z" style="fill:rgb(0,236,255);fill-rule:nonzero;"/>
            <path d="M216.558,338.325C198.298,326.607 183.659,311.975 173.049,294.837C172.2,293.464 170.614,292.721 169.017,292.962C167.42,293.197 166.115,294.36 165.697,295.919L149.312,357.068C148.938,358.465 149.337,359.956 150.36,360.978C151.13,361.748 152.163,362.163 153.223,362.163C153.572,362.163 153.925,362.118 154.271,362.025L215.42,345.64C216.968,345.226 218.126,343.936 218.373,342.353C218.618,340.77 217.907,339.191 216.558,338.325ZM158.947,352.39L171.201,306.66C180.248,319.316 191.5,330.519 204.791,340.107L158.947,352.39Z" style="fill:rgb(0,236,255);fill-rule:nonzero;"/>
            <path d="M440.679,71.319C414.174,44.813 376.876,32.343 335.647,36.201C294.708,40.036 254.757,59.551 223.156,91.152C157.716,156.591 148.819,254.171 203.321,308.675C227.323,332.676 259.667,344.381 293.952,344.381C337.524,344.381 384.223,325.463 420.845,288.84C486.284,223.402 495.182,125.822 440.679,71.319ZM214.554,308.081C212.672,306.441 210.832,304.736 209.046,302.951C205.992,299.896 203.159,296.693 200.529,293.364L214.554,293.364L214.554,308.081ZM214.554,285.268L194.714,285.268C185.04,270.419 179.1,253.468 176.788,235.532L214.554,235.532L214.554,285.268ZM214.554,227.435L175.997,227.435C174.674,207.881 177.519,187.389 184.393,167.34L214.554,167.34L214.554,227.435ZM214.554,159.244L187.396,159.244C193.841,143.13 202.918,127.434 214.554,112.889L214.554,159.244ZM281.451,335.752C259.909,333.796 239.616,326.722 222.451,314.347L222.651,314.347L222.651,293.363L281.451,293.363L281.451,335.752ZM281.451,285.268L222.651,285.268L222.651,235.532L281.451,235.532L281.451,285.268ZM281.451,227.435L222.651,227.435L222.651,167.34L281.451,167.34L281.451,227.435ZM281.451,159.244L222.651,159.244L222.651,107.352L281.451,107.352L281.451,159.244ZM281.451,99.254L226.553,99.254C227.323,98.458 228.094,97.663 228.881,96.877C244.597,81.161 262.451,68.576 281.451,59.587L281.451,99.254ZM343.599,327.969C325.586,334.013 307.236,336.801 289.547,336.246L289.547,293.364L343.599,293.364L343.599,327.969ZM343.599,285.268L289.547,285.268L289.547,235.532L343.599,235.532L343.599,285.268ZM343.599,227.435L289.547,227.435L289.547,167.34L343.599,167.34L343.599,227.435ZM343.599,159.244L289.547,159.244L289.547,107.352L343.599,107.352L343.599,159.244ZM343.599,99.254L289.547,99.254L289.547,55.996C304.701,49.744 320.478,45.755 336.402,44.264C338.817,44.038 341.215,43.874 343.599,43.766L343.599,99.254ZM416.434,62.145C423.09,66.41 429.291,71.38 434.954,77.043C441.7,83.79 447.396,91.25 452.078,99.254L416.434,99.254L416.434,62.145ZM416.434,107.351L456.384,107.351C464.006,123.23 467.942,140.897 468.294,159.243L416.434,159.243L416.434,107.351ZM351.696,325.017L351.696,293.364L404.037,293.364C387.824,307.243 370.018,317.827 351.696,325.017ZM408.337,285.268L351.696,285.268L351.696,235.532L408.337,235.532L408.337,285.268ZM408.337,227.435L351.696,227.435L351.696,167.34L408.337,167.34L408.337,227.435ZM408.337,159.244L351.696,159.244L351.696,107.352L408.337,107.352L408.337,159.244ZM408.337,99.254L351.696,99.254L351.696,43.63C372.322,43.85 391.555,48.567 408.337,57.428L408.337,99.254ZM416.434,281.774L416.434,235.531L449.891,235.531C441.524,251.914 430.341,267.6 416.434,281.774ZM453.767,227.435L416.434,227.435L416.434,167.34L468.215,167.34C467.471,187.24 462.611,207.729 453.767,227.435Z" style="fill:rgb(0,236,255);fill-rule:nonzero;"/>
            <path d="M511.15,173.039C515.896,122.37 500.578,76.534 468.02,43.977C435.462,11.418 389.623,-3.897 338.958,0.846C288.574,5.564 239.4,29.588 200.495,68.493C177.324,91.663 159.549,118.201 147.663,147.37C136.303,175.248 130.954,204.756 132.196,232.709L132.432,237.83C137.158,305.371 121.849,344.769 116.968,355.395C111.897,354.028 106.253,355.317 102.28,359.291L35.094,427.062C29.182,432.973 51.445,449.259 57.356,455.169C57.356,455.169 81.142,479.72 84.006,476.855L152.707,409.715C156.695,405.728 157.98,400.056 156.588,394.97C167.209,390.08 206.367,374.864 273.802,379.586C273.844,379.589 273.887,379.591 273.929,379.593L278.974,379.786C306.962,381.078 336.527,375.757 364.466,364.398C393.696,352.513 420.289,334.717 443.505,311.5C482.409,272.597 506.433,223.423 511.15,173.039ZM108.006,365.016C109.383,363.639 111.193,362.951 113.001,362.951C114.809,362.951 116.62,363.639 117.997,365.016L146.981,394C148.314,395.335 149.05,397.109 149.05,398.996C149.05,400.175 148.763,401.31 148.223,402.321C146.597,402.419 145.304,403.756 145.304,405.407C145.304,405.489 145.321,405.566 145.327,405.646L138.264,412.709C138.184,412.703 138.107,412.686 138.025,412.686C136.311,412.686 134.921,414.076 134.921,415.791C134.921,415.873 134.938,415.95 134.944,416.03L128.634,422.341C128.554,422.335 128.477,422.318 128.395,422.318C126.681,422.318 125.291,423.708 125.291,425.423C125.291,425.505 125.308,425.582 125.314,425.662L118.564,432.413L111.476,425.325C111.424,423.691 110.114,422.381 108.48,422.329L100.912,414.763C100.6,413.882 99.908,413.19 99.028,412.878L79.588,393.435L108.006,365.016ZM108.619,442.354C108.539,442.348 108.462,442.331 108.38,442.331C106.665,442.331 105.275,443.721 105.275,445.436C105.275,445.518 105.292,445.595 105.298,445.675L98.234,452.738C98.154,452.732 98.077,452.715 97.995,452.715C96.281,452.715 94.891,454.105 94.891,455.82C94.891,455.902 94.908,455.979 94.914,456.059L88.603,462.37C88.523,462.364 88.446,462.347 88.364,462.347C86.65,462.347 85.26,463.737 85.26,465.452C85.26,465.533 85.277,465.611 85.283,465.69L79.936,471.037L40.962,432.064L73.863,399.162L112.837,438.136L108.619,442.354ZM279.315,371.698L274.302,371.505C203.039,366.53 162.942,382.878 152.395,387.966L123.987,359.557C129.077,348.973 145.502,308.627 140.514,237.362L140.283,232.343C137.791,176.248 161.823,118.613 206.219,74.217C283.578,-3.142 398.455,-14.14 462.294,49.701C526.134,113.541 515.136,228.416 437.777,305.776C393.288,350.268 335.539,374.306 279.315,371.698Z" style="fill:rgb(0,236,255);fill-rule:nonzero;"/>
        </g>
    </g>
    <g transform="matrix(0.0691938,-0.0200545,0.0200333,0.0691207,-4.8426,257.419)">
        <g id="Football">
            <path d="M812.55,139.4C768.85,95.7 717.95,61.4 661.25,37.4C602.55,12.6 540.25,0 475.95,0C411.75,0.1 349.45,12.6 290.75,37.5C234.05,61.5 183.15,95.8 139.45,139.5C95.75,183.2 61.45,234.1 37.45,290.8C12.65,349.5 0.05,411.8 0.05,476.1C0.05,540.301 12.65,602.7 37.45,661.401C61.45,718.1 95.75,769.001 139.45,812.7C183.15,856.401 234.05,890.7 290.75,914.7C349.45,939.501 411.75,952.1 476.05,952.1C540.25,952.1 602.651,939.5 661.35,914.7C718.05,890.7 768.951,856.401 812.651,812.7C856.35,769.001 890.651,718.1 914.651,661.401C939.451,602.7 952.05,540.401 952.05,476.1C952.05,411.9 939.45,349.5 914.651,290.8C890.55,234 856.25,183.2 812.55,139.4ZM212.55,107.5C216.85,104.2 221.05,100.7 225.45,97.6C248.55,81.4 274.15,68.3 300.15,57.4C355.55,34.2 415.75,22 475.95,22C516.05,22 557.15,27.4 595.849,38C580.549,44.2 561.849,56 530.45,82.8C504.349,80 477.95,79.9 451.45,82.4C416.849,85.7 382.05,93.4 348.05,105.4C317.35,116.2 293.05,128.5 276.65,137.9C251.55,128.9 219.15,118.3 203.15,113.1C205.65,113.9 210.85,108.8 212.55,107.5ZM646.15,226.5L564.75,448.7L369.45,486.2L208.05,319.5C218.95,243.9 270.75,176.9 270.75,176.9C271.05,176.7 304.85,152.3 359.05,133.4C390.651,122.3 422.85,115.2 454.95,112.2C481.15,109.8 507.25,110.2 533.05,113.3L646.15,226.5ZM39.35,460.2C34.35,492.5 33.25,526 35.85,559.7C31.95,551.901 28.85,545.302 26.55,540.001C23.55,519.101 22.05,497.7 22.05,475.901C22.05,408.901 36.55,345.201 62.65,287.901C59.75,317.901 61.15,349.001 63.25,372.601C52.05,400.7 44.05,430 39.35,460.2ZM78.85,633.301C74.25,616.401 68.85,591.801 66.15,562.301C63.15,529 64.05,495.901 69.05,464.2C72.85,439.9 78.95,416.301 87.35,393.6C120.25,365.8 163.85,349.5 187.95,342L346.35,505.6L329.75,684.9L174.95,736.6C135.55,707.6 103.35,669.199 78.85,633.301ZM549.25,892.9C514.75,915.5 427.55,920.9 392.15,922.199C353.15,914.9 315.25,902.4 279.549,885.199C248.349,870.199 218.749,851.599 191.749,829.801C192.249,828.901 187.549,781.199 187.749,763.801L344.149,711.6L524.649,789.7L549.548,892.6C549.35,892.801 549.25,892.9 549.25,892.9ZM849.15,734.6C822.25,773.4 790.05,809.5 751.35,836.9C715.05,862.5 666.451,871.3 623.25,878.4C619.95,878.9 578.65,885.699 578.35,884.3L553.451,781.3L680.55,649L848.85,633.5C851.451,660.301 854.85,699.4 856.85,723.301C854.25,727.1 851.75,730.9 849.15,734.6ZM851.75,600C851.15,601 850.55,602.1 849.95,603.301L682.35,618.699L592.15,460.9L673.75,238.2L788.95,245.5C813.45,266 835.15,288.8 853.55,313.4C876.55,344.3 894.45,378.2 906.651,414.1C893.85,525.301 864.35,580.699 851.75,600ZM911.85,349.8C901.951,330.7 890.35,312.3 877.25,294.8C856.55,267.1 831.95,241.6 804.05,218.9C798.95,193.6 784.95,153.8 747.35,112C748.05,112.5 748.75,113.1 749.451,113.6C751.751,115.3 753.951,117.1 756.251,118.8C782.151,139.2 805.751,162.3 826.651,187.7C865.451,235 894.751,289.9 911.951,348.8C911.85,349.2 911.85,349.5 911.85,349.8Z" style="fill:rgb(0,236,255);fill-rule:nonzero;"/>
        </g>
    </g>
</svg>
