<?xml version="1.0" encoding="UTF-8"?>
<svg xmlns="http://www.w3.org/2000/svg" viewBox="0 0 512 512" width="512" height="512"><g id="Outline"><path d="M416,144V124.73A92.836,92.836,0,0,0,323.27,32H292.73a92.71,92.71,0,0,0-76.9,40.89l-13.258-8.957A108.69,108.69,0,0,1,292.73,16h30.54A108.853,108.853,0,0,1,432,124.73V144ZM216,124.73h16a61.142,61.142,0,0,1,29.509-52.072l-8.254-13.707A77.227,77.227,0,0,0,216,124.73ZM292.73,64V48a76.415,76.415,0,0,0-24.258,3.93l5.068,15.175A60.486,60.486,0,0,1,292.73,64ZM304,232a32,32,0,1,1,32-32A32.036,32.036,0,0,1,304,232Zm0-16a16,16,0,1,0-16-16A16.019,16.019,0,0,0,304,216ZM113.854,248.722A55.368,55.368,0,0,0,64.62,168H33.4a23.923,23.923,0,0,0,15.878,14.9l14.632,4.181a33.467,33.467,0,0,1,17.4,11.945,32.914,32.914,0,0,1,6.692,20,33.268,33.268,0,0,1-13.913,27.033l-9.636,6.886a77.56,77.56,0,0,0-30.669,46.543l-15.631-3.415a93.556,93.556,0,0,1,37-56.147l9.639-6.889A17.235,17.235,0,0,0,72,219.02a17.221,17.221,0,0,0-12.493-16.559l-14.625-4.179A39.981,39.981,0,0,1,16,160a8,8,0,0,1,8-8H64.62a71.39,71.39,0,0,1,41.493,129.467L92.919,290.89a30.907,30.907,0,0,0-12.651,21.117,56.079,56.079,0,0,1,52.058,36.075A36.012,36.012,0,0,0,152,316V248a39.877,39.877,0,0,1,19.164-34.132A31.971,31.971,0,0,1,184,172.305V124.73a107.719,107.719,0,0,1,10.727-47.143l14.414,6.946A91.838,91.838,0,0,0,200,124.73V168a32,32,0,1,1-18.218,58.286,24.143,24.143,0,0,0-6.755,4.74A23.847,23.847,0,0,0,168,248v68a52.058,52.058,0,0,1-32.153,48.073c.091,1.3.153,2.605.153,3.927v32a32.013,32.013,0,0,0,47.388,28.066l7.709,14.02A48.012,48.012,0,0,1,120,400V368a40.045,40.045,0,0,0-40-40H33.4a23.927,23.927,0,0,0,15.877,14.9l21.32,6.091A24.1,24.1,0,0,1,88,372.069V400a80,80,0,0,0,160,0V264h16V400a96,96,0,0,1-191.813,5.9,99.689,99.689,0,0,1-26.894-19.2A100.744,100.744,0,0,1,34.5,373.95l13.031-9.282A84.462,84.462,0,0,0,72,387.561V372.069a8.034,8.034,0,0,0-5.8-7.692l-21.32-6.091A39.987,39.987,0,0,1,16,320a8,8,0,0,1,8-8H64.192a46.938,46.938,0,0,1,19.429-34.131l13.19-9.419A55.632,55.632,0,0,0,113.854,248.722ZM184,200a16,16,0,1,0,16-16A16.019,16.019,0,0,0,184,200Zm9.6,219.2,12.792,9.611A47.6,47.6,0,0,0,216,400V264H200v52a83.831,83.831,0,0,1-51.559,77.5l6.182,14.758A99.87,99.87,0,0,0,200,370.329V400A31.718,31.718,0,0,1,193.6,419.2ZM443.468,208.656A17.046,17.046,0,0,0,440,219.02a17.231,17.231,0,0,0,7.206,14.007l9.646,6.894A93.542,93.542,0,0,1,496,316a100.072,100.072,0,0,1-37.265,77.871L448.69,381.417a83.747,83.747,0,0,0,20.179-23.678c-.576.194-1.158.378-1.747.547L445.8,364.377a8.033,8.033,0,0,0-5.8,7.692V400a95.956,95.956,0,0,1-23.49,62.917l-12.08-10.491A79.956,79.956,0,0,0,424,400V372.069a24.1,24.1,0,0,1,17.407-23.077l21.319-6.091A23.929,23.929,0,0,0,478.6,328H432a40.045,40.045,0,0,0-40,40v32a48,48,0,0,1-96,0V264h16v52a84.311,84.311,0,0,0,64,81.581V368c0-1.322.062-2.628.153-3.927A52.058,52.058,0,0,1,344,316V264a76,76,0,0,1,8.942-35.765l14.118,7.53A60.009,60.009,0,0,0,360,264v52a36,36,0,0,0,19.674,32.081,56.079,56.079,0,0,1,52.058-36.074,30.907,30.907,0,0,0-12.65-21.116l-13.191-9.421A71.384,71.384,0,0,1,416.9,158.818c.083-.039.167-.077.251-.113A70.752,70.752,0,0,1,447.38,152H488a8,8,0,0,1,8,8,39.98,39.98,0,0,1-28.884,38.282l-14.628,4.18A17.115,17.115,0,0,0,443.468,208.656Zm-70.4,204.689A100.15,100.15,0,0,1,312,370.055V400a31.993,31.993,0,0,0,61.073,13.345ZM424,219.02a32.917,32.917,0,0,1,6.7-20,33.451,33.451,0,0,1,17.39-11.937l14.635-4.183A23.922,23.922,0,0,0,478.6,168H447.38a54.878,54.878,0,0,0-23.632,5.283c-.072.034-.144.067-.218.1a55.411,55.411,0,0,0-8.337,95.071l13.187,9.417A46.936,46.936,0,0,1,447.808,312h32.08a77.5,77.5,0,0,0-32.337-59.06l-9.643-6.891A33.264,33.264,0,0,1,424,219.02ZM344,480a79.992,79.992,0,0,1-70.426-42.014L259.5,445.6a96.023,96.023,0,0,0,146.71,27.522l-10.373-12.181A80.023,80.023,0,0,1,344,480Z"/><circle cx="200.002" cy="199.998" r="7.998"/><circle cx="304.002" cy="199.998" r="7.998"/></g></svg>
