<?xml version="1.0" encoding="UTF-8" standalone="no"?>
<!DOCTYPE svg PUBLIC "-//W3C//DTD SVG 1.1//EN" "http://www.w3.org/Graphics/SVG/1.1/DTD/svg11.dtd">
<svg width="100%" height="100%" viewBox="0 0 254 148" version="1.1" xmlns="http://www.w3.org/2000/svg" xmlns:xlink="http://www.w3.org/1999/xlink" xml:space="preserve" xmlns:serif="http://www.serif.com/" style="fill-rule:evenodd;clip-rule:evenodd;stroke-linejoin:round;stroke-miterlimit:2;">
    <g transform="matrix(1,0,0,1,-117.091,-55.3416)">
        <g transform="matrix(0.477288,0,0,0.495731,122.906,55.0239)">
            <rect x="-12.184" y="0.641" width="530.954" height="296.922"/>
        </g>
        <g transform="matrix(1,0,0,1,132.312,84.6669)">
            <g transform="matrix(144,0,0,144,0,102.528)">
                <path d="M0.042,-0.544C0.042,-0.573 0.047,-0.598 0.057,-0.62C0.067,-0.642 0.08,-0.66 0.097,-0.675C0.113,-0.689 0.131,-0.7 0.152,-0.707C0.172,-0.714 0.192,-0.718 0.213,-0.718C0.234,-0.718 0.254,-0.714 0.275,-0.707C0.295,-0.7 0.313,-0.689 0.33,-0.675C0.346,-0.66 0.359,-0.642 0.369,-0.62C0.379,-0.598 0.384,-0.573 0.384,-0.544L0.384,-0.168C0.384,-0.138 0.379,-0.112 0.369,-0.091C0.359,-0.07 0.346,-0.052 0.33,-0.038C0.313,-0.023 0.295,-0.012 0.275,-0.005C0.254,0.002 0.234,0.006 0.213,0.006C0.192,0.006 0.172,0.002 0.152,-0.005C0.131,-0.012 0.113,-0.023 0.097,-0.038C0.08,-0.052 0.067,-0.07 0.057,-0.091C0.047,-0.112 0.042,-0.138 0.042,-0.168L0.042,-0.544ZM0.144,-0.168C0.144,-0.143 0.151,-0.125 0.165,-0.114C0.178,-0.102 0.194,-0.096 0.213,-0.096C0.232,-0.096 0.248,-0.102 0.262,-0.114C0.275,-0.125 0.282,-0.143 0.282,-0.168L0.282,-0.544C0.282,-0.569 0.275,-0.587 0.262,-0.599C0.248,-0.61 0.232,-0.616 0.213,-0.616C0.194,-0.616 0.178,-0.61 0.165,-0.599C0.151,-0.587 0.144,-0.569 0.144,-0.544L0.144,-0.168Z" style="fill:rgb(0,236,255);fill-rule:nonzero;"/>
            </g>
            <g transform="matrix(144,0,0,144,61.344,102.528)">
                <path d="M0.372,-0.203L0.372,-0.159C0.372,-0.137 0.368,-0.116 0.36,-0.097C0.351,-0.077 0.34,-0.059 0.325,-0.044C0.31,-0.029 0.293,-0.017 0.274,-0.008C0.254,0.002 0.233,0.006 0.21,0.006C0.191,0.006 0.171,0.003 0.151,-0.002C0.131,-0.007 0.113,-0.017 0.097,-0.03C0.081,-0.043 0.068,-0.061 0.058,-0.082C0.047,-0.102 0.042,-0.129 0.042,-0.162L0.042,-0.554C0.042,-0.577 0.046,-0.599 0.054,-0.619C0.062,-0.639 0.073,-0.656 0.088,-0.671C0.103,-0.686 0.12,-0.697 0.141,-0.706C0.161,-0.714 0.183,-0.718 0.208,-0.718C0.256,-0.718 0.295,-0.702 0.325,-0.671C0.34,-0.656 0.351,-0.638 0.36,-0.617C0.368,-0.596 0.372,-0.573 0.372,-0.548L0.372,-0.508L0.27,-0.508L0.27,-0.542C0.27,-0.562 0.264,-0.579 0.253,-0.594C0.242,-0.609 0.226,-0.616 0.207,-0.616C0.182,-0.616 0.165,-0.608 0.157,-0.593C0.148,-0.577 0.144,-0.557 0.144,-0.533L0.144,-0.169C0.144,-0.148 0.149,-0.131 0.158,-0.117C0.167,-0.103 0.183,-0.096 0.206,-0.096C0.213,-0.096 0.22,-0.097 0.228,-0.1C0.235,-0.102 0.242,-0.106 0.249,-0.111C0.255,-0.116 0.26,-0.124 0.264,-0.133C0.268,-0.142 0.27,-0.154 0.27,-0.168L0.27,-0.203L0.372,-0.203Z" style="fill:rgb(0,236,255);fill-rule:nonzero;"/>
            </g>
            <g transform="matrix(144,0,0,144,119.952,102.528)">
                <path d="M0.115,-0L0.115,-0.616L-0.003,-0.616L-0.003,-0.712L0.335,-0.712L0.335,-0.616L0.217,-0.616L0.217,-0L0.115,-0Z" style="fill:rgb(0,236,255);fill-rule:nonzero;"/>
            </g>
            <g transform="matrix(144,0,0,144,166.032,102.528)">
                <path d="M0.042,-0.544C0.042,-0.573 0.047,-0.598 0.057,-0.62C0.067,-0.642 0.08,-0.66 0.097,-0.675C0.113,-0.689 0.131,-0.7 0.152,-0.707C0.172,-0.714 0.192,-0.718 0.213,-0.718C0.234,-0.718 0.254,-0.714 0.275,-0.707C0.295,-0.7 0.313,-0.689 0.33,-0.675C0.346,-0.66 0.359,-0.642 0.369,-0.62C0.379,-0.598 0.384,-0.573 0.384,-0.544L0.384,-0.168C0.384,-0.138 0.379,-0.112 0.369,-0.091C0.359,-0.07 0.346,-0.052 0.33,-0.038C0.313,-0.023 0.295,-0.012 0.275,-0.005C0.254,0.002 0.234,0.006 0.213,0.006C0.192,0.006 0.172,0.002 0.152,-0.005C0.131,-0.012 0.113,-0.023 0.097,-0.038C0.08,-0.052 0.067,-0.07 0.057,-0.091C0.047,-0.112 0.042,-0.138 0.042,-0.168L0.042,-0.544ZM0.144,-0.168C0.144,-0.143 0.151,-0.125 0.165,-0.114C0.178,-0.102 0.194,-0.096 0.213,-0.096C0.232,-0.096 0.248,-0.102 0.262,-0.114C0.275,-0.125 0.282,-0.143 0.282,-0.168L0.282,-0.544C0.282,-0.569 0.275,-0.587 0.262,-0.599C0.248,-0.61 0.232,-0.616 0.213,-0.616C0.194,-0.616 0.178,-0.61 0.165,-0.599C0.151,-0.587 0.144,-0.569 0.144,-0.544L0.144,-0.168Z" style="fill:rgb(0,236,255);fill-rule:nonzero;"/>
            </g>
        </g>
        <g id="Outline" transform="matrix(0.0937977,0,0,0.0937977,243.092,67.2625)">
            <g transform="matrix(10.6612,0,0,10.6612,-2591.66,-717.102)">
                <path d="M257.614,78.59L258.104,78.892C260.578,79.606 261.126,82.946 259.059,84.424C259.059,84.424 257.99,85.689 257.65,85.29C257.557,85.181 256.821,84.816 256.756,84.701C256.617,84.454 257.136,84.28 257.32,84.064L258.187,83.203C258.973,82.641 258.8,81.565 258.282,80.869C257.488,79.801 255.484,79.719 255.093,78.291C254.839,77.364 254.932,75.644 256.269,75.644L258.171,75.602C263.083,75.604 266.265,81.03 264.123,85.361C263.664,86.288 266.367,84.607 266.367,84.607C266.365,83.3 267.048,82.084 268.165,81.405C267.488,79.998 268.016,78.286 269.369,77.507L269.369,73.044C269.365,71.513 269.709,70.001 270.375,68.622L271.727,69.274C271.159,70.449 270.866,71.739 270.869,73.044L270.869,77.103C271.266,77.102 271.67,77.188 272.036,77.34C272.391,77.488 272.719,77.714 272.991,77.986C273.262,78.258 273.479,78.59 273.636,78.941C274.826,81.597 271.49,84.187 269.161,82.57C268.38,82.937 267.865,83.74 267.868,84.607L275.372,86.107L276.872,86.107C276.872,86.107 261.843,85.998 262.117,85.685C264.496,82.967 262.982,79.008 260.061,77.436C259.414,77.088 258.71,76.734 257.975,76.722C257.338,76.711 257.282,77.155 257.269,77.677C257.262,77.988 257.211,78.474 257.614,78.59ZM294.057,83.202L294.962,83.849C297.263,85.494 279.874,86.107 279.874,86.107L284.376,86.107C284.376,84.937 284.664,83.785 285.215,82.753L286.539,83.459C286.105,84.274 285.877,85.184 285.877,86.107C285.877,86.107 292.071,89.097 291.419,88.63L290.181,87.746C289.343,87.147 288.578,86.288 288.119,85.361C285.983,81.041 289.163,75.591 294.073,75.602L297.375,75.666C297.786,75.666 298.638,75.159 298.636,75.585C298.631,77.246 297.52,79.482 295.924,79.943L294.552,80.335C293.289,80.693 292.964,82.42 294.057,83.202ZM294.14,78.893L295.512,78.5C296.204,78.301 296.758,77.78 297.001,77.103L294.073,77.103C291.497,77.096 289.536,79.029 289.048,81.317C288.815,82.412 288.919,83.589 289.455,84.674C289.811,85.393 290.404,86.06 291.054,86.525L292.291,87.408C293.336,88.157 295.89,86.357 294.089,85.07L293.185,84.424C291.118,82.945 291.667,79.606 294.14,78.893ZM280.624,83.106C280.272,83.106 279.781,83.025 279.461,82.868C278.858,82.573 278.471,82.293 278.113,81.719C277.815,81.241 277.664,80.665 277.664,80.104C277.664,79.544 277.815,78.967 278.113,78.489C279.243,76.678 281.931,76.673 283.11,78.431C283.444,78.928 283.626,79.505 283.626,80.104C283.624,81.75 282.27,83.104 280.624,83.106ZM280.624,81.605C281.781,81.605 282.49,80.275 281.88,79.297C281.701,79.01 281.508,78.87 281.206,78.722C281.046,78.644 280.8,78.603 280.624,78.603C280.448,78.603 280.203,78.644 280.043,78.722C279.741,78.87 279.548,79.01 279.369,79.297C278.759,80.275 279.469,81.604 280.624,81.605ZM269.369,80.104C269.369,81.261 270.699,81.97 271.677,81.36C271.964,81.181 272.104,80.987 272.251,80.686C272.33,80.526 272.37,80.28 272.37,80.104C272.37,79.928 272.33,79.683 272.251,79.522C272.104,79.221 271.964,79.028 271.677,78.849C270.699,78.239 269.37,78.948 269.369,80.104ZM291.13,74.852C291.156,73.812 291.166,72.355 290.954,71.322C290.412,68.678 288.598,66.376 286.167,65.204C284.862,64.575 283.457,64.329 282.025,64.237C279.821,64.096 277.471,64.32 275.483,65.365C274.861,65.692 274.28,66.104 273.756,66.571C273.252,67.022 272.937,67.821 272.217,68.056C271.691,68.227 270.886,67.766 271.147,67.188C271.239,66.986 271.84,66.38 271.879,66.342C273.03,65.23 274.187,64.124 275.753,63.609C281.082,61.856 287.78,62.544 291.021,67.59C292.086,69.248 292.448,70.927 292.616,72.868C292.667,73.454 293.117,75.235 291.939,75.054C291.664,75.012 291.394,74.938 291.13,74.852ZM272.37,73.044C272.623,73.096 272.878,73.139 273.135,73.163C273.261,73.174 273.39,73.169 273.515,73.149C274.128,73.05 273.879,72.8 273.922,72.303C273.943,72.06 273.988,71.816 274.067,71.584C274.221,71.125 274.378,70.662 274.617,70.241C274.897,69.746 275.5,68.967 276.03,68.584C276.093,68.539 276.684,68.389 276.639,68.16C276.582,67.876 276.34,66.939 275.865,66.874C275.76,66.86 275.668,66.956 275.581,67.017C275.412,67.134 275.257,67.27 275.101,67.405C274.429,67.989 274.068,68.318 273.547,69.119C273.296,69.505 273.082,69.917 272.908,70.343C272.559,71.2 272.374,72.119 272.37,73.044ZM279.567,67.348C279.612,67.096 279.648,66.842 279.668,66.587C279.678,66.461 279.673,66.334 279.656,66.209C279.618,65.925 279.613,65.727 279.324,65.785C279.211,65.808 279.102,65.851 278.989,65.87C278.799,65.902 278.605,65.908 278.415,65.939C277.958,66.013 277.965,66.023 277.503,66.08C277.451,66.087 277.349,66.096 277.311,66.155C277.232,66.277 277.292,66.448 277.315,66.591C277.355,66.842 277.45,67.091 277.568,67.314C277.639,67.451 277.699,67.679 277.852,67.677C277.983,67.675 278.081,67.546 278.207,67.512C278.613,67.402 279.148,67.347 279.567,67.348Z" style="fill:none;fill-rule:nonzero;stroke:rgb(0,236,255);stroke-width:0.85px;"/>
            </g>
            <circle cx="200.002" cy="199.998" r="7.998" style="fill:none;"/>
            <circle cx="304.002" cy="199.998" r="7.998" style="fill:none;"/>
            <g transform="matrix(1.45532,-0.963869,0.963869,1.45532,-18.1875,98.2797)">
                <path d="M53.698,5.89C46.933,-0.875 35.432,-1.903 25.503,3.278C23.69,1.714 21.408,0.854 18.99,0.854C16.319,0.854 13.807,1.894 11.919,3.784C8.05,7.652 8.025,13.926 11.834,17.831C11.034,19.809 10.563,21.819 10.425,23.837C10.407,23.909 10.384,23.98 10.38,24.056C10.318,25.14 10.359,26.223 10.489,27.302C10.49,27.307 10.49,27.312 10.49,27.316C10.568,27.961 10.683,28.604 10.829,29.245C10.844,29.311 10.859,29.377 10.875,29.443C11.022,30.058 11.197,30.67 11.406,31.279C11.432,31.356 11.463,31.433 11.49,31.51C11.71,32.128 11.954,32.743 12.238,33.354C13.016,35.026 13.23,36.81 12.842,38.378C12.802,38.54 12.747,38.692 12.7,38.85C12.639,39.057 12.585,39.269 12.513,39.469C12.445,39.66 12.359,39.839 12.28,40.023C12.213,40.181 12.155,40.344 12.08,40.498C11.979,40.707 11.858,40.905 11.742,41.106C11.673,41.225 11.614,41.35 11.541,41.467C11.405,41.683 11.248,41.888 11.094,42.095C11.025,42.188 10.965,42.286 10.893,42.378C10.716,42.601 10.517,42.813 10.318,43.026C10.254,43.095 10.199,43.167 10.132,43.235C9.918,43.452 9.28,44.683 9.197,44.379C9.13,44.135 14.1,46.788 17.953,49.092C17.995,49.117 18.766,48.435 18.807,48.408C19.023,48.264 19.249,48.14 19.474,48.015C19.563,47.965 19.648,47.906 19.739,47.859C19.938,47.756 20.147,47.672 20.354,47.582C20.48,47.527 20.6,47.463 20.729,47.414C20.91,47.344 21.101,47.291 21.288,47.231C21.453,47.178 21.613,47.116 21.782,47.07C23.365,46.64 24.871,46.895 26.024,47.283C26.29,47.373 26.544,47.467 26.769,47.565C26.779,47.569 26.788,47.572 26.798,47.576C27.244,47.768 27.693,47.938 28.142,48.097C28.257,48.138 28.372,48.176 28.488,48.214C28.906,48.354 29.325,48.48 29.746,48.591C29.785,48.601 29.824,48.614 29.864,48.624C31.738,49.104 33.63,49.3 35.512,49.194C35.568,49.191 35.62,49.172 35.674,49.161C40.94,48.821 46.155,46.235 50.908,41.483C61.31,31.079 62.589,14.78 53.698,5.89ZM13.333,5.199C14.844,3.687 16.854,2.855 18.99,2.855C21.126,2.855 23.136,3.687 24.647,5.199C27.766,8.318 27.766,13.393 24.647,16.512C24.456,16.703 24.257,16.882 24.052,17.049C23.979,17.109 23.901,17.16 23.827,17.216C23.692,17.318 23.559,17.423 23.419,17.516C23.325,17.579 23.227,17.632 23.131,17.69C23.006,17.766 22.882,17.844 22.754,17.913C22.646,17.97 22.535,18.018 22.425,18.07C22.304,18.127 22.184,18.188 22.061,18.239C21.943,18.288 21.823,18.328 21.703,18.371C21.584,18.414 21.466,18.459 21.346,18.496C21.22,18.535 21.093,18.565 20.965,18.597C20.848,18.627 20.732,18.658 20.615,18.682C20.481,18.71 20.345,18.729 20.21,18.75C20.099,18.767 19.988,18.786 19.877,18.798C19.732,18.814 19.586,18.822 19.44,18.83C19.339,18.836 19.238,18.843 19.136,18.845C18.978,18.848 18.821,18.843 18.664,18.836C18.575,18.832 18.487,18.83 18.399,18.823C18.228,18.81 18.057,18.79 17.886,18.766C17.814,18.756 17.742,18.747 17.671,18.735C17.485,18.704 17.3,18.665 17.116,18.621C17.063,18.608 17.01,18.596 16.957,18.582C16.756,18.529 16.556,18.468 16.359,18.399C16.327,18.388 16.294,18.377 16.262,18.365C16.047,18.287 15.835,18.2 15.626,18.103C15.613,18.097 15.6,18.091 15.587,18.085C14.907,17.764 14.262,17.342 13.674,16.818L13.457,16.624C13.417,16.585 13.373,16.552 13.333,16.512C10.215,13.393 10.215,8.318 13.333,5.199ZM16.339,47.644C16.309,47.668 11.29,44.905 11.607,44.579C11.635,44.55 11.657,44.519 11.685,44.491C11.971,44.191 12.245,43.885 12.495,43.567C12.535,43.517 12.566,43.462 12.605,43.411C12.835,43.111 13.056,42.806 13.255,42.49C13.303,42.413 13.341,42.329 13.388,42.251C13.565,41.954 13.739,41.656 13.89,41.345C13.936,41.251 13.969,41.151 14.012,41.055C14.15,40.752 14.286,40.448 14.4,40.131C14.437,40.026 14.463,39.914 14.498,39.808C14.6,39.498 14.703,39.188 14.784,38.865C14.786,38.858 14.786,38.851 14.788,38.845C14.788,38.843 14.789,38.841 14.79,38.839C15.29,36.809 15.035,34.621 14.053,32.511C13.939,32.266 13.852,32.02 13.749,31.774C12.954,29.867 12.481,27.929 12.375,25.982L33.582,47.191L33.569,47.191C33.095,47.163 32.621,47.112 32.147,47.043C32.112,47.038 32.077,47.035 32.042,47.029C31.592,46.961 31.143,46.869 30.694,46.764C30.639,46.751 30.584,46.742 30.528,46.728C30.094,46.621 29.661,46.492 29.229,46.351C29.164,46.33 29.099,46.314 29.034,46.292C28.543,46.125 28.053,45.938 27.565,45.727C26.854,45.42 26.14,45.2 25.429,45.052C25.336,45.033 25.243,45.007 25.151,44.991C25.061,44.975 24.972,44.968 24.882,44.954C24.704,44.927 24.526,44.898 24.35,44.882C24.317,44.879 24.283,44.88 24.25,44.877C24.018,44.858 23.787,44.844 23.557,44.842C23.55,44.842 23.543,44.843 23.536,44.843C23.281,44.842 23.028,44.851 22.776,44.871C22.704,44.877 22.634,44.89 22.563,44.898C22.377,44.918 22.192,44.937 22.009,44.969C21.801,45.005 21.596,45.054 21.391,45.106C21.348,45.117 21.305,45.123 21.262,45.135L21.261,45.135C21.257,45.136 21.253,45.137 21.249,45.138C20.853,45.246 20.471,45.374 20.098,45.514C20.07,45.524 20.039,45.532 20.011,45.542C19.64,45.684 19.283,45.846 18.934,46.021C18.903,46.037 18.869,46.048 18.839,46.064C18.508,46.233 18.191,46.423 17.878,46.623C17.833,46.652 17.784,46.675 17.738,46.704C17.415,46.917 16.645,47.397 16.339,47.644ZM36.335,47.124C36.326,47.115 36.322,47.103 36.313,47.094L12.479,23.26C12.476,23.257 12.471,23.255 12.468,23.252C12.625,21.89 12.933,20.528 13.435,19.169C13.909,19.486 14.407,19.751 14.918,19.978C14.939,19.987 14.959,19.998 14.98,20.007C15.202,20.104 15.427,20.19 15.654,20.271C15.716,20.293 15.778,20.315 15.841,20.336C16.047,20.404 16.254,20.465 16.464,20.519C16.551,20.542 16.638,20.562 16.725,20.583C16.92,20.628 17.116,20.67 17.313,20.703C17.417,20.721 17.522,20.734 17.627,20.748C17.813,20.774 17.999,20.799 18.187,20.814C18.306,20.824 18.425,20.826 18.544,20.831C18.693,20.838 18.842,20.852 18.992,20.852C19.02,20.852 19.047,20.848 19.074,20.848C19.229,20.847 19.384,20.834 19.539,20.826C19.787,20.813 20.033,20.791 20.28,20.759C20.462,20.736 20.644,20.714 20.824,20.681C20.952,20.657 21.078,20.625 21.205,20.596C21.376,20.558 21.546,20.519 21.715,20.472C21.842,20.436 21.968,20.394 22.094,20.353C22.26,20.299 22.425,20.243 22.588,20.18C22.712,20.132 22.835,20.081 22.957,20.028C23.12,19.958 23.281,19.883 23.44,19.804C23.558,19.746 23.674,19.686 23.79,19.623C23.953,19.534 24.113,19.437 24.273,19.338C24.379,19.272 24.485,19.208 24.589,19.138C24.762,19.021 24.93,18.894 25.097,18.765C25.181,18.7 25.267,18.64 25.349,18.572C25.595,18.369 25.834,18.156 26.064,17.926C26.298,17.692 26.516,17.448 26.722,17.198C26.794,17.11 26.856,17.018 26.925,16.929C27.053,16.762 27.18,16.596 27.296,16.424C27.37,16.313 27.436,16.199 27.505,16.086C27.602,15.929 27.699,15.772 27.786,15.611C27.853,15.487 27.913,15.36 27.974,15.233C28.049,15.078 28.124,14.923 28.191,14.765C28.248,14.631 28.298,14.495 28.349,14.359C28.407,14.204 28.462,14.049 28.512,13.892C28.557,13.75 28.598,13.607 28.636,13.463C28.677,13.309 28.715,13.155 28.749,13C28.781,12.851 28.811,12.702 28.837,12.552C28.863,12.4 28.884,12.248 28.903,12.096C28.922,11.941 28.94,11.786 28.952,11.631C28.963,11.483 28.968,11.336 28.973,11.188C28.978,11.027 28.984,10.866 28.982,10.706C28.98,10.565 28.97,10.425 28.962,10.284C28.952,10.117 28.945,9.95 28.927,9.783C28.913,9.655 28.891,9.527 28.872,9.399C28.846,9.221 28.823,9.043 28.788,8.867C28.769,8.774 28.742,8.683 28.721,8.591C28.561,7.901 28.327,7.226 28.02,6.576C27.976,6.483 27.937,6.388 27.89,6.295C27.805,6.129 27.708,5.968 27.613,5.806C27.544,5.694 27.482,5.581 27.412,5.472C27.317,5.324 27.213,5.181 27.11,5.037C27.049,4.951 26.995,4.862 26.93,4.778C32.929,1.796 39.475,1.225 44.964,2.944C47.745,3.815 50.254,5.273 52.284,7.304C60.407,15.427 59.13,30.431 49.494,40.067C45.292,44.269 40.844,46.629 36.335,47.124Z" style="fill:none;fill-rule:nonzero;"/>
                <path d="M14.991,10.855C14.991,8.649 16.785,6.855 18.991,6.855C19.544,6.855 19.991,6.408 19.991,5.855C19.991,5.302 19.544,4.855 18.991,4.855C15.682,4.855 12.991,7.546 12.991,10.855C12.991,11.408 13.438,11.855 13.991,11.855C14.544,11.855 14.991,11.408 14.991,10.855Z" style="fill:none;fill-rule:nonzero;"/>
            </g>
            <g transform="matrix(0.0943585,-0.15811,0.15811,0.0943585,412.103,117.337)">
                <path d="M138.024,398.879C139.738,398.879 141.128,397.489 141.128,395.775C141.128,394.061 139.738,392.67 138.024,392.67C136.31,392.67 134.92,394.06 134.92,395.775C134.92,397.49 136.31,398.879 138.024,398.879Z" style="fill:none;fill-rule:nonzero;"/>
                <path d="M128.394,388.496C130.108,388.496 131.498,387.106 131.498,385.391C131.498,383.677 130.108,382.286 128.394,382.286C128.003,382.286 127.631,382.367 127.286,382.499L125.483,384.343C125.365,384.672 125.289,385.022 125.289,385.391C125.289,387.106 126.679,388.496 128.394,388.496Z" style="fill:none;fill-rule:nonzero;"/>
                <path d="M118.01,398.879C119.724,398.879 121.114,397.489 121.114,395.775C121.114,394.061 119.724,392.67 118.01,392.67C117.74,392.67 117.484,392.715 117.236,392.779L114.991,395.074C114.939,395.299 114.905,395.532 114.905,395.774C114.905,397.49 116.295,398.879 118.01,398.879Z" style="fill:none;fill-rule:nonzero;"/>
                <path d="M128.394,408.51C130.108,408.51 131.498,407.12 131.498,405.406C131.498,403.692 130.108,402.301 128.394,402.301C126.68,402.301 125.29,403.691 125.29,405.406C125.289,407.12 126.679,408.51 128.394,408.51Z" style="fill:none;fill-rule:nonzero;"/>
                <path d="M118.01,418.894C119.724,418.894 121.114,417.504 121.114,415.789C121.114,414.075 119.724,412.684 118.01,412.684C116.295,412.684 114.905,414.074 114.905,415.789C114.905,417.505 116.295,418.894 118.01,418.894Z" style="fill:none;fill-rule:nonzero;"/>
                <path d="M108.38,408.51C110.094,408.51 111.484,407.12 111.484,405.406C111.484,403.692 110.094,402.301 108.38,402.301C108.207,402.301 108.042,402.325 107.878,402.352L105.318,404.969C105.298,405.114 105.274,405.256 105.274,405.406C105.274,407.12 106.664,408.51 108.38,408.51Z" style="fill:none;fill-rule:nonzero;"/>
                <path d="M97.995,438.908C99.709,438.908 101.099,437.518 101.099,435.804C101.099,434.09 99.709,432.699 97.995,432.699C96.281,432.699 94.891,434.089 94.891,435.804C94.891,437.519 96.281,438.908 97.995,438.908Z" style="fill:none;fill-rule:nonzero;"/>
                <path d="M88.365,428.525C90.079,428.525 91.469,427.135 91.469,425.42C91.469,423.706 90.079,422.315 88.365,422.315L88.361,422.315L85.267,425.48C85.3,427.168 86.671,428.525 88.365,428.525Z" style="fill:none;fill-rule:nonzero;"/>
                <path d="M77.981,438.908C79.695,438.908 81.085,437.518 81.085,435.804C81.085,434.161 79.804,432.83 78.189,432.72L74.903,436.08C75.046,437.663 76.361,438.908 77.981,438.908Z" style="fill:none;fill-rule:nonzero;"/>
                <path d="M88.365,448.539C90.079,448.539 91.469,447.149 91.469,445.435C91.469,443.721 90.079,442.33 88.365,442.33C86.651,442.33 85.261,443.72 85.261,445.435C85.26,447.149 86.65,448.539 88.365,448.539Z" style="fill:none;fill-rule:nonzero;"/>
                <path d="M77.981,458.923C79.695,458.923 81.085,457.533 81.085,455.818C81.085,454.104 79.695,452.713 77.981,452.713C76.266,452.713 74.876,454.103 74.876,455.818C74.876,457.534 76.266,458.923 77.981,458.923Z" style="fill:none;fill-rule:nonzero;"/>
                <path d="M68.755,442.371L65.293,445.911C65.524,447.398 66.798,448.539 68.35,448.539C70.064,448.539 71.454,447.149 71.454,445.435C71.455,443.859 70.276,442.572 68.755,442.371Z" style="fill:none;fill-rule:nonzero;"/>
                <path d="M488.655,408.51C490.369,408.51 491.759,407.12 491.759,405.406C491.759,403.692 490.369,402.301 488.655,402.301C487.998,402.301 487.39,402.508 486.888,402.857C487.253,404.669 487.55,406.506 487.769,408.366C488.052,408.451 488.345,408.51 488.655,408.51Z" style="fill:none;fill-rule:nonzero;"/>
                <path d="M488.655,422.315C488.42,422.315 488.192,422.346 487.972,422.396C487.803,424.342 487.553,426.264 487.227,428.16C487.656,428.385 488.138,428.524 488.655,428.524C490.369,428.524 491.759,427.134 491.759,425.419C491.759,423.706 490.369,422.315 488.655,422.315Z" style="fill:none;fill-rule:nonzero;"/>
                <path d="M488.655,442.33C486.941,442.33 485.551,443.72 485.551,445.435C485.551,447.149 486.941,448.539 488.655,448.539C490.369,448.539 491.759,447.149 491.759,445.435C491.759,443.721 490.369,442.33 488.655,442.33Z" style="fill:none;fill-rule:nonzero;"/>
                <path d="M478.271,452.714C478.118,452.714 477.972,452.738 477.826,452.759C477.015,454.056 476.159,455.322 475.264,456.559C475.598,457.915 476.813,458.923 478.271,458.923C479.985,458.923 481.375,457.533 481.375,455.818C481.375,454.104 479.986,452.714 478.271,452.714Z" style="fill:none;fill-rule:nonzero;"/>
                <path d="M488.655,462.344C486.941,462.344 485.551,463.734 485.551,465.449C485.551,467.164 486.941,468.554 488.655,468.554C490.369,468.554 491.759,467.164 491.759,465.449C491.759,463.735 490.369,462.344 488.655,462.344Z" style="fill:none;fill-rule:nonzero;"/>
                <path d="M478.271,472.729C476.556,472.729 475.166,474.119 475.166,475.834C475.166,477.548 476.556,478.938 478.271,478.938C479.985,478.938 481.375,477.548 481.375,475.834C481.375,474.119 479.986,472.729 478.271,472.729Z" style="fill:none;fill-rule:nonzero;"/>
                <path d="M470.203,462.78C468.854,464.25 467.443,465.662 465.971,467.009C466.51,467.929 467.497,468.554 468.64,468.554C470.354,468.554 471.744,467.164 471.744,465.449C471.745,464.307 471.121,463.32 470.203,462.78Z" style="fill:none;fill-rule:nonzero;"/>
                <path d="M458.74,472.778C457.603,473.568 456.448,474.338 455.261,475.059C455.197,475.308 455.152,475.565 455.152,475.833C455.152,477.547 456.542,478.937 458.256,478.937C459.97,478.937 461.36,477.547 461.36,475.833C461.36,474.285 460.223,473.012 458.74,472.778Z" style="fill:none;fill-rule:nonzero;"/>
                <path d="M468.641,482.359C466.926,482.359 465.536,483.749 465.536,485.464C465.536,487.178 466.926,488.568 468.641,488.568C470.355,488.568 471.745,487.178 471.745,485.464C471.745,483.75 470.355,482.359 468.641,482.359Z" style="fill:none;fill-rule:nonzero;"/>
                <path d="M448.626,482.359C446.912,482.359 445.522,483.749 445.522,485.464C445.522,487.178 446.912,488.568 448.626,488.568C450.34,488.568 451.73,487.178 451.73,485.464C451.73,483.75 450.34,482.359 448.626,482.359Z" style="fill:none;fill-rule:nonzero;"/>
                <path d="M428.612,488.568C430.326,488.568 431.716,487.178 431.716,485.464C431.716,484.93 431.569,484.436 431.333,483.998C429.447,484.321 427.537,484.567 425.602,484.733C425.545,484.968 425.507,485.211 425.507,485.464C425.506,487.178 426.896,488.568 428.612,488.568Z" style="fill:none;fill-rule:nonzero;"/>
                <path d="M411.539,484.52C409.699,484.302 407.883,484.007 406.09,483.645C405.718,484.158 405.492,484.782 405.492,485.464C405.492,487.178 406.882,488.568 408.596,488.568C410.31,488.568 411.7,487.178 411.7,485.464C411.701,485.132 411.635,484.818 411.539,484.52Z" style="fill:none;fill-rule:nonzero;"/>
                <path d="M216.558,338.325C198.298,326.607 183.659,311.975 173.049,294.837C172.2,293.464 170.614,292.721 169.017,292.962C167.42,293.197 166.115,294.36 165.697,295.919L149.312,357.068C148.938,358.465 149.337,359.956 150.36,360.978C151.13,361.748 152.163,362.163 153.223,362.163C153.572,362.163 153.925,362.118 154.271,362.025L215.42,345.64C216.968,345.226 218.126,343.936 218.373,342.353C218.618,340.77 217.907,339.191 216.558,338.325ZM158.947,352.39L171.201,306.66C180.248,319.316 191.5,330.519 204.791,340.107L158.947,352.39Z" style="fill:none;fill-rule:nonzero;"/>
                <path d="M440.679,71.319C414.174,44.813 376.876,32.343 335.647,36.201C294.708,40.036 254.757,59.551 223.156,91.152C157.716,156.591 148.819,254.171 203.321,308.675C227.323,332.676 259.667,344.381 293.952,344.381C337.524,344.381 384.223,325.463 420.845,288.84C486.284,223.402 495.182,125.822 440.679,71.319ZM214.554,308.081C212.672,306.441 210.832,304.736 209.046,302.951C205.992,299.896 203.159,296.693 200.529,293.364L214.554,293.364L214.554,308.081ZM214.554,285.268L194.714,285.268C185.04,270.419 179.1,253.468 176.788,235.532L214.554,235.532L214.554,285.268ZM214.554,227.435L175.997,227.435C174.674,207.881 177.519,187.389 184.393,167.34L214.554,167.34L214.554,227.435ZM214.554,159.244L187.396,159.244C193.841,143.13 202.918,127.434 214.554,112.889L214.554,159.244ZM281.451,335.752C259.909,333.796 239.616,326.722 222.451,314.347L222.651,314.347L222.651,293.363L281.451,293.363L281.451,335.752ZM281.451,285.268L222.651,285.268L222.651,235.532L281.451,235.532L281.451,285.268ZM281.451,227.435L222.651,227.435L222.651,167.34L281.451,167.34L281.451,227.435ZM281.451,159.244L222.651,159.244L222.651,107.352L281.451,107.352L281.451,159.244ZM281.451,99.254L226.553,99.254C227.323,98.458 228.094,97.663 228.881,96.877C244.597,81.161 262.451,68.576 281.451,59.587L281.451,99.254ZM343.599,327.969C325.586,334.013 307.236,336.801 289.547,336.246L289.547,293.364L343.599,293.364L343.599,327.969ZM343.599,285.268L289.547,285.268L289.547,235.532L343.599,235.532L343.599,285.268ZM343.599,227.435L289.547,227.435L289.547,167.34L343.599,167.34L343.599,227.435ZM343.599,159.244L289.547,159.244L289.547,107.352L343.599,107.352L343.599,159.244ZM343.599,99.254L289.547,99.254L289.547,55.996C304.701,49.744 320.478,45.755 336.402,44.264C338.817,44.038 341.215,43.874 343.599,43.766L343.599,99.254ZM416.434,62.145C423.09,66.41 429.291,71.38 434.954,77.043C441.7,83.79 447.396,91.25 452.078,99.254L416.434,99.254L416.434,62.145ZM416.434,107.351L456.384,107.351C464.006,123.23 467.942,140.897 468.294,159.243L416.434,159.243L416.434,107.351ZM351.696,325.017L351.696,293.364L404.037,293.364C387.824,307.243 370.018,317.827 351.696,325.017ZM408.337,285.268L351.696,285.268L351.696,235.532L408.337,235.532L408.337,285.268ZM408.337,227.435L351.696,227.435L351.696,167.34L408.337,167.34L408.337,227.435ZM408.337,159.244L351.696,159.244L351.696,107.352L408.337,107.352L408.337,159.244ZM408.337,99.254L351.696,99.254L351.696,43.63C372.322,43.85 391.555,48.567 408.337,57.428L408.337,99.254ZM416.434,281.774L416.434,235.531L449.891,235.531C441.524,251.914 430.341,267.6 416.434,281.774ZM453.767,227.435L416.434,227.435L416.434,167.34L468.215,167.34C467.471,187.24 462.611,207.729 453.767,227.435Z" style="fill:none;fill-rule:nonzero;"/>
                <path d="M511.15,173.039C515.896,122.37 500.578,76.534 468.02,43.977C435.462,11.418 389.623,-3.897 338.958,0.846C288.574,5.564 239.4,29.588 200.495,68.493C177.324,91.663 159.549,118.201 147.663,147.37C136.303,175.248 130.954,204.756 132.196,232.709L132.432,237.83C137.158,305.371 121.849,344.769 116.968,355.395C111.897,354.028 106.253,355.317 102.28,359.291L35.094,427.062C29.182,432.973 51.445,449.259 57.356,455.169C57.356,455.169 81.142,479.72 84.006,476.855L152.707,409.715C156.695,405.728 157.98,400.056 156.588,394.97C167.209,390.08 206.367,374.864 273.802,379.586C273.844,379.589 273.887,379.591 273.929,379.593L278.974,379.786C306.962,381.078 336.527,375.757 364.466,364.398C393.696,352.513 420.289,334.717 443.505,311.5C482.409,272.597 506.433,223.423 511.15,173.039ZM108.006,365.016C109.383,363.639 111.193,362.951 113.001,362.951C114.809,362.951 116.62,363.639 117.997,365.016L146.981,394C148.314,395.335 149.05,397.109 149.05,398.996C149.05,400.175 148.763,401.31 148.223,402.321C146.597,402.419 145.304,403.756 145.304,405.407C145.304,405.489 145.321,405.566 145.327,405.646L138.264,412.709C138.184,412.703 138.107,412.686 138.025,412.686C136.311,412.686 134.921,414.076 134.921,415.791C134.921,415.873 134.938,415.95 134.944,416.03L128.634,422.341C128.554,422.335 128.477,422.318 128.395,422.318C126.681,422.318 125.291,423.708 125.291,425.423C125.291,425.505 125.308,425.582 125.314,425.662L118.564,432.413L111.476,425.325C111.424,423.691 110.114,422.381 108.48,422.329L100.912,414.763C100.6,413.882 99.908,413.19 99.028,412.878L79.588,393.435L108.006,365.016ZM108.619,442.354C108.539,442.348 108.462,442.331 108.38,442.331C106.665,442.331 105.275,443.721 105.275,445.436C105.275,445.518 105.292,445.595 105.298,445.675L98.234,452.738C98.154,452.732 98.077,452.715 97.995,452.715C96.281,452.715 94.891,454.105 94.891,455.82C94.891,455.902 94.908,455.979 94.914,456.059L88.603,462.37C88.523,462.364 88.446,462.347 88.364,462.347C86.65,462.347 85.26,463.737 85.26,465.452C85.26,465.533 85.277,465.611 85.283,465.69L79.936,471.037L40.962,432.064L73.863,399.162L112.837,438.136L108.619,442.354ZM279.315,371.698L274.302,371.505C203.039,366.53 162.942,382.878 152.395,387.966L123.987,359.557C129.077,348.973 145.502,308.627 140.514,237.362L140.283,232.343C137.791,176.248 161.823,118.613 206.219,74.217C283.578,-3.142 398.455,-14.14 462.294,49.701C526.134,113.541 515.136,228.416 437.777,305.776C393.288,350.268 335.539,374.306 279.315,371.698Z" style="fill:none;fill-rule:nonzero;"/>
            </g>
        </g>
    </g>
</svg>
