<svg width="512" height="512" viewBox="0 0 512 512" fill="none" xmlns="http://www.w3.org/2000/svg">
<path d="M416 144V124.73C415.972 100.145 406.193 76.5752 388.809 59.191C371.425 41.8068 347.855 32.0281 323.27 32H292.73C277.543 31.996 262.588 35.7227 249.179 42.8526C235.771 49.9825 224.319 60.2972 215.83 72.89L202.572 63.933C212.525 49.1702 225.951 37.0782 241.672 28.7203C257.393 20.3623 274.926 15.9942 292.73 16H323.27C352.097 16.0326 379.734 27.4985 400.118 47.8822C420.502 68.266 431.967 95.903 432 124.73V144H416ZM216 124.73H232C232.043 114.249 234.78 103.955 239.947 94.8364C245.115 85.7177 252.54 78.0805 261.509 72.658L253.255 58.951C241.928 65.8029 232.553 75.4514 226.029 86.9704C219.505 98.4893 216.051 111.492 216 124.73ZM292.73 64V48C284.485 47.9927 276.293 49.3199 268.472 51.93L273.54 67.105C279.727 65.0421 286.208 63.9936 292.73 64ZM304 232C297.671 232 291.484 230.123 286.222 226.607C280.959 223.091 276.858 218.093 274.436 212.246C272.014 206.399 271.38 199.965 272.615 193.757C273.85 187.55 276.897 181.848 281.373 177.373C285.848 172.897 291.55 169.85 297.757 168.615C303.965 167.38 310.399 168.014 316.246 170.436C322.093 172.858 327.091 176.959 330.607 182.222C334.123 187.484 336 193.671 336 200C335.99 208.484 332.616 216.618 326.617 222.617C320.618 228.616 312.484 231.99 304 232ZM304 216C307.164 216 310.258 215.062 312.889 213.304C315.52 211.545 317.571 209.047 318.782 206.123C319.993 203.199 320.31 199.982 319.693 196.879C319.075 193.775 317.551 190.924 315.314 188.686C313.076 186.449 310.225 184.925 307.121 184.307C304.018 183.69 300.801 184.007 297.877 185.218C294.953 186.429 292.455 188.48 290.696 191.111C288.938 193.742 288 196.835 288 200C288.005 204.242 289.692 208.309 292.692 211.308C295.691 214.308 299.758 215.995 304 216ZM113.854 248.722C118.202 240.281 120.306 230.863 119.964 221.374C119.622 211.885 116.846 202.644 111.902 194.537C106.957 186.431 100.012 179.732 91.7315 175.085C83.4513 170.438 74.1152 167.998 64.62 168H33.4C34.6791 171.563 36.7853 174.771 39.5455 177.361C42.3058 179.951 45.6413 181.85 49.278 182.9L63.91 187.081C70.8465 189.082 76.9502 193.272 81.31 199.026C85.674 204.778 88.0254 211.806 88.002 219.026C87.998 224.313 86.7338 229.524 84.3142 234.225C81.8947 238.926 78.3894 242.983 74.089 246.059L64.453 252.945C48.8158 264.123 37.8865 280.709 33.784 299.488L18.153 296.073C23.1019 273.419 36.2876 253.41 55.153 239.926L64.792 233.037C67.0216 231.442 68.8386 229.339 70.0922 226.901C71.3458 224.463 71.9998 221.761 72 219.02C71.9999 215.277 70.7805 211.636 68.5264 208.649C66.2722 205.661 63.106 203.489 59.507 202.461L44.882 198.282C36.5759 195.882 29.2716 190.854 24.0644 183.952C18.8571 177.05 16.0276 168.646 16 160C16 157.878 16.8429 155.843 18.3431 154.343C19.8434 152.843 21.8783 152 24 152H64.62C79.7411 152.005 94.47 156.811 106.684 165.725C118.898 174.64 127.966 187.202 132.581 201.602C137.196 216.001 137.119 231.494 132.362 245.848C127.606 260.201 118.414 272.673 106.113 281.467L92.919 290.89C89.4761 293.355 86.5766 296.502 84.4004 300.135C82.2242 303.767 80.8176 307.808 80.268 312.007C91.5699 312.074 102.588 315.554 111.877 321.992C121.167 328.429 128.295 337.523 132.326 348.082C138.245 345.069 143.215 340.477 146.687 334.815C150.159 329.154 151.998 322.642 152 316V248C151.99 241.143 153.749 234.4 157.106 228.421C160.463 222.442 165.305 217.43 171.164 213.868C167.665 206.599 167.043 198.275 169.424 190.567C171.804 182.859 177.011 176.335 184 172.305V124.73C183.957 108.406 187.625 92.2855 194.727 77.587L209.141 84.533C203.087 97.0662 199.962 110.811 200 124.73V168C205.022 167.995 209.975 169.172 214.458 171.436C218.941 173.701 222.828 176.988 225.805 181.033C228.782 185.078 230.764 189.767 231.593 194.721C232.422 199.674 232.073 204.753 230.574 209.547C229.076 214.34 226.471 218.714 222.969 222.314C219.466 225.913 215.166 228.638 210.416 230.268C205.665 231.898 200.598 232.387 195.624 231.695C190.649 231.003 185.907 229.15 181.782 226.286C179.275 227.467 176.99 229.07 175.027 231.026C172.792 233.25 171.02 235.896 169.813 238.809C168.607 241.723 167.991 244.847 168 248V316C167.994 326.294 164.937 336.356 159.213 344.912C153.49 353.469 145.359 360.137 135.847 364.073C135.938 365.373 136 366.678 136 368V400C136.002 405.557 137.451 411.018 140.204 415.845C142.956 420.672 146.918 424.7 151.699 427.531C156.481 430.363 161.917 431.901 167.473 431.995C173.029 432.089 178.514 430.735 183.388 428.066L191.097 442.086C183.787 446.095 175.559 448.131 167.222 447.994C158.886 447.856 150.729 445.551 143.555 441.304C136.38 437.057 130.436 431.015 126.305 423.773C122.175 416.53 120.002 408.337 120 400V368C119.988 357.395 115.77 347.228 108.271 339.729C100.772 332.23 90.605 328.012 80 328H33.4C34.6793 331.562 36.7854 334.77 39.5454 337.361C42.3055 339.951 45.6407 341.849 49.277 342.9L70.597 348.991C75.6029 350.439 80.0046 353.471 83.1422 357.631C86.2798 361.792 87.9842 366.858 88 372.069V400C88 421.217 96.4285 441.566 111.431 456.569C126.434 471.571 146.783 480 168 480C189.217 480 209.566 471.571 224.569 456.569C239.571 441.566 248 421.217 248 400V264H264V400C263.977 424.934 254.254 448.882 236.887 466.774C219.521 484.666 195.874 495.1 170.952 495.866C146.029 496.633 121.786 487.672 103.353 470.881C84.9193 454.09 73.7424 430.786 72.187 405.9C62.2166 401.041 53.1271 394.552 45.293 386.7C41.3486 382.756 37.7385 378.491 34.5 373.95L47.531 364.668C54.0766 373.857 62.3966 381.641 72 387.561V372.069C71.9946 370.332 71.4265 368.644 70.3808 367.257C69.3352 365.87 67.8683 364.86 66.2 364.377L44.88 358.286C36.5741 355.884 29.2703 350.855 24.0636 343.953C18.8568 337.05 16.0276 328.646 16 320C16 317.878 16.8429 315.843 18.3431 314.343C19.8434 312.843 21.8783 312 24 312H64.192C64.7734 305.245 66.8112 298.697 70.1652 292.805C73.5192 286.913 78.1097 281.817 83.621 277.869L96.811 268.45C103.974 263.317 109.816 256.555 113.854 248.722ZM184 200C184 203.165 184.938 206.258 186.696 208.889C188.455 211.52 190.953 213.571 193.877 214.782C196.801 215.993 200.018 216.31 203.121 215.693C206.225 215.075 209.076 213.551 211.314 211.314C213.551 209.076 215.075 206.225 215.693 203.121C216.31 200.018 215.993 196.801 214.782 193.877C213.571 190.953 211.52 188.455 208.889 186.696C206.258 184.938 203.165 184 200 184C195.758 184.005 191.691 185.692 188.692 188.692C185.692 191.691 184.005 195.758 184 200ZM193.6 419.2L206.392 428.811C212.655 420.514 216.029 410.395 216 400V264H200V316C200.026 332.567 195.142 348.77 185.965 362.564C176.789 376.357 163.731 387.122 148.441 393.5L154.623 408.258C173.231 400.486 189.051 387.263 200 370.329V400C200.021 406.927 197.773 413.671 193.6 419.2ZM443.468 208.656C441.206 211.636 439.987 215.278 440 219.02C440.001 221.759 440.656 224.459 441.909 226.895C443.162 229.331 444.978 231.433 447.206 233.027L456.852 239.921C468.958 248.574 478.825 259.991 485.634 273.222C492.443 286.454 495.996 301.119 496 316C495.994 330.938 492.645 345.686 486.196 359.16C479.748 372.635 470.365 384.495 458.735 393.871L448.69 381.417C456.836 374.854 463.681 366.823 468.869 357.739C468.293 357.933 467.711 358.117 467.122 358.286L445.8 364.377C444.132 364.86 442.665 365.87 441.619 367.257C440.573 368.644 440.005 370.332 440 372.069V400C440.004 423.117 431.663 445.459 416.51 462.917L404.43 452.426C417.055 437.878 424.005 419.262 424 400V372.069C424.016 366.858 425.721 361.792 428.86 357.631C431.998 353.47 436.401 350.439 441.407 348.992L462.726 342.901C466.362 341.85 469.696 339.951 472.456 337.36C475.215 334.77 477.321 331.562 478.6 328H432C421.395 328.012 411.228 332.23 403.729 339.729C396.23 347.228 392.012 357.395 392 368V400C392 412.73 386.943 424.939 377.941 433.941C368.939 442.943 356.73 448 344 448C331.27 448 319.061 442.943 310.059 433.941C301.057 424.939 296 412.73 296 400V264H312V316C312.055 334.785 318.382 353.013 329.976 367.792C341.571 382.572 357.769 393.056 376 397.581V368C376 366.678 376.062 365.372 376.153 364.073C366.641 360.137 358.51 353.469 352.786 344.912C347.063 336.356 344.006 326.294 344 316V264C344 251.525 347.071 239.242 352.942 228.235L367.06 235.765C362.425 244.455 360.001 254.152 360 264V316C360.001 322.642 361.839 329.154 365.311 334.816C368.784 340.478 373.754 345.069 379.674 348.081C383.706 337.523 390.833 328.429 400.123 321.991C409.412 315.554 420.43 312.074 431.732 312.007C431.182 307.808 429.776 303.768 427.6 300.135C425.424 296.503 422.525 293.356 419.082 290.891L405.891 281.47C395.761 274.238 387.698 264.482 382.502 253.172C377.306 241.861 375.158 229.388 376.271 216.991C377.383 204.594 381.718 192.703 388.845 182.499C395.972 172.294 405.644 164.131 416.9 158.818C416.983 158.779 417.067 158.741 417.151 158.705C426.609 154.265 436.932 151.976 447.38 152H488C490.122 152 492.157 152.843 493.657 154.343C495.157 155.843 496 157.878 496 160C495.972 168.646 493.143 177.05 487.935 183.953C482.727 190.855 475.423 195.882 467.116 198.282L452.488 202.462C448.885 203.484 445.716 205.66 443.468 208.656ZM373.068 413.345C347.882 407.351 325.995 391.836 312 370.055V400C311.998 407.3 314.493 414.381 319.07 420.067C323.648 425.754 330.032 429.704 337.163 431.262C344.295 432.821 351.745 431.893 358.277 428.634C364.809 425.375 370.03 419.98 373.073 413.345H373.068ZM424 219.02C423.979 211.799 426.333 204.771 430.7 199.02C435.058 193.27 441.158 189.082 448.09 187.083L462.725 182.9C466.361 181.849 469.696 179.951 472.456 177.361C475.216 174.77 477.321 171.562 478.6 168H447.38C439.208 167.979 431.134 169.784 423.748 173.283C423.676 173.317 423.604 173.35 423.53 173.383C414.836 177.538 407.375 183.888 401.884 191.807C396.394 199.726 393.063 208.939 392.222 218.539C391.38 228.138 393.056 237.791 397.084 246.544C401.113 255.298 407.354 262.85 415.193 268.454L428.38 277.871C433.891 281.819 438.481 286.914 441.835 292.806C445.189 298.698 447.227 305.246 447.808 312H479.888C479.287 300.357 476.067 289 470.469 278.775C464.87 268.549 457.036 259.718 447.551 252.94L437.908 246.049C433.609 242.973 430.105 238.917 427.686 234.216C425.267 229.516 424.004 224.306 424 219.02ZM344 480C329.562 480.004 315.393 476.101 302.994 468.704C290.595 461.307 280.429 450.693 273.574 437.986L259.5 445.6C266.297 458.19 275.822 469.101 287.377 477.537C298.933 485.973 312.228 491.72 326.29 494.358C340.352 496.995 354.826 496.458 368.653 492.784C382.48 489.11 395.312 482.392 406.21 473.122L395.837 460.941C381.367 473.244 362.993 480 344 480Z" fill="white"/>
<path d="M200.002 207.996C204.419 207.996 208 204.415 208 199.998C208 195.581 204.419 192 200.002 192C195.585 192 192.004 195.581 192.004 199.998C192.004 204.415 195.585 207.996 200.002 207.996Z" fill="white"/>
<path d="M304.002 207.996C308.419 207.996 312 204.415 312 199.998C312 195.581 308.419 192 304.002 192C299.585 192 296.004 195.581 296.004 199.998C296.004 204.415 299.585 207.996 304.002 207.996Z" fill="white"/>
</svg>
