<svg width="3" height="3" viewBox="0 0 3 3" fill="none" xmlns="http://www.w3.org/2000/svg">
<path d="M0.535414 1.61105L0.552907 1.6227C0.641231 1.65022 0.660795 1.77898 0.587001 1.83595C0.587001 1.83595 0.548837 1.88472 0.536699 1.86934C0.533378 1.86513 0.507103 1.85106 0.504783 1.84663C0.49982 1.83711 0.518349 1.8304 0.524918 1.82207L0.555871 1.78888C0.583931 1.76722 0.577755 1.72574 0.559262 1.69891C0.530916 1.65774 0.459371 1.65458 0.445412 1.59953C0.436344 1.56379 0.439664 1.49749 0.487396 1.49749L0.555299 1.49587C0.730661 1.49595 0.844261 1.70512 0.76779 1.87207C0.751403 1.90781 0.847903 1.84301 0.847903 1.84301C0.847832 1.79262 0.872216 1.74575 0.912094 1.71957C0.887924 1.66533 0.906774 1.59934 0.955077 1.56931V1.39726C0.954934 1.33824 0.967216 1.27995 0.990992 1.22679L1.03926 1.25193C1.01898 1.29722 1.00852 1.34695 1.00863 1.39726V1.55373C1.0228 1.55369 1.03723 1.55701 1.05029 1.56287C1.06297 1.56857 1.07468 1.57729 1.08439 1.58777C1.09406 1.59826 1.10181 1.61105 1.10741 1.62459C1.1499 1.72697 1.0308 1.82682 0.947652 1.76448C0.91977 1.77863 0.901384 1.80958 0.901491 1.84301L1.16939 1.90083H1.22294C1.22294 1.90083 0.686393 1.89663 0.696175 1.88456C0.781107 1.77979 0.727056 1.62717 0.622774 1.56657C0.599675 1.55315 0.574542 1.53951 0.548302 1.53904C0.52556 1.53862 0.523561 1.55574 0.523097 1.57586C0.522847 1.58785 0.521027 1.60658 0.535414 1.61105ZM1.83646 1.78884L1.86877 1.81379C1.95092 1.8772 1.33011 1.90083 1.33011 1.90083H1.49084C1.49084 1.85573 1.50112 1.81132 1.52079 1.77154L1.56806 1.79875C1.55257 1.83017 1.54443 1.86525 1.54443 1.90083C1.54443 1.90083 1.76556 2.01609 1.74228 1.99809L1.69808 1.96401C1.66817 1.94092 1.64086 1.90781 1.62447 1.87207C1.54821 1.70554 1.66174 1.49544 1.83703 1.49587L1.95492 1.49834C1.96959 1.49834 2.00001 1.47879 1.99993 1.49521C1.99976 1.55924 1.96009 1.64544 1.90311 1.66321L1.85413 1.67832C1.80904 1.69212 1.79744 1.7587 1.83646 1.78884ZM1.83942 1.62274L1.88841 1.60759C1.91311 1.59991 1.93289 1.57983 1.94156 1.55373H1.83703C1.74507 1.55346 1.67506 1.62798 1.65763 1.71618C1.64932 1.75839 1.65303 1.80376 1.67216 1.84559C1.68487 1.87331 1.70604 1.89902 1.72925 1.91694L1.77341 1.95098C1.81072 1.97986 1.9019 1.91047 1.8376 1.86086L1.80533 1.83595C1.73154 1.77894 1.75114 1.65022 1.83942 1.62274ZM1.35689 1.78514C1.34432 1.78514 1.32679 1.78202 1.31537 1.77597C1.29384 1.7646 1.28003 1.7538 1.26725 1.73168C1.25661 1.71325 1.25122 1.69104 1.25122 1.66942C1.25122 1.64783 1.25661 1.62559 1.26725 1.60716C1.30759 1.53735 1.40355 1.53716 1.44564 1.60493C1.45757 1.62408 1.46407 1.64633 1.46407 1.66942C1.46399 1.73287 1.41565 1.78507 1.35689 1.78514ZM1.35689 1.72728C1.3982 1.72728 1.42351 1.67601 1.40173 1.63831C1.39534 1.62725 1.38845 1.62185 1.37767 1.61614C1.37196 1.61314 1.36317 1.61156 1.35689 1.61156C1.35061 1.61156 1.34186 1.61314 1.33615 1.61614C1.32537 1.62185 1.31848 1.62725 1.31209 1.63831C1.29031 1.67601 1.31566 1.72724 1.35689 1.72728ZM0.955077 1.66942C0.955077 1.71402 1.00256 1.74135 1.03748 1.71784C1.04772 1.71094 1.05272 1.70346 1.05797 1.69185C1.06079 1.68569 1.06222 1.6762 1.06222 1.66942C1.06222 1.66263 1.06079 1.65319 1.05797 1.64698C1.05272 1.63538 1.04772 1.62794 1.03748 1.62104C1.00256 1.59752 0.955113 1.62486 0.955077 1.66942ZM1.73196 1.46696C1.73289 1.42687 1.73325 1.3707 1.72568 1.33088C1.70633 1.22895 1.64157 1.14021 1.55478 1.09503C1.50819 1.07078 1.45803 1.0613 1.40691 1.05775C1.32822 1.05232 1.24433 1.06095 1.17335 1.10124C1.15115 1.11384 1.1304 1.12973 1.1117 1.14773C1.0937 1.16511 1.08246 1.19592 1.05675 1.20497C1.03798 1.21157 1.00924 1.1938 1.01855 1.17151C1.02184 1.16373 1.04329 1.14037 1.04469 1.1389C1.08578 1.09603 1.12708 1.0534 1.18299 1.03355C1.37324 0.965968 1.61237 0.99249 1.72807 1.18701C1.76609 1.25093 1.77902 1.31565 1.78502 1.39047C1.78684 1.41306 1.8029 1.48172 1.76085 1.47474C1.75103 1.47312 1.74139 1.47027 1.73196 1.46696ZM1.06222 1.39726C1.07125 1.39926 1.08035 1.40092 1.08953 1.40185C1.09403 1.40227 1.09863 1.40208 1.10309 1.40131C1.12498 1.39749 1.11609 1.38785 1.11762 1.36869C1.11837 1.35933 1.11998 1.34992 1.1228 1.34098C1.1283 1.32328 1.1339 1.30543 1.14244 1.28921C1.15243 1.27012 1.17396 1.24009 1.19288 1.22533C1.19513 1.22359 1.21623 1.21781 1.21462 1.20898C1.21259 1.19804 1.20395 1.16192 1.18699 1.15941C1.18324 1.15887 1.17996 1.16257 1.17685 1.16492C1.17082 1.16943 1.16528 1.17468 1.15972 1.17988C1.13572 1.20239 1.12284 1.21508 1.10424 1.24595C1.09527 1.26083 1.08763 1.27672 1.08142 1.29314C1.06896 1.32617 1.06236 1.3616 1.06222 1.39726ZM1.31915 1.17768C1.32076 1.16797 1.32205 1.15818 1.32276 1.14835C1.32312 1.14349 1.32294 1.13859 1.32233 1.13377C1.32098 1.12283 1.3208 1.11519 1.31048 1.11743C1.30645 1.11832 1.30255 1.11997 1.29852 1.12071C1.29174 1.12194 1.28481 1.12217 1.27803 1.12337C1.26171 1.12622 1.26196 1.1266 1.24547 1.1288C1.24361 1.12907 1.23997 1.12942 1.23861 1.13169C1.23579 1.1364 1.23794 1.14299 1.23876 1.1485C1.24018 1.15818 1.24358 1.16777 1.24779 1.17637C1.25032 1.18165 1.25247 1.19044 1.25793 1.19036C1.2626 1.19029 1.2661 1.18531 1.2706 1.184C1.2851 1.17976 1.3042 1.17764 1.31915 1.17768Z" stroke="#00ECFF" stroke-width="0.00334644" stroke-miterlimit="2" stroke-linejoin="round"/>
</svg>
