<svg width="2" height="2" viewBox="0 0 2 2" fill="none" xmlns="http://www.w3.org/2000/svg">
<g clip-path="url(#clip0)">
<path d="M1.55691 0.537339C1.55795 0.491244 1.55833 0.4266 1.54999 0.380776C1.52863 0.263492 1.45714 0.161378 1.36131 0.109375C1.30984 0.0814427 1.25448 0.0705577 1.19804 0.06648C1.11114 0.0602012 1.01852 0.0701417 0.940146 0.116511C0.915652 0.130999 0.89274 0.149278 0.872094 0.170021C0.852214 0.189993 0.839806 0.225465 0.811408 0.235867C0.790699 0.243457 0.758965 0.223027 0.769262 0.197383C0.772871 0.188399 0.796541 0.161516 0.79809 0.159835C0.84347 0.110523 0.889083 0.061437 0.950783 0.0385977C1.16084 -0.0391658 1.42489 -0.00862467 1.55264 0.215196C1.59462 0.288744 1.60886 0.363246 1.6155 0.449364C1.61751 0.475324 1.63524 0.554353 1.5888 0.546318C1.57797 0.544445 1.56733 0.541158 1.55691 0.537339ZM0.817456 0.457158C0.827417 0.459459 0.837477 0.461373 0.847604 0.462417C0.852577 0.462929 0.857649 0.462712 0.862578 0.461818C0.886728 0.457441 0.876938 0.446348 0.878631 0.424295C0.879459 0.41348 0.881245 0.402658 0.884325 0.392376C0.890414 0.372033 0.896618 0.351466 0.906024 0.332792C0.917068 0.310855 0.940842 0.276286 0.961702 0.259326C0.964186 0.257304 0.987516 0.250676 0.985715 0.24049C0.983489 0.227899 0.973939 0.186352 0.955198 0.183456C0.951072 0.18282 0.947456 0.187097 0.944036 0.189772C0.937373 0.194994 0.93124 0.201032 0.92511 0.207024C0.898615 0.232913 0.884369 0.247505 0.863842 0.283027C0.853952 0.300149 0.845504 0.318428 0.838664 0.33734C0.824917 0.375341 0.817597 0.41611 0.817456 0.457158ZM1.10115 0.204465C1.1029 0.193293 1.10435 0.182041 1.10513 0.170732C1.10552 0.165148 1.10534 0.159485 1.10467 0.153939C1.10314 0.141348 1.10296 0.132576 1.09155 0.135152C1.0871 0.136155 1.08282 0.138052 1.07834 0.138905C1.07085 0.140332 1.06322 0.140615 1.05572 0.14198C1.03772 0.145263 1.03799 0.145692 1.0198 0.148234C1.01772 0.148525 1.01372 0.148941 1.01221 0.151563C1.0091 0.156976 1.01146 0.164541 1.01237 0.170907C1.01396 0.182021 1.01771 0.193068 1.02233 0.202988C1.02515 0.209021 1.0275 0.219174 1.03356 0.219065C1.0387 0.21897 1.04258 0.213248 1.04755 0.211742C1.06354 0.20689 1.08463 0.204448 1.10115 0.204465ZM1.14282 0.9035C1.12893 0.9035 1.10958 0.899934 1.09695 0.892969C1.0732 0.879853 1.05795 0.867446 1.04383 0.841981C1.03209 0.820789 1.02613 0.79522 1.02613 0.77035C1.02613 0.745481 1.03209 0.719912 1.04383 0.69872C1.08837 0.61836 1.19431 0.61816 1.24081 0.696124C1.25395 0.718156 1.26113 0.743758 1.26113 0.77035C1.26106 0.843362 1.2077 0.903417 1.14282 0.9035ZM1.14282 0.836925C1.18842 0.836925 1.21636 0.777915 1.19232 0.734533C1.18526 0.721805 1.17763 0.715597 1.16576 0.709043C1.15944 0.705556 1.14976 0.703776 1.14282 0.703776C1.13588 0.703776 1.1262 0.705556 1.11989 0.709043C1.10801 0.715597 1.10038 0.721801 1.09333 0.734533C1.06928 0.777911 1.09726 0.836863 1.14282 0.836925ZM0.235798 0.703172L0.255139 0.716595C0.352639 0.748243 0.374246 0.89641 0.292773 0.961998C0.292773 0.961998 0.250643 1.0181 0.237218 1.00038C0.233554 0.99554 0.204534 0.979354 0.201994 0.974273C0.196519 0.963313 0.216979 0.955591 0.224219 0.946016L0.2584 0.907815C0.289353 0.882895 0.282547 0.835128 0.262149 0.804262C0.230837 0.75689 0.151863 0.753261 0.136438 0.689895C0.126429 0.648776 0.130093 0.572469 0.182805 0.572469L0.257764 0.570626C0.451397 0.570697 0.57682 0.811398 0.492374 1.00354C0.474302 1.04466 0.444206 1.08275 0.411175 1.10933L0.362393 1.14854C0.336675 1.16926 0.319723 1.20111 0.315619 1.2364C0.400959 1.23697 0.477651 1.29678 0.508091 1.38651C0.552643 1.36098 0.580816 1.30928 0.580831 1.25302V0.970075C0.580757 0.912113 0.607677 0.858158 0.651686 0.828054C0.624995 0.765657 0.645836 0.689707 0.699144 0.655114V0.457158C0.698985 0.389239 0.71255 0.322156 0.738804 0.260999L0.792097 0.289901C0.769717 0.34205 0.758159 0.399246 0.7583 0.457158V0.637201C0.773943 0.637184 0.789845 0.640966 0.804283 0.647732C0.818266 0.654286 0.831203 0.664334 0.841914 0.676384C0.852621 0.688434 0.86118 0.703176 0.867369 0.71873C0.914251 0.83658 0.782768 0.951471 0.690943 0.879724C0.660182 0.896027 0.639888 0.931632 0.639987 0.970075V1.25302C0.639943 1.34043 0.592884 1.41962 0.521109 1.45305C0.521446 1.45845 0.521675 1.46389 0.521675 1.46939V1.60254C0.521712 1.70224 0.620336 1.76648 0.696881 1.71932L0.725383 1.77765C0.609126 1.8494 0.462552 1.75111 0.462519 1.60254V1.46939C0.462426 1.37812 0.395724 1.30305 0.314628 1.30295H0.142335C0.151922 1.33299 0.173784 1.35608 0.201037 1.36495L0.279862 1.39029C0.317767 1.40263 0.344088 1.44191 0.344206 1.48632V1.60254C0.344206 1.64412 0.352126 1.69355 0.367602 1.73159C0.38956 1.78554 0.414624 1.82487 0.456244 1.86159C0.606915 1.9945 0.83771 1.93076 0.912373 1.73159C0.927849 1.69029 0.935769 1.64739 0.935769 1.60254V1.03665H0.994925V1.60254C0.994881 1.65632 0.985349 1.70777 0.966756 1.75728C0.882587 1.98138 0.637651 2.06703 0.454351 1.93904C0.407747 1.9065 0.366844 1.86157 0.337806 1.80908C0.307248 1.75383 0.289331 1.6917 0.285741 1.62708C0.230341 1.5967 0.182173 1.5506 0.146402 1.49414L0.194581 1.45552C0.21878 1.49375 0.249545 1.52614 0.28505 1.55078V1.48632C0.285009 1.47152 0.276239 1.45843 0.263606 1.45431L0.18478 1.42897C0.121886 1.4085 0.0782099 1.34334 0.0780029 1.26966C0.0780029 1.2514 0.0860592 1.23775 0.102286 1.23775L0.158171 1.24729L0.255838 1.24519C0.260186 1.18834 0.286802 1.12759 0.328016 1.09436L0.376783 1.05517C0.390141 1.04439 0.402486 1.03182 0.413312 1.01791C0.507089 0.897358 0.447404 0.721722 0.332256 0.651997C0.306745 0.636552 0.279008 0.620828 0.25004 0.620291C0.224906 0.619825 0.222699 0.639518 0.222215 0.662686C0.22193 0.676467 0.219937 0.698017 0.235798 0.703172ZM0.699144 0.77035C0.699144 0.821667 0.751578 0.853111 0.790126 0.826053C0.801436 0.818109 0.806952 0.80953 0.812775 0.796161C0.815874 0.789058 0.817456 0.778165 0.817456 0.77035C0.817456 0.762536 0.815874 0.751643 0.812775 0.74454C0.806952 0.731171 0.80144 0.722587 0.790126 0.714648C0.751582 0.68759 0.699199 0.719079 0.699144 0.77035ZM0.734637 1.68243C0.740934 1.69241 0.747681 1.70212 0.755313 1.71085C0.765473 1.72246 0.781933 1.72847 0.793073 1.71463C0.810609 1.69285 0.816377 1.62406 0.817456 1.60254C0.820344 1.54499 0.829051 1.27737 0.8261 1.17758C0.825476 1.15652 0.850687 1.02006 0.789187 1.02043C0.730241 1.02079 0.757723 1.1117 0.757782 1.15229C0.75789 1.22506 0.762903 1.29673 0.741403 1.36685C0.722692 1.42788 0.689438 1.48008 0.646158 1.52204C0.634634 1.53321 0.62227 1.54349 0.608997 1.55186C0.577533 1.57167 0.561147 1.56722 0.570494 1.61115C0.580439 1.65793 0.620739 1.62319 0.639895 1.60864C0.670287 1.58555 0.701384 1.56155 0.724684 1.52891C0.732648 1.51775 0.736593 1.5036 0.742919 1.49118C0.746029 1.48507 0.756085 1.47249 0.7583 1.47908C0.762718 1.49222 0.765062 1.50634 0.765828 1.52037C0.766885 1.53968 0.765828 1.55915 0.763728 1.57836C0.760474 1.60803 0.751963 1.65659 0.734637 1.68243ZM1.67229 0.907773L1.70796 0.936459C1.79869 1.00945 1.85267 1.1275 1.8527 1.25302C1.85266 1.37883 1.80195 1.49807 1.71492 1.57703L1.67778 1.52521C1.7079 1.4979 1.7332 1.46449 1.75239 1.42669C1.75026 1.4275 1.7481 1.42826 1.74593 1.42897L1.66709 1.45431C1.65446 1.45843 1.64569 1.47152 1.64565 1.48632V1.60254C1.64566 1.6987 1.61481 1.7917 1.5588 1.86433L1.51414 1.82068C1.5608 1.76016 1.58651 1.68266 1.58649 1.60254V1.48632C1.58662 1.44191 1.61294 1.40263 1.65085 1.39029L1.72967 1.36495C1.75692 1.35608 1.77878 1.33299 1.78836 1.30295H1.61607C1.53498 1.30305 1.46827 1.37812 1.46818 1.46939V1.60254C1.46818 1.75649 1.31087 1.85082 1.19524 1.76964C1.1613 1.74581 1.14476 1.72007 1.12728 1.67997C1.11799 1.65865 1.11324 1.62598 1.11324 1.60254V1.03665H1.1724V1.25302C1.17282 1.4133 1.27079 1.55386 1.40902 1.59247V1.46939C1.40902 1.46389 1.40925 1.45845 1.40959 1.45305C1.33781 1.41962 1.29076 1.34043 1.29071 1.25302V1.03665C1.29071 0.984746 1.30207 0.933629 1.32377 0.887834L1.37597 0.919166C1.35884 0.95532 1.34987 0.995673 1.34987 1.03665V1.25302C1.34988 1.30928 1.37805 1.36099 1.42261 1.3865C1.45305 1.29678 1.52974 1.23697 1.61508 1.2364C1.61098 1.20111 1.59402 1.16927 1.56831 1.14854L1.51954 1.10934C1.4865 1.08279 1.45633 1.04465 1.43825 1.00353C1.35403 0.811885 1.4794 0.570118 1.67294 0.570626L1.80307 0.573451C1.8193 0.573451 1.85286 0.550966 1.85281 0.56986C1.8526 0.643542 1.80881 0.742751 1.7459 0.763202L1.69182 0.780595C1.64203 0.796485 1.62921 0.873096 1.67229 0.907773ZM1.39818 1.65806C1.30509 1.63313 1.22413 1.56853 1.1724 1.47794V1.60254C1.17238 1.72149 1.31024 1.78011 1.37978 1.69011C1.3872 1.68051 1.39349 1.66963 1.3982 1.65806H1.39818ZM1.67556 0.716604L1.72967 0.699199C1.75692 0.690336 1.77878 0.667247 1.78836 0.637201H1.67294C1.52276 0.636776 1.42564 0.824426 1.49092 0.973071C1.50492 1.00497 1.52831 1.03457 1.55393 1.05518L1.60269 1.09437C1.6439 1.12759 1.67017 1.17953 1.67452 1.23637H1.79313C1.78863 1.1383 1.74456 1.04773 1.67357 0.99063L1.63791 0.961957C1.55647 0.896372 1.57809 0.748243 1.67556 0.716604ZM1.03033 1.76059C1.01087 1.76423 0.979419 1.77012 0.978287 1.79227C0.976738 1.82264 1.00695 1.84421 1.0249 1.86695C1.05953 1.91083 1.1035 1.94522 1.15145 1.96796C1.24714 2.01333 1.36012 2.01109 1.45296 1.95758C1.47711 1.94366 1.5123 1.93583 1.52072 1.90679C1.52683 1.88569 1.50202 1.85792 1.48237 1.85611C1.45999 1.85405 1.44628 1.88659 1.4263 1.89809C1.38766 1.92035 1.34429 1.93208 1.301 1.93346C1.19049 1.93697 1.08313 1.87076 1.03033 1.76059Z" stroke="white" stroke-width="0.00488281" stroke-miterlimit="2" stroke-linejoin="round"/>
<path d="M0.7583 0.803619C0.774631 0.803619 0.78787 0.788719 0.78787 0.77034C0.78787 0.75196 0.774631 0.737061 0.7583 0.737061C0.741968 0.737061 0.728729 0.75196 0.728729 0.77034C0.728729 0.788719 0.741968 0.803619 0.7583 0.803619Z" fill="white"/>
<path d="M1.14279 0.803619C1.15912 0.803619 1.17236 0.788719 1.17236 0.77034C1.17236 0.75196 1.15912 0.737061 1.14279 0.737061C1.12646 0.737061 1.11322 0.75196 1.11322 0.77034C1.11322 0.788719 1.12646 0.803619 1.14279 0.803619Z" fill="white"/>
</g>
<defs>
<clipPath id="clip0">
<rect width="2" height="2" fill="white"/>
</clipPath>
</defs>
</svg>
