<?xml version="1.0" encoding="UTF-8" standalone="no"?>
<!DOCTYPE svg PUBLIC "-//W3C//DTD SVG 1.1//EN" "http://www.w3.org/Graphics/SVG/1.1/DTD/svg11.dtd">
<svg width="100%" height="100%" viewBox="0 0 529 527" version="1.1" xmlns="http://www.w3.org/2000/svg" xmlns:xlink="http://www.w3.org/1999/xlink" xml:space="preserve" xmlns:serif="http://www.serif.com/" style="fill-rule:evenodd;clip-rule:evenodd;stroke-linecap:round;stroke-linejoin:round;stroke-miterlimit:1.5;">
    <g transform="matrix(1,0,0,1,8.47894,5.84199)">
        <g transform="matrix(0.947035,0,0,0.904945,-0.369642,-0.412727)">
            <rect x="-6.979" y="-4.342" width="554.637" height="578.64" style="stroke:rgb(0,236,255);stroke-width:3.24px;"/>
        </g>
        <g id="Outline">
            <g transform="matrix(0.90697,0,0,0.896136,46.143,51.5172)">
                <path d="M416,144L416,124.73C415.942,73.882 374.118,32.058 323.27,32L292.73,32C261.92,31.992 233.051,47.342 215.83,72.89L202.572,63.933C222.763,33.983 256.61,15.988 292.73,16L323.27,16C382.892,16.067 431.933,65.108 432,124.73L432,144L416,144ZM216,124.73L232,124.73C232.088,103.44 243.289,83.673 261.509,72.658L253.255,58.951C230.246,72.869 216.104,97.839 216,124.73ZM292.73,64L292.73,48C284.485,47.993 276.293,49.32 268.472,51.93L273.54,67.105C279.727,65.042 286.208,63.994 292.73,64ZM304,232C286.445,232 272,217.555 272,200C272,182.445 286.445,168 304,168C321.555,168 336,182.445 336,200C335.98,217.547 321.547,231.98 304,232ZM304,216C312.777,216 320,208.777 320,200C320,191.223 312.777,184 304,184C295.223,184 288,191.223 288,200C288.01,208.773 295.227,215.99 304,216ZM113.854,248.722C117.893,240.881 120,232.188 120,223.368C120,192.994 95.006,168 64.632,168C64.628,168 64.624,168 64.62,168L34.5,168C37.093,175.221 41.907,180.771 49.278,182.9L63.91,187.081C70.845,189.081 76.951,193.273 81.31,199.026C85.673,204.777 88.025,211.807 88.002,219.026C87.994,229.744 82.807,239.823 74.089,246.059L64.453,252.945C48.82,264.12 37.885,280.715 33.784,299.488L18.153,296.073C23.1,273.425 36.293,253.406 55.153,239.926L64.792,233.037C69.312,229.804 72,224.577 72,219.02C72,211.353 66.879,204.566 59.507,202.461L44.882,198.282C27.87,193.366 18.21,184.418 18.153,166.711C18.153,162.322 35.612,147.66 40.001,147.66L44.88,147.66C84.035,147.673 135.987,184.235 135.987,223.39C135.987,246.417 124.846,268.076 106.113,281.467L92.919,290.89C85.963,295.871 81.378,303.524 80.268,312.007C103.35,312.144 124.093,326.518 132.326,348.082C144.376,341.947 151.996,329.522 152,316L152,248C151.98,234.07 159.261,221.103 171.164,213.868C163.945,198.872 169.582,180.619 184,172.305L184,124.73C183.957,108.407 187.626,92.285 194.727,77.587L209.141,84.533C203.088,97.066 199.962,110.812 200,124.73L200,168C200.011,168 200.021,168 200.032,168C217.586,168 232.032,182.445 232.032,200C232.032,217.555 217.586,232 200.032,232C193.509,232 187.14,230.006 181.782,226.286C179.275,227.467 176.99,229.07 175.027,231.026C170.514,235.517 167.982,241.633 168,248L168,316C167.988,337.009 155.26,356.04 135.847,364.073C135.938,365.373 136,366.678 136,368L136,400C136.007,417.557 150.456,432 168.013,432C173.387,432 178.675,430.647 183.388,428.066L191.097,442.086C184.022,445.966 176.081,448 168.012,448C141.678,448 120.007,426.334 120,400L120,368C119.975,346.066 101.934,328.025 80,328L33.4,328C35.993,335.221 41.906,340.77 49.277,342.9L70.597,348.991C80.849,351.957 87.968,361.396 88,372.069L88,400C88,443.887 124.113,480 168,480C211.887,480 248,443.887 248,400L248,264L264,264L264,400C263.952,452.631 220.631,495.912 168,495.912C117.592,495.912 75.331,456.209 72.187,405.9C62.217,401.041 53.127,394.551 45.293,386.7C41.349,382.756 37.738,378.491 34.5,373.95L47.531,364.668C54.076,373.856 62.397,381.641 72,387.561L72,372.069C71.989,368.512 69.617,365.366 66.2,364.377L44.88,358.286C27.869,353.367 16.056,337.708 16,320C16,315.611 19.611,312 24,312L64.192,312C65.368,298.338 72.474,285.855 83.621,277.869L96.811,268.45C103.974,263.317 109.816,256.555 113.854,248.722ZM184,200C184,208.777 191.223,216 200,216C208.777,216 216,208.777 216,200C216,191.223 208.777,184 200,184C191.227,184.01 184.01,191.227 184,200ZM193.6,419.2L206.392,428.811C212.654,420.516 216.029,410.393 216,400L216,264L200,264L200,316C200.052,349.81 179.646,380.484 148.441,393.5L154.623,408.258C173.229,400.487 189.052,387.261 200,370.329L200,400C200.021,406.926 197.772,413.672 193.6,419.2ZM443.468,208.656C441.206,211.636 439.987,215.279 440,219.02C440.002,224.573 442.689,229.796 447.206,233.027L456.852,239.921C481.394,257.462 495.993,285.834 496,316C495.989,346.236 482.275,374.894 458.735,393.871L448.69,381.417C456.836,374.854 463.681,366.823 468.869,357.739C468.293,357.933 467.711,358.117 467.122,358.286L445.8,364.377C442.383,365.366 440.011,368.512 440,372.069L440,400C440.004,423.111 431.659,445.463 416.51,462.917L404.43,452.426C417.052,437.882 424.005,419.257 424,400L424,372.069C424.033,361.396 431.153,351.956 441.407,348.992L462.726,342.901C470.095,340.77 476.008,335.22 478.6,328L432,328C410.066,328.025 392.025,346.066 392,368L392,400C392,426.332 370.332,448 344,448C317.668,448 296,426.332 296,400L296,264L312,264L312,316C312.113,354.522 338.613,388.301 376,397.581L376,368C376,366.678 376.062,365.372 376.153,364.073C356.74,356.04 344.012,337.009 344,316L344,264C344,251.526 347.072,239.241 352.942,228.235L367.06,235.765C362.426,244.454 360.001,254.152 360,264L360,316C360.002,329.522 367.622,341.949 379.674,348.081C387.908,326.517 408.65,312.144 431.732,312.007C430.622,303.524 426.037,295.872 419.082,290.891L405.891,281.47C387.139,268.083 375.985,246.413 375.985,223.373C375.985,195.798 391.963,170.588 416.9,158.818C416.983,158.779 417.067,158.741 417.151,158.705C426.608,154.266 436.933,151.976 447.38,152L488,152C492.389,152 496,155.611 496,160C495.944,177.708 484.129,193.367 467.116,198.282L452.488,202.462C448.885,203.484 445.715,205.66 443.468,208.656ZM373.068,413.345C347.89,407.353 325.991,391.828 312,370.055L312,400C312,400.002 312,400.005 312,400.007C312,417.558 326.442,432 343.993,432C356.477,432 367.868,424.693 373.073,413.345L373.068,413.345ZM424,219.02C423.979,211.8 426.334,204.77 430.7,199.02C435.057,193.271 441.159,189.082 448.09,187.083L462.725,182.9C470.095,180.77 476.008,175.221 478.6,168L447.38,168C439.208,167.979 431.133,169.784 423.748,173.283C423.676,173.317 423.604,173.35 423.53,173.383C404.303,182.571 392.01,202.069 392.01,223.379C392.01,241.25 400.655,258.06 415.193,268.454L428.38,277.871C439.526,285.857 446.632,298.339 447.808,312L479.888,312C478.672,288.43 466.753,266.662 447.551,252.94L437.908,246.049C429.193,239.813 424.008,229.736 424,219.02ZM344,480C314.626,480.009 287.52,463.838 273.574,437.986L259.5,445.6C276.241,476.607 308.757,496.004 343.994,496.004C366.786,496.004 388.85,487.889 406.21,473.122L395.837,460.941C381.371,473.241 362.989,480 344,480Z" style="fill:rgb(0,236,255);fill-rule:nonzero;stroke:rgb(0,236,255);stroke-width:3.33px;stroke-linecap:butt;stroke-miterlimit:2;"/>
            </g>
            <g transform="matrix(0.90697,0,0,0.896136,46.143,51.5172)">
                <circle cx="200.002" cy="199.998" r="7.998" style="fill:rgb(0,236,255);"/>
            </g>
            <g transform="matrix(0.90697,0,0,0.896136,46.143,51.5172)">
                <circle cx="304.002" cy="199.998" r="7.998" style="fill:rgb(0,236,255);"/>
            </g>
            <g transform="matrix(0.053946,-0.191968,0.191968,0.053946,-18.5304,175.192)">
                <g>
                    <path d="M429.022,82.969C426.092,80.041 421.344,80.041 418.414,82.969L391.907,109.476C388.978,112.406 388.978,117.154 391.907,120.084C393.372,121.548 395.292,122.28 397.211,122.28C399.13,122.28 401.05,121.548 402.515,120.084L429.022,93.577C431.95,90.646 431.95,85.899 429.022,82.969Z" style="fill:rgb(0,236,255);fill-rule:nonzero;"/>
                </g>
                <g>
                    <path d="M463.131,144.664C462.791,140.535 459.166,137.451 455.042,137.803L420.35,140.654C416.222,140.993 413.15,144.615 413.49,148.743C413.812,152.662 417.093,155.629 420.956,155.629C421.162,155.629 421.37,155.621 421.579,155.604L456.271,152.753C460.399,152.414 463.471,148.792 463.131,144.664Z" style="fill:rgb(0,236,255);fill-rule:nonzero;"/>
                </g>
                <g>
                    <path d="M367.328,48.857C363.218,48.517 359.579,51.588 359.239,55.717L356.388,90.409C356.048,94.538 359.12,98.16 363.248,98.499C363.457,98.517 363.664,98.524 363.871,98.524C367.734,98.524 371.015,95.557 371.337,91.638L374.188,56.946C374.528,52.818 371.456,49.196 367.328,48.857Z" style="fill:rgb(0,236,255);fill-rule:nonzero;"/>
                </g>
                <g>
                    <path d="M395.18,150.022L361.966,116.806C357.237,112.079 349.541,112.079 344.811,116.808L329.1,132.519C326.228,135.392 325.111,139.356 325.727,143.088L320.888,147.927C315.615,153.201 310.095,158.376 304.481,163.31C301.37,166.044 301.064,170.784 303.798,173.895C305.28,175.582 307.353,176.444 309.435,176.444C311.193,176.444 312.958,175.83 314.383,174.578C320.238,169.432 325.995,164.034 331.495,158.534L334.727,155.303L356.688,177.264L353.457,180.495C325.642,208.311 302.872,239.854 285.476,274.613C282.598,279.544 277.795,282.852 272.127,283.758C266.158,284.717 260.257,282.804 255.966,278.512L233.479,256.026C229.189,251.735 227.277,245.844 228.233,239.863C229.202,233.803 232.916,228.73 238.424,225.944C238.445,225.934 238.463,225.921 238.483,225.91C255.025,217.536 270.927,207.91 286.027,197.097C289.395,194.686 290.171,190 287.758,186.633C285.347,183.266 280.661,182.49 277.294,184.902C252.288,202.808 225.002,217.343 196.193,228.101C172.356,237.003 151.147,250.639 133.154,268.632L13.068,388.717C-4.342,406.127 -4.342,434.456 13.068,451.866L60.124,498.921C68.558,507.355 79.771,512 91.698,512C103.625,512 114.838,507.355 123.272,498.922L167.55,454.584C170.479,451.654 160.041,440.941 157.111,443.869L112.665,488.314C107.065,493.915 99.619,497 91.698,497C83.777,497 76.331,493.915 70.73,488.314L23.674,441.259C18.073,435.658 14.989,428.212 14.989,420.292C14.989,412.371 18.073,404.925 23.674,399.325L143.761,279.238C160.225,262.775 179.631,250.297 201.441,242.153C205.468,240.649 209.465,239.069 213.433,237.424C213.429,237.448 213.423,237.471 213.42,237.495C211.695,248.281 215.14,258.901 222.871,266.633L245.358,289.119C251.78,295.543 260.196,299.007 269.046,299.007C270.848,299.007 272.67,298.863 274.494,298.571C274.517,298.567 274.538,298.562 274.561,298.558C272.923,302.519 271.344,306.514 269.837,310.549C261.691,332.36 249.215,351.766 232.752,368.228L157.111,443.869C154.182,446.799 166.253,455.941 167.717,454.477L243.358,378.837C261.35,360.845 274.987,339.635 283.889,315.798C288.294,304.002 293.286,292.532 298.851,281.405C299.046,281.051 299.246,280.701 299.43,280.338C299.493,280.214 299.542,280.087 299.597,279.961C316.185,247.183 337.763,217.4 364.062,191.102L368.9,186.263C369.559,186.372 370.224,186.437 370.89,186.437C373.996,186.437 377.103,185.254 379.467,182.89L395.181,167.177C399.908,162.447 399.908,154.753 395.18,150.022ZM370.892,170.254L341.735,141.097L353.389,129.443L382.546,158.6L370.892,170.254Z" style="fill:rgb(0,236,255);fill-rule:nonzero;"/>
                </g>
                <g>
                    <path d="M186.705,325.284C165.831,304.411 127.233,309.047 100.662,335.617C74.091,362.189 69.456,400.788 90.329,421.66C98.949,430.281 110.656,434.826 123.887,434.826C126.607,434.826 129.393,434.634 132.228,434.245C148.089,432.073 163.766,423.934 176.372,411.329C202.943,384.757 207.578,346.157 186.705,325.284ZM165.765,400.722C155.461,411.025 142.828,417.653 130.192,419.384C118.321,421.013 107.932,418.052 100.935,411.054C85.91,396.029 90.546,366.947 111.268,346.225C123.777,333.716 139.33,327.07 153.001,327.07C161.977,327.07 170.143,329.937 176.098,335.892C191.123,350.917 186.487,379.999 165.765,400.722Z" style="fill:rgb(0,236,255);fill-rule:nonzero;"/>
                </g>
                <g>
                    <path d="M508.442,36.761L475.228,3.547C470.497,-1.184 462.801,-1.182 458.073,3.547L442.359,19.26C438.902,22.719 437.985,27.76 439.585,32.071L433.326,38.33C429.173,42.484 426.885,48.008 426.885,53.883C426.885,59.757 429.173,65.281 433.326,69.435L442.555,78.664C446.709,82.817 452.233,85.105 458.107,85.105C463.982,85.105 469.506,82.817 473.66,78.664L479.919,72.405C481.282,72.911 482.716,73.175 484.154,73.175C487.26,73.175 490.368,71.992 492.733,69.628L508.444,53.917C513.172,49.188 513.172,41.493 508.442,36.761ZM463.051,68.058C460.322,70.787 455.886,70.786 453.161,68.058L443.932,58.829C441.204,56.102 441.204,51.666 443.932,48.939L449.406,43.464L468.525,62.583L463.051,68.058ZM484.153,56.995L454.996,27.838L466.65,16.184L495.807,45.341L484.153,56.995Z" style="fill:rgb(0,236,255);fill-rule:nonzero;"/>
                </g>
            </g>
            <g transform="matrix(0.18109,0,0,0.18109,426.779,93.8477)">
                <g>
                    <path d="M296,452C290.48,452 286,456.48 286,462C286,467.52 290.48,472 296,472C301.52,472 306,467.52 306,462C306,456.48 301.52,452 296,452Z" style="fill:rgb(0,236,255);fill-rule:nonzero;"/>
                </g>
                <g>
                    <path d="M436,46L406,46L406,30C406,13.458 392.542,0 376,0L136,0C119.458,0 106,13.458 106,30L106,46L76,46C59.458,46 46,59.458 46,76C46,141.057 76.442,188.867 125.828,202.178C142.758,239.443 169.526,271.122 203.502,294.013C211.328,299.286 216,308.313 216,318.16L216,373.259C209.145,375.017 202.856,378.581 197.719,383.719C190.162,391.277 186,401.32 186,412L176,412C159.458,412 146,425.458 146,442L146,502C146,507.523 150.478,512 156,512L356,512C361.522,512 366,507.523 366,502L366,442C366,425.458 352.542,412 336,412L326,412C326,393.396 313.233,377.717 296,373.266L296,318.21C296,308.331 300.675,299.287 308.508,294.014C342.487,271.121 369.255,239.441 386.184,202.175C435.563,188.859 466,141.052 466,76C466,59.458 452.542,46 436,46ZM66,76C66,70.486 70.486,66 76,66L106,66L106,110.7C106,133.495 109.453,155.817 116.27,177.314C84.447,161.551 66,125.146 66,76ZM336,432C341.514,432 346,436.486 346,442L346,492L166,492L166,442C166,436.486 170.486,432 176,432L336,432ZM386,110.7C386,138.016 380.562,164.596 369.834,189.7C354.574,225.417 329.504,255.752 297.336,277.425C283.976,286.418 276,301.665 276,318.21L276,382C276,387.523 280.478,392 286,392C297.028,392 306,400.972 306,412L206,412C206,406.662 208.082,401.641 211.861,397.861C215.455,394.267 220.172,392.209 225.216,392.015C225.475,392.035 225.736,392.045 225.999,392.045C231.521,392.045 235.999,387.523 235.999,382L235.999,318.16C235.999,301.65 228.028,286.423 214.677,277.427C182.506,255.753 157.436,225.418 142.174,189.698C131.442,164.603 126,138.024 126,110.7L126,30C126,24.486 130.486,20 136,20L376,20C381.514,20 386,24.486 386,30L386,110.7ZM395.734,177.312C402.548,155.81 406,133.489 406,110.7L406,66L436,66C441.514,66 446,70.486 446,76C446,125.143 427.555,161.547 395.734,177.312Z" style="fill:rgb(0,236,255);fill-rule:nonzero;"/>
                </g>
                <g>
                    <path d="M335.139,118.16C333.964,114.539 330.834,111.9 327.066,111.354L283.91,105.09L264.607,65.975C262.922,62.561 259.446,60.4 255.639,60.4C251.832,60.4 248.356,62.561 246.671,65.975L227.368,105.09L184.213,111.354C180.445,111.901 177.316,114.54 176.139,118.16C174.963,121.781 175.944,125.755 178.67,128.412L209.904,158.852L202.532,201.839C201.889,205.591 203.431,209.382 206.511,211.62C209.591,213.857 213.674,214.152 217.042,212.381L255.64,192.088L294.247,212.381C297.637,214.163 301.718,213.843 304.778,211.619C307.857,209.381 309.399,205.589 308.755,201.837L301.375,158.851L332.608,128.412C335.335,125.755 336.315,121.781 335.139,118.16ZM283.65,148.198C281.293,150.496 280.216,153.807 280.774,157.052L285.615,185.249L260.292,171.938C257.377,170.407 253.897,170.407 250.986,171.939L225.671,185.249L230.507,157.05C231.063,153.805 229.987,150.495 227.63,148.198L207.146,128.234L235.447,124.126C238.705,123.653 241.521,121.607 242.978,118.655L255.64,92.996L268.302,118.655C269.759,121.607 272.575,123.653 275.833,124.126L304.135,128.234L283.65,148.198Z" style="fill:rgb(0,236,255);fill-rule:nonzero;"/>
                </g>
                <g>
                    <path d="M256,452L216,452C210.478,452 206,456.477 206,462C206,467.523 210.478,472 216,472L256,472C261.522,472 266,467.523 266,462C266,456.477 261.522,452 256,452Z" style="fill:rgb(0,236,255);fill-rule:nonzero;"/>
                </g>
            </g>
        </g>
    </g>
</svg>
