<svg width="512" height="512" viewBox="0 0 512 512" fill="none" xmlns="http://www.w3.org/2000/svg">
<path d="M70.5 372.069V387.561C58.5316 380.195 48.6052 369.941 41.632 357.739C42.208 357.933 42.789 358.117 43.378 358.286L64.698 364.377C66.3667 364.86 67.834 365.87 68.88 367.257C69.926 368.644 70.4944 370.332 70.5 372.069V372.069ZM72.587 246.053L62.951 252.939C53.4654 259.717 45.6313 268.548 40.0321 278.774C34.4329 289 31.2129 300.357 30.612 312H62.692C63.2734 305.245 65.3112 298.697 68.6652 292.805C72.0192 286.913 76.6097 281.817 82.121 277.869L95.311 268.45C102.476 263.334 108.317 256.582 112.35 248.756C116.383 240.93 118.491 232.256 118.5 223.452C118.509 214.648 116.418 205.969 112.401 198.134C108.384 190.3 102.557 183.537 95.403 178.406C77.127 165.253 53.284 167.406 31.903 168.206C33.913 174.195 38.981 178.767 44.641 181.574C57.201 187.804 70.541 186.755 79.805 199.019C84.169 204.771 86.5204 211.799 86.497 219.019C86.4935 224.306 85.2299 229.517 82.8108 234.218C80.3918 238.919 76.887 242.976 72.587 246.053V246.053ZM422.03 173.382C415.129 176.687 408.985 181.38 403.982 187.169C398.978 192.957 395.224 199.716 392.953 207.023C388.946 220.893 390.261 235.76 396.64 248.712C400.68 256.55 406.525 263.316 413.693 268.452C429.252 279.58 444.505 291.072 446.308 312H478.388C477.811 301.033 474.92 290.312 469.906 280.541C462.421 265.998 449.715 255.559 436.406 246.049C421.434 235.349 418.116 213.679 429.195 199.016C433.553 193.266 439.653 189.079 446.585 187.079L461.22 182.897C464.857 181.847 468.193 179.95 470.953 177.36C473.714 174.77 475.82 171.562 477.1 168H445.88C437.708 167.979 429.634 169.784 422.248 173.283C422.176 173.317 422.1 173.35 422.03 173.382ZM198.5 216C201.665 216 204.758 215.062 207.389 213.304C210.02 211.545 212.071 209.047 213.282 206.123C214.493 203.199 214.81 199.982 214.193 196.879C213.575 193.775 212.051 190.924 209.814 188.686C207.576 186.449 204.725 184.925 201.621 184.307C198.518 183.69 195.301 184.007 192.377 185.218C189.453 186.429 186.955 188.48 185.196 191.111C183.438 193.742 182.5 196.835 182.5 200C182.505 204.242 184.192 208.309 187.192 211.308C190.191 214.308 194.258 215.995 198.5 216V216ZM467.37 357.738C466.793 357.932 466.211 358.117 465.622 358.285L444.3 364.377C442.632 364.86 441.165 365.87 440.119 367.257C439.073 368.644 438.505 370.332 438.5 372.069V387.561C450.469 380.194 460.396 369.94 467.37 357.738ZM359.683 252.147C358.897 256.049 358.501 260.02 358.5 264V316C358.501 322.642 360.339 329.154 363.811 334.816C367.283 340.478 372.254 345.069 378.174 348.081C382.206 337.523 389.333 328.429 398.623 321.991C407.912 315.554 418.93 312.074 430.232 312.007C429.682 307.809 428.276 303.768 426.1 300.136C423.924 296.504 421.025 293.357 417.583 290.892C403.65 280.942 390.458 271.681 382.415 256.038C377.222 245.935 374.508 234.74 374.5 223.38C374.5 223.327 374.5 223.274 374.5 223.221C366.987 231.311 361.859 241.323 359.683 252.147V252.147ZM198.5 400V370.055C184.503 391.837 162.615 407.352 137.427 413.345C140.47 419.98 145.691 425.375 152.223 428.634C158.755 431.893 166.205 432.821 173.337 431.262C180.468 429.704 186.852 425.754 191.43 420.067C196.007 414.381 198.502 407.3 198.5 400ZM310.5 370.055V400C310.498 407.3 312.993 414.381 317.57 420.067C322.148 425.754 328.532 429.704 335.663 431.262C342.795 432.821 350.245 431.893 356.777 428.634C363.309 425.375 368.53 419.98 371.573 413.345C346.385 407.352 324.497 391.837 310.5 370.055V370.055ZM166.5 448C179.226 447.986 191.427 442.924 200.425 433.925C209.424 424.927 214.486 412.726 214.5 400V264H198.5V316C198.445 334.785 192.118 353.013 180.524 367.792C168.929 382.572 152.731 393.056 134.5 397.581V368C134.5 366.678 134.438 365.372 134.347 364.073C143.859 360.137 151.99 353.469 157.713 344.912C163.437 336.356 166.494 326.294 166.5 316V264C166.5 253.73 164.787 242.175 171.4 233.462C172.4 232.137 178.762 225.228 180.285 226.286C184.41 229.145 189.15 230.993 194.121 231.682C199.093 232.37 204.157 231.879 208.903 230.248C213.65 228.618 217.947 225.893 221.445 222.295C224.944 218.696 227.548 214.325 229.045 209.535C230.542 204.744 230.891 199.669 230.063 194.718C229.236 189.768 227.256 185.082 224.282 181.038C221.309 176.995 217.426 173.708 212.947 171.443C208.468 169.178 203.519 167.999 198.5 168V124.73C198.528 100.145 208.307 76.5751 225.691 59.191C243.075 41.8068 266.645 32.0281 291.23 32H321.77C346.355 32.0281 369.925 41.8068 387.309 59.191C404.693 76.5751 414.472 100.145 414.5 124.73V144C414.501 149.559 413.726 155.091 412.2 160.436C396.613 168.809 384.673 182.652 378.681 199.3C363.037 206.884 351.648 221.394 345.802 237.573C340.536 252.149 342.502 268.806 342.502 284.088V316C342.508 326.294 345.565 336.356 351.289 344.912C357.012 353.469 365.143 360.137 374.655 364.073C374.564 365.373 374.502 366.678 374.502 368V397.581C356.27 393.056 340.072 382.572 328.477 367.793C316.882 353.013 310.555 334.785 310.5 316V264H294.5V400C294.5 412.73 299.557 424.939 308.559 433.941C317.561 442.943 329.77 448 342.5 448C355.23 448 367.439 442.943 376.441 433.941C385.443 424.939 390.5 412.73 390.5 400V368C390.512 357.395 394.73 347.228 402.229 339.729C409.728 332.23 419.895 328.012 430.5 328H477.1C475.821 331.562 473.715 334.77 470.955 337.361C468.195 339.951 464.859 341.849 461.223 342.9L439.904 348.991C417.233 355.468 422.5 382.217 422.5 400C422.5 421.217 414.071 441.566 399.069 456.569C384.066 471.571 363.717 480 342.5 480C321.283 480 300.934 471.571 285.931 456.569C270.929 441.566 262.5 421.217 262.5 400V264H246.5V400C246.5 421.217 238.071 441.566 223.069 456.569C208.066 471.571 187.717 480 166.5 480C145.283 480 124.934 471.571 109.931 456.569C94.9285 441.566 86.5 421.217 86.5 400C86.5 382.4 91.257 355.325 69.094 348.992L47.774 342.9C44.1382 341.849 40.8036 339.95 38.0441 337.36C35.2847 334.77 33.179 331.562 31.9 328H78.5C89.105 328.012 99.2722 332.23 106.771 339.729C114.27 347.228 118.488 357.395 118.5 368V400C118.514 412.726 123.576 424.927 132.575 433.925C141.573 442.924 153.774 447.986 166.5 448V448ZM270.5 200C270.5 206.329 272.377 212.516 275.893 217.778C279.409 223.041 284.407 227.142 290.254 229.564C296.101 231.986 302.535 232.62 308.743 231.385C314.95 230.15 320.652 227.103 325.127 222.627C329.603 218.152 332.65 212.45 333.885 206.243C335.12 200.035 334.486 193.601 332.064 187.754C329.642 181.907 325.541 176.909 320.278 173.393C315.016 169.877 308.829 168 302.5 168C294.016 168.01 285.882 171.384 279.883 177.383C273.884 183.382 270.51 191.516 270.5 200ZM266.972 51.93L272.04 67.105C278.227 65.0421 284.708 63.9936 291.23 64V48C282.985 47.9927 274.793 49.3199 266.972 51.93V51.93ZM230.5 124.73C230.543 114.249 233.28 103.955 238.447 94.8364C243.615 85.7177 251.04 78.0805 260.009 72.658L251.755 58.951C240.428 65.8028 231.053 75.4514 224.529 86.9704C218.005 98.4893 214.551 111.492 214.5 124.73H230.5ZM302.5 216C305.665 216 308.758 215.062 311.389 213.304C314.02 211.545 316.071 209.047 317.282 206.123C318.493 203.199 318.81 199.982 318.193 196.879C317.575 193.775 316.051 190.924 313.814 188.686C311.576 186.449 308.725 184.925 305.621 184.307C302.518 183.69 299.301 184.007 296.377 185.218C293.453 186.429 290.955 188.48 289.196 191.111C287.438 193.742 286.5 196.835 286.5 200C286.505 204.242 288.192 208.309 291.192 211.308C294.191 214.308 298.258 215.995 302.5 216Z" fill="#00ECFF"/>
</svg>
