<svg width="512" height="512" viewBox="0 0 512 512" fill="none" xmlns="http://www.w3.org/2000/svg">
<g clip-path="url(#clip0)">
<path d="M305.293 257.457C305.184 253.316 301.738 250.055 297.594 250.164C293.449 250.277 290.187 253.727 290.301 257.867L290.41 261.863C290.52 265.934 293.855 269.156 297.902 269.156C297.973 269.156 298.043 269.156 298.109 269.152C302.254 269.039 305.516 265.59 305.402 261.449L305.293 257.457Z" fill="url(#paint0_linear)"/>
<path d="M371.652 250.164C371.582 250.164 371.512 250.164 371.445 250.168C367.305 250.277 364.039 253.727 364.148 257.867L364.258 261.859C364.367 265.934 367.703 269.156 371.75 269.156C371.82 269.156 371.891 269.156 371.957 269.152C376.098 269.043 379.363 265.594 379.254 261.453L379.145 257.461C379.035 253.391 375.699 250.164 371.652 250.164V250.164Z" fill="url(#paint1_linear)"/>
<path d="M361.621 279.492C358.27 277.062 353.578 277.812 351.148 281.168C347.352 286.41 341.23 289.543 334.777 289.543C328.32 289.543 322.199 286.41 318.402 281.168C315.973 277.812 311.285 277.062 307.93 279.492C304.574 281.922 303.824 286.609 306.254 289.965C312.863 299.094 323.523 304.543 334.773 304.543C346.023 304.543 356.687 299.094 363.297 289.965C365.727 286.609 364.977 281.922 361.621 279.492V279.492Z" fill="url(#paint2_linear)"/>
<path d="M34.0781 377.555C30.4883 375.488 25.9023 376.726 23.8398 380.316C18.0586 390.371 15 401.851 15 413.508V504.5C15 508.641 18.3555 512 22.5 512C26.6445 512 30 508.641 30 504.5V413.508C30 404.469 32.3672 395.578 36.8438 387.797C38.9062 384.203 37.668 379.621 34.0781 377.555V377.555Z" fill="url(#paint3_linear)"/>
<path d="M108.625 229.41C104.484 229.523 101.219 232.969 101.332 237.109L101.449 241.414C101.559 245.484 104.895 248.711 108.941 248.711C109.012 248.711 109.082 248.711 109.152 248.707C113.293 248.594 116.559 245.145 116.445 241.008L116.328 236.703C116.215 232.562 112.758 229.301 108.625 229.41Z" fill="url(#paint4_linear)"/>
<path d="M188.555 248.711C188.625 248.711 188.695 248.711 188.766 248.707C192.906 248.594 196.172 245.145 196.055 241.004L195.938 236.699C195.824 232.559 192.398 229.301 188.234 229.41C184.094 229.523 180.828 232.973 180.945 237.113L181.063 241.414C181.172 245.484 184.508 248.711 188.555 248.711Z" fill="url(#paint5_linear)"/>
<path d="M178.969 271.383C181.398 268.027 180.648 263.34 177.289 260.906C173.937 258.48 169.246 259.23 166.816 262.586C162.613 268.39 155.84 271.855 148.695 271.855C141.551 271.855 134.773 268.39 130.57 262.586C128.141 259.23 123.453 258.48 120.098 260.906C116.742 263.34 115.992 268.027 118.422 271.383C125.437 281.07 136.754 286.855 148.691 286.855C160.633 286.855 171.949 281.07 178.969 271.383V271.383Z" fill="url(#paint6_linear)"/>
<path d="M70.6953 423.922C66.5547 423.922 63.1953 427.277 63.1953 431.422V504.5C63.1953 508.641 66.5547 512 70.6953 512C74.8398 512 78.1953 508.641 78.1953 504.5V431.422C78.1953 427.277 74.8398 423.922 70.6953 423.922Z" fill="url(#paint7_linear)"/>
<path d="M223.855 423.922C219.711 423.922 216.355 427.277 216.355 431.422V504.5C216.355 508.641 219.711 512 223.855 512C227.996 512 231.355 508.641 231.355 504.5V431.422C231.355 427.277 227.996 423.922 223.855 423.922Z" fill="url(#paint8_linear)"/>
<path d="M476.641 0H324.562C313.574 0 304.633 8.94141 304.633 19.9297V51.668C304.633 55.8125 307.988 59.168 312.133 59.168C316.273 59.168 319.633 55.8125 319.633 51.668V19.9297C319.633 17.2109 321.844 15 324.562 15H476.641C479.359 15 481.57 17.2109 481.57 19.9297V119.449C481.57 122.164 479.359 124.379 476.641 124.379H393.691C391.371 124.379 389.18 125.453 387.758 127.289L376.395 141.98C375.105 143.645 373.398 143.895 372.492 143.895C371.59 143.895 369.883 143.645 368.594 141.98L357.23 127.289C355.809 125.453 353.617 124.379 351.297 124.379H324.562C321.844 124.379 319.633 122.168 319.633 119.449V84.332C319.633 80.1875 316.277 76.832 312.133 76.832C307.988 76.832 304.633 80.1875 304.633 84.332V107.105C288.117 111.594 272.883 119.746 259.926 130.973C255.617 121.531 250.078 112.566 243.352 104.32C220.055 75.7617 185.551 59.3828 148.695 59.3828C111.84 59.3828 77.3359 75.7617 54.0352 104.32C30.7383 132.879 21.6211 169.965 29.0234 206.07L31.7422 219.336C26.0664 225.508 22.5938 233.738 22.5938 242.766C22.5938 261.871 38.1406 277.418 57.2461 277.418C61.4531 277.418 65.5312 276.652 69.375 275.215C74.6484 303.738 94.7734 326.664 121.023 336.289V346.84H81.668C70.5703 346.84 59.5781 349.625 49.8867 354.891C46.2461 356.867 44.8984 361.422 46.875 365.062C48.2344 367.562 50.8125 368.984 53.4727 368.984C54.6836 368.984 55.9102 368.691 57.0469 368.07C64.5508 363.996 73.0625 361.84 81.668 361.84H97.1719V504.5C97.1719 508.641 100.527 512 104.672 512C108.812 512 112.172 508.641 112.172 504.5V361.84H121.027V367.488C121.027 382.742 133.438 395.152 148.695 395.152C163.949 395.152 176.359 382.742 176.359 367.488V361.84H185.219V504.5C185.219 508.641 188.574 512 192.719 512C196.859 512 200.219 508.641 200.219 504.5V361.84H212.887C241.375 361.84 264.555 385.02 264.555 413.508V504.5C264.555 508.641 267.91 512 272.055 512C276.195 512 279.555 508.641 279.555 504.5V456.711C292.672 455.551 312.797 456.613 330.32 469.559C331.645 470.535 333.211 471.027 334.777 471.027C336.344 471.027 337.91 470.535 339.234 469.559C361.105 453.406 387.289 455.844 398.316 457.859V504.5C398.316 508.641 401.672 512 405.816 512C409.957 512 413.316 508.641 413.316 504.5V438.105C413.316 433.961 409.957 430.605 405.816 430.605C401.672 430.605 398.316 433.961 398.316 438.105V442.605C394.094 441.937 388.715 441.367 382.59 441.332V377.711C412.051 387.305 433.41 415.02 433.41 447.641V504.5C433.41 508.641 436.766 512 440.91 512C445.051 512 448.41 508.641 448.41 504.5V447.641C448.41 424.91 439.797 404.152 425.664 388.461C431.016 381.809 434.348 373.742 435.207 365.102L437.293 344.07C437.699 339.949 434.691 336.277 430.57 335.867C426.438 335.457 422.773 338.469 422.367 342.59L420.281 363.621C419.754 368.945 417.801 373.937 414.672 378.148C399.859 366.441 381.23 359.367 360.984 359.113V350.238C385.145 341.238 403.684 320.16 408.766 293.934C412.23 295.148 415.898 295.789 419.602 295.789C422.18 295.789 424.688 295.48 427.094 294.914L425.605 309.93C425.195 314.051 428.207 317.727 432.328 318.133C432.578 318.16 432.828 318.172 433.078 318.172C436.887 318.172 440.148 315.281 440.531 311.41L443.07 285.824C448.773 279.937 452.293 271.926 452.293 263.102C452.293 256.59 450.371 250.523 447.078 245.422L448.715 228.902C452.016 195.633 440.836 163.289 418.406 139.379H476.637C487.629 139.379 496.57 130.441 496.57 119.449V19.9297C496.57 8.94141 487.629 0 476.641 0V0ZM259.793 242.766C259.793 253.602 250.977 262.418 240.141 262.418C236.559 262.418 233.137 261.461 230.113 259.66L234.578 223.91C236.367 223.383 238.227 223.113 240.141 223.113C250.977 223.109 259.793 231.93 259.793 242.766V242.766ZM240.723 277.402C246.996 277.301 252.871 275.523 257.918 272.496L258.664 278.484C256.023 279.988 253.055 280.789 249.949 280.789C246.637 280.789 243.5 279.852 240.801 278.223L240.723 277.402ZM65.6602 113.801C86.0977 88.75 116.363 74.3789 148.695 74.3789C181.023 74.3789 211.289 88.7461 231.727 113.801C252.164 138.855 260.164 171.387 253.668 203.059L252.191 210.277C248.434 208.879 244.375 208.109 240.137 208.109C238.93 208.109 237.727 208.188 236.527 208.312L238.09 195.797C238.754 195.812 239.414 195.828 240.094 195.84H240.309C243.75 195.84 246.988 194.516 249.449 192.094C251.957 189.629 253.336 186.336 253.336 182.824V168.93C253.336 164.789 249.98 161.43 245.836 161.43C241.691 161.43 238.336 164.789 238.336 168.93V180.801C200.43 179.949 186.266 172.719 185.344 172.223C183.047 170.75 180.219 170.703 177.816 172.004C175.398 173.313 173.984 175.906 173.984 178.656V180.738C140.594 179.395 124.434 169.32 124.312 169.242C122.008 167.73 119.055 167.605 116.633 168.914C114.207 170.223 112.695 172.758 112.695 175.516V180.75C85.4961 179.742 68.7734 173.453 59.4766 168.285C55.8516 166.273 51.2891 167.578 49.2773 171.199C47.2656 174.82 48.5703 179.387 52.1875 181.398C53.8711 182.332 55.7578 183.297 57.8555 184.266L60.8594 208.301C59.6641 208.18 58.4609 208.113 57.25 208.113C53.0117 208.113 48.9531 208.879 45.1953 210.277L43.7188 203.062C37.2227 171.387 45.2227 138.855 65.6602 113.801ZM37.5938 242.766C37.5938 231.93 46.4102 223.109 57.25 223.109C59.1562 223.109 61.0156 223.391 62.8086 223.918L67.2734 259.66C64.25 261.465 60.8281 262.418 57.25 262.418C46.4102 262.418 37.5938 253.602 37.5938 242.766ZM83.5156 268.668L73.6953 190.055C84.2227 193.043 97.6055 195.355 114.297 195.805C117.84 195.887 121.215 194.59 123.762 192.109C125.254 190.656 126.352 188.914 127.004 187.004C136.637 190.711 152.711 195.137 175.566 195.797C179.051 195.898 182.523 194.559 185.035 192.113C185.973 191.203 186.754 190.18 187.367 189.074C194.504 191.301 205.93 193.84 223.059 195.098L220.242 217.66C220.234 217.723 220.227 217.785 220.219 217.844L213.871 268.668C209.773 301.473 181.754 326.211 148.691 326.211C115.633 326.211 87.6133 301.473 83.5156 268.668ZM148.695 380.156C141.711 380.156 136.027 374.473 136.027 367.488V340.191C140.164 340.852 144.391 341.211 148.695 341.211C152.996 341.211 157.227 340.852 161.359 340.191V367.488C161.359 374.473 155.68 380.156 148.695 380.156ZM176.359 346.84V336.289C199.566 327.777 218 308.883 225.605 284.902C225.891 285.223 226.184 285.535 226.484 285.844L232.836 349.895C226.531 347.91 219.832 346.84 212.883 346.84H176.359ZM248.645 357.285L242.457 294.91C244.875 295.48 247.387 295.789 249.949 295.789C253.699 295.789 257.344 295.152 260.789 293.941C265.875 320.168 284.41 341.242 308.566 350.238V359.121C292.949 359.316 277.879 363.551 264.566 371.453C260.059 365.922 254.68 361.137 248.645 357.285V357.285ZM279.555 441.664V413.508C279.555 402.945 277.074 392.957 272.684 384.07C277.223 381.422 282.008 379.293 286.965 377.684V441.363C284.348 441.379 281.863 441.488 279.555 441.664ZM367.59 374.508V442.379C357.117 443.934 345.715 447.441 334.777 454.43C323.855 447.461 312.441 443.953 301.965 442.402V374.512C304.148 374.281 306.352 374.156 308.566 374.121V378.797C308.566 393.25 320.324 405.004 334.777 405.004C349.227 405.004 360.984 393.246 360.984 378.797V374.129C363.211 374.164 365.414 374.281 367.59 374.508V374.508ZM345.984 378.797C345.984 384.977 340.957 390.004 334.777 390.004C328.598 390.004 323.566 384.977 323.566 378.797V354.117C327.234 354.668 330.973 354.965 334.777 354.965C338.578 354.965 342.32 354.668 345.984 354.117V378.797ZM334.777 339.965C304.383 339.965 278.621 317.219 274.855 287.062L271.23 258.047C273.508 253.434 274.793 248.246 274.793 242.766C274.793 235.254 272.383 228.301 268.309 222.617C286.527 223.836 309.336 221.199 329.691 206.562C337.332 220.711 356.547 246.215 398.648 255.457L394.699 287.062C390.93 317.223 365.172 339.965 334.777 339.965V339.965ZM410.887 278.488L413.586 256.895C415.742 256.398 417.797 255.457 419.629 254.086C422.277 252.098 424.191 249.406 425.211 246.336C432.223 248.687 437.293 255.305 437.293 263.102C437.293 272.855 429.359 280.789 419.605 280.789C416.492 280.789 413.527 279.996 410.887 278.488ZM433.789 227.422L433.195 233.383C431.379 232.547 429.469 231.871 427.488 231.379L429.605 215.469C430.148 211.363 427.262 207.594 423.156 207.047C419.059 206.508 415.281 209.387 414.734 213.492L411.027 241.402C410.988 241.687 410.852 241.914 410.625 242.09C410.465 242.211 410.195 242.34 409.84 242.285C353.738 233.742 340.215 194.012 339.68 192.359C338.906 189.914 336.945 188.031 334.469 187.363C331.992 186.699 329.352 187.344 327.461 189.074C308.688 206.266 285.746 208.941 268.062 207.559L268.367 206.074C272.52 185.816 271.469 165.254 265.637 146.059C276.809 135.246 290.227 127.262 304.914 122.652C306.457 132.121 314.668 139.379 324.566 139.379H347.617L356.73 151.16C360.535 156.078 366.281 158.895 372.496 158.895C378.711 158.895 384.457 156.078 388.262 151.16L396.953 139.922C423.371 161.105 437.133 193.715 433.789 227.422V227.422Z" fill="url(#paint9_linear)"/>
<path d="M381.984 46.4375C377.84 46.4375 374.484 49.7969 374.484 53.9375V60.7305H367.691C363.547 60.7305 360.191 64.0898 360.191 68.2305C360.191 72.375 363.547 75.7305 367.691 75.7305H374.484V82.5273C374.484 86.668 377.84 90.0273 381.984 90.0273C386.129 90.0273 389.484 86.668 389.484 82.5273V75.7305H396.277C400.422 75.7305 403.777 72.375 403.777 68.2305C403.777 64.0898 400.422 60.7305 396.277 60.7305H389.484V53.9375C389.484 49.7969 386.129 46.4375 381.984 46.4375Z" fill="url(#paint10_linear)"/>
<path d="M436.008 37.578C433.766 36.2187 430.977 36.1288 428.652 37.3437L419.121 42.3163C415.449 44.2304 414.023 48.7616 415.941 52.4335C417.613 55.6405 421.273 57.1327 424.621 56.1874V84.9726H423.016C418.871 84.9726 415.516 88.328 415.516 92.4726C415.516 96.6132 418.871 99.9726 423.016 99.9726H441.227C445.371 99.9726 448.727 96.6132 448.727 92.4726C448.727 88.328 445.371 84.9726 441.227 84.9726H439.621V43.9921C439.621 41.371 438.25 38.9374 436.008 37.578Z" fill="url(#paint11_linear)"/>
</g>
<defs>
<linearGradient id="paint0_linear" x1="297.852" y1="250.161" x2="297.852" y2="269.156" gradientUnits="userSpaceOnUse">
<stop stop-color="#71EAFF"/>
<stop offset="1" stop-color="#00C2FF"/>
</linearGradient>
<linearGradient id="paint1_linear" x1="371.701" y1="250.164" x2="371.701" y2="269.156" gradientUnits="userSpaceOnUse">
<stop stop-color="#71EAFF"/>
<stop offset="1" stop-color="#00C2FF"/>
</linearGradient>
<linearGradient id="paint2_linear" x1="334.775" y1="278.066" x2="334.775" y2="304.543" gradientUnits="userSpaceOnUse">
<stop stop-color="#71EAFF"/>
<stop offset="1" stop-color="#00C2FF"/>
</linearGradient>
<linearGradient id="paint3_linear" x1="26.4207" y1="376.554" x2="26.4207" y2="512" gradientUnits="userSpaceOnUse">
<stop stop-color="#71EAFF"/>
<stop offset="1" stop-color="#00C2FF"/>
</linearGradient>
<linearGradient id="paint4_linear" x1="108.889" y1="229.407" x2="108.889" y2="248.711" gradientUnits="userSpaceOnUse">
<stop stop-color="#71EAFF"/>
<stop offset="1" stop-color="#00C2FF"/>
</linearGradient>
<linearGradient id="paint5_linear" x1="188.5" y1="229.407" x2="188.5" y2="248.711" gradientUnits="userSpaceOnUse">
<stop stop-color="#71EAFF"/>
<stop offset="1" stop-color="#00C2FF"/>
</linearGradient>
<linearGradient id="paint6_linear" x1="148.695" y1="259.483" x2="148.695" y2="286.855" gradientUnits="userSpaceOnUse">
<stop stop-color="#71EAFF"/>
<stop offset="1" stop-color="#00C2FF"/>
</linearGradient>
<linearGradient id="paint7_linear" x1="70.6953" y1="423.922" x2="70.6953" y2="512" gradientUnits="userSpaceOnUse">
<stop stop-color="#71EAFF"/>
<stop offset="1" stop-color="#00C2FF"/>
</linearGradient>
<linearGradient id="paint8_linear" x1="223.855" y1="423.922" x2="223.855" y2="512" gradientUnits="userSpaceOnUse">
<stop stop-color="#71EAFF"/>
<stop offset="1" stop-color="#00C2FF"/>
</linearGradient>
<linearGradient id="paint9_linear" x1="259.582" y1="0" x2="259.582" y2="512" gradientUnits="userSpaceOnUse">
<stop stop-color="#71EAFF"/>
<stop offset="1" stop-color="#00C2FF"/>
</linearGradient>
<linearGradient id="paint10_linear" x1="381.984" y1="46.4375" x2="381.984" y2="90.0273" gradientUnits="userSpaceOnUse">
<stop stop-color="#71EAFF"/>
<stop offset="1" stop-color="#00C2FF"/>
</linearGradient>
<linearGradient id="paint11_linear" x1="431.907" y1="36.4917" x2="431.907" y2="99.9726" gradientUnits="userSpaceOnUse">
<stop stop-color="#71EAFF"/>
<stop offset="1" stop-color="#00C2FF"/>
</linearGradient>
<clipPath id="clip0">
<rect width="512" height="512" fill="white"/>
</clipPath>
</defs>
</svg>
