<?xml version="1.0" encoding="iso-8859-1"?>
<!-- Generator: Adobe Illustrator 19.0.0, SVG Export Plug-In . SVG Version: 6.00 Build 0)  -->
<svg version="1.1" id="Capa_1" xmlns="http://www.w3.org/2000/svg" xmlns:xlink="http://www.w3.org/1999/xlink" x="0px" y="0px"
	 viewBox="0 0 512 512" style="enable-background:new 0 0 512 512;" xml:space="preserve">
<linearGradient id="SVGID_1_" gradientUnits="userSpaceOnUse" x1="0" y1="258" x2="512" y2="258" gradientTransform="matrix(1 0 0 -1 0 514)">
	<stop  offset="0" style="stop-color:#00F2FE"/>
	<stop  offset="0.021" style="stop-color:#03EFFE"/>
	<stop  offset="0.293" style="stop-color:#24D2FE"/>
	<stop  offset="0.554" style="stop-color:#3CBDFE"/>
	<stop  offset="0.796" style="stop-color:#4AB0FE"/>
	<stop  offset="1" style="stop-color:#4FACFE"/>
</linearGradient>
<path style="fill:url(#SVGID_1_);" d="M432,487H80c-44.112,0-80-35.888-80-80V177c0-44.112,35.888-80,80-80h29.917
	c8.399,0,15.958-5.308,18.811-13.207l6.923-19.172C144.208,40.923,166.887,25,192.083,25h127.771c25.694,0,48.52,16.343,56.8,40.667
	l6.051,17.777C385.465,91.553,393.074,97,401.639,97H432c44.112,0,80,35.888,80,80v130c0,11.046-8.954,20-20,20s-20-8.954-20-20V177
	c0-22.056-17.944-40-40-40h-30.361c-25.695,0-48.521-16.343-56.8-40.667l-6.051-17.777C336.027,70.448,328.419,65,319.854,65
	H192.083c-8.399,0-15.958,5.308-18.811,13.207l-6.923,19.172C157.792,121.077,135.113,137,109.917,137H80c-22.056,0-40,17.944-40,40
	v230c0,22.056,17.944,40,40,40h352c22.056,0,40-17.944,40-40c0-11.046,8.954-20,20-20s20,8.954,20,20
	C512,451.112,476.112,487,432,487z M382,282c0-68.925-56.075-125-125-125s-125,56.075-125,125s56.075,125,125,125
	S382,350.925,382,282z M342,282c0,46.869-38.131,85-85,85s-85-38.131-85-85s38.131-85,85-85S342,235.131,342,282z"/>
<g>
</g>
<g>
</g>
<g>
</g>
<g>
</g>
<g>
</g>
<g>
</g>
<g>
</g>
<g>
</g>
<g>
</g>
<g>
</g>
<g>
</g>
<g>
</g>
<g>
</g>
<g>
</g>
<g>
</g>
</svg>
