<svg width="512" height="512" viewBox="0 0 512 512" fill="none" xmlns="http://www.w3.org/2000/svg">
<g clip-path="url(#clip0)">
<path d="M54.6289 338.615C64.4875 348.407 75.4008 357.079 87.1695 364.469L38.0129 413.66C33.2085 418.461 30.5095 424.972 30.5095 431.765C30.5095 438.557 33.2085 445.072 38.0129 449.873L62.1635 474.019C66.9639 478.824 73.4752 481.523 80.2676 481.523C87.0601 481.523 93.5753 478.824 98.3757 474.019L179.264 393.131H180.057C181.999 393.107 183.924 392.748 185.74 392.072C186.377 392.025 187.002 391.9 187.611 391.705C224.718 376.413 254.65 372.933 281.812 380.8C290.397 383.295 298.615 386.92 306.247 391.576C306.607 395.482 308.31 399.142 311.071 401.927L413.642 504.49C423.637 514.481 439.839 514.481 449.838 504.49L473.97 480.359C478.77 475.558 481.465 469.047 481.465 462.259C481.465 455.466 478.77 448.955 473.97 444.154L437.746 407.993L383.367 353.614C387.855 352.157 392.37 350.524 396.893 348.665C442.472 329.553 478.715 293.302 497.823 247.723C506.901 226.053 511.705 202.836 511.982 179.342C512.322 156.05 508.088 132.915 499.522 111.253C481.59 66.1622 445.878 30.4499 400.791 12.5098C379.117 3.9753 355.986 -0.254865 332.691 0.0537071C309.204 0.327125 285.987 5.12756 264.321 14.1933C250.165 20.1226 236.799 27.7861 224.531 37.0081C209.786 32.9771 194.591 30.8171 179.307 30.5749C156.012 30.2468 132.873 34.4692 111.199 43.0154C66.0733 60.9009 30.3455 96.6366 12.4679 141.766C3.91769 163.436 -0.312471 186.568 0.0195366 209.863C0.304673 233.345 5.1012 256.551 14.1474 278.221C23.5413 300.817 37.2981 321.339 54.6289 338.615V338.615ZM104.371 443.858L86.2594 425.742C82.8651 422.894 77.8576 423.117 74.7329 426.253C71.6042 429.39 71.3972 434.397 74.2524 437.78L92.3683 455.896L86.3258 461.93C82.9432 465.141 77.6389 465.141 74.2524 461.93L50.0784 437.78C48.477 436.182 47.5786 434.011 47.5786 431.745C47.5786 429.48 48.477 427.308 50.0784 425.706L80.2247 395.56L98.3405 413.676C101.688 416.91 107.012 416.863 110.301 413.571C113.593 410.282 113.64 404.958 110.406 401.611L92.2902 383.495L102.575 373.214C106.668 375.288 110.773 377.351 115.031 379.128C128.616 384.725 142.826 388.678 157.352 390.893L104.371 443.858ZM215.621 364.656L334.109 246.169C327.781 269.362 327.699 293.818 333.878 317.05C336.565 326.343 340.385 335.272 345.252 343.63L313.091 375.792C304.74 370.917 295.818 367.09 286.53 364.398C263.286 358.219 238.819 358.305 215.621 364.656V364.656ZM461.904 468.321L437.746 492.452C434.414 495.78 429.012 495.78 425.68 492.452L419.673 486.417L437.746 468.313C439.964 466.168 440.855 462.997 440.074 460.013C439.292 457.028 436.964 454.7 433.98 453.919C430.996 453.138 427.824 454.029 425.68 456.247L407.584 474.351L371.379 438.147L389.476 420.051C392.71 416.703 392.663 411.379 389.374 408.091C386.081 404.798 380.761 404.751 377.41 407.985L359.314 426.081L323.109 389.877L359.314 353.673L371.379 365.75L353.271 383.846C351.115 386.002 350.271 389.143 351.06 392.088C351.849 395.033 354.15 397.337 357.095 398.126C360.036 398.915 363.181 398.076 365.337 395.92L383.437 377.812L419.641 414.016L401.541 432.116C399.323 434.257 398.436 437.432 399.213 440.412C399.994 443.397 402.326 445.728 405.31 446.506C408.291 447.287 411.466 446.4 413.607 444.182L431.773 426.081L461.935 456.247C463.533 457.853 464.427 460.024 464.423 462.29C464.416 464.555 463.509 466.723 461.904 468.321V468.321ZM270.879 29.9187C290.538 21.7084 311.595 17.361 332.898 17.1189C353.97 16.7869 374.906 20.6147 394.503 28.3798C435.211 44.5817 467.454 76.8294 483.652 117.541C491.402 137.138 495.226 158.066 494.917 179.138C494.671 200.442 490.328 221.495 482.117 241.153C464.74 282.564 431.797 315.504 390.382 332.873C383.503 335.682 376.441 338.014 369.247 339.849C366.833 338.127 364.009 337.068 361.056 336.787C356.4 329.151 352.779 320.937 350.279 312.351C342.428 285.189 345.901 255.266 361.193 218.175C361.368 217.604 361.482 217.018 361.532 216.425C362.294 214.386 362.661 212.218 362.607 210.042C361.86 187.892 357.111 166.061 348.58 145.606C329.503 100.015 293.256 63.7639 247.673 44.6872C246.74 44.3044 245.787 44.0388 244.846 43.6716C253.111 38.3439 261.821 33.7427 270.879 29.9187V29.9187ZM28.3456 148.035C44.4851 107.304 76.7484 75.0522 117.488 58.9283C136.443 51.4445 156.641 47.6206 177.022 47.6674H179.112C200.411 47.9174 221.468 52.2609 241.127 60.4634C282.526 77.8137 315.45 110.745 332.792 152.148C340.55 170.717 344.846 190.544 345.463 210.656L219.086 337.096L218.992 337.154L218.933 337.24L180.108 376.066L180.065 376.124C159.969 375.452 140.162 371.14 121.601 363.402C80.1739 346.052 47.2271 313.105 29.8807 271.675C21.6898 252.012 17.3425 230.959 17.0847 209.66C16.7761 188.579 20.604 167.643 28.3456 148.035V148.035Z" fill="#00ECFF"/>
<path d="M301.306 165.245C306.146 176.885 309.306 189.153 310.692 201.68C311.169 206.004 314.817 209.281 319.168 209.285C319.485 209.285 319.801 209.265 320.114 209.234C324.785 208.714 328.156 204.519 327.656 199.848C326.09 185.704 322.516 171.858 317.051 158.718C309.357 140.251 298.096 123.478 283.909 109.366C280.562 106.132 275.242 106.179 271.949 109.468C268.656 112.76 268.609 118.084 271.844 121.432C284.448 133.958 294.463 148.848 301.306 165.245V165.245Z" fill="#00ECFF"/>
<path d="M53.543 270.378C56.3944 270.386 59.0621 268.968 60.648 266.601C62.2377 264.234 62.5384 261.23 61.4526 258.594C57.5466 249.094 54.7539 239.173 53.1329 229.029L52.6134 189.778C53.9492 179.798 56.4686 170.018 60.1207 160.64C61.2651 157.8 60.8003 154.562 58.902 152.16C57.0037 149.758 53.9648 148.559 50.9377 149.012C47.9106 149.469 45.36 151.511 44.2507 154.367C37.3215 171.889 33.8921 190.598 34.1499 209.437C34.3803 228.561 38.2863 247.462 45.653 265.113C46.9732 268.304 50.0901 270.382 53.543 270.378V270.378Z" fill="#00ECFF"/>
<path d="M455.186 239.208C459.541 241.017 464.533 238.95 466.341 234.599C473.708 216.952 477.614 198.055 477.848 178.931C478.129 160.065 474.708 141.329 467.783 123.779C466.673 120.924 464.123 118.877 461.095 118.424C458.068 117.967 455.03 119.17 453.131 121.572C451.233 123.974 450.768 127.208 451.913 130.048C455.565 139.43 458.088 149.215 459.42 159.198L458.9 198.446C457.279 208.593 454.487 218.518 450.581 228.021C449.702 230.115 449.694 232.474 450.557 234.572C451.424 236.673 453.088 238.341 455.186 239.208Z" fill="#00ECFF"/>
<path d="M204.802 460.821C204.802 489.096 227.726 512.017 256.001 512.017C284.276 512.017 307.197 489.096 307.197 460.821C307.197 432.546 284.276 409.622 256.001 409.622C227.737 409.653 204.833 432.558 204.802 460.821V460.821ZM290.131 460.821C290.131 479.671 274.851 494.951 256.001 494.951C237.151 494.951 221.867 479.671 221.867 460.821C221.867 441.971 237.151 426.687 256.001 426.687C274.851 426.687 290.131 441.971 290.131 460.821V460.821Z" fill="#00ECFF"/>
<path d="M241.408 446.228C238.948 448.67 238.209 452.357 239.537 455.56C240.865 458.759 244.002 460.841 247.466 460.821C248.041 460.806 248.611 460.747 249.173 460.649C249.708 460.556 250.224 460.384 250.708 460.138C251.251 459.95 251.771 459.692 252.243 459.368C252.693 459.056 253.118 458.712 253.525 458.345C256.872 454.997 256.872 449.576 253.525 446.228C250.181 442.881 244.756 442.881 241.408 446.228Z" fill="#00ECFF"/>
</g>
<defs>
<clipPath id="clip0">
<rect width="512" height="512" fill="white"/>
</clipPath>
</defs>
</svg>
