<svg width="512" height="512" viewBox="0 0 512 512" fill="none" xmlns="http://www.w3.org/2000/svg">
<path d="M489.5 57.5H415.667C411.525 57.5 408.167 60.858 408.167 65C408.167 69.142 411.525 72.5 415.667 72.5H489.5C493.636 72.5 497 75.864 497 80C497 82 496.221 83.878 494.787 85.306C493.378 86.721 491.5 87.5 489.5 87.5H185.5V72.5H384C388.142 72.5 391.5 69.142 391.5 65C391.5 60.858 388.142 57.5 384 57.5H185.5V45C185.5 35.351 177.649 27.5 168 27.5H98C88.351 27.5 80.5 35.351 80.5 45V57.5H22.5C16.483 57.5 10.832 59.846 6.606 64.087C2.346 68.332 0 73.983 0 80C0 92.407 10.093 102.5 22.5 102.5H80.5V115C80.5 124.649 88.351 132.5 98 132.5H168C177.649 132.5 185.5 124.649 185.5 115V102.5H489.5C495.517 102.5 501.168 100.154 505.394 95.913C509.654 91.668 512 86.017 512 80C512 67.593 501.907 57.5 489.5 57.5ZM80.5 87.5H22.5C18.364 87.5 15 84.136 15 80C15 78 15.779 76.122 17.213 74.694C18.622 73.279 20.5 72.5 22.5 72.5H80.5V87.5ZM170.5 115C170.5 116.355 169.355 117.5 168 117.5H98C96.645 117.5 95.5 116.355 95.5 115V45C95.5 43.645 96.645 42.5 98 42.5H168C169.355 42.5 170.5 43.645 170.5 45V115Z" fill="#E5E5E5"/>
<path d="M489.5 294H376.727V262H380C389.649 262 397.5 254.149 397.5 244.5V232H489.5C495.517 232 501.168 229.654 505.394 225.413C509.654 221.168 512 215.517 512 209.5C512 197.093 501.907 187 489.5 187H397.5V174.5C397.5 164.851 389.649 157 380 157H310C300.351 157 292.5 164.851 292.5 174.5V187H22.5C16.483 187 10.832 189.346 6.606 193.587C2.346 197.832 0 203.483 0 209.5C0 221.907 10.093 232 22.5 232H63.875C68.017 232 71.375 228.642 71.375 224.5C71.375 220.358 68.017 217 63.875 217H22.5C18.364 217 15 213.636 15 209.5C15 207.5 15.779 205.622 17.213 204.194C18.622 202.779 20.5 202 22.5 202H292.5V217H96.25C92.108 217 88.75 220.358 88.75 224.5C88.75 228.642 92.108 232 96.25 232H292.5V244.5C292.5 254.149 300.351 262 310 262H318.934L318.797 294H217.776V281.5C217.776 271.851 209.925 264 200.276 264H130.276C120.627 264 112.776 271.851 112.776 281.5V294H22.5C16.483 294 10.832 296.346 6.606 300.587C2.346 304.832 0 310.483 0 316.5C0 328.907 10.093 339 22.5 339H112.776V351.5C112.776 361.149 120.627 369 130.276 369H200.276C209.925 369 217.776 361.149 217.776 351.5V339H280.854C278.094 343.642 276.501 349.06 276.501 354.817V374.334C276.501 378.476 279.859 381.834 284.001 381.834C288.143 381.834 291.501 378.476 291.501 374.334V354.817C291.501 346.45 297.953 339.494 306 339H308.115C311.372 339.264 313.898 340.679 315.968 343.369C318.527 346.695 322.921 348.025 326.9 346.68C330.899 345.329 333.597 341.588 333.615 337.372L333.64 331.55C333.64 331.533 333.643 331.517 333.643 331.5C333.643 331.486 333.641 331.472 333.641 331.458L333.969 254.582C333.969 254.555 333.973 254.528 333.973 254.5C333.973 254.477 333.97 254.454 333.97 254.431L334.071 230.844C334.078 223.21 340.282 217 347.901 217C351.595 217 355.067 218.439 357.678 221.053C360.291 223.669 361.73 227.147 361.73 230.849V299.265C361.73 312.155 372.21 322.641 385.092 322.641H428.851C446.304 322.641 460.503 336.855 460.503 354.328V453.315C460.503 458.105 456.613 462.001 451.831 462.001H450.986H330.986H329.636C308.609 462.001 291.503 444.876 291.503 423.828V406.5C291.503 402.358 288.145 399 284.003 399C279.861 399 276.503 402.358 276.503 406.5V423.827C276.503 451.064 297.077 473.571 323.486 476.633V495.668C323.486 501.917 328.569 507 334.819 507H447.154C453.403 507 458.486 501.917 458.486 495.668V476.041C468.308 473.156 475.503 464.063 475.503 453.314V354.327C475.503 348.959 474.582 343.804 472.908 339H489.5C495.517 339 501.168 336.654 505.394 332.413C509.654 328.168 512 322.517 512 316.5C512 304.093 501.907 294 489.5 294ZM397.5 202H489.5C493.636 202 497 205.364 497 209.5C497 211.5 496.221 213.378 494.787 214.806C493.378 216.221 491.5 217 489.5 217H397.5V202ZM112.776 324H22.5C18.364 324 15 320.636 15 316.5C15 314.5 15.779 312.622 17.213 311.194C18.622 309.779 20.5 309 22.5 309H112.776V324ZM202.776 351.5C202.776 352.855 201.631 354 200.276 354H130.276C128.921 354 127.776 352.855 127.776 351.5V331.577C127.776 331.551 127.78 331.526 127.78 331.5C127.78 331.474 127.776 331.449 127.776 331.423V301.578C127.776 301.552 127.78 301.527 127.78 301.501C127.78 301.475 127.776 301.45 127.776 301.424V281.5C127.776 280.145 128.921 279 130.276 279H200.276C201.631 279 202.776 280.145 202.776 281.5V351.5ZM318.67 324H308.413C307.718 323.965 307.018 323.946 306.306 323.959C306.006 323.965 305.709 323.985 305.411 324H217.776V309H318.734L318.67 324ZM368.286 210.452C362.841 205.001 355.6 202 347.897 202C332.016 202 319.083 214.933 319.067 230.805L318.998 247H310C308.645 247 307.5 245.855 307.5 244.5V174.5C307.5 173.145 308.645 172 310 172H380C381.355 172 382.5 173.145 382.5 174.5V209.5V244.5C382.5 245.855 381.355 247 380 247H376.727V230.849C376.727 223.143 373.729 215.899 368.286 210.452ZM443.483 492H338.483V477H443.483V492ZM494.787 321.806C493.378 323.221 491.5 324 489.5 324H464.273C458.035 316.713 449.603 311.367 440.005 309H489.5C493.636 309 497 312.364 497 316.5C497 318.5 496.221 320.378 494.787 321.806Z" fill="#E5E5E5"/>
</svg>
