<svg width="512" height="512" viewBox="0 0 512 512" fill="none" xmlns="http://www.w3.org/2000/svg">
<g clip-path="url(#clip0)">
<path d="M201.447 256C166.162 256 137.447 284.715 137.447 320C137.447 355.285 166.162 384 201.447 384C236.732 384 265.447 355.285 265.447 320C265.447 284.715 236.733 256 201.447 256ZM201.447 362.667C177.916 362.667 158.78 343.531 158.78 320C158.78 296.469 177.916 277.333 201.447 277.333C224.978 277.333 244.114 296.469 244.114 320C244.114 343.531 224.978 362.667 201.447 362.667Z" fill="#E5E5E5"/>
<path d="M381.074 359.275L347.453 332.928C347.858 328.683 348.114 324.352 348.114 320.021C348.114 315.626 347.858 311.253 347.431 306.858L381.372 280.234C388.881 273.877 390.695 263.253 385.788 255.082L349.436 192.255C344.487 184.042 334.417 180.5 325.159 183.956L285.628 199.849C278.524 194.772 271.121 190.462 263.228 186.75L257.233 144.19C255.485 134.976 247.101 128 237.693 128H165.16C155.688 128 147.283 135.125 145.512 144.939L139.603 187.051C131.646 190.827 124.158 195.2 117.224 200.107L77.459 184.107C68.499 180.758 58.387 184.256 53.352 192.64L17.192 255.211C12.2 263.51 14.013 274.155 21.821 280.747L55.442 307.094C55.037 311.339 54.781 315.67 54.781 320.001C54.781 324.396 55.037 328.769 55.464 333.164L21.501 359.767C13.992 366.124 12.178 376.748 17.085 384.919L53.437 447.746C58.386 455.981 68.456 459.501 77.714 456.045L117.245 440.152C124.349 445.229 131.752 449.539 139.645 453.251L145.64 495.811C147.389 505.027 155.773 512.003 165.181 512.003H237.714C247.186 512.003 255.591 504.878 257.362 495.064L263.271 452.952C271.228 449.176 278.716 444.803 285.65 439.896L325.415 455.896C334.396 459.267 344.508 455.747 349.522 447.363L385.703 384.814C390.695 376.512 388.882 365.867 381.074 359.275ZM331.773 435.435L288.061 417.856C284.541 416.405 280.53 417.003 277.522 419.328C269.181 425.835 259.687 431.381 249.319 435.819C245.906 437.291 243.474 440.448 242.962 444.139L237.714 490.667H166.439L159.954 444.395C159.421 440.683 156.989 437.504 153.511 436.054C143.292 431.787 134.098 426.39 125.372 419.606C122.385 417.281 118.353 416.705 114.833 418.134L71.121 435.734L36.198 375.382L73.318 346.283C76.283 343.958 77.798 340.246 77.329 336.512C76.604 331.008 76.113 325.504 76.113 320C76.113 314.517 76.604 309.056 77.308 303.808C77.799 300.075 76.305 296.32 73.319 293.995L36.199 264.896L71.122 204.544L114.834 222.123C118.311 223.552 122.365 222.976 125.373 220.651C133.714 214.144 143.208 208.598 153.576 204.16C156.989 202.688 159.4 199.552 159.933 195.861L165.16 149.333H236.456L242.941 195.605C243.474 199.317 245.906 202.496 249.384 203.946C259.603 208.213 268.797 213.61 277.523 220.394C280.552 222.741 284.584 223.317 288.062 221.866L331.774 204.245L366.697 264.597L329.577 293.696C326.612 296.021 325.097 299.733 325.566 303.467C326.291 308.971 326.782 314.475 326.782 319.979C326.782 325.462 326.291 330.923 325.587 336.171C325.096 339.904 326.59 343.659 329.576 345.984L366.696 375.083L331.773 435.435Z" fill="#E5E5E5"/>
<path d="M393.447 64C369.916 64 350.78 83.136 350.78 106.667C350.78 130.198 369.916 149.334 393.447 149.334C416.978 149.334 436.114 130.198 436.114 106.667C436.114 83.136 416.978 64 393.447 64ZM393.447 128C381.692 128 372.114 118.421 372.114 106.667C372.114 94.912 381.693 85.334 393.447 85.334C405.201 85.334 414.78 94.913 414.78 106.667C414.781 118.421 405.202 128 393.447 128Z" fill="#E5E5E5"/>
<path d="M492.306 124.032C492.135 123.883 491.943 123.733 491.773 123.584L475.922 111.296C476.05 109.781 476.114 108.245 476.114 106.667C476.114 105.067 476.071 103.51 475.986 101.931L492.135 89.259C497.639 84.352 499.047 76.459 495.42 69.824L476.348 36.843C472.785 30.294 464.913 27.307 457.041 29.952L438.652 37.355C435.985 35.584 433.319 34.027 430.609 32.683L427.878 13.824C427.261 6.08 420.562 0 412.647 0H374.247C366.738 0 360.167 5.568 358.866 13.205L356.05 32.853C353.234 34.282 350.567 35.797 348.071 37.418L329.298 29.866C322.343 27.349 314.727 29.951 310.461 36.65L291.154 70.08C287.463 76.821 289.021 84.864 295.079 89.728L310.887 102.101C310.823 103.594 310.78 105.109 310.78 106.666C310.78 108.223 310.823 109.738 310.887 111.253L294.588 124.032C289.063 128.939 287.655 136.853 291.281 143.509L310.353 176.49C313.937 183.039 321.83 186.047 329.66 183.381L348.049 175.978C350.716 177.749 353.382 179.306 356.092 180.65L358.929 200.405C360.188 207.893 366.63 213.333 374.246 213.333H412.646C420.134 213.333 426.726 207.765 428.027 200.149L430.843 180.48C433.659 179.072 436.283 177.557 438.715 175.957L457.574 183.509C464.486 186.005 472.166 183.402 476.433 176.725L495.761 143.253C499.239 136.832 497.831 128.917 492.306 124.032ZM460.455 161.685L441.17 153.984C437.607 152.576 433.575 153.152 430.546 155.563C426.898 158.486 422.29 161.152 416.829 163.52C413.437 164.992 411.048 168.107 410.514 171.776L407.613 192H379.261L376.381 171.755C375.826 167.936 373.245 164.715 369.661 163.328C365.096 161.579 360.616 158.976 355.986 155.413C352.978 153.109 349.01 152.576 345.49 153.984L326.439 161.685L312.295 137.237L328.594 124.48C331.559 122.155 333.074 118.464 332.605 114.752C332.264 112.107 332.114 109.461 332.114 106.667C332.114 103.873 332.263 101.227 332.583 98.582C333.052 94.849 331.538 91.158 328.572 88.854L312.273 76.097L326.396 51.649L345.468 59.329C348.967 60.758 352.956 60.182 355.964 57.9C359.889 54.892 364.625 52.161 370.044 49.815C373.436 48.343 375.825 45.228 376.359 41.559L379.26 21.335H407.42L410.343 41.602C410.876 45.421 413.458 48.642 417.042 50.029C421.607 51.778 426.087 54.381 430.717 57.944C433.704 60.248 437.672 60.803 441.213 59.373L460.264 51.672L474.408 76.12L458.109 88.877C454.973 91.309 453.458 95.298 454.184 99.224C454.653 101.656 454.781 104.088 454.781 106.669C454.781 109.464 454.418 112.109 454.077 114.733C453.608 118.466 455.144 122.178 458.109 124.482L474.557 137.239L460.455 161.685Z" fill="#E5E5E5"/>
</g>
<defs>
<clipPath id="clip0">
<rect width="512" height="512" fill="white"/>
</clipPath>
</defs>
</svg>
