<svg width="512" height="512" viewBox="0 0 512 512" fill="none" xmlns="http://www.w3.org/2000/svg">
<path d="M469.469 127.586H464.279C461.211 116.811 456.925 106.473 451.478 96.6995L455.166 93.0096C459.387 88.7907 461.71 83.1639 461.71 77.165C461.71 71.1662 459.387 65.5403 455.163 61.3164L430.584 36.7661C426.363 32.5192 420.729 30.1812 414.719 30.1812C408.711 30.1812 403.076 32.5192 398.876 36.7451L395.191 40.43C385.41 34.9651 375.068 30.6712 364.301 27.6043V22.4154C364.302 10.0557 354.247 0 341.886 0H307.135C294.776 0 284.72 10.0557 284.72 22.4154V27.6043C273.954 30.6702 263.606 34.9651 253.806 40.434L250.138 36.7661C245.915 32.5192 240.281 30.1812 234.272 30.1822C228.263 30.1822 222.629 32.5212 218.429 36.7461L193.855 61.3214C189.634 65.5403 187.311 71.1672 187.311 77.166C187.311 83.1649 189.634 88.7907 193.854 93.0096L197.542 96.6985C192.071 106.502 187.783 116.842 184.732 127.586H179.523C167.164 127.586 157.108 137.642 157.108 150.001V184.782C157.108 197.142 167.164 207.198 179.523 207.198H184.732C187.783 217.94 192.071 228.28 197.542 238.085L193.854 241.774C189.633 245.993 187.31 251.62 187.31 257.618C187.31 263.616 189.633 269.243 193.853 273.462L218.408 298.017C222.629 302.264 228.262 304.602 234.271 304.602H234.272C240.281 304.602 245.916 302.264 250.117 298.038L253.805 294.35C263.615 299.823 273.963 304.112 284.719 307.162V312.369C284.719 324.729 294.775 334.784 307.134 334.784H341.885C354.245 334.784 364.301 324.729 364.301 312.369V307.162C375.059 304.111 385.399 299.824 395.191 294.354L398.855 298.017C403.076 302.264 408.71 304.602 414.718 304.602C420.728 304.602 426.363 302.263 430.559 298.042L455.166 273.462C459.386 269.242 461.709 263.615 461.709 257.617C461.709 251.619 459.386 245.993 455.166 241.774L451.477 238.084C456.924 228.31 461.209 217.972 464.278 207.198H469.468C481.828 207.198 491.883 197.142 491.883 184.782V150.001C491.884 137.642 481.83 127.586 469.469 127.586ZM344.302 312.368C344.302 313.678 343.196 314.784 341.886 314.784H307.135C305.825 314.784 304.719 313.678 304.719 312.368V299.385V236.344C304.719 232.162 302.117 228.422 298.197 226.968C271.326 217.002 253.273 191.141 253.273 162.616C253.273 140.009 264.529 118.818 283.379 105.933C284.225 105.355 284.973 104.883 285.627 104.496C285.591 105.796 285.499 107.032 285.45 107.677C285.375 108.692 285.315 109.493 285.315 110.288V157.484C285.315 179.146 302.241 197.238 323.848 198.671C324.289 198.7 324.731 198.7 325.172 198.671C346.763 197.239 363.677 179.147 363.677 157.484V110.288C363.677 109.497 363.618 108.701 363.544 107.692C363.496 107.044 363.404 105.801 363.369 104.495C364.021 104.881 364.765 105.352 365.608 105.929C384.462 118.817 395.719 140.008 395.719 162.615C395.719 191.137 377.675 216.999 350.82 226.968C346.901 228.423 344.3 232.162 344.3 236.343V299.384V312.368H344.302ZM471.885 184.782C471.885 186.069 470.756 187.198 469.469 187.198H456.515C451.843 187.198 447.794 190.433 446.763 194.99C443.596 208.983 438.111 222.214 430.46 234.317C427.962 238.269 428.536 243.425 431.842 246.731L441.027 255.915C441.623 256.511 441.712 257.237 441.712 257.617C441.712 257.996 441.623 258.723 441.03 259.315L416.401 283.917C415.838 284.483 415.175 284.602 414.719 284.602C414.264 284.602 413.602 284.483 413.018 283.895L403.834 274.71C400.523 271.4 395.362 270.83 391.41 273.334C382.874 278.743 373.788 283.035 364.302 286.207V242.995C395.325 228.557 415.72 197.095 415.72 162.614C415.72 133.398 401.206 106.034 376.896 89.4177C373.173 86.8728 361.848 79.13 351.943 84.8308C342.217 90.4307 343.186 103.557 343.599 109.163C343.635 109.65 343.67 110.059 343.678 110.288V157.484C343.678 168.43 335.312 177.606 324.511 178.661C313.694 177.605 305.315 168.429 305.315 157.484L305.314 110.36C305.323 110.059 305.359 109.65 305.395 109.161C305.812 103.558 306.789 90.4387 297.071 84.8358C287.171 79.125 275.829 86.8708 272.098 89.4177C247.787 106.035 233.273 133.399 233.273 162.615C233.273 197.101 253.68 228.565 284.72 242.999V286.208C275.231 283.036 266.134 278.742 257.573 273.33C255.927 272.29 254.076 271.783 252.233 271.783C249.65 271.783 247.088 272.782 245.159 274.712L235.955 283.917C235.392 284.484 234.729 284.603 234.273 284.603C233.817 284.603 233.156 284.484 232.572 283.897L207.997 259.32C207.4 258.724 207.311 257.997 207.311 257.618C207.311 257.238 207.4 256.512 207.997 255.915L217.18 246.731C220.486 243.425 221.06 238.269 218.562 234.317C210.873 222.15 205.389 208.925 202.264 195.007C201.24 190.442 197.186 187.197 192.507 187.197H179.525C178.238 187.197 177.109 186.068 177.109 184.781V150C177.109 148.69 178.215 147.584 179.525 147.584H192.507C197.186 147.584 201.239 144.339 202.264 139.774C205.389 125.857 210.872 112.63 218.562 100.464C221.06 96.5125 220.486 91.3567 217.18 88.0508L207.996 78.866C207.4 78.27 207.311 77.544 207.311 77.164C207.311 76.784 207.4 76.0581 207.997 75.4611L232.593 50.8637C233.156 50.2977 233.818 50.1787 234.274 50.1787C234.73 50.1787 235.392 50.2977 235.976 50.8847L245.16 60.0695C248.468 63.3764 253.624 63.9494 257.574 61.4514C269.725 53.7696 282.966 48.2748 296.924 45.1219C301.484 44.0919 304.721 40.041 304.721 35.3681V22.4154C304.721 21.1055 305.827 19.9995 307.137 19.9995H341.888C343.198 19.9995 344.304 21.1055 344.304 22.4154V35.3701C344.304 40.044 347.541 44.0939 352.1 45.1239C366.072 48.2798 379.297 53.7716 391.412 61.4484C395.365 63.9524 400.525 63.3824 403.836 60.0725L413.04 50.8667C413.603 50.3007 414.266 50.1817 414.721 50.1817C415.177 50.1817 415.839 50.3007 416.427 50.8917L441.029 75.4641C441.625 76.0601 441.714 76.786 441.714 77.166C441.714 77.546 441.625 78.272 441.028 78.869L431.844 88.0538C428.538 91.3597 427.964 96.5155 430.462 100.467C438.112 112.57 443.598 125.801 446.765 139.794C447.796 144.351 451.845 147.586 456.517 147.586H469.471C470.781 147.586 471.887 148.692 471.887 150.002V184.782H471.885Z" fill="#E5E5E5"/>
<path d="M382.776 440.31C378.871 444.215 378.871 450.547 382.776 454.453C384.729 456.405 387.288 457.382 389.847 457.382C392.406 457.382 394.965 456.405 396.918 454.453L396.946 454.425C400.851 450.52 400.837 444.202 396.931 440.297C393.025 436.392 386.681 436.407 382.776 440.31V440.31Z" fill="#E5E5E5"/>
<path d="M429.101 343.441L349.712 384.211C342.982 377.242 333.553 372.894 323.122 372.894H268.727C265.681 372.894 264.937 372.652 264.887 372.635C264.446 372.403 263.052 371.093 261.933 370.041L261.437 369.575C217.43 328.149 180.256 330.774 137.982 347.457C131.143 350.157 131.011 350.163 124.142 350.456L111.842 350.465C108.338 339.894 98.3665 332.245 86.6358 332.245H46.6408C32.0142 332.245 20.1155 344.157 20.1155 358.799V463.765C20.1155 478.391 32.0142 490.291 46.6408 490.291H86.6358C98.3655 490.291 108.336 482.65 111.841 472.092H134.341C136.328 472.092 136.328 472.092 138.638 472.743C139.478 472.98 140.5 473.268 141.82 473.623L245.312 501.31C249.874 502.542 254.058 503.755 258.104 504.927C271.364 508.769 282.51 511.999 294.127 511.999C307.256 511.999 320.985 507.873 339.041 495.839C339.128 495.781 339.215 495.721 339.301 495.66L359.059 481.572C363.556 478.365 364.602 472.121 361.395 467.624C358.188 463.126 351.942 462.081 347.448 465.288L327.822 479.283C301.618 496.711 290.492 493.49 263.67 485.718C259.538 484.521 255.267 483.283 250.506 481.997L147.006 454.309C145.794 453.983 144.843 453.715 144.063 453.495C140.287 452.431 138.875 452.095 134.342 452.095H113.19V370.473H123.997C124.141 370.473 124.283 370.47 124.427 370.464L124.997 370.44C133.38 370.082 135.725 369.853 145.326 366.062C182.454 351.41 211.114 349.669 247.743 384.151L248.238 384.616C254.498 390.499 258.102 392.895 268.728 392.895H323.123C329.507 392.895 335.073 396.439 337.975 401.66C338.006 401.718 338.042 401.773 338.074 401.831C339.37 404.228 340.108 406.97 340.108 409.882C340.108 419.232 332.49 426.839 323.124 426.839H234.969C229.447 426.839 224.969 431.316 224.969 436.839C224.969 442.362 229.447 446.839 234.969 446.839H323.124C343.517 446.839 360.108 430.26 360.108 409.882C360.108 407.112 359.792 404.416 359.212 401.819L438.238 361.235C445.718 357.395 455.945 357.807 461.023 366.047C465.515 373.31 463.044 382.963 455.279 388.499L420.613 413.189C416.114 416.393 415.064 422.636 418.268 427.135C420.219 429.874 423.297 431.335 426.422 431.335C428.429 431.335 430.455 430.732 432.214 429.48L466.884 404.788C483.35 393.049 488.142 371.872 478.04 355.541C468.106 339.419 447.069 334.218 429.101 343.441V343.441ZM93.1896 463.765C93.1896 467.303 90.1887 470.291 86.6358 470.291H46.6408C43.1029 470.291 40.115 467.302 40.115 463.765V358.8C40.115 355.186 43.0429 352.245 46.6408 352.245H86.6358C90.1887 352.245 93.1896 355.246 93.1896 358.8V463.765Z" fill="#E5E5E5"/>
</svg>
