<svg width="208" height="208" viewBox="0 0 208 208" fill="none" xmlns="http://www.w3.org/2000/svg">
<circle cx="104" cy="104" r="104" fill="#F8F8F8"/>
<g clip-path="url(#clip0)">
<path d="M188.573 129.591C187.694 127.979 185.747 127.426 184.224 128.357C182.246 129.566 179.994 130.206 177.71 130.206C173.069 130.206 168.745 127.563 166.425 123.308C165.856 122.265 164.805 121.622 163.668 121.622C162.53 121.622 161.479 122.265 160.911 123.308C160.622 123.838 160.301 124.343 159.953 124.821C156.79 106.712 150.677 90.1897 141.743 75.6351C133.815 62.7182 123.669 51.3287 111.586 41.7825C91.0279 25.5408 72.1784 20.3194 71.3863 20.105C70.3828 19.8334 69.3169 20.0959 68.5296 20.8084C67.7417 21.5209 67.3313 22.5944 67.4284 23.686C68.5401 36.1938 68.9047 51.6193 68.4832 68.2968C68.4793 68.4209 68.4812 68.5442 68.4898 68.6669C68.4917 68.6854 68.4949 68.7036 68.4962 68.7225C68.5042 68.8125 68.5137 68.9018 68.528 68.9905C68.5366 69.0427 68.5491 69.0936 68.5599 69.1452C68.5717 69.1988 68.5809 69.2523 68.5946 69.3053C68.6115 69.3703 68.6325 69.4333 68.6525 69.4967C68.6649 69.5351 68.6761 69.5745 68.6898 69.6126C68.7127 69.6773 68.7394 69.74 68.7668 69.8027C68.7824 69.8388 68.7961 69.8759 68.813 69.9112C68.8397 69.9682 68.8696 70.0235 68.8993 70.0784C68.9209 70.1185 68.941 70.1593 68.9639 70.1984C68.9913 70.2446 69.0212 70.2887 69.0502 70.3332C69.0807 70.3791 69.1094 70.4252 69.1415 70.4694C69.167 70.5051 69.1956 70.5385 69.2224 70.5732C69.2616 70.6231 69.3001 70.6726 69.3424 70.7201C69.3672 70.7481 69.394 70.7744 69.4195 70.8014C69.4666 70.8509 69.5134 70.9004 69.563 70.947C69.5911 70.9729 69.621 70.9962 69.6493 71.0214C69.699 71.0646 69.749 71.1087 69.8018 71.1488C69.8416 71.1795 69.8839 71.2065 69.9257 71.2351C69.9693 71.2655 70.0119 71.2971 70.0574 71.3251C70.1272 71.3683 70.1998 71.407 70.2727 71.4444C70.2921 71.4545 70.3105 71.4663 70.3306 71.4761C70.435 71.5273 70.5433 71.5728 70.6541 71.6123L82.8874 76.0736L70.3892 79.2293C70.3841 79.2303 70.38 79.2327 70.3749 79.2337C70.3032 79.2522 70.2338 79.2755 70.1641 79.2987C70.131 79.3098 70.0969 79.3193 70.0645 79.3314C70.0148 79.3499 69.9674 79.3725 69.919 79.3938C69.8674 79.416 69.8158 79.4366 69.7662 79.4615C69.7576 79.4655 69.7499 79.4706 69.742 79.475C69.1842 79.7601 68.7283 80.2043 68.4157 80.7433C68.3294 80.8919 68.2565 81.05 68.1925 81.2127C68.1769 81.2508 68.16 81.2879 68.146 81.3267C68.1317 81.3671 68.1212 81.4096 68.1088 81.451C68.0884 81.5154 68.0671 81.5794 68.0508 81.6452C68.0441 81.6704 68.0403 81.6964 68.0346 81.722C68.0152 81.8066 67.9973 81.8912 67.9843 81.9771C67.9817 81.9947 67.9811 82.0125 67.9786 82.0301C67.9655 82.1248 67.9556 82.2198 67.9505 82.3162C67.9499 82.3199 67.9493 82.3233 67.9493 82.327C66.991 101.19 65.1591 118.29 62.8698 129.946C59.2192 129.184 55.9852 126.785 54.0907 123.309C53.5218 122.266 52.4709 121.623 51.3337 121.623H51.333C50.1958 121.623 49.1449 122.266 48.576 123.309C46.2555 127.563 41.9315 130.206 37.2917 130.206C35.0065 130.206 32.7538 129.567 30.7764 128.358C29.2544 127.427 27.3069 127.979 26.4276 129.591C25.5477 131.203 26.0695 133.264 27.5916 134.195C30.5358 135.996 33.8897 136.947 37.2917 136.947C42.6443 136.947 47.7142 134.585 51.333 130.574C54.9464 134.58 60.009 136.941 65.3559 136.947C65.3632 136.947 65.3709 136.948 65.3782 136.948C65.3951 136.948 65.4116 136.946 65.4291 136.946C70.7623 136.93 75.8106 134.572 79.417 130.574C83.0358 134.585 88.106 136.947 93.4589 136.947C98.8118 136.947 103.882 134.585 107.5 130.574C111.12 134.585 116.191 136.947 121.543 136.947C126.896 136.947 131.966 134.585 135.584 130.574C137.888 133.127 140.78 135.008 143.958 136.041C144.111 136.103 144.27 136.151 144.433 136.187C146.105 136.682 147.849 136.947 149.626 136.947C152.99 136.947 156.24 136.014 159.09 134.326C159.262 134.241 159.423 134.138 159.575 134.024C161.073 133.076 162.454 131.92 163.669 130.574C167.287 134.584 172.357 136.947 177.711 136.947C181.112 136.947 184.465 135.996 187.41 134.196C188.931 133.264 189.452 131.203 188.573 129.591ZM149.626 130.207C149.038 130.207 148.455 130.164 147.881 130.081C146.67 122.498 144.557 112.256 141.028 102.764C140.384 101.032 138.536 100.18 136.9 100.862C135.263 101.543 134.459 103.5 135.103 105.232C137.377 111.347 139.312 118.619 140.793 126.54C139.839 125.61 139.005 124.528 138.34 123.309C137.771 122.266 136.72 121.624 135.583 121.624C134.445 121.624 133.394 122.266 132.826 123.309C130.506 127.564 126.182 130.206 121.543 130.206C116.902 130.206 112.577 127.563 110.256 123.309C109.687 122.266 108.636 121.624 107.499 121.624C106.361 121.624 105.311 122.266 104.742 123.309C102.422 127.564 98.0984 130.206 93.458 130.206C88.8175 130.206 84.4935 127.564 82.173 123.309C81.6041 122.266 80.5532 121.624 79.4154 121.624C78.2782 121.624 77.2273 122.266 76.659 123.309C75.0398 126.278 72.4445 128.458 69.4475 129.507C71.5378 118.145 73.2181 102.444 74.172 85.2033L95.0151 79.9408C96.3923 79.5929 97.3872 78.324 97.4563 76.8269C97.5253 75.3298 96.6518 73.9641 95.3131 73.4761L74.9035 66.033C75.1933 52.1737 74.9395 39.2099 74.1656 28.0904C76.2298 28.8518 78.9448 29.9384 82.1259 31.4086C82.4528 35.5416 82.7012 40.3532 82.818 44.9254C82.8651 46.7552 84.2806 48.2044 85.9991 48.2044C86.0284 48.2044 86.0577 48.2041 86.0866 48.2031C87.8443 48.1529 89.2304 46.6032 89.1827 44.7427C89.0974 41.4148 88.9446 37.9595 88.7424 34.7108C94.4767 37.7846 101.048 41.8671 107.778 47.1852C133.393 67.4229 149.007 95.0454 154.222 129.308C152.772 129.889 151.22 130.207 149.626 130.207Z" fill="black"/>
<path d="M96.2142 148.744C97.0936 147.132 96.5718 145.071 95.049 144.14C93.5257 143.21 91.5789 143.762 90.7002 145.374C88.3797 149.628 84.0557 152.271 79.4153 152.271C74.7748 152.271 70.4509 149.628 68.1303 145.373C67.5621 144.331 66.5105 143.688 65.3733 143.688C64.2361 143.688 63.1846 144.331 62.6163 145.374C60.2964 149.628 55.9724 152.271 51.332 152.271C46.6916 152.271 42.3676 149.628 40.0477 145.373C39.1684 143.761 37.2216 143.208 35.6989 144.139C34.1761 145.069 33.6543 147.13 34.533 148.743C37.9872 155.077 44.4239 159.012 51.332 159.012C56.6856 159.012 61.7551 156.649 65.3733 152.639C68.9921 156.649 74.0624 159.012 79.4153 159.012C86.3234 159.012 92.76 155.078 96.2142 148.744Z" fill="black"/>
<path d="M179.301 144.139C177.778 143.208 175.831 143.761 174.953 145.373C172.632 149.627 168.308 152.27 163.668 152.27C159.027 152.27 154.703 149.627 152.382 145.372C151.814 144.33 150.763 143.687 149.625 143.687C148.488 143.687 147.437 144.33 146.868 145.372C144.548 149.627 140.224 152.269 135.584 152.269C130.944 152.269 126.619 149.626 124.299 145.372C123.42 143.76 121.473 143.208 119.951 144.138C118.428 145.069 117.906 147.13 118.785 148.742C122.24 155.076 128.676 159.01 135.584 159.01C140.937 159.01 146.007 156.648 149.625 152.637C153.244 156.648 158.315 159.011 163.668 159.011C170.576 159.011 177.013 155.076 180.467 148.743C181.346 147.131 180.824 145.069 179.301 144.139Z" fill="black"/>
<path d="M137.175 166.205C135.652 165.274 133.705 165.827 132.826 167.439C130.506 171.693 126.182 174.336 121.541 174.336C116.9 174.336 112.576 171.693 110.256 167.438C109.688 166.396 108.637 165.753 107.499 165.753C106.362 165.753 105.311 166.396 104.742 167.438C102.422 171.692 98.099 174.335 93.4579 174.335C88.8175 174.335 84.4935 171.692 82.1736 167.438C81.2949 165.826 79.3481 165.274 77.8248 166.204C76.302 167.135 75.7802 169.196 76.6596 170.808C80.1131 177.141 86.5498 181.076 93.4582 181.076C98.8118 181.076 103.881 178.714 107.5 174.703C111.118 178.714 116.188 181.077 121.541 181.077C128.45 181.077 134.887 177.142 138.34 170.809C139.219 169.197 138.698 167.136 137.175 166.205Z" fill="black"/>
<path d="M131.281 96.6662C131.865 97.7659 132.945 98.3854 134.059 98.3854C134.583 98.3854 135.116 98.2475 135.607 97.958C137.142 97.0514 137.693 94.9985 136.836 93.373L136.791 93.2894C135.954 91.6703 134.039 91.0633 132.499 91.9359C130.948 92.8135 130.363 94.8556 131.192 96.497C131.218 96.5499 131.247 96.6035 131.281 96.6662Z" fill="black"/>
<path d="M86.041 50.8802C86.0404 50.8802 86.0397 50.8802 86.0397 50.8802C84.2961 50.8802 82.8797 52.3665 82.8561 54.2067C82.8138 56.0271 84.1499 57.5623 85.878 57.6546C85.9328 57.6576 85.9875 57.659 86.0416 57.659C87.7261 57.659 89.1326 56.26 89.2186 54.4592C89.2218 54.3911 89.2237 54.3163 89.2237 54.2485C89.2234 52.3874 87.7987 50.8809 86.041 50.8802Z" fill="black"/>
</g>
<defs>
<clipPath id="clip0">
<rect width="168" height="178" fill="white" transform="translate(21 12)"/>
</clipPath>
</defs>
</svg>
