<?xml version="1.0" encoding="UTF-8" standalone="no"?>
<!DOCTYPE svg PUBLIC "-//W3C//DTD SVG 1.1//EN" "http://www.w3.org/Graphics/SVG/1.1/DTD/svg11.dtd">
<svg width="100%" height="100%" viewBox="0 0 512 512" version="1.1" xmlns="http://www.w3.org/2000/svg" xmlns:xlink="http://www.w3.org/1999/xlink" xml:space="preserve" xmlns:serif="http://www.serif.com/" style="fill-rule:evenodd;clip-rule:evenodd;stroke-linejoin:round;stroke-miterlimit:2;">
    <g>
        <path d="M49.5,512C38.454,512 29.5,503.046 29.5,492C29.5,391.645 111.145,310 211.5,310L241.5,310C262.037,310 282.203,313.4 301.437,320.105C311.867,323.741 317.375,335.145 313.738,345.574C310.102,356.004 298.698,361.512 288.269,357.875C273.278,352.65 257.543,350 241.5,350L211.5,350C133.201,350 69.5,413.701 69.5,492C69.5,503.046 60.546,512 49.5,512ZM359.5,135C359.5,60.561 298.939,0 224.5,0C150.061,0 89.5,60.561 89.5,135C89.5,209.439 150.061,270 224.5,270C298.939,270 359.5,209.439 359.5,135ZM319.5,135C319.5,187.383 276.883,230 224.5,230C172.117,230 129.5,187.383 129.5,135C129.5,82.617 172.117,40 224.5,40C276.883,40 319.5,82.617 319.5,135Z" style="fill:rgb(229,229,229);fill-rule:nonzero;"/>
        <path d="M462.5,392L402.5,392L402.5,332C402.5,320.954 393.546,312 382.5,312C371.454,312 362.5,320.954 362.5,332L362.5,392L302.5,392C291.454,392 282.5,400.954 282.5,412C282.5,423.046 291.454,432 302.5,432L362.5,432L362.5,492C362.5,503.046 371.454,512 382.5,512C393.546,512 402.5,503.046 402.5,492L402.5,432L462.5,432C473.546,432 482.5,423.046 482.5,412C482.5,400.954 473.546,392 462.5,392Z" style="fill:rgb(0,236,255);fill-rule:nonzero;"/>
    </g>
</svg>
