<svg width="473" height="257" viewBox="0 0 473 257" fill="none" xmlns="http://www.w3.org/2000/svg">
<g filter="url(#filter0_d)">
<path d="M50.5001 347.069V362.561C38.5317 355.195 28.6053 344.941 21.6321 332.739C22.2081 332.933 22.7891 333.117 23.3781 333.286L44.6981 339.377C46.3668 339.86 47.8341 340.87 48.8801 342.257C49.9261 343.644 50.4945 345.332 50.5001 347.069ZM52.5871 221.053L42.9511 227.939C33.4655 234.717 25.6314 243.548 20.0322 253.774C14.433 264 11.213 275.357 10.6121 287H42.6921C43.2735 280.245 45.3113 273.697 48.6653 267.805C52.0193 261.913 56.6098 256.817 62.1211 252.869L75.3111 243.45C82.4761 238.334 88.3171 231.582 92.3501 223.756C96.3831 215.93 98.4911 207.256 98.5001 198.452C98.5091 189.648 96.4181 180.969 92.4011 173.134C88.3841 165.3 82.5571 158.537 75.4031 153.406C57.1271 140.253 33.2841 142.406 11.9031 143.206C13.9131 149.195 18.9811 153.767 24.6411 156.574C37.2011 162.804 50.5411 161.755 59.8051 174.019C64.1691 179.771 66.5205 186.799 66.4971 194.019C66.4936 199.306 65.23 204.517 62.8109 209.218C60.3919 213.919 56.8871 217.976 52.5871 221.053ZM402.03 148.382C395.129 151.687 388.985 156.38 383.982 162.169C378.978 167.957 375.224 174.716 372.953 182.023C368.946 195.893 370.261 210.76 376.64 223.712C380.68 231.55 386.525 238.316 393.693 243.452C409.252 254.58 424.505 266.072 426.308 287H458.388C457.811 276.033 454.92 265.312 449.906 255.541C442.421 240.998 429.715 230.559 416.406 221.049C401.434 210.349 398.116 188.679 409.195 174.016C413.553 168.266 419.653 164.079 426.585 162.079L441.22 157.897C444.857 156.847 448.193 154.95 450.953 152.36C453.714 149.77 455.82 146.562 457.1 143H425.88C417.708 142.979 409.634 144.784 402.248 148.283C402.176 148.317 402.1 148.35 402.03 148.382ZM178.5 191C181.665 191 184.758 190.062 187.389 188.304C190.02 186.545 192.071 184.047 193.282 181.123C194.493 178.199 194.81 174.982 194.193 171.879C193.575 168.775 192.051 165.924 189.814 163.686C187.576 161.449 184.725 159.925 181.621 159.307C178.518 158.69 175.301 159.007 172.377 160.218C169.453 161.429 166.955 163.48 165.196 166.111C163.438 168.742 162.5 171.835 162.5 175C162.505 179.242 164.192 183.309 167.192 186.308C170.191 189.308 174.258 190.995 178.5 191ZM447.37 332.738C446.793 332.932 446.211 333.117 445.622 333.285L424.3 339.377C422.632 339.86 421.165 340.87 420.119 342.257C419.073 343.644 418.505 345.332 418.5 347.069V362.561C430.469 355.194 440.396 344.94 447.37 332.738ZM339.683 227.147C338.897 231.049 338.501 235.02 338.5 239V291C338.501 297.642 340.339 304.154 343.811 309.816C347.283 315.478 352.254 320.069 358.174 323.081C362.206 312.523 369.333 303.429 378.623 296.991C387.912 290.554 398.93 287.074 410.232 287.007C409.682 282.809 408.276 278.768 406.1 275.136C403.924 271.504 401.025 268.357 397.583 265.892C383.65 255.942 370.458 246.681 362.415 231.038C357.222 220.935 354.508 209.74 354.5 198.38C354.5 198.327 354.5 198.274 354.5 198.221C346.987 206.311 341.859 216.323 339.683 227.147ZM178.5 375V345.055C164.503 366.837 142.615 382.352 117.427 388.345C120.47 394.98 125.691 400.375 132.223 403.634C138.755 406.893 146.205 407.821 153.337 406.262C160.468 404.704 166.852 400.754 171.43 395.067C176.007 389.381 178.502 382.3 178.5 375ZM290.5 345.055V375C290.498 382.3 292.993 389.381 297.57 395.067C302.148 400.754 308.532 404.704 315.663 406.262C322.795 407.821 330.245 406.893 336.777 403.634C343.309 400.375 348.53 394.98 351.573 388.345C326.385 382.352 304.497 366.837 290.5 345.055ZM146.5 423C159.226 422.986 171.427 417.924 180.425 408.925C189.424 399.927 194.486 387.726 194.5 375V239H178.5V291C178.445 309.785 172.118 328.013 160.524 342.792C148.929 357.572 132.731 368.056 114.5 372.581V343C114.5 341.678 114.438 340.372 114.347 339.073C123.859 335.137 131.99 328.469 137.713 319.912C143.437 311.356 146.494 301.294 146.5 291V239C146.5 228.73 144.787 217.175 151.4 208.462C152.4 207.137 158.762 200.228 160.285 201.286C164.41 204.145 169.15 205.993 174.121 206.682C179.093 207.37 184.157 206.879 188.903 205.248C193.65 203.618 197.947 200.893 201.445 197.295C204.944 193.696 207.548 189.325 209.045 184.535C210.542 179.744 210.891 174.669 210.063 169.718C209.236 164.768 207.256 160.082 204.282 156.038C201.309 151.995 197.426 148.708 192.947 146.443C188.468 144.178 183.519 142.999 178.5 143V99.73C178.528 75.145 188.307 51.5751 205.691 34.191C223.075 16.8068 246.645 7.0281 271.23 7H301.77C326.355 7.0281 349.925 16.8068 367.309 34.191C384.693 51.5751 394.472 75.145 394.5 99.73V119C394.501 124.559 393.726 130.091 392.2 135.436C376.613 143.809 364.673 157.652 358.681 174.3C343.037 181.884 331.648 196.394 325.802 212.573C320.536 227.149 322.502 243.806 322.502 259.088V291C322.508 301.294 325.565 311.356 331.289 319.912C337.012 328.469 345.143 335.137 354.655 339.073C354.564 340.373 354.502 341.678 354.502 343V372.581C336.27 368.056 320.072 357.572 308.477 342.793C296.882 328.013 290.555 309.785 290.5 291V239H274.5V375C274.5 387.73 279.557 399.939 288.559 408.941C297.561 417.943 309.77 423 322.5 423C335.23 423 347.439 417.943 356.441 408.941C365.443 399.939 370.5 387.73 370.5 375V343C370.512 332.395 374.73 322.228 382.229 314.729C389.728 307.23 399.895 303.012 410.5 303H457.1C455.821 306.562 453.715 309.77 450.955 312.361C448.195 314.951 444.859 316.849 441.223 317.9L419.904 323.991C397.233 330.468 402.5 357.217 402.5 375C402.5 396.217 394.071 416.566 379.069 431.569C364.066 446.571 343.717 455 322.5 455C301.283 455 280.934 446.571 265.931 431.569C250.929 416.566 242.5 396.217 242.5 375V239H226.5V375C226.5 396.217 218.071 416.566 203.069 431.569C188.066 446.571 167.717 455 146.5 455C125.283 455 104.934 446.571 89.9311 431.569C74.9286 416.566 66.5001 396.217 66.5001 375C66.5001 357.4 71.2571 330.325 49.0941 323.992L27.7741 317.9C24.1383 316.849 20.8037 314.95 18.0442 312.36C15.2848 309.77 13.1791 306.562 11.9001 303H58.5001C69.1051 303.012 79.2723 307.23 86.7711 314.729C94.2701 322.228 98.4881 332.395 98.5001 343V375C98.5141 387.726 103.576 399.927 112.575 408.925C121.573 417.924 133.774 422.986 146.5 423ZM250.5 175C250.5 181.329 252.377 187.516 255.893 192.778C259.409 198.041 264.407 202.142 270.254 204.564C276.101 206.986 282.535 207.62 288.743 206.385C294.95 205.15 300.652 202.103 305.127 197.627C309.603 193.152 312.65 187.45 313.885 181.243C315.12 175.035 314.486 168.601 312.064 162.754C309.642 156.907 305.541 151.909 300.278 148.393C295.016 144.877 288.829 143 282.5 143C274.016 143.01 265.882 146.384 259.883 152.383C253.884 158.382 250.51 166.516 250.5 175ZM246.972 26.93L252.04 42.105C258.227 40.0421 264.708 38.9936 271.23 39V23C262.985 22.9927 254.793 24.3199 246.972 26.93ZM210.5 99.73C210.543 89.249 213.28 78.955 218.447 69.8364C223.615 60.7177 231.04 53.0805 240.009 47.658L231.755 33.951C220.428 40.8028 211.053 50.4514 204.529 61.9704C198.005 73.4893 194.551 86.492 194.5 99.73H210.5ZM282.5 191C285.665 191 288.758 190.062 291.389 188.304C294.02 186.545 296.071 184.047 297.282 181.123C298.493 178.199 298.81 174.982 298.193 171.879C297.575 168.775 296.051 165.924 293.814 163.686C291.576 161.449 288.725 159.925 285.621 159.307C282.518 158.69 279.301 159.007 276.377 160.218C273.453 161.429 270.955 163.48 269.196 166.111C267.438 168.742 266.5 171.835 266.5 175C266.505 179.242 268.192 183.309 271.192 186.308C274.191 189.308 278.258 190.995 282.5 191Z" fill="#00ECFF"/>
</g>
<defs>
<filter id="filter0_d" x="-24" y="-25" width="520" height="520" filterUnits="userSpaceOnUse" color-interpolation-filters="sRGB">
<feFlood flood-opacity="0" result="BackgroundImageFix"/>
<feColorMatrix in="SourceAlpha" type="matrix" values="0 0 0 0 0 0 0 0 0 0 0 0 0 0 0 0 0 0 127 0"/>
<feOffset dy="4"/>
<feGaussianBlur stdDeviation="2"/>
<feColorMatrix type="matrix" values="0 0 0 0 0 0 0 0 0 0 0 0 0 0 0 0 0 0 0.25 0"/>
<feBlend mode="normal" in2="BackgroundImageFix" result="effect1_dropShadow"/>
<feBlend mode="normal" in="SourceGraphic" in2="effect1_dropShadow" result="shape"/>
</filter>
</defs>
</svg>
