<svg width="512" height="512" viewBox="0 0 512 512" fill="none" xmlns="http://www.w3.org/2000/svg">
<path d="M433.768 299.968C434.064 299.676 434.384 299.408 434.68 299.112C434.72 299.072 434.748 299.02 434.792 298.98C505.192 228.456 512.792 121.428 451.692 60.32C422 30.612 380.684 16.108 335.304 19.472C288.969 23.4917 245.605 43.9705 213.064 77.2C213.012 77.248 212.952 77.28 212.904 77.332C212.552 77.68 212.232 78.064 211.884 78.416C209.484 80.8427 207.163 83.3187 204.92 85.844L204.828 85.952C184.753 108.191 169.974 134.687 161.6 163.452L161.568 163.536C147.568 203.716 141.7 245.324 136.54 282.028C132.588 310.156 129.076 334.992 122.768 349.696C121.534 349.269 120.204 349.198 118.931 349.49C117.658 349.782 116.493 350.426 115.568 351.348L21.064 445.856C20.4134 446.506 19.8973 447.277 19.5452 448.127C19.1931 448.976 19.0118 449.887 19.0118 450.806C19.0118 451.725 19.1931 452.636 19.5452 453.485C19.8973 454.335 20.4134 455.106 21.064 455.756L56.264 490.956C56.9138 491.607 57.6854 492.123 58.5347 492.475C59.3841 492.827 60.2945 493.008 61.214 493.008C62.1335 493.008 63.0439 492.827 63.8933 492.475C64.7426 492.123 65.5143 491.607 66.164 490.956L139.916 417.2L160.66 396.456C160.989 396.127 161.284 395.765 161.54 395.376C161.69 395.126 161.824 394.867 161.94 394.6C162.012 394.456 162.104 394.32 162.164 394.172C162.278 393.874 162.372 393.567 162.444 393.256C162.48 393.124 162.532 392.996 162.56 392.856C162.648 392.416 162.692 391.969 162.692 391.52V391.5C162.691 391.043 162.645 390.588 162.556 390.14C162.532 390.012 162.476 389.892 162.444 389.764C162.412 389.636 162.352 389.424 162.292 389.256C177 382.948 201.836 379.436 229.96 375.484C266.668 370.324 308.268 364.472 348.44 350.46L348.532 350.428C377.318 342.043 403.83 327.248 426.08 307.152C428.712 304.82 431.268 302.44 433.768 299.968V299.968ZM336.344 33.436C340.288 33.14 344.196 32.9933 348.068 32.996C365.38 32.6605 382.585 35.7796 398.678 42.1711C414.771 48.5625 429.428 58.098 441.792 70.22C497.472 125.904 489.84 224.136 424.776 289.2C424.492 289.484 424.196 289.748 423.908 290.032C403.536 310.116 377.428 325.548 344.1 337.148C333.373 340.195 322.367 342.157 311.248 343.004C270.048 346.068 232.584 333.004 205.796 306.204C179.008 279.404 165.944 241.972 168.996 200.756C169.844 189.64 171.805 178.637 174.848 167.912C186.42 134.668 201.808 108.608 221.816 88.256C222.152 87.916 222.464 87.564 222.8 87.228C252.994 56.2907 293.279 37.2051 336.344 33.436V33.436ZM120.52 366.196L145.82 391.496L134.976 402.34L109.676 377.04L120.52 366.196ZM61.2 476.104L35.912 450.8L99.776 386.94L125.076 412.24L61.2 476.104ZM228.04 361.6C195.308 366.204 168.8 369.952 152.532 378.4L133.6 359.484C142.04 343.216 145.788 316.712 150.4 283.976C152.356 270.064 154.424 255.432 156.992 240.476C161.756 269.139 175.367 295.594 195.919 316.133C216.471 336.673 242.934 350.269 271.6 355.016C256.616 357.6 241.964 359.656 228.04 361.6V361.6Z" fill="#00ECFF"/>
<path d="M198.092 137.044C189.104 153.711 183.049 171.8 180.192 190.52C179.967 191.222 179.854 191.955 179.856 192.692C179.232 197.353 178.832 201.997 178.656 206.624C178.534 207.318 178.518 208.026 178.608 208.724C178.04 226.531 181.122 244.265 187.664 260.836C187.755 261.085 187.859 261.33 187.976 261.568C193.682 275.592 202.12 288.341 212.8 299.072C212.824 299.096 212.844 299.132 212.872 299.16C212.9 299.188 212.932 299.204 212.96 299.232C224.388 310.426 237.932 319.231 252.801 325.132C267.67 331.033 283.566 333.912 299.56 333.6C301.024 333.6 302.508 333.548 303.988 333.5H304.084H304.244C306.936 333.412 309.64 333.276 312.372 333.04C315.104 332.804 317.868 332.464 320.604 332.072L320.864 332.032C357.669 326.266 391.628 308.77 417.688 282.148C444.325 256.081 461.831 222.108 467.6 185.288C467.6 185.204 467.624 185.12 467.64 185.036C468.04 182.296 468.364 179.548 468.604 176.796C468.844 174.044 469.004 171.272 469.076 168.536V168.5C470.188 132.9 458.172 100.768 434.752 77.332L434.728 77.296L434.7 77.276C409.456 52.04 374.132 40 335.224 43.404C295.229 47.4977 257.945 65.5169 229.888 94.312C217.625 106.552 207.173 120.481 198.848 135.676C198.544 136.101 198.29 136.56 198.092 137.044V137.044ZM234.94 109.264L254.62 128.944L229.2 154.372L213.296 138.48C219.432 127.987 226.689 118.191 234.94 109.264V109.264ZM274.024 77.696L289.948 93.616L264.516 119.044L244.836 99.364C253.758 91.1128 263.544 83.8481 274.024 77.696V77.696ZM348 56.844C359.276 56.803 370.499 58.3859 381.324 61.544L364.8 78.032L345.056 58.288L346.468 56.876C346.98 56.872 347.488 56.844 348 56.844V56.844ZM419.704 82.444L394.472 107.68L374.728 87.936L395.724 66.944C404.406 70.9467 412.475 76.1643 419.688 82.44L419.704 82.444ZM445.104 116.332L424.116 137.32L404.372 117.576L429.604 92.344C435.877 99.5634 441.091 107.639 445.088 116.328L445.104 116.332ZM441.152 225.016L428.328 212.188L453.108 187.388C450.803 200.405 446.777 213.057 441.136 225.012L441.152 225.016ZM412.652 267.2L392.984 247.532L418.412 222.104L434.32 238C428.17 248.485 420.905 258.275 412.652 267.2V267.2ZM373.564 298.764L357.656 282.856L383.084 257.432L402.752 277.1C393.83 285.344 384.044 292.601 373.564 298.744V298.764ZM266.324 314.908L282.8 298.424L302.544 318.168L301.164 319.544C289.383 319.74 277.64 318.171 266.324 314.888V314.908ZM227.924 294.032L253.156 268.8L272.896 288.544L251.916 309.528C243.219 305.518 235.138 300.29 227.916 294L227.924 294.032ZM202.548 260.124L223.512 239.16L243.256 258.904L218 284.116C211.728 276.89 206.522 268.804 202.54 260.104L202.548 260.124ZM333.708 188.248L359.128 162.8L378.872 182.544L353.444 207.972L333.708 188.248ZM343.552 217.892L318.124 243.32L298.38 223.576L323.808 198.148L343.552 217.892ZM323.8 178.328L304.056 158.588L329.488 133.156L349.228 152.9L323.8 178.328ZM313.904 188.228L288.476 213.656L268.732 193.912L294.16 168.484L313.904 188.228ZM278.576 223.556L253.148 248.984L233.404 229.24L258.832 203.812L278.576 223.556ZM288.476 233.452L308.22 253.2L282.8 278.624L263.048 258.88L288.476 233.452ZM318.116 263.096L337.86 282.836L312.432 308.268L292.688 288.524L318.116 263.096ZM328 253.2L353.428 227.772L373.2 247.512L347.76 272.94L328 253.2ZM363.324 217.876L388.756 192.444L408.496 212.188L383.084 237.6L363.324 217.876ZM398.652 182.548L424.08 157.12L443.824 176.86L418.4 202.284L398.652 182.548ZM388.756 172.648L369.012 152.904L394.436 127.476L414.2 147.2L388.756 172.648ZM359.128 143L339.384 123.26L364.8 97.832L384.544 117.576L359.128 143ZM329.488 113.36L309.744 93.6L335.168 68.172L354.916 87.916L329.488 113.36ZM319.6 123.26L294.16 148.688L274.4 128.944L299.828 103.516L319.6 123.26ZM284.272 158.588L258.832 184L239.088 164.256L264.516 138.828L284.272 158.588ZM248.944 193.912L223.516 219.34L203.76 199.6L229.2 174.172L248.944 193.912ZM192.5 210.86L193.86 209.5L213.6 229.24L197.2 245.668C193.916 234.363 192.332 222.632 192.5 210.86V210.86ZM322.98 317.516L347.76 292.716L360.584 305.54C348.636 311.182 335.99 315.21 322.98 317.516V317.516ZM455.124 165.572L453.74 166.956L434 147.2L450.476 130.724C453.754 142.043 455.321 153.789 455.124 165.572V165.572ZM324.644 58.92L299.844 83.72L287.008 70.88C298.967 65.2413 311.624 61.2193 324.644 58.92V58.92ZM219.292 164.272L194.548 189.016C196.865 176.032 200.882 163.411 206.496 151.476L219.292 164.272Z" fill="#00ECFF"/>
</svg>
