<svg width="239" height="225" viewBox="0 0 239 225" fill="none" xmlns="http://www.w3.org/2000/svg">
<path d="M220.633 52.9319C220.633 52.8582 220.633 52.7764 220.546 52.7028C220.074 51.758 219.49 50.8659 218.808 50.0431C207.898 34.6369 193.114 22.0072 175.77 13.2767C158.426 4.54618 139.059 -0.0145416 119.392 3.48307e-05C99.7243 0.0146112 80.3653 4.60402 63.0359 13.3602C45.7065 22.1164 30.9437 34.7681 20.0598 50.1905C19.4208 50.9718 18.8702 51.8138 18.417 52.7028V52.7682C6.38726 70.6348 0 91.3528 0 112.507C0 133.66 6.38726 154.378 18.417 172.245V172.31C18.8679 173.207 19.4216 174.055 20.0685 174.839C31.052 190.403 45.9864 203.14 63.5187 211.898C81.051 220.657 100.627 225.158 120.474 224.996C140.321 224.833 159.811 220.012 177.179 210.968C194.547 201.924 209.243 188.943 219.938 173.202C220.138 172.883 220.416 172.63 220.581 172.294C220.615 172.219 220.644 172.143 220.668 172.065C232.643 154.234 239 133.57 239 112.474C239 91.3775 232.643 70.7138 220.668 52.8827L220.633 52.9319ZM38.7394 147.859C33.2186 136.817 30.356 124.764 30.356 112.56C30.356 100.356 33.2186 88.3026 38.7394 77.2609C90.4443 97.3045 148.467 97.3045 200.171 77.2609C205.692 88.2983 208.555 100.348 208.555 112.547C208.555 124.747 205.692 136.797 200.171 147.834C148.431 127.962 90.4819 127.959 38.7394 147.826V147.859ZM182.161 53.0792C141.646 67.028 97.1951 67.028 56.6801 53.0792C73.3427 37.4539 95.9026 28.6809 119.421 28.6809C142.939 28.6809 165.499 37.4539 182.161 53.0792V53.0792ZM56.7149 172.016C97.227 158.068 141.675 158.068 182.187 172.016C165.525 187.639 142.967 196.41 119.451 196.41C95.9352 196.41 73.3771 187.639 56.7149 172.016Z" fill="#00ECFF"/>
</svg>
