<svg width="512" height="512" viewBox="0 0 512 512" fill="none" xmlns="http://www.w3.org/2000/svg">
<path d="M331 497V315C331 306.716 324.284 300 316 300H196C187.716 300 181 306.716 181 315V497C181 505.284 187.716 512 196 512H316C324.284 512 331 505.284 331 497ZM301 482H211V330H301V482Z" fill="#E5E5E5"/>
<path d="M376 0C362.456 0 149.194 0 136 0C127.716 0 121 6.716 121 15C121 60.109 149.99 100.094 192.236 114.427C202.947 131.686 220.455 144.304 241 148.491V180H226C201.187 180 181 200.187 181 225V255C181 263.284 187.716 270 196 270H316C324.284 270 331 263.284 331 255V225C331 200.187 310.813 180 286 180H271V148.491C291.545 144.304 309.053 131.686 319.764 114.427C362.01 100.094 391 60.109 391 15C391 6.716 384.284 0 376 0V0ZM301 225V240H211V225C211 216.729 217.729 210 226 210H286C294.271 210 301 216.729 301 225ZM152.518 30H181V75.002C166.477 64.072 156.216 48.075 152.518 30V30ZM256 120C231.187 120 211 99.813 211 75V30H301V75C301 99.813 280.813 120 256 120ZM331 75.002C331 75.001 331 29.99 331 29.99L359.482 30C355.784 48.075 345.523 64.072 331 75.002Z" fill="#E5E5E5"/>
<path d="M436 90C427.716 90 421 96.716 421 105V120H406C397.716 120 391 126.716 391 135C391 143.284 397.716 150 406 150H421V165C421 173.284 427.716 180 436 180C444.284 180 451 173.284 451 165V150H466C474.284 150 481 143.284 481 135C481 126.716 474.284 120 466 120H451V105C451 96.716 444.284 90 436 90Z" fill="#E5E5E5"/>
<path d="M76 60C67.716 60 61 66.716 61 75V90H46C37.716 90 31 96.716 31 105C31 113.284 37.716 120 46 120H61V135C61 143.284 67.716 150 76 150C84.284 150 91 143.284 91 135V120H106C114.284 120 121 113.284 121 105C121 96.716 114.284 90 106 90H91V75C91 66.716 84.284 60 76 60Z" fill="#E5E5E5"/>
<path d="M497 361H376C367.716 361 361 367.716 361 376V497C361 505.284 367.716 512 376 512H497C505.284 512 512 505.284 512 497V376C512 367.716 505.284 361 497 361ZM482 482H391V391H482V482Z" fill="#E5E5E5"/>
<path d="M15 512H136C144.284 512 151 505.284 151 497V437C151 428.716 144.284 422 136 422H15C6.716 422 0 428.716 0 437V497C0 505.284 6.716 512 15 512ZM30 452H121V482H30V452Z" fill="#E5E5E5"/>
</svg>
