<svg width="512" height="512" viewBox="0 0 512 512" fill="none" xmlns="http://www.w3.org/2000/svg">
<path d="M192 224.332C133.184 224.332 85.332 176.484 85.332 117.668C85.332 58.8516 133.184 11 192 11C250.816 11 298.668 58.8516 298.668 117.668C298.668 176.484 250.816 224.332 192 224.332V224.332ZM192 43C150.828 43 117.332 76.4922 117.332 117.668C117.332 158.84 150.828 192.332 192 192.332C233.172 192.332 266.668 158.84 266.668 117.668C266.668 76.4922 233.172 43 192 43V43Z" fill="#E5E5E5"/>
<path d="M474.668 501.668H357.332C336.746 501.668 320 484.922 320 464.332V389.668C320 369.078 336.746 352.332 357.332 352.332H474.668C495.254 352.332 512 369.078 512 389.668V464.332C512 484.922 495.254 501.668 474.668 501.668ZM357.332 384.332C354.391 384.332 352 386.723 352 389.668V464.332C352 467.277 354.391 469.668 357.332 469.668H474.668C477.609 469.668 480 467.277 480 464.332V389.668C480 386.723 477.609 384.332 474.668 384.332H357.332Z" fill="#00ECFF"/>
<path d="M453.332 384.332H378.668C369.836 384.332 362.668 377.164 362.668 368.332V320.332C362.668 290.938 386.602 267 416 267C445.398 267 469.332 290.938 469.332 320.332V368.332C469.332 377.164 462.164 384.332 453.332 384.332ZM394.668 352.332H437.332V320.332C437.332 308.578 427.754 299 416 299C404.246 299 394.668 308.578 394.668 320.332V352.332Z" fill="#00ECFF"/>
<path d="M266.668 459H16C7.16797 459 0 451.832 0 443V368.332C0 312.461 45.4609 267 101.332 267H288C305.836 267 323.391 271.715 338.754 280.652C346.391 285.09 348.969 294.883 344.535 302.52C340.098 310.18 330.305 312.738 322.645 308.301C312.172 302.223 300.18 299 288 299H101.332C63.1055 299 32 330.105 32 368.332V427H266.668C275.5 427 282.668 434.168 282.668 443C282.668 451.832 275.5 459 266.668 459V459Z" fill="#E5E5E5"/>
</svg>
