<svg width="512" height="512" viewBox="0 0 512 512" fill="none" xmlns="http://www.w3.org/2000/svg">
<path d="M330.972 15C330.972 6.716 324.256 0 315.972 0H134.972C126.688 0 119.972 6.716 119.972 15V242H104.972C80.159 242 59.972 262.187 59.972 287V302H44.972C16.071 302 -5.42801 328.786 1.25199 357.678C1.27199 357.765 1.29299 357.851 1.31399 357.938L31.313 477.938C36.328 497.993 54.281 512 74.972 512H375.972C384.256 512 390.972 505.284 390.972 497V317C390.972 308.716 384.256 302 375.972 302H315.972C307.688 302 300.972 308.716 300.972 317V332H263L225.265 275.397C211.323 254.485 187.995 242 162.861 242H149.972V180H300.972V195C300.972 203.284 307.688 210 315.972 210H496.972C502.738 210 507.993 206.695 510.492 201.498C512.99 196.301 512.288 190.132 508.685 185.629L456.181 120L508.685 54.371C512.288 49.868 512.99 43.7 510.492 38.502C507.994 33.305 502.738 30 496.972 30H330.972V15ZM89.972 287C89.972 278.729 96.701 272 104.972 272H119.972V302H89.972V287ZM330.972 332H360.972V482H330.972V332ZM162.861 272C177.941 272 191.938 279.491 200.303 292.039L242.491 355.321C245.272 359.494 249.956 362.001 254.971 362.001H300.971V482.001H74.971C68.071 482.001 62.086 477.339 60.417 470.663L55.753 452H104.972C113.256 452 119.972 445.284 119.972 437C119.972 428.716 113.256 422 104.972 422H48.253L40.753 392H89.972C98.256 392 104.972 385.284 104.972 377C104.972 368.716 98.256 362 89.972 362H33.253L30.456 350.812C28.152 340.573 35.604 332 44.972 332H164.972C173.256 332 179.972 325.284 179.972 317C179.972 308.716 173.256 302 164.972 302H149.972V272H162.861ZM149.972 30H300.972V150H149.972V30ZM465.763 60L425.259 110.629C420.876 116.108 420.876 123.892 425.259 129.37L465.763 180H330.972C330.972 166.012 330.972 78.246 330.972 60H465.763Z" fill="#E5E5E5"/>
</svg>
